mtllib material.mtl
usemtl mtl_butterfly_r
v -0.05776995 0.03052334 -0.04750000
v -0.05740932 0.02826586 -0.04750000
v -0.04781571 0.02581398 -0.04750000
v -0.04460790 0.02705505 -0.04750000
v -0.04449598 0.03388226 -0.04750000
v -0.04621812 0.02675787 -0.04750000
v -0.04955180 0.03589734 -0.04750000
v -0.05179778 0.03632370 -0.04750000
v -0.05404022 0.03587900 -0.04750000
v -0.04970493 0.02469151 -0.04750000
v -0.05187161 0.02432455 -0.04750000
v -0.05610662 0.02439398 -0.04750000
v -0.05595355 0.03462783 -0.04750000
v -0.05726001 0.03275183 -0.04750000
v -0.04206714 0.03291419 -0.04719665
v -0.04345476 0.02694157 -0.04743309
v -0.04257263 0.02666202 -0.04728941
v -0.03989179 0.02552993 -0.04630499
v -0.03978565 0.03200487 -0.04630499
v -0.01435570 -0.02158392 -0.04250000
v 0.00537930 -0.01400226 -0.04250000
v 0.00537930 -0.01400226 -0.03350000
v -0.01435570 -0.02158392 -0.03350000
v -0.01681594 -0.02252907 -0.03380335
v -0.01912689 -0.02341687 -0.03469501
v -0.02369717 -0.02517265 -0.05500000
v -0.04314182 -0.03264278 -0.04719665
v -0.04999605 -0.03527598 -0.05500000
v -0.04560203 -0.03358792 -0.04750000
v -0.04999605 -0.03527598 -0.04750000
v -0.01435570 -0.02158392 -0.05271953
v -0.02089268 -0.02409526 -0.05460394
v -0.04083087 -0.03175497 -0.04630499
v -0.02041728 0.00613371 -0.05460979
v -0.02055450 0.00706729 -0.05465404
v -0.01364799 0.02158722 -0.05271953
v -0.02105335 0.00849353 -0.05480554
v -0.02208055 0.01015487 -0.05511142
v -0.02040506 0.00565003 -0.05460394
v -0.04250423 0.02438795 -0.06110394
v -0.04236253 0.03303194 -0.06110394
v -0.02672417 0.01420713 -0.05647779
v -0.02390182 0.01208855 -0.05564896
v -0.01364799 0.02158722 -0.04250000
v 0.00555366 0.01393400 -0.03350000
v 0.00555366 0.01393400 -0.04250000
v -0.01364799 0.02158722 -0.03350000
v -0.01607687 0.02255526 -0.03380335
v -0.04955180 0.03589734 -0.06150000
v -0.04513125 0.03413545 -0.06150000
v -0.01835836 0.02346461 -0.03469501
v 0.00938330 0.01213253 -0.03350000
v 0.00938330 0.01213253 -0.04250000
v 0.01296785 0.00988247 -0.03350000
v 0.01296785 0.00988247 -0.04250000
v 0.01625498 0.00721674 -0.03350000
v 0.01625498 0.00721674 -0.04250000
v 0.01805284 0.00502379 -0.03350000
v 0.01805284 0.00502379 -0.04250000
v 0.01916282 0.00241435 -0.03350000
v 0.01916282 0.00241435 -0.04250000
v 0.01949570 -0.00040175 -0.03350000
v 0.01949570 -0.00040175 -0.04250000
v 0.01902470 -0.00319806 -0.03350000
v 0.01902470 -0.00319806 -0.04250000
v 0.01778770 -0.00574974 -0.03350000
v 0.01778770 -0.00574974 -0.04250000
v 0.01588415 -0.00785158 -0.03350000
v 0.01588415 -0.00785158 -0.04250000
v 0.01088276 -0.01135569 -0.03350000
v 0.01088276 -0.01135569 -0.04250000
v -0.05224719 -0.03567427 -0.04750000
v -0.05224719 -0.03567427 -0.05500000
v -0.05448388 -0.03520161 -0.04750000
v -0.05448388 -0.03520161 -0.05500000
v -0.05638145 -0.03392667 -0.04750000
v -0.05638145 -0.03392667 -0.05500000
v -0.05766439 -0.03203450 -0.04750000
v -0.05766439 -0.03203450 -0.05500000
v -0.05814647 -0.02979980 -0.04750000
v -0.05814647 -0.02979980 -0.05500000
v -0.05775769 -0.02754700 -0.04750000
v -0.05775769 -0.02754700 -0.05500000
v -0.05313309 0.01041331 -0.05593692
v -0.05291096 0.00834761 -0.05523704
v -0.05341333 0.01250324 -0.05100000
v -0.05263649 0.00439921 -0.05100000
v -0.05637888 -0.02360492 -0.04750000
v -0.05637888 -0.02360492 -0.05100000
v -0.05526122 -0.01979806 -0.05500000
v -0.05526122 -0.01979806 -0.05100000
v -0.05356525 -0.01183550 -0.05500000
v -0.05356525 -0.01183550 -0.05100000
v -0.05268729 -0.00374180 -0.05500000
v -0.05268729 -0.00374180 -0.05100000
v -0.05263649 0.00439921 -0.05500000
v -0.05273597 0.00618004 -0.05500000
v -0.05341333 0.01250324 -0.05690920
v -0.05500978 0.02048633 -0.05100000
v -0.05497930 0.02036571 -0.06056308
v -0.05553052 0.02243681 -0.06126296
v -0.05610662 0.02439398 -0.05100000
v -0.05617419 0.02461205 -0.06150000
v -0.05740932 0.02826586 -0.06150000
v -0.05776995 0.03052334 -0.06150000
v -0.05726001 0.03275183 -0.06150000
v -0.05595355 0.03462783 -0.06150000
v -0.05404022 0.03587900 -0.06150000
v -0.05179778 0.03632370 -0.06150000
v -0.04529030 0.02443363 -0.06150000
v -0.04547376 -0.02576306 -0.04750000
v -0.04551572 -0.02576473 -0.04750000
v -0.04715065 -0.02555075 -0.04750000
v -0.04862709 -0.02481661 -0.04750000
v -0.05204942 -0.02367589 -0.04750000
v -0.05025049 -0.02398295 -0.04750000
v -0.04070716 -0.02420865 -0.04630499
v -0.04301811 -0.02509646 -0.04719665
v -0.04467142 -0.02566236 -0.04746790
v -0.04390009 -0.02543530 -0.04737629
v -0.02744762 -0.01911471 -0.03921216
v -0.02578649 -0.01806228 -0.03832723
v -0.02465965 -0.01645070 -0.03773485
v -0.02680634 0.02000408 -0.03921216
v -0.02518060 0.01889778 -0.03832723
v -0.02410719 0.01725014 -0.03773485
v -0.02375216 0.01531600 -0.03752666
v -0.02424142 -0.01452924 -0.03752666
v -0.02319115 0.00569571 -0.05500000
v -0.04535957 0.02020802 -0.06056308
v -0.02957950 0.01002719 -0.05593692
v -0.04393369 0.02441139 -0.06140753
v -0.04530521 0.02352400 -0.06145853
v -0.04533302 0.02182729 -0.06115428
v -0.04430490 0.02336987 -0.06139431
v -0.04436553 0.02153807 -0.06102683
v -0.04482533 0.02174904 -0.06112168
v -0.04388563 0.02222526 -0.06115142
v -0.04339896 0.02295415 -0.06120742
v -0.02810556 0.01204441 -0.05652526
v -0.02320730 0.00593772 -0.05500292
v -0.02335217 0.00640575 -0.05502504
v -0.02386265 0.00712316 -0.05510079
v -0.02490332 0.00796245 -0.05525374
v -0.02674016 0.00894449 -0.05552251
v -0.02178410 0.00567264 -0.05490049
v -0.02179820 0.00603426 -0.05490557
v -0.02193853 0.00673251 -0.05494400
v -0.02244066 0.00779916 -0.05507559
v -0.02346941 0.00903996 -0.05534114
v -0.02528925 0.01047892 -0.05580738
v -0.05204942 -0.02367589 -0.05100000
v -0.05025049 -0.02398295 -0.05100000
v -0.04862709 -0.02481661 -0.05100000
v -0.05187161 0.02432455 -0.05100000
v -0.04781571 0.02581398 -0.05100000
v -0.04970493 0.02469151 -0.05100000
v -0.04621812 0.02675787 -0.05100000
v -0.04438632 0.02705416 -0.05100000
v -0.04257263 0.02666202 -0.05100000
v -0.02680634 0.02000408 -0.05100000
v -0.02518060 0.01889778 -0.05100000
v -0.02410719 0.01725014 -0.05100000
v -0.02375216 0.01531600 -0.05100000
v -0.02424142 -0.01452924 -0.05100000
v -0.02465965 -0.01645070 -0.05100000
v -0.02578649 -0.01806228 -0.05100000
v -0.02744762 -0.01911471 -0.05100000
v -0.04390009 -0.02543530 -0.05100000
v -0.04551572 -0.02576473 -0.05100000
v -0.04715065 -0.02555075 -0.05100000
f 1 2 3
f 4 5 6
f 6 5 7
f 6 7 3
f 3 7 8
f 3 8 9
f 10 3 11
f 11 3 2
f 11 2 12
f 9 13 3
f 3 13 14
f 3 14 1
f 5 4 15
f 15 4 16
f 16 17 15
f 15 17 18
f 15 18 19
f 20 21 22
f 22 23 20
f 20 23 24
f 20 24 25
f 26 27 28
f 28 27 29
f 28 29 30
f 31 20 32
f 32 20 25
f 32 25 26
f 26 25 33
f 26 33 27
f 34 35 36
f 36 35 37
f 36 37 38
f 31 32 36
f 36 32 39
f 36 39 34
f 40 41 42
f 42 41 36
f 42 36 43
f 43 36 38
f 44 36 41
f 45 46 47
f 47 46 44
f 47 44 48
f 49 7 50
f 50 7 5
f 50 5 41
f 5 15 41
f 41 15 19
f 41 19 44
f 44 19 51
f 44 51 48
f 46 45 52
f 46 52 53
f 53 52 54
f 53 54 55
f 55 54 56
f 55 56 57
f 57 56 58
f 57 58 59
f 59 58 60
f 59 60 61
f 61 60 62
f 61 62 63
f 63 62 64
f 63 64 65
f 65 64 66
f 65 66 67
f 67 66 68
f 67 68 69
f 69 68 70
f 69 70 71
f 71 70 22
f 71 22 21
f 28 30 72
f 28 72 73
f 73 72 74
f 73 74 75
f 75 74 76
f 75 76 77
f 77 76 78
f 77 78 79
f 79 78 80
f 79 80 81
f 81 80 82
f 81 82 83
f 84 85 86
f 86 85 87
f 82 88 83
f 83 88 89
f 83 89 90
f 90 89 91
f 90 91 92
f 92 91 93
f 92 93 94
f 94 93 95
f 94 95 96
f 96 95 87
f 96 87 97
f 97 87 85
f 84 86 98
f 98 86 99
f 98 99 100
f 100 99 101
f 101 99 102
f 101 102 103
f 12 2 102
f 102 2 104
f 102 104 103
f 104 2 1
f 104 1 105
f 105 1 14
f 105 14 106
f 106 14 13
f 106 13 107
f 107 13 9
f 107 9 108
f 108 9 8
f 108 8 109
f 109 8 7
f 109 7 49
f 47 23 45
f 45 23 22
f 68 56 70
f 70 56 54
f 70 54 22
f 22 54 52
f 22 52 45
f 68 66 56
f 56 66 64
f 56 64 58
f 58 64 62
f 58 62 60
f 110 103 50
f 50 103 104
f 50 104 49
f 49 104 105
f 49 105 106
f 106 107 49
f 49 107 108
f 49 108 109
f 29 111 112
f 29 112 30
f 30 112 113
f 30 113 72
f 72 113 114
f 72 114 74
f 88 82 115
f 115 82 80
f 115 80 78
f 114 116 74
f 74 116 115
f 74 115 76
f 76 115 78
f 117 118 33
f 33 118 27
f 111 29 119
f 119 29 27
f 119 27 120
f 120 27 118
f 117 33 121
f 121 33 25
f 121 25 122
f 122 25 123
f 19 18 51
f 51 18 124
f 51 124 125
f 125 126 51
f 51 126 127
f 51 127 25
f 25 127 128
f 25 128 123
f 51 25 24
f 51 24 48
f 48 24 23
f 48 23 47
f 97 129 96
f 96 129 94
f 94 129 92
f 92 129 26
f 92 26 90
f 73 75 28
f 28 75 77
f 90 26 83
f 83 26 28
f 83 28 81
f 81 28 77
f 81 77 79
f 100 130 98
f 98 130 131
f 98 131 84
f 110 50 132
f 132 50 41
f 132 41 40
f 103 110 133
f 103 133 101
f 133 134 101
f 101 134 130
f 101 130 100
f 135 132 40
f 136 137 138
f 138 137 135
f 138 135 139
f 139 135 40
f 110 132 133
f 133 132 135
f 133 135 134
f 134 135 137
f 134 137 130
f 136 130 137
f 130 136 131
f 131 136 140
f 40 42 139
f 139 42 140
f 139 140 138
f 138 140 136
f 141 129 97
f 85 84 131
f 142 141 143
f 143 141 97
f 143 97 144
f 144 97 85
f 144 85 145
f 145 85 131
f 146 129 141
f 39 146 147
f 146 141 147
f 147 141 142
f 147 142 148
f 148 142 143
f 148 143 149
f 149 143 144
f 149 144 150
f 150 144 145
f 150 145 151
f 151 145 131
f 151 131 140
f 39 147 34
f 34 147 148
f 34 148 35
f 35 148 149
f 35 149 37
f 37 149 150
f 37 150 38
f 38 150 151
f 38 151 43
f 43 151 140
f 43 140 42
f 39 32 146
f 146 32 26
f 146 26 129
f 44 20 36
f 36 20 31
f 21 20 46
f 46 20 44
f 46 53 21
f 21 53 55
f 21 55 71
f 71 55 57
f 71 57 69
f 61 63 59
f 59 63 65
f 59 65 57
f 57 65 67
f 57 67 69
f 152 115 116
f 152 116 153
f 153 116 114
f 153 114 154
f 152 89 115
f 115 89 88
f 102 155 12
f 12 155 11
f 156 3 10
f 156 10 157
f 157 10 11
f 157 11 155
f 3 156 6
f 6 156 158
f 6 158 4
f 4 158 159
f 4 159 16
f 16 159 160
f 16 160 17
f 17 160 18
f 18 160 161
f 18 161 124
f 124 161 162
f 124 162 125
f 125 162 163
f 125 163 126
f 126 163 164
f 126 164 127
f 164 165 127
f 127 165 128
f 128 165 166
f 128 166 123
f 123 166 167
f 123 167 122
f 122 167 168
f 122 168 121
f 169 120 118
f 169 118 168
f 168 118 117
f 168 117 121
f 170 111 169
f 169 111 119
f 169 119 120
f 154 114 171
f 171 114 113
f 171 113 170
f 170 113 112
f 170 112 111
f 159 158 165
f 165 158 156
f 165 156 166
f 166 156 157
f 166 157 167
f 167 157 168
f 157 154 171
f 163 162 164
f 164 162 161
f 164 161 165
f 165 161 160
f 165 160 159
f 168 157 169
f 169 157 171
f 169 171 170
f 154 157 153
f 153 157 155
f 153 155 152
f 152 155 87
f 152 87 95
f 95 93 152
f 152 93 91
f 152 91 89
f 102 99 155
f 155 99 86
f 155 86 87

