mtllib material.mtl
usemtl mtl_knee_rods
v 0.00311973 -0.01499077 0.01471190
v 0.00350448 -0.01539789 0.01474414
v 0.00443412 -0.01499077 0.01307275
v 0.00361286 -0.01552689 0.01475322
v 0.00621640 -0.01499077 0.01064055
v 0.00429480 -0.01655302 0.01481036
v 0.00850669 -0.01499077 0.00729888
v 0.00446288 -0.01689443 0.01482445
v 0.00476266 -0.01769355 0.01484957
v 0.00955925 -0.01565088 0.00615435
v 0.00928220 -0.01499077 0.00613114
v 0.00955925 -0.02333066 0.00615435
v 0.00474511 -0.02134565 0.01484810
v 0.00446288 -0.02208712 0.01482445
v 0.00510606 -0.02399077 0.01217962
v 0.00685009 -0.02399077 0.00973495
v 0.00426631 -0.02248160 0.01480798
v 0.00766494 -0.02399077 0.00854764
v 0.00928220 -0.02399077 0.00613114
v 0.00357454 -0.02350108 0.01475001
v 0.00350448 -0.02358365 0.01474414
v 0.00373310 -0.02399077 0.01396897
v 0.00311973 -0.02399077 0.01471190
v 0.00978344 -0.02268087 0.00617314
v 0.01000977 -0.02182794 0.00619210
v 0.00496232 -0.02038024 0.01486630
v 0.01020854 -0.02060297 0.00620876
v 0.00499228 -0.02013746 0.01486881
v 0.01023746 -0.02027540 0.00621118
v 0.00499821 -0.01890408 0.01486931
v 0.01023746 -0.01870614 0.00621118
v 0.00496232 -0.01860130 0.01486630
v 0.01000977 -0.01715361 0.00619210
v 0.00981363 -0.01639983 0.00617567
v -0.00504494 -0.02444475 0.01457065
v -0.00552465 -0.02399077 0.01398752
v -0.00464831 -0.02474687 0.01496520
v 0.00247673 -0.02449633 0.01526263
v 0.00209412 -0.02474570 0.01552879
v -0.00331372 -0.02542055 0.01588270
v -0.00391975 -0.02517090 0.01553336
v -0.00449805 -0.02484710 0.01509766
v -0.00310857 -0.02548699 0.01597936
v 0.00178501 -0.02492317 0.01571513
v 0.00114004 -0.02523070 0.01602886
v 0.00048257 -0.02546452 0.01625340
v 0.00040444 -0.02548736 0.01627418
v -0.00269504 -0.02559624 0.01614466
v -0.00018070 -0.02562709 0.01639225
v -0.00083314 -0.02571742 0.01644561
v -0.00137661 -0.02574077 0.01642799
v -0.00205786 -0.02570325 0.01632602
v 0.00321051 -0.02399077 -0.01065094
v -0.00654792 -0.02399077 0.01215249
v -0.00790056 -0.02399077 0.00945759
v -0.00960277 -0.02399077 0.00578136
v -0.01017312 -0.02399077 0.00450084
v -0.01057313 -0.02399096 0.00345790
v -0.01075640 -0.02399104 0.00283679
v -0.01086755 -0.02399104 0.00237569
v 0.00318954 -0.02399077 -0.01065725
v -0.01037170 -0.02399093 -0.00402198
v -0.01019082 -0.02399086 -0.00446054
v -0.01105293 -0.02399088 0.00125770
v -0.01106820 -0.02399085 0.00111547
v -0.01112372 -0.02399071 0.00011541
v -0.01107562 -0.02399070 -0.00103986
v 0.00209534 -0.02399124 -0.01092499
v -0.00969232 -0.02399066 -0.00545985
v 0.00101112 -0.02399078 -0.01107825
v 0.00999591 -0.02399097 -0.00488159
v 0.01043035 -0.02399160 -0.00386656
v 0.01076564 -0.02399175 -0.00280040
v -0.01090518 -0.02399086 -0.00219687
v -0.01060967 -0.02399098 -0.00334411
v 0.00321607 -0.02399077 -0.01064928
v 0.00411074 -0.02399075 -0.01033692
v 0.00427139 -0.02399076 -0.01027158
v 0.00531380 -0.02399073 -0.00977312
v 0.00629792 -0.02399089 -0.00916980
v 0.00718703 -0.02399100 -0.00849085
v 0.00801963 -0.02399097 -0.00770933
v 0.00878672 -0.02399053 -0.00682245
v 0.00946383 -0.02399065 -0.00584696
v 0.01099416 -0.02399139 -0.00169493
v 0.01111005 -0.02399093 -0.00056155
v 0.01110874 -0.02399073 0.00058846
v -0.00909681 -0.02399012 -0.00640344
v -0.00839354 -0.02399028 -0.00730088
v -0.00758326 -0.02399108 -0.00813888
v -0.00468783 -0.02399044 -0.01008848
v -0.00361569 -0.02399070 -0.01052034
v -0.00250082 -0.02399097 -0.01083947
v -0.00013355 -0.02399122 -0.01112332
v -0.00133598 -0.02399077 -0.01104378
v 0.01098668 -0.02399094 0.00174396
v 0.01074108 -0.02399137 0.00289374
v 0.00987148 -0.02399126 0.00512831
v 0.01036967 -0.02399161 0.00402646
v -0.00667021 -0.02399142 -0.00890239
v -0.00569116 -0.02399081 -0.00955826
v -0.00066426 -0.01999067 -0.01197117
v -0.00071915 -0.01974341 -0.01197577
v 0.00100205 -0.01949077 -0.01195809
v -0.00057409 -0.02022727 -0.01196361
v -0.00045054 -0.02044817 -0.01195326
v -0.00029626 -0.02064868 -0.01194033
v -0.00011454 -0.02082449 -0.01192510
v 0.00009076 -0.02097189 -0.01190790
v 0.00031526 -0.02108772 -0.01188909
v 0.00055417 -0.02116951 -0.01186907
v 0.00080241 -0.02121552 -0.01184826
v 0.00105467 -0.02122477 -0.01182713
v 0.00130559 -0.02119706 -0.01180610
v 0.00154981 -0.02113299 -0.01178563
v 0.00178213 -0.02103392 -0.01176617
v 0.00199761 -0.02090196 -0.01174811
v 0.00219164 -0.02073992 -0.01173185
v 0.00236009 -0.02055125 -0.01171774
v 0.00249938 -0.02033999 -0.01170606
v 0.00260652 -0.02011062 -0.01169709
v 0.00267925 -0.01986805 -0.01169099
v 0.00271600 -0.01961743 -0.01168791
v 0.00271600 -0.01936411 -0.01168791
v 0.00267925 -0.01911350 -0.01169099
v 0.00260652 -0.01887092 -0.01169709
v 0.00249938 -0.01864156 -0.01170606
v 0.00236009 -0.01843029 -0.01171774
v 0.00219164 -0.01824163 -0.01173185
v 0.00199761 -0.01807959 -0.01174811
v 0.00178213 -0.01794763 -0.01176617
v 0.00154981 -0.01784855 -0.01178563
v 0.00130559 -0.01778448 -0.01180610
v 0.00105467 -0.01775677 -0.01182713
v 0.00080241 -0.01776602 -0.01184826
v 0.00055417 -0.01781204 -0.01186907
v 0.00031526 -0.01789383 -0.01188909
v 0.00009076 -0.01800966 -0.01190790
v -0.00011454 -0.01815705 -0.01192510
v -0.00029626 -0.01833287 -0.01194033
v -0.00045054 -0.01853337 -0.01195326
v -0.00057409 -0.01875427 -0.01196361
v -0.00066426 -0.01899088 -0.01197117
v -0.00071915 -0.01923813 -0.01197577
v -0.00073758 -0.01949077 -0.01197731
v 0.00384272 -0.02360630 -0.01059697
v 0.00321495 -0.02398912 -0.01065030
v 0.00252476 -0.02254463 -0.01132694
v 0.01078465 -0.01701045 0.00464105
v -0.01109947 -0.01837858 0.00442322
v -0.01104281 -0.01792570 0.00442797
v -0.01155745 -0.01782984 0.00276886
v 0.00315531 -0.01499077 -0.01066743
v 0.00320431 -0.01499077 -0.01065281
v 0.00321588 -0.01499493 -0.01065108
v 0.00321873 -0.01499077 -0.01064846
v 0.00985020 -0.01499058 0.00516931
v 0.00766899 -0.02338768 -0.00836665
v -0.00867381 -0.02381956 -0.00707294
v -0.00763445 -0.02338593 -0.00839898
v -0.01119661 -0.02277725 0.00279910
v -0.01070280 -0.02258756 0.00445646
v -0.01145509 -0.02289785 0.00108290
v -0.01147280 -0.02294685 -0.00065604
v -0.01124937 -0.02292321 -0.00238121
v -0.01078949 -0.02282741 -0.00405632
v -0.00920383 -0.02242893 -0.00711736
v -0.01010283 -0.02266149 -0.00564618
v -0.00643462 -0.02287044 -0.00954848
v -0.00586770 -0.02388413 -0.00950098
v -0.00463101 -0.02312168 -0.01045802
v -0.00404591 -0.02388206 -0.01040899
v -0.00171834 -0.02381025 -0.01106297
v -0.00231707 -0.02338040 -0.01111314
v -0.00284705 -0.02286764 -0.01115755
v -0.00082243 -0.02242188 -0.01160742
v -0.00037815 -0.02265109 -0.01157019
v 0.00009465 -0.02281296 -0.01153058
v 0.00058590 -0.02290401 -0.01148941
v 0.00108512 -0.02292232 -0.01144758
v 0.00158168 -0.02286749 -0.01140597
v 0.00206500 -0.02274070 -0.01136547
v 0.00602820 -0.02351260 -0.00956481
v 0.00655643 -0.02271139 -0.00952055
v 0.00862036 -0.02398207 -0.00703688
v 0.00918703 -0.02276902 -0.00698940
v 0.01002029 -0.02313396 -0.00550644
v 0.01064295 -0.02342233 -0.00390775
v 0.01104190 -0.02362807 -0.00222692
v 0.01120877 -0.02374684 -0.00049929
v 0.01114005 -0.02377616 0.00123884
v 0.01083718 -0.02371541 0.00295092
v 0.01030653 -0.02356586 0.00460099
v 0.01030653 -0.01541568 0.00460099
v 0.01083718 -0.01526613 0.00295092
v 0.01032062 -0.01499051 0.00415119
v 0.01068947 -0.01499066 0.00307964
v 0.01094939 -0.01499084 0.00196507
v 0.01114005 -0.01520538 0.00123884
v 0.01109422 -0.01499084 0.00081790
v 0.01120877 -0.01523470 -0.00049929
v 0.01111871 -0.01499069 -0.00035134
v 0.01101825 -0.01499057 -0.00153176
v 0.01104190 -0.01535347 -0.00222692
v 0.01079104 -0.01499069 -0.00270233
v 0.01064295 -0.01555921 -0.00390775
v 0.01046581 -0.01499088 -0.00377066
v 0.01003563 -0.01499142 -0.00480020
v 0.01002029 -0.01584758 -0.00550644
v 0.00949153 -0.01499127 -0.00580217
v 0.00883202 -0.01499047 -0.00676334
v 0.00918703 -0.01621253 -0.00698940
v 0.00862036 -0.01499947 -0.00703688
v 0.00766899 -0.01559386 -0.00836665
v 0.00720252 -0.01499073 -0.00847781
v 0.00805877 -0.01499013 -0.00766815
v 0.00655643 -0.01627016 -0.00952055
v 0.00602820 -0.01546894 -0.00956481
v 0.00630143 -0.01499111 -0.00916761
v 0.00489986 -0.01639802 -0.01050839
v 0.00440859 -0.01584781 -0.01054955
v 0.00531611 -0.01499084 -0.00977188
v 0.00384272 -0.01537524 -0.01059697
v 0.00411119 -0.01499060 -0.01033666
v 0.00426990 -0.01499058 -0.01027210
v 0.00252476 -0.01643691 -0.01132694
v 0.00206500 -0.01624085 -0.01136547
v 0.00198289 -0.01499033 -0.01094597
v 0.00158168 -0.01611405 -0.01140597
v 0.00108512 -0.01605922 -0.01144758
v 0.00084668 -0.01499077 -0.01109203
v -0.00361321 -0.01499081 -0.01052117
v -0.00404591 -0.01509948 -0.01040899
v -0.00468400 -0.01499065 -0.01009005
v -0.00463101 -0.01585986 -0.01045802
v -0.00567371 -0.01499055 -0.00956854
v -0.00763445 -0.01559561 -0.00839898
v -0.00752875 -0.01499101 -0.00818963
v -0.00662476 -0.01499057 -0.00893649
v -0.00867381 -0.01516199 -0.00707294
v -0.00835877 -0.01499089 -0.00734044
v -0.01010283 -0.01632005 -0.00564618
v -0.00964140 -0.01498994 -0.00554851
v -0.00904409 -0.01499058 -0.00647708
v -0.00920383 -0.01655262 -0.00711736
v -0.01014945 -0.01498980 -0.00455302
v -0.01078949 -0.01615413 -0.00405632
v -0.01037142 -0.01498994 -0.00402195
v -0.01112370 -0.01499061 -0.00010882
v -0.01110670 -0.01499074 -0.00062532
v -0.01147280 -0.01603469 -0.00065604
v -0.01105175 -0.01499081 -0.00126851
v -0.01124937 -0.01605834 -0.00238121
v -0.01086165 -0.01499061 -0.00240271
v -0.01055876 -0.01499015 -0.00350099
v -0.01107288 -0.01499018 0.00106580
v -0.01145509 -0.01608369 0.00108290
v -0.01089516 -0.01498994 0.00224454
v -0.01119661 -0.01620430 0.00279910
v -0.01075617 -0.01499003 0.00283693
v -0.01070280 -0.01639398 0.00445646
v -0.01017312 -0.01499077 0.00450084
v -0.01058729 -0.01499028 0.00341393
v -0.01115696 -0.01949077 0.00441840
v -0.01110966 -0.02049979 0.00442236
v -0.01167859 -0.01949077 0.00275871
v -0.01195476 -0.01949077 0.00104103
v -0.01182917 -0.01776888 0.00105156
v -0.01197965 -0.01949077 -0.00069852
v -0.01185226 -0.01774412 -0.00068784
v -0.01175275 -0.01949077 -0.00242339
v -0.01162623 -0.01775607 -0.00241279
v -0.01127882 -0.01949077 -0.00409733
v -0.01115584 -0.01780448 -0.00408702
v -0.01056783 -0.01949077 -0.00568515
v -0.01045096 -0.01788834 -0.00567535
v -0.00963472 -0.01949077 -0.00715347
v -0.00952642 -0.01800587 -0.00714439
v -0.00811137 -0.01684694 -0.00843895
v -0.00840165 -0.01815462 -0.00846327
v -0.00849910 -0.01949077 -0.00847144
v 0.00957165 -0.01749546 -0.00695717
v 0.01044774 -0.01727333 -0.00547062
v 0.01110423 -0.01709781 -0.00386910
v 0.01152732 -0.01697259 -0.00218625
v 0.01170812 -0.01690029 -0.00045744
v 0.01164284 -0.01688245 0.00128097
v 0.01133284 -0.01691943 0.00299246
v 0.01102628 -0.01865808 0.00466130
v 0.01158335 -0.01862752 0.00301345
v 0.01189695 -0.01861511 0.00130226
v 0.01196049 -0.01862110 -0.00043630
v 0.01177264 -0.01864537 -0.00216569
v 0.01133735 -0.01868741 -0.00384956
v 0.01066376 -0.01874634 -0.00545252
v 0.00976604 -0.01882091 -0.00694088
v 0.01102628 -0.02032346 0.00466130
v 0.01158335 -0.02035402 0.00301345
v 0.01189695 -0.02036643 0.00130226
v 0.01196049 -0.02036044 -0.00043630
v 0.01177264 -0.02033617 -0.00216569
v 0.01133735 -0.02029413 -0.00384956
v 0.01066376 -0.02023521 -0.00545252
v 0.00976604 -0.02016064 -0.00694088
v 0.01078465 -0.02197109 0.00464105
v 0.01133284 -0.02206212 0.00299246
v 0.01164284 -0.02209909 0.00128097
v 0.01170812 -0.02208125 -0.00045744
v 0.01152732 -0.02200896 -0.00218625
v 0.01110423 -0.02188373 -0.00386910
v 0.01044774 -0.02170822 -0.00547062
v 0.00957165 -0.02148609 -0.00695717
v -0.00586770 -0.01509741 -0.00950098
v -0.00643462 -0.01611110 -0.00954848
v -0.00684843 -0.01719683 -0.00958316
v -0.00710029 -0.01833145 -0.00960426
v -0.00718485 -0.01949077 -0.00961135
v 0.00816066 -0.02233517 -0.00832545
v 0.00849439 -0.02122203 -0.00829748
v 0.00866305 -0.02007199 -0.00828335
v 0.00866305 -0.01890956 -0.00828335
v 0.00849439 -0.01775952 -0.00829748
v 0.00816066 -0.01664638 -0.00832545
v -0.00509955 -0.01669763 -0.01049728
v -0.00544154 -0.01759494 -0.01052594
v -0.00564969 -0.01853264 -0.01054338
v -0.00571957 -0.01949077 -0.01054924
v 0.00696277 -0.02184153 -0.00948650
v 0.00723858 -0.02092157 -0.00946339
v 0.00737797 -0.01997112 -0.00945171
v 0.00737797 -0.01901043 -0.00945171
v 0.00723858 -0.01805997 -0.00946339
v 0.00696277 -0.01714001 -0.00948650
v -0.00509955 -0.02228391 -0.01049728
v -0.00811137 -0.02213461 -0.00843895
v -0.00684843 -0.02178472 -0.00958316
v -0.00544154 -0.02138661 -0.01052594
v -0.01104281 -0.02105585 0.00442797
v -0.01155745 -0.02115171 0.00276886
v -0.01182917 -0.02121266 0.00105156
v -0.01185226 -0.02123742 -0.00068784
v -0.01162623 -0.02122547 -0.00241279
v -0.01115584 -0.02117706 -0.00408702
v -0.01045096 -0.02109321 -0.00567535
v -0.00952642 -0.02097567 -0.00714439
v -0.00840165 -0.02082693 -0.00846327
v -0.00710029 -0.02065010 -0.00960426
v -0.00564969 -0.02044890 -0.01054338
v 0.00440859 -0.02313374 -0.01054955
v 0.00489986 -0.02258353 -0.01050839
v 0.00530606 -0.02196740 -0.01047435
v 0.00561854 -0.02129849 -0.01044816
v 0.00583063 -0.02059104 -0.01043039
v 0.00593782 -0.01986015 -0.01042141
v 0.00593782 -0.01912139 -0.01042141
v 0.00583063 -0.01839050 -0.01043039
v 0.00561854 -0.01768306 -0.01044816
v 0.00530606 -0.01701415 -0.01047435
v -0.00137143 -0.01499078 -0.01103944
v -0.00171834 -0.01517129 -0.01106297
v -0.00250237 -0.01499078 -0.01083920
v -0.00231707 -0.01560115 -0.01111314
v -0.00284705 -0.01611390 -0.01115755
v -0.00329699 -0.01669863 -0.01119526
v -0.00365729 -0.01734287 -0.01122545
v -0.00392028 -0.01803289 -0.01124749
v -0.00408035 -0.01875398 -0.01126090
v -0.00413408 -0.01949077 -0.01126540
v -0.00408035 -0.02022756 -0.01126090
v -0.00392028 -0.02094866 -0.01124749
v -0.00365729 -0.02163867 -0.01122545
v -0.00329699 -0.02228291 -0.01119526
v 0.00295118 -0.01669806 -0.01129121
v 0.00333516 -0.01701874 -0.01125903
v 0.00366853 -0.01739210 -0.01123110
v 0.00394417 -0.01781019 -0.01120800
v 0.00415621 -0.01826410 -0.01119023
v 0.00430013 -0.01874415 -0.01117817
v 0.00437287 -0.01924012 -0.01117207
v 0.00437287 -0.01974143 -0.01117207
v 0.00430013 -0.02023739 -0.01117817
v 0.00415621 -0.02071745 -0.01119023
v 0.00394417 -0.02117136 -0.01120800
v 0.00366853 -0.02158944 -0.01123110
v 0.00333516 -0.02196281 -0.01125903
v 0.00295118 -0.02228348 -0.01129121
v 0.00058590 -0.01607753 -0.01148941
v 0.00009465 -0.01616859 -0.01153058
v -0.00024793 -0.01499031 -0.01112135
v -0.00037815 -0.01633045 -0.01157019
v -0.00082243 -0.01655967 -0.01160742
v -0.00122872 -0.01685136 -0.01164147
v -0.00158835 -0.01719931 -0.01167160
v -0.00189367 -0.01759609 -0.01169719
v -0.00213816 -0.01803325 -0.01171768
v -0.00231662 -0.01850148 -0.01173263
v -0.00242524 -0.01899080 -0.01174173
v -0.00246170 -0.01949077 -0.01174479
v -0.00242524 -0.01999074 -0.01174173
v -0.00231662 -0.02048006 -0.01173263
v -0.00213816 -0.02094829 -0.01171768
v -0.00189367 -0.02138546 -0.01169719
v -0.00158835 -0.02178224 -0.01167160
v -0.00122872 -0.02213018 -0.01164147
v -0.00590940 -0.02358365 0.01395528
v -0.00601778 -0.02345465 0.01394620
v -0.00669972 -0.02242853 0.01388906
v -0.00686780 -0.02208712 0.01387497
v -0.00667123 -0.01649994 0.01389145
v -0.00597946 -0.01548046 0.01394941
v -0.00706184 -0.01499077 0.01115999
v -0.00590940 -0.01539789 0.01395528
v -0.00600583 -0.01499077 0.01315288
v -0.00552465 -0.01499077 0.01398753
v -0.00837470 -0.01499077 0.00845916
v -0.00898059 -0.01499077 0.00715279
v -0.00686780 -0.01689443 0.01387497
v -0.00715003 -0.01763590 0.01385132
v -0.00736724 -0.01860130 0.01383311
v -0.00739720 -0.01884409 0.01383061
v -0.00740313 -0.02007747 0.01383011
v -0.00736724 -0.02038024 0.01383311
v -0.00716758 -0.02128799 0.01384985
v -0.00254990 -0.01335445 0.01619372
v -0.00310723 -0.01349418 0.01597991
v -0.00439341 -0.01349394 0.03134260
v 0.00072847 -0.01423294 0.03177179
v 0.00209291 -0.01423467 0.01553009
v 0.00192270 -0.01413445 0.01563569
v 0.00040585 -0.01349455 0.01627386
v -0.00088405 -0.01349394 0.03163667
v 0.00062423 -0.01356100 0.01621269
v 0.00127995 -0.01381064 0.01596907
v 0.00254966 -0.01453679 0.01520705
v 0.00206821 -0.01539789 0.03188406
v 0.00206821 -0.02358365 0.03188406
v 0.00072847 -0.02474861 0.03177179
v -0.00088405 -0.02548760 0.03163667
v -0.00263873 -0.02574077 0.03148963
v -0.00439341 -0.02548760 0.03134260
v -0.00600593 -0.02474861 0.03120747
v -0.00734567 -0.02358365 0.03109520
v -0.00600593 -0.01423294 0.03120747
v -0.00318081 -0.01351703 0.01594642
v -0.00379175 -0.01375085 0.01561560
v -0.00498228 -0.01448521 0.01463758
v -0.00734567 -0.01539789 0.03109520
v -0.00464929 -0.01423584 0.01496372
v -0.00437551 -0.01405837 0.01519890
v -0.00002942 -0.01338531 0.01636803
v -0.00068790 -0.01327830 0.01644082
v -0.00263873 -0.01324077 0.03148963
v -0.00137661 -0.01324077 0.01642799
v -0.00191544 -0.01326412 0.01635491
v 0.00302661 -0.01689443 0.03196437
v 0.00352605 -0.01860130 0.03200622
v 0.00352605 -0.02038024 0.03200622
v 0.00302661 -0.02208712 0.03196437
v -0.00669972 -0.02242853 0.01388905
v -0.00830407 -0.02208712 0.03101489
v -0.00880351 -0.02038024 0.03097304
v -0.00880351 -0.01860130 0.03097304
v -0.00739720 -0.01884409 0.01383060
v -0.00830407 -0.01689443 0.03101489
v -0.00667123 -0.01649994 0.01389144
v -0.02778553 -0.01646242 0.20807187
v -0.02723558 -0.01499077 0.20811796
v -0.02288605 -0.01841445 0.19938529
v -0.02371982 -0.01499077 0.20297730
v -0.02212819 -0.01633728 0.19944879
v -0.02107312 -0.01499077 0.19953720
v -0.02209763 -0.02269616 0.19945136
v -0.02107312 -0.02399077 0.19953720
v -0.02313714 -0.02399077 0.20217492
v -0.02723558 -0.02399077 0.20811796
v -0.02778553 -0.02251913 0.20807187
v -0.02287542 -0.02062643 0.19938618
v -0.02804111 -0.02144393 0.20805046
v -0.02297910 -0.01949077 0.19937749
v -0.02821942 -0.01949077 0.20803551
v -0.02805939 -0.01763966 0.20804892
v -0.01242874 -0.02399077 0.20026158
v -0.01307306 -0.02457716 0.19950630
v -0.01353298 -0.02489611 0.19908632
v -0.01977493 -0.02490324 0.19855474
v -0.01976225 -0.02491019 0.19854750
v -0.01414678 -0.02522396 0.19864281
v -0.01851769 -0.02543953 0.19801873
v -0.01726033 -0.02570382 0.19780801
v -0.01657677 -0.02574077 0.19782111
v -0.01526868 -0.02559856 0.19810079
v -0.01039146 -0.02399077 0.20409417
v -0.02907599 -0.02399083 0.21444227
v -0.02887266 -0.02399107 0.21212381
v -0.02830429 -0.02399160 0.21017462
v -0.00686868 -0.02399082 0.21331167
v -0.00691384 -0.02399074 0.21561982
v -0.02810504 -0.02399120 0.21879773
v -0.00740198 -0.02399097 0.21777272
v -0.00830392 -0.02399062 0.21978436
v -0.00949109 -0.02399023 0.22147021
v -0.01122701 -0.02399143 0.22310913
v -0.01287090 -0.02399059 0.22414455
v -0.02172977 -0.02399074 0.22471280
v -0.02378030 -0.02399078 0.22372521
v -0.02881036 -0.02399166 0.21667151
v -0.00778026 -0.02399077 0.20974825
v -0.00727539 -0.02399101 0.21113008
v -0.01501577 -0.02399096 0.22497843
v -0.01729124 -0.02399112 0.22535352
v -0.01956866 -0.02399104 0.22525539
v -0.02557950 -0.02399108 0.22234784
v -0.02711525 -0.02399050 0.22055884
v -0.01242874 -0.01499077 0.20026158
v -0.02031209 -0.01440438 0.19889970
v -0.01978868 -0.01408544 0.19856212
v -0.01354531 -0.01407830 0.19907676
v -0.01355661 -0.01407135 0.19906750
v -0.01910963 -0.01375758 0.19822693
v -0.01469581 -0.01354202 0.19833900
v -0.01590057 -0.01327772 0.19792196
v -0.01657677 -0.01324077 0.19782111
v -0.01791317 -0.01338298 0.19787920
v -0.01083248 -0.01499077 0.20320600
v -0.00778026 -0.01499077 0.20974825
v -0.00701805 -0.01499072 0.21629065
v -0.00683269 -0.01499047 0.21397069
v -0.00706874 -0.01498994 0.21195409
v -0.02872750 -0.01499072 0.21147998
v -0.02906709 -0.01499081 0.21376345
v -0.00870031 -0.01499035 0.22042379
v -0.02894407 -0.01499057 0.21596757
v -0.02838949 -0.01499092 0.21810126
v -0.02749944 -0.01499132 0.21996117
v -0.02606048 -0.01499012 0.22186612
v -0.02461184 -0.01499095 0.22316070
v -0.01597109 -0.01499080 0.22519536
v -0.01378479 -0.01499077 0.22456281
v -0.00765098 -0.01498988 0.21844460
v -0.02796338 -0.01499053 0.20939650
v -0.02263567 -0.01499059 0.22433992
v -0.02045435 -0.01499042 0.22508848
v -0.01819236 -0.01499050 0.22537072
v -0.01178146 -0.01499046 0.22350408
v -0.00996939 -0.01499104 0.22199561
v -0.02179218 -0.01763430 0.22546592
v -0.02219677 -0.01852335 0.22543202
v -0.01895544 -0.01949077 0.22620718
v -0.01940051 -0.01609188 0.22566634
v -0.02033502 -0.01636724 0.22558802
v -0.01842655 -0.01609188 0.22574796
v -0.01749205 -0.01636724 0.22582626
v -0.01667270 -0.01689565 0.22589493
v -0.01603489 -0.01763430 0.22594836
v -0.01563029 -0.01852335 0.22598228
v -0.01549169 -0.01949077 0.22599389
v -0.01563029 -0.02045820 0.22598228
v -0.01603489 -0.02134725 0.22594836
v -0.01842655 -0.02288966 0.22574796
v -0.01749205 -0.02261430 0.22582626
v -0.01940051 -0.02288966 0.22566634
v -0.02033502 -0.02261430 0.22558802
v -0.02115437 -0.02208590 0.22551937
v -0.02179218 -0.02134725 0.22546592
v -0.02219677 -0.02045820 0.22543202
v -0.02233538 -0.01949077 0.22542040
v -0.02946463 -0.02284735 0.21472304
v -0.02909080 -0.02282256 0.21127301
v -0.02430787 -0.02304846 0.22378656
v -0.01327480 -0.02304846 0.22471111
v -0.00723032 -0.02251913 0.20979434
v -0.00668155 -0.01613419 0.21663219
v -0.00647599 -0.01615898 0.21316807
v -0.01327480 -0.01593308 0.22471111
v -0.02430787 -0.01593308 0.22378656
v -0.02946463 -0.01613419 0.21472304
v -0.02909080 -0.01615898 0.21127301
v -0.02887574 -0.01639012 0.21813343
v -0.02737339 -0.01690536 0.22121897
v -0.02508323 -0.01763683 0.22372159
v -0.02115437 -0.01689565 0.22551937
v -0.01249944 -0.01763683 0.22477607
v -0.00982471 -0.01690536 0.22268949
v -0.00782980 -0.01639012 0.21989702
v -0.00668155 -0.02284735 0.21663219
v -0.00647599 -0.02282256 0.21316807
v -0.00782980 -0.02259143 0.21989702
v -0.00982471 -0.02207618 0.22268949
v -0.01249944 -0.02134471 0.22477607
v -0.01667270 -0.02208590 0.22589493
v -0.02508323 -0.02134471 0.22372159
v -0.02737339 -0.02207618 0.22121897
v -0.02887574 -0.02259143 0.21813343
v -0.00679643 -0.01949077 0.20983070
v -0.00697474 -0.01753761 0.20981576
v -0.00723032 -0.01646242 0.20979434
v -0.02956817 -0.01949077 0.21123302
v -0.02994555 -0.01949077 0.21468274
v -0.02931999 -0.01949077 0.21809621
v -0.02774382 -0.01949077 0.22118793
v -0.02534885 -0.01949077 0.22369933
v -0.00695646 -0.02134188 0.20981729
v -0.00599863 -0.01949077 0.21320806
v -0.00620063 -0.01949077 0.21667250
v -0.00738555 -0.01949077 0.21993424
v -0.00945428 -0.01949077 0.22272053
v -0.01223381 -0.01949077 0.22479834
v -0.01061580 -0.02056710 0.20041350
v -0.01137366 -0.02264426 0.20034999
v -0.01140422 -0.01628538 0.20034742
v -0.01062644 -0.01835511 0.20041260
v -0.01052275 -0.01949077 0.20042129
v 0.00419129 -0.02261577 0.01480169
v 0.00265819 -0.02436540 0.01512120
v 0.00183714 -0.02489446 0.01568514
v 0.00135436 -0.02513691 0.01593463
v -0.00000989 -0.02559176 0.01636431
v -0.00194863 -0.02571411 0.01634815
v -0.00313449 -0.02547890 0.01596748
v -0.00440576 -0.02490442 0.01517391
v -0.00552465 -0.02399077 0.01398753
v -0.00659621 -0.01636577 0.01389773
v -0.00513767 -0.01461615 0.01446793
v -0.00442192 -0.01408709 0.01516065
v -0.00398739 -0.01384464 0.01548701
v -0.00271368 -0.01338978 0.01613774
v -0.00079929 -0.01326743 0.01644446
v 0.00043339 -0.01350264 0.01626646
v 0.00181900 -0.01407713 0.01569553
v 0.00502571 -0.01949077 0.01487161
v 0.00419129 -0.01636577 0.01480169
v -0.00743063 -0.01949077 0.01382781
v -0.00659621 -0.02261577 0.01389773
v 0.00311973 0.02399077 0.01471190
v 0.00350448 0.02358365 0.01474414
v 0.00443412 0.02399077 0.01307275
v 0.00361286 0.02345465 0.01475322
v 0.00621640 0.02399077 0.01064055
v 0.00429480 0.02242853 0.01481036
v 0.00850669 0.02399077 0.00729888
v 0.00446288 0.02208712 0.01482445
v 0.00476266 0.02128799 0.01484957
v 0.00955925 0.02333066 0.00615435
v 0.00928220 0.02399077 0.00613114
v 0.00955925 0.01565088 0.00615435
v 0.00474511 0.01763590 0.01484810
v 0.00446288 0.01689443 0.01482445
v 0.00510606 0.01499077 0.01217962
v 0.00685009 0.01499077 0.00973495
v 0.00426631 0.01649994 0.01480798
v 0.00766494 0.01499077 0.00854764
v 0.00928220 0.01499077 0.00613114
v 0.00357454 0.01548046 0.01475001
v 0.00350448 0.01539789 0.01474414
v 0.00373310 0.01499077 0.01396897
v 0.00311973 0.01499077 0.01471190
v 0.00978344 0.01630067 0.00617314
v 0.01000977 0.01715361 0.00619210
v 0.00496232 0.01860130 0.01486630
v 0.01020854 0.01837858 0.00620876
v 0.00499228 0.01884409 0.01486881
v 0.01023746 0.01870614 0.00621118
v 0.00499821 0.02007747 0.01486931
v 0.01023746 0.02027540 0.00621118
v 0.00496232 0.02038024 0.01486630
v 0.01000977 0.02182794 0.00619210
v 0.00981363 0.02258171 0.00617567
v -0.00504494 0.01453679 0.01457065
v -0.00552465 0.01499077 0.01398752
v -0.00464831 0.01423467 0.01496520
v 0.00247673 0.01448521 0.01526263
v 0.00209412 0.01423584 0.01552879
v -0.00331372 0.01356100 0.01588270
v -0.00391975 0.01381064 0.01553336
v -0.00449805 0.01413445 0.01509766
v -0.00310857 0.01349455 0.01597936
v 0.00178501 0.01405837 0.01571513
v 0.00114004 0.01375085 0.01602886
v 0.00048257 0.01351703 0.01625340
v 0.00040444 0.01349418 0.01627418
v -0.00269504 0.01338531 0.01614466
v -0.00018070 0.01335445 0.01639225
v -0.00083314 0.01326412 0.01644561
v -0.00137661 0.01324077 0.01642799
v -0.00205786 0.01327830 0.01632602
v 0.00321051 0.01499078 -0.01065094
v -0.00654792 0.01499077 0.01215249
v -0.00790056 0.01499077 0.00945759
v -0.00960277 0.01499077 0.00578136
v -0.01017312 0.01499077 0.00450084
v -0.01057313 0.01499058 0.00345790
v -0.01075640 0.01499051 0.00283679
v -0.01086755 0.01499051 0.00237569
v 0.00318954 0.01499078 -0.01065725
v -0.01037170 0.01499061 -0.00402198
v -0.01019082 0.01499069 -0.00446054
v -0.01105293 0.01499066 0.00125770
v -0.01106820 0.01499069 0.00111547
v -0.01112372 0.01499084 0.00011541
v -0.01107562 0.01499084 -0.00103986
v 0.00209534 0.01499031 -0.01092499
v -0.00969232 0.01499088 -0.00545985
v 0.00101112 0.01499077 -0.01107825
v 0.00999591 0.01499058 -0.00488159
v 0.01043035 0.01498994 -0.00386656
v 0.01076564 0.01498980 -0.00280040
v -0.01090518 0.01499069 -0.00219687
v -0.01060967 0.01499057 -0.00334411
v 0.00321607 0.01499078 -0.01064928
v 0.00411074 0.01499079 -0.01033692
v 0.00427139 0.01499078 -0.01027158
v 0.00531380 0.01499081 -0.00977312
v 0.00629792 0.01499065 -0.00916980
v 0.00718703 0.01499055 -0.00849085
v 0.00801963 0.01499057 -0.00770933
v 0.00878672 0.01499101 -0.00682245
v 0.00946383 0.01499089 -0.00584696
v 0.01099416 0.01499015 -0.00169493
v 0.01111005 0.01499061 -0.00056155
v 0.01110874 0.01499081 0.00058846
v -0.00909681 0.01499142 -0.00640344
v -0.00839354 0.01499127 -0.00730088
v -0.00758326 0.01499047 -0.00813888
v -0.00468783 0.01499111 -0.01008848
v -0.00361569 0.01499084 -0.01052034
v -0.00250082 0.01499058 -0.01083947
v -0.00013355 0.01499033 -0.01112332
v -0.00133598 0.01499077 -0.01104378
v 0.01098668 0.01499061 0.00174396
v 0.01074108 0.01499018 0.00289374
v 0.00987148 0.01499028 0.00512831
v 0.01036967 0.01498994 0.00402646
v -0.00667021 0.01499013 -0.00890239
v -0.00569116 0.01499073 -0.00955826
v -0.00066426 0.01899088 -0.01197117
v -0.00071915 0.01923813 -0.01197577
v 0.00100205 0.01949077 -0.01195809
v -0.00057409 0.01875427 -0.01196361
v -0.00045054 0.01853337 -0.01195326
v -0.00029626 0.01833287 -0.01194033
v -0.00011454 0.01815705 -0.01192510
v 0.00009076 0.01800966 -0.01190790
v 0.00031526 0.01789383 -0.01188909
v 0.00055417 0.01781204 -0.01186907
v 0.00080241 0.01776602 -0.01184826
v 0.00105467 0.01775677 -0.01182713
v 0.00130559 0.01778448 -0.01180610
v 0.00154981 0.01784855 -0.01178563
v 0.00178213 0.01794763 -0.01176617
v 0.00199761 0.01807959 -0.01174811
v 0.00219164 0.01824163 -0.01173185
v 0.00236009 0.01843029 -0.01171774
v 0.00249938 0.01864156 -0.01170606
v 0.00260652 0.01887092 -0.01169709
v 0.00267925 0.01911350 -0.01169099
v 0.00271600 0.01936411 -0.01168791
v 0.00271600 0.01961743 -0.01168791
v 0.00267925 0.01986805 -0.01169099
v 0.00260652 0.02011062 -0.01169709
v 0.00249938 0.02033999 -0.01170606
v 0.00236009 0.02055125 -0.01171774
v 0.00219164 0.02073992 -0.01173185
v 0.00199761 0.02090196 -0.01174811
v 0.00178213 0.02103392 -0.01176617
v 0.00154981 0.02113299 -0.01178563
v 0.00130559 0.02119706 -0.01180610
v 0.00105467 0.02122477 -0.01182713
v 0.00080241 0.02121552 -0.01184826
v 0.00055417 0.02116951 -0.01186907
v 0.00031526 0.02108772 -0.01188909
v 0.00009076 0.02097189 -0.01190790
v -0.00011454 0.02082449 -0.01192510
v -0.00029626 0.02064868 -0.01194033
v -0.00045054 0.02044817 -0.01195326
v -0.00057409 0.02022727 -0.01196361
v -0.00066426 0.01999067 -0.01197117
v -0.00071915 0.01974341 -0.01197577
v -0.00073758 0.01949077 -0.01197731
v 0.00384272 0.01537524 -0.01059697
v 0.00321495 0.01499242 -0.01065030
v 0.00252476 0.01643691 -0.01132694
v 0.01078465 0.02197109 0.00464105
v -0.01109947 0.02060297 0.00442322
v -0.01104281 0.02105585 0.00442797
v -0.01155745 0.02115171 0.00276886
v 0.00315531 0.02399077 -0.01066743
v 0.00320431 0.02399077 -0.01065281
v 0.00321588 0.02398661 -0.01065108
v 0.00321873 0.02399077 -0.01064846
v 0.00985020 0.02399096 0.00516931
v 0.00766899 0.01559386 -0.00836665
v -0.00867381 0.01516199 -0.00707294
v -0.00763445 0.01559561 -0.00839898
v -0.01119661 0.01620430 0.00279910
v -0.01070280 0.01639398 0.00445646
v -0.01145509 0.01608369 0.00108290
v -0.01147280 0.01603469 -0.00065604
v -0.01124937 0.01605834 -0.00238121
v -0.01078949 0.01615413 -0.00405632
v -0.00920383 0.01655262 -0.00711736
v -0.01010283 0.01632005 -0.00564618
v -0.00643462 0.01611110 -0.00954848
v -0.00586770 0.01509741 -0.00950098
v -0.00463101 0.01585986 -0.01045802
v -0.00404591 0.01509948 -0.01040899
v -0.00171834 0.01517129 -0.01106297
v -0.00231707 0.01560115 -0.01111314
v -0.00284705 0.01611390 -0.01115755
v -0.00082243 0.01655967 -0.01160742
v -0.00037815 0.01633045 -0.01157019
v 0.00009465 0.01616859 -0.01153058
v 0.00058590 0.01607753 -0.01148941
v 0.00108512 0.01605922 -0.01144758
v 0.00158168 0.01611405 -0.01140597
v 0.00206500 0.01624085 -0.01136547
v 0.00602820 0.01546894 -0.00956481
v 0.00655643 0.01627016 -0.00952055
v 0.00862036 0.01499947 -0.00703688
v 0.00918703 0.01621253 -0.00698940
v 0.01002029 0.01584758 -0.00550644
v 0.01064295 0.01555921 -0.00390775
v 0.01104190 0.01535347 -0.00222692
v 0.01120877 0.01523470 -0.00049929
v 0.01114005 0.01520538 0.00123884
v 0.01083718 0.01526613 0.00295092
v 0.01030653 0.01541568 0.00460099
v 0.01030653 0.02356586 0.00460099
v 0.01083718 0.02371541 0.00295092
v 0.01032062 0.02399104 0.00415119
v 0.01068947 0.02399088 0.00307964
v 0.01094939 0.02399071 0.00196507
v 0.01114005 0.02377616 0.00123884
v 0.01109422 0.02399070 0.00081790
v 0.01120877 0.02374684 -0.00049929
v 0.01111871 0.02399086 -0.00035134
v 0.01101825 0.02399098 -0.00153176
v 0.01104190 0.02362807 -0.00222692
v 0.01079104 0.02399086 -0.00270233
v 0.01064295 0.02342233 -0.00390775
v 0.01046581 0.02399066 -0.00377066
v 0.01003563 0.02399012 -0.00480020
v 0.01002029 0.02313396 -0.00550644
v 0.00949153 0.02399028 -0.00580217
v 0.00883202 0.02399108 -0.00676334
v 0.00918703 0.02276902 -0.00698940
v 0.00862036 0.02398207 -0.00703688
v 0.00766899 0.02338768 -0.00836665
v 0.00720252 0.02399081 -0.00847781
v 0.00805877 0.02399142 -0.00766815
v 0.00655643 0.02271139 -0.00952055
v 0.00602820 0.02351260 -0.00956481
v 0.00630143 0.02399044 -0.00916761
v 0.00489986 0.02258353 -0.01050839
v 0.00440859 0.02313374 -0.01054955
v 0.00531611 0.02399070 -0.00977188
v 0.00384272 0.02360630 -0.01059697
v 0.00411119 0.02399094 -0.01033666
v 0.00426990 0.02399097 -0.01027210
v 0.00252476 0.02254463 -0.01132694
v 0.00206500 0.02274070 -0.01136547
v 0.00198289 0.02399122 -0.01094597
v 0.00158168 0.02286749 -0.01140597
v 0.00108512 0.02292232 -0.01144758
v 0.00084668 0.02399078 -0.01109203
v -0.00361321 0.02399073 -0.01052117
v -0.00404591 0.02388206 -0.01040899
v -0.00468400 0.02399089 -0.01009005
v -0.00463101 0.02312168 -0.01045802
v -0.00567371 0.02399100 -0.00956854
v -0.00763445 0.02338593 -0.00839898
v -0.00752875 0.02399053 -0.00818963
v -0.00662476 0.02399097 -0.00893649
v -0.00867381 0.02381956 -0.00707294
v -0.00835877 0.02399065 -0.00734044
v -0.01010283 0.02266149 -0.00564618
v -0.00964140 0.02399160 -0.00554851
v -0.00904409 0.02399097 -0.00647708
v -0.00920383 0.02242893 -0.00711736
v -0.01014945 0.02399175 -0.00455302
v -0.01078949 0.02282741 -0.00405632
v -0.01037142 0.02399161 -0.00402195
v -0.01112370 0.02399094 -0.00010882
v -0.01110670 0.02399080 -0.00062532
v -0.01147280 0.02294685 -0.00065604
v -0.01105175 0.02399073 -0.00126851
v -0.01124937 0.02292321 -0.00238121
v -0.01086165 0.02399093 -0.00240271
v -0.01055876 0.02399139 -0.00350099
v -0.01107288 0.02399137 0.00106580
v -0.01145509 0.02289785 0.00108290
v -0.01089516 0.02399161 0.00224454
v -0.01119661 0.02277725 0.00279910
v -0.01075617 0.02399151 0.00283693
v -0.01070280 0.02258756 0.00445646
v -0.01017312 0.02399077 0.00450084
v -0.01058729 0.02399126 0.00341393
v -0.01115696 0.01949077 0.00441840
v -0.01110966 0.01848175 0.00442236
v -0.01167859 0.01949077 0.00275871
v -0.01195476 0.01949077 0.00104103
v -0.01182917 0.02121266 0.00105156
v -0.01197965 0.01949077 -0.00069852
v -0.01185226 0.02123742 -0.00068784
v -0.01175275 0.01949077 -0.00242339
v -0.01162623 0.02122547 -0.00241279
v -0.01127882 0.01949077 -0.00409733
v -0.01115584 0.02117706 -0.00408702
v -0.01056783 0.01949077 -0.00568515
v -0.01045096 0.02109321 -0.00567535
v -0.00963472 0.01949077 -0.00715347
v -0.00952642 0.02097567 -0.00714439
v -0.00811137 0.02213461 -0.00843895
v -0.00840165 0.02082693 -0.00846327
v -0.00849910 0.01949077 -0.00847144
v 0.00957165 0.02148609 -0.00695717
v 0.01044774 0.02170822 -0.00547062
v 0.01110423 0.02188373 -0.00386910
v 0.01152732 0.02200896 -0.00218625
v 0.01170812 0.02208125 -0.00045744
v 0.01164284 0.02209909 0.00128097
v 0.01133284 0.02206212 0.00299246
v 0.01102628 0.02032346 0.00466130
v 0.01158335 0.02035402 0.00301345
v 0.01189695 0.02036643 0.00130226
v 0.01196049 0.02036044 -0.00043630
v 0.01177264 0.02033617 -0.00216569
v 0.01133735 0.02029413 -0.00384956
v 0.01066376 0.02023521 -0.00545252
v 0.00976604 0.02016064 -0.00694088
v 0.01102628 0.01865808 0.00466130
v 0.01158335 0.01862752 0.00301345
v 0.01189695 0.01861511 0.00130226
v 0.01196049 0.01862110 -0.00043630
v 0.01177264 0.01864537 -0.00216569
v 0.01133735 0.01868741 -0.00384956
v 0.01066376 0.01874634 -0.00545252
v 0.00976604 0.01882091 -0.00694088
v 0.01078465 0.01701045 0.00464105
v 0.01133284 0.01691943 0.00299246
v 0.01164284 0.01688245 0.00128097
v 0.01170812 0.01690029 -0.00045744
v 0.01152732 0.01697259 -0.00218625
v 0.01110423 0.01709781 -0.00386910
v 0.01044774 0.01727333 -0.00547062
v 0.00957165 0.01749546 -0.00695717
v -0.00586770 0.02388413 -0.00950098
v -0.00643462 0.02287044 -0.00954848
v -0.00684843 0.02178472 -0.00958316
v -0.00710029 0.02065010 -0.00960426
v -0.00718485 0.01949077 -0.00961135
v 0.00816066 0.01664638 -0.00832545
v 0.00849439 0.01775952 -0.00829748
v 0.00866305 0.01890956 -0.00828335
v 0.00866305 0.02007199 -0.00828335
v 0.00849439 0.02122203 -0.00829748
v 0.00816066 0.02233517 -0.00832545
v -0.00509955 0.02228391 -0.01049728
v -0.00544154 0.02138661 -0.01052594
v -0.00564969 0.02044890 -0.01054338
v -0.00571957 0.01949077 -0.01054924
v 0.00696277 0.01714001 -0.00948650
v 0.00723858 0.01805997 -0.00946339
v 0.00737797 0.01901043 -0.00945171
v 0.00737797 0.01997112 -0.00945171
v 0.00723858 0.02092157 -0.00946339
v 0.00696277 0.02184153 -0.00948650
v -0.00509955 0.01669763 -0.01049728
v -0.00811137 0.01684694 -0.00843895
v -0.00684843 0.01719683 -0.00958316
v -0.00544154 0.01759494 -0.01052594
v -0.01104281 0.01792570 0.00442797
v -0.01155745 0.01782984 0.00276886
v -0.01182917 0.01776888 0.00105156
v -0.01185226 0.01774412 -0.00068784
v -0.01162623 0.01775607 -0.00241279
v -0.01115584 0.01780448 -0.00408702
v -0.01045096 0.01788834 -0.00567535
v -0.00952642 0.01800587 -0.00714439
v -0.00840165 0.01815462 -0.00846327
v -0.00710029 0.01833145 -0.00960426
v -0.00564969 0.01853264 -0.01054338
v 0.00440859 0.01584781 -0.01054955
v 0.00489986 0.01639802 -0.01050839
v 0.00530606 0.01701415 -0.01047435
v 0.00561854 0.01768306 -0.01044816
v 0.00583063 0.01839050 -0.01043039
v 0.00593782 0.01912139 -0.01042141
v 0.00593782 0.01986015 -0.01042141
v 0.00583063 0.02059104 -0.01043039
v 0.00561854 0.02129849 -0.01044816
v 0.00530606 0.02196740 -0.01047435
v -0.00137143 0.02399077 -0.01103944
v -0.00171834 0.02381025 -0.01106297
v -0.00250237 0.02399076 -0.01083920
v -0.00231707 0.02338040 -0.01111314
v -0.00284705 0.02286764 -0.01115755
v -0.00329699 0.02228291 -0.01119526
v -0.00365729 0.02163867 -0.01122545
v -0.00392028 0.02094866 -0.01124749
v -0.00408035 0.02022756 -0.01126090
v -0.00413408 0.01949077 -0.01126540
v -0.00408035 0.01875398 -0.01126090
v -0.00392028 0.01803289 -0.01124749
v -0.00365729 0.01734287 -0.01122545
v -0.00329699 0.01669863 -0.01119526
v 0.00295118 0.02228348 -0.01129121
v 0.00333516 0.02196281 -0.01125903
v 0.00366853 0.02158944 -0.01123110
v 0.00394417 0.02117136 -0.01120800
v 0.00415621 0.02071745 -0.01119023
v 0.00430013 0.02023739 -0.01117817
v 0.00437287 0.01974143 -0.01117207
v 0.00437287 0.01924012 -0.01117207
v 0.00430013 0.01874415 -0.01117817
v 0.00415621 0.01826410 -0.01119023
v 0.00394417 0.01781019 -0.01120800
v 0.00366853 0.01739210 -0.01123110
v 0.00333516 0.01701874 -0.01125903
v 0.00295118 0.01669806 -0.01129121
v 0.00058590 0.02290401 -0.01148941
v 0.00009465 0.02281296 -0.01153058
v -0.00024793 0.02399124 -0.01112135
v -0.00037815 0.02265109 -0.01157019
v -0.00082243 0.02242188 -0.01160742
v -0.00122872 0.02213018 -0.01164147
v -0.00158835 0.02178224 -0.01167160
v -0.00189367 0.02138546 -0.01169719
v -0.00213816 0.02094829 -0.01171768
v -0.00231662 0.02048006 -0.01173263
v -0.00242524 0.01999074 -0.01174173
v -0.00246170 0.01949077 -0.01174479
v -0.00242524 0.01899080 -0.01174173
v -0.00231662 0.01850148 -0.01173263
v -0.00213816 0.01803325 -0.01171768
v -0.00189367 0.01759609 -0.01169719
v -0.00158835 0.01719931 -0.01167160
v -0.00122872 0.01685136 -0.01164147
v -0.00590940 0.01539789 0.01395528
v -0.00601778 0.01552689 0.01394620
v -0.00669972 0.01655302 0.01388906
v -0.00686780 0.01689443 0.01387497
v -0.00667123 0.02248160 0.01389145
v -0.00597946 0.02350108 0.01394941
v -0.00706184 0.02399077 0.01115999
v -0.00590940 0.02358365 0.01395528
v -0.00600583 0.02399077 0.01315288
v -0.00552465 0.02399077 0.01398753
v -0.00837470 0.02399077 0.00845916
v -0.00898059 0.02399077 0.00715279
v -0.00686780 0.02208712 0.01387497
v -0.00715003 0.02134565 0.01385132
v -0.00736724 0.02038024 0.01383311
v -0.00739720 0.02013746 0.01383061
v -0.00740313 0.01890408 0.01383011
v -0.00736724 0.01860130 0.01383311
v -0.00716758 0.01769355 0.01384985
v -0.00254990 0.02562709 0.01619372
v -0.00310723 0.02548736 0.01597991
v -0.00439341 0.02548760 0.03134260
v 0.00072847 0.02474861 0.03177179
v 0.00209291 0.02474687 0.01553009
v 0.00192270 0.02484710 0.01563569
v 0.00040585 0.02548699 0.01627386
v -0.00088405 0.02548760 0.03163667
v 0.00062423 0.02542055 0.01621269
v 0.00127995 0.02517090 0.01596907
v 0.00254966 0.02444475 0.01520705
v 0.00206821 0.02358365 0.03188406
v 0.00206821 0.01539789 0.03188406
v 0.00072847 0.01423294 0.03177179
v -0.00088405 0.01349394 0.03163667
v -0.00263873 0.01324077 0.03148963
v -0.00439341 0.01349394 0.03134260
v -0.00600593 0.01423294 0.03120747
v -0.00734567 0.01539789 0.03109520
v -0.00600593 0.02474861 0.03120747
v -0.00318081 0.02546452 0.01594642
v -0.00379175 0.02523070 0.01561560
v -0.00498228 0.02449633 0.01463758
v -0.00734567 0.02358365 0.03109520
v -0.00464929 0.02474570 0.01496372
v -0.00437551 0.02492317 0.01519890
v -0.00002942 0.02559624 0.01636803
v -0.00068790 0.02570325 0.01644082
v -0.00263873 0.02574077 0.03148963
v -0.00137661 0.02574077 0.01642799
v -0.00191544 0.02571742 0.01635491
v 0.00302661 0.02208712 0.03196437
v 0.00352605 0.02038024 0.03200622
v 0.00352605 0.01860130 0.03200622
v 0.00302661 0.01689443 0.03196437
v -0.00669972 0.01655302 0.01388905
v -0.00830407 0.01689443 0.03101489
v -0.00880351 0.01860130 0.03097304
v -0.00880351 0.02038024 0.03097304
v -0.00739720 0.02013746 0.01383060
v -0.00830407 0.02208712 0.03101489
v -0.00667123 0.02248160 0.01389144
v -0.02778553 0.02251913 0.20807187
v -0.02723558 0.02399077 0.20811796
v -0.02288605 0.02056710 0.19938529
v -0.02371982 0.02399077 0.20297730
v -0.02212819 0.02264426 0.19944879
v -0.02107312 0.02399077 0.19953720
v -0.02209763 0.01628538 0.19945136
v -0.02107312 0.01499077 0.19953720
v -0.02313714 0.01499077 0.20217492
v -0.02723558 0.01499077 0.20811796
v -0.02778553 0.01646242 0.20807187
v -0.02287542 0.01835511 0.19938618
v -0.02804111 0.01753761 0.20805046
v -0.02297910 0.01949077 0.19937749
v -0.02821942 0.01949077 0.20803551
v -0.02805939 0.02134188 0.20804892
v -0.01242874 0.01499077 0.20026158
v -0.01307306 0.01440438 0.19950630
v -0.01353298 0.01408544 0.19908632
v -0.01977493 0.01407830 0.19855474
v -0.01976225 0.01407135 0.19854750
v -0.01414678 0.01375758 0.19864281
v -0.01851769 0.01354202 0.19801873
v -0.01726033 0.01327772 0.19780801
v -0.01657677 0.01324077 0.19782111
v -0.01526868 0.01338298 0.19810079
v -0.01039146 0.01499077 0.20409417
v -0.02907599 0.01499072 0.21444227
v -0.02887266 0.01499047 0.21212381
v -0.02830429 0.01498994 0.21017462
v -0.00686868 0.01499072 0.21331167
v -0.00691384 0.01499081 0.21561982
v -0.02810504 0.01499035 0.21879773
v -0.00740198 0.01499057 0.21777272
v -0.00830392 0.01499092 0.21978436
v -0.00949109 0.01499132 0.22147021
v -0.01122701 0.01499012 0.22310913
v -0.01287090 0.01499095 0.22414455
v -0.02172977 0.01499080 0.22471280
v -0.02378030 0.01499077 0.22372521
v -0.02881036 0.01498988 0.21667151
v -0.00778026 0.01499077 0.20974825
v -0.00727539 0.01499053 0.21113008
v -0.01501577 0.01499059 0.22497843
v -0.01729124 0.01499042 0.22535352
v -0.01956866 0.01499050 0.22525539
v -0.02557950 0.01499046 0.22234784
v -0.02711525 0.01499104 0.22055884
v -0.01242874 0.02399077 0.20026158
v -0.02031209 0.02457716 0.19889970
v -0.01978868 0.02489611 0.19856212
v -0.01354531 0.02490324 0.19907676
v -0.01355661 0.02491019 0.19906750
v -0.01910963 0.02522396 0.19822693
v -0.01469581 0.02543953 0.19833900
v -0.01590057 0.02570382 0.19792196
v -0.01657677 0.02574077 0.19782111
v -0.01791317 0.02559856 0.19787920
v -0.01083248 0.02399077 0.20320600
v -0.00778026 0.02399077 0.20974825
v -0.00701805 0.02399083 0.21629065
v -0.00683269 0.02399107 0.21397069
v -0.00706874 0.02399160 0.21195409
v -0.02872750 0.02399082 0.21147998
v -0.02906709 0.02399074 0.21376345
v -0.00870031 0.02399120 0.22042379
v -0.02894407 0.02399097 0.21596757
v -0.02838949 0.02399062 0.21810126
v -0.02749944 0.02399023 0.21996117
v -0.02606048 0.02399143 0.22186612
v -0.02461184 0.02399059 0.22316070
v -0.01597109 0.02399074 0.22519536
v -0.01378479 0.02399078 0.22456281
v -0.00765098 0.02399166 0.21844460
v -0.02796338 0.02399101 0.20939650
v -0.02263567 0.02399096 0.22433992
v -0.02045435 0.02399112 0.22508848
v -0.01819236 0.02399104 0.22537072
v -0.01178146 0.02399108 0.22350408
v -0.00996939 0.02399050 0.22199561
v -0.02179218 0.02134725 0.22546592
v -0.02219677 0.02045820 0.22543202
v -0.01895544 0.01949077 0.22620718
v -0.01940051 0.02288966 0.22566634
v -0.02033502 0.02261430 0.22558802
v -0.01842655 0.02288966 0.22574796
v -0.01749205 0.02261430 0.22582626
v -0.01667270 0.02208590 0.22589493
v -0.01603489 0.02134725 0.22594836
v -0.01563029 0.02045820 0.22598228
v -0.01549169 0.01949077 0.22599389
v -0.01563029 0.01852335 0.22598228
v -0.01603489 0.01763430 0.22594836
v -0.01842655 0.01609188 0.22574796
v -0.01749205 0.01636724 0.22582626
v -0.01940051 0.01609188 0.22566634
v -0.02033502 0.01636724 0.22558802
v -0.02115437 0.01689565 0.22551937
v -0.02179218 0.01763430 0.22546592
v -0.02219677 0.01852335 0.22543202
v -0.02233538 0.01949077 0.22542040
v -0.02946463 0.01613419 0.21472304
v -0.02909080 0.01615898 0.21127301
v -0.02430787 0.01593308 0.22378656
v -0.01327480 0.01593308 0.22471111
v -0.00723032 0.01646242 0.20979434
v -0.00668155 0.02284735 0.21663219
v -0.00647599 0.02282256 0.21316807
v -0.01327480 0.02304846 0.22471111
v -0.02430787 0.02304846 0.22378656
v -0.02946463 0.02284735 0.21472304
v -0.02909080 0.02282256 0.21127301
v -0.02887574 0.02259143 0.21813343
v -0.02737339 0.02207618 0.22121897
v -0.02508323 0.02134471 0.22372159
v -0.02115437 0.02208590 0.22551937
v -0.01249944 0.02134471 0.22477607
v -0.00982471 0.02207618 0.22268949
v -0.00782980 0.02259143 0.21989702
v -0.00668155 0.01613419 0.21663219
v -0.00647599 0.01615898 0.21316807
v -0.00782980 0.01639012 0.21989702
v -0.00982471 0.01690536 0.22268949
v -0.01249944 0.01763683 0.22477607
v -0.01667270 0.01689565 0.22589493
v -0.02508323 0.01763683 0.22372159
v -0.02737339 0.01690536 0.22121897
v -0.02887574 0.01639012 0.21813343
v -0.00679643 0.01949077 0.20983070
v -0.00697474 0.02144393 0.20981576
v -0.00723032 0.02251913 0.20979434
v -0.02956817 0.01949077 0.21123302
v -0.02994555 0.01949077 0.21468274
v -0.02931999 0.01949077 0.21809621
v -0.02774382 0.01949077 0.22118793
v -0.02534885 0.01949077 0.22369933
v -0.00695646 0.01763966 0.20981729
v -0.00599863 0.01949077 0.21320806
v -0.00620063 0.01949077 0.21667250
v -0.00738555 0.01949077 0.21993424
v -0.00945428 0.01949077 0.22272053
v -0.01223381 0.01949077 0.22479834
v -0.01061580 0.01841445 0.20041350
v -0.01137366 0.01633728 0.20034999
v -0.01140422 0.02269616 0.20034742
v -0.01062644 0.02062643 0.20041260
v -0.01052275 0.01949077 0.20042129
v 0.00419129 0.01636577 0.01480169
v 0.00265819 0.01461615 0.01512120
v 0.00183714 0.01408709 0.01568514
v 0.00135436 0.01384464 0.01593463
v -0.00000989 0.01338978 0.01636431
v -0.00194863 0.01326743 0.01634815
v -0.00313449 0.01350264 0.01596748
v -0.00440576 0.01407713 0.01517391
v -0.00552465 0.01499077 0.01398753
v -0.00659621 0.02261577 0.01389773
v -0.00513767 0.02436540 0.01446793
v -0.00442192 0.02489446 0.01516065
v -0.00398739 0.02513691 0.01548701
v -0.00271368 0.02559176 0.01613774
v -0.00079929 0.02571411 0.01644446
v 0.00043339 0.02547890 0.01626646
v 0.00181900 0.02490442 0.01569553
v 0.00502571 0.01949077 0.01487161
v 0.00419129 0.02261577 0.01480169
v -0.00743063 0.01949077 0.01382781
v -0.00659621 0.01636577 0.01389773
f 1 2 3
f 3 2 4
f 3 4 5
f 5 4 6
f 5 6 7
f 7 6 8
f 9 10 8
f 8 10 11
f 8 11 7
f 12 13 14
f 15 16 17
f 17 16 18
f 17 18 14
f 14 18 19
f 14 19 12
f 17 20 15
f 15 20 21
f 15 21 22
f 22 21 23
f 12 24 13
f 13 24 25
f 13 25 26
f 26 25 27
f 26 27 28
f 28 27 29
f 28 29 30
f 30 29 31
f 30 31 32
f 32 31 33
f 32 33 9
f 9 33 34
f 9 34 10
f 35 36 23
f 35 23 37
f 37 23 38
f 37 38 39
f 40 41 39
f 39 41 42
f 39 42 37
f 40 39 43
f 43 39 44
f 43 44 45
f 45 46 43
f 43 46 47
f 43 47 48
f 48 47 49
f 49 50 48
f 48 50 51
f 48 51 52
f 22 23 36
f 53 18 16
f 53 36 54
f 54 55 53
f 53 55 56
f 53 56 57
f 53 16 36
f 36 16 15
f 36 15 22
f 57 58 53
f 53 58 59
f 53 59 60
f 61 62 63
f 60 64 53
f 53 64 65
f 53 65 61
f 61 65 66
f 61 66 67
f 61 63 68
f 68 63 69
f 68 69 70
f 71 72 19
f 19 72 73
f 67 74 61
f 61 74 75
f 61 75 62
f 53 76 18
f 18 76 77
f 18 77 19
f 19 77 78
f 19 78 79
f 79 80 19
f 19 80 81
f 19 81 82
f 82 83 19
f 19 83 84
f 19 84 71
f 73 85 19
f 19 85 86
f 19 86 87
f 69 88 70
f 70 88 89
f 70 89 90
f 91 92 70
f 70 92 93
f 70 93 94
f 94 93 95
f 87 96 19
f 19 96 97
f 19 97 98
f 98 97 99
f 90 100 70
f 70 100 101
f 70 101 91
f 102 103 104
f 102 104 105
f 106 105 104
f 107 106 104
f 108 107 104
f 109 108 104
f 110 109 104
f 111 110 104
f 112 111 104
f 113 112 104
f 114 113 104
f 115 114 104
f 116 115 104
f 117 116 104
f 118 117 104
f 119 118 104
f 120 119 104
f 121 120 104
f 122 121 104
f 123 122 104
f 124 123 104
f 125 124 104
f 126 125 104
f 127 126 104
f 128 127 104
f 129 128 104
f 130 129 104
f 131 130 104
f 132 131 104
f 133 132 104
f 134 133 104
f 135 134 104
f 136 135 104
f 137 136 104
f 138 137 104
f 139 138 104
f 140 139 104
f 141 140 104
f 142 141 104
f 143 142 104
f 144 143 104
f 145 144 104
f 103 145 104
f 146 147 148
f 34 33 149
f 150 151 152
f 153 154 155
f 155 154 156
f 157 11 10
f 82 81 158
f 89 159 160
f 60 59 161
f 161 59 162
f 162 59 58
f 162 58 57
f 60 161 64
f 64 161 163
f 64 163 65
f 65 163 66
f 66 163 164
f 66 164 67
f 67 164 165
f 67 165 74
f 74 165 75
f 75 165 166
f 75 166 62
f 167 88 168
f 168 88 69
f 168 69 166
f 166 69 63
f 166 63 62
f 169 100 160
f 160 100 90
f 160 90 89
f 101 170 91
f 91 170 171
f 91 171 172
f 173 93 174
f 174 93 92
f 174 92 175
f 176 177 95
f 95 177 178
f 95 178 94
f 178 179 94
f 94 179 180
f 94 180 70
f 70 180 181
f 70 181 68
f 68 181 182
f 68 182 61
f 61 182 148
f 61 148 53
f 53 148 147
f 53 147 76
f 76 147 146
f 76 146 77
f 79 183 80
f 80 183 184
f 80 184 81
f 82 185 83
f 83 185 186
f 83 186 84
f 84 186 187
f 84 187 71
f 71 187 72
f 72 187 188
f 72 188 73
f 73 188 189
f 73 189 85
f 85 189 190
f 85 190 86
f 86 190 87
f 87 190 191
f 87 191 96
f 96 191 192
f 96 192 97
f 97 192 99
f 99 192 193
f 99 193 98
f 194 195 196
f 196 195 197
f 197 195 198
f 198 195 199
f 198 199 200
f 200 199 201
f 200 201 202
f 202 201 203
f 203 201 204
f 203 204 205
f 205 204 206
f 205 206 207
f 207 206 208
f 208 206 209
f 208 209 210
f 210 209 211
f 211 209 212
f 211 212 213
f 214 215 216
f 217 218 219
f 220 221 222
f 223 224 221
f 221 224 225
f 221 225 222
f 226 227 228
f 227 229 228
f 228 229 230
f 228 230 231
f 232 233 234
f 234 233 235
f 234 235 236
f 237 238 239
f 240 241 238
f 242 243 244
f 241 240 244
f 244 240 245
f 244 245 242
f 243 242 246
f 246 242 247
f 246 247 248
f 249 250 251
f 251 250 252
f 251 252 253
f 253 252 254
f 253 254 247
f 247 254 255
f 247 255 248
f 249 251 256
f 256 251 257
f 256 257 258
f 258 257 259
f 258 259 260
f 261 262 259
f 259 262 263
f 259 263 260
f 150 152 264
f 34 149 10
f 19 98 12
f 12 98 193
f 12 193 24
f 24 193 25
f 265 264 266
f 266 264 152
f 266 152 267
f 267 152 268
f 267 268 269
f 269 268 270
f 269 270 271
f 271 270 272
f 271 272 273
f 273 272 274
f 273 274 275
f 275 274 276
f 275 276 277
f 277 276 278
f 151 261 152
f 152 261 259
f 152 259 268
f 268 259 257
f 268 257 270
f 270 257 251
f 270 251 272
f 272 251 253
f 272 253 274
f 274 253 247
f 274 247 276
f 276 247 242
f 276 242 278
f 278 242 245
f 238 237 240
f 240 237 279
f 240 279 245
f 245 279 280
f 245 280 278
f 278 280 281
f 278 281 277
f 282 212 283
f 283 212 209
f 283 209 284
f 284 209 206
f 284 206 285
f 285 206 204
f 285 204 286
f 286 204 201
f 286 201 287
f 287 201 199
f 287 199 288
f 288 199 195
f 288 195 149
f 149 195 194
f 149 194 10
f 10 194 196
f 10 196 157
f 33 31 149
f 149 31 289
f 149 289 288
f 288 289 290
f 288 290 287
f 287 290 291
f 287 291 286
f 286 291 292
f 286 292 285
f 285 292 293
f 285 293 284
f 284 293 294
f 284 294 283
f 283 294 295
f 283 295 282
f 282 295 296
f 31 29 289
f 289 29 297
f 289 297 290
f 290 297 298
f 290 298 291
f 291 298 299
f 291 299 292
f 292 299 300
f 292 300 293
f 293 300 301
f 293 301 294
f 294 301 302
f 294 302 295
f 295 302 303
f 295 303 296
f 296 303 304
f 29 27 297
f 297 27 305
f 297 305 298
f 298 305 306
f 298 306 299
f 299 306 307
f 299 307 300
f 300 307 308
f 300 308 301
f 301 308 309
f 301 309 302
f 302 309 310
f 302 310 303
f 303 310 311
f 303 311 304
f 304 311 312
f 27 25 305
f 305 25 193
f 305 193 306
f 306 193 192
f 306 192 307
f 307 192 191
f 307 191 308
f 308 191 190
f 308 190 309
f 309 190 189
f 309 189 310
f 310 189 188
f 310 188 311
f 311 188 187
f 311 187 312
f 312 187 186
f 236 313 239
f 239 313 314
f 239 314 237
f 237 314 315
f 237 315 279
f 279 315 316
f 279 316 280
f 280 316 317
f 280 317 281
f 82 158 185
f 185 158 318
f 185 318 186
f 186 318 319
f 186 319 312
f 312 319 320
f 312 320 304
f 304 320 321
f 304 321 296
f 296 321 322
f 296 322 282
f 282 322 323
f 282 323 212
f 212 323 214
f 212 214 213
f 213 214 216
f 213 216 211
f 236 235 313
f 313 235 324
f 313 324 314
f 314 324 325
f 314 325 315
f 315 325 326
f 315 326 316
f 316 326 327
f 316 327 317
f 81 184 158
f 158 184 328
f 158 328 318
f 318 328 329
f 318 329 319
f 319 329 330
f 319 330 320
f 320 330 331
f 320 331 321
f 321 331 332
f 321 332 322
f 322 332 333
f 322 333 323
f 323 333 217
f 323 217 214
f 214 217 219
f 214 219 215
f 101 100 170
f 170 100 169
f 170 169 171
f 171 169 334
f 89 88 159
f 159 88 167
f 159 167 160
f 160 167 335
f 160 335 169
f 169 335 336
f 169 336 334
f 334 336 337
f 162 338 161
f 161 338 339
f 161 339 163
f 163 339 340
f 163 340 164
f 164 340 341
f 164 341 165
f 165 341 342
f 165 342 166
f 166 342 343
f 166 343 168
f 168 343 344
f 168 344 167
f 167 344 345
f 167 345 335
f 335 345 346
f 335 346 336
f 336 346 347
f 336 347 337
f 337 347 348
f 338 265 339
f 339 265 266
f 339 266 340
f 340 266 267
f 340 267 341
f 341 267 269
f 341 269 342
f 342 269 271
f 342 271 343
f 343 271 273
f 343 273 344
f 344 273 275
f 344 275 345
f 345 275 277
f 345 277 346
f 346 277 281
f 346 281 347
f 347 281 317
f 347 317 348
f 348 317 327
f 77 146 78
f 78 146 349
f 78 349 79
f 79 349 350
f 79 350 183
f 183 350 351
f 183 351 184
f 184 351 352
f 184 352 328
f 328 352 353
f 328 353 329
f 329 353 354
f 329 354 330
f 330 354 355
f 330 355 331
f 331 355 356
f 331 356 332
f 332 356 357
f 332 357 333
f 333 357 358
f 333 358 217
f 217 358 220
f 217 220 218
f 218 220 222
f 218 222 219
f 359 360 361
f 361 360 362
f 361 362 232
f 232 362 363
f 232 363 233
f 233 363 364
f 233 364 235
f 235 364 365
f 235 365 324
f 324 365 366
f 324 366 325
f 325 366 367
f 325 367 326
f 326 367 368
f 326 368 327
f 327 368 369
f 327 369 348
f 348 369 370
f 348 370 337
f 337 370 371
f 337 371 334
f 334 371 372
f 334 372 171
f 171 372 175
f 171 175 172
f 172 175 92
f 172 92 91
f 228 153 226
f 226 153 155
f 226 155 373
f 156 224 155
f 155 224 223
f 155 223 373
f 373 223 221
f 373 221 374
f 374 221 220
f 374 220 375
f 375 220 358
f 375 358 376
f 376 358 357
f 376 357 377
f 377 357 356
f 377 356 378
f 378 356 355
f 378 355 379
f 379 355 354
f 379 354 380
f 380 354 353
f 380 353 381
f 381 353 352
f 381 352 382
f 382 352 351
f 382 351 383
f 383 351 350
f 383 350 384
f 384 350 349
f 384 349 385
f 385 349 146
f 385 146 386
f 386 146 148
f 230 387 231
f 231 387 388
f 231 388 389
f 389 388 390
f 389 390 359
f 359 390 391
f 359 391 360
f 360 391 392
f 360 392 362
f 362 392 393
f 362 393 363
f 363 393 394
f 363 394 364
f 364 394 395
f 364 395 365
f 365 395 396
f 365 396 366
f 366 396 397
f 366 397 367
f 367 397 398
f 367 398 368
f 368 398 399
f 368 399 369
f 369 399 400
f 369 400 370
f 370 400 401
f 370 401 371
f 371 401 402
f 371 402 372
f 372 402 403
f 372 403 175
f 175 403 404
f 175 404 174
f 174 404 176
f 174 176 173
f 173 176 95
f 173 95 93
f 398 103 399
f 399 103 102
f 399 102 400
f 400 102 105
f 400 105 401
f 401 105 106
f 401 106 402
f 402 106 107
f 402 107 403
f 403 107 108
f 403 108 404
f 404 108 109
f 404 109 176
f 176 109 110
f 176 110 177
f 177 110 111
f 177 111 178
f 178 111 112
f 178 112 179
f 179 112 113
f 179 113 180
f 180 113 114
f 180 114 181
f 181 114 115
f 181 115 182
f 182 115 116
f 182 116 148
f 148 116 117
f 148 117 386
f 386 117 118
f 386 118 385
f 385 118 119
f 385 119 384
f 384 119 120
f 384 120 383
f 383 120 121
f 383 121 382
f 382 121 122
f 382 122 381
f 381 122 123
f 381 123 380
f 380 123 124
f 380 124 379
f 379 124 125
f 379 125 378
f 378 125 126
f 378 126 377
f 377 126 127
f 377 127 376
f 376 127 128
f 376 128 375
f 375 128 129
f 375 129 374
f 374 129 130
f 374 130 373
f 373 130 131
f 373 131 226
f 226 131 132
f 226 132 227
f 227 132 133
f 227 133 229
f 229 133 134
f 229 134 230
f 230 134 135
f 230 135 387
f 387 135 136
f 387 136 388
f 388 136 137
f 388 137 390
f 390 137 138
f 390 138 391
f 391 138 139
f 391 139 392
f 392 139 140
f 392 140 393
f 393 140 141
f 393 141 394
f 394 141 142
f 394 142 395
f 395 142 143
f 395 143 396
f 396 143 144
f 396 144 397
f 397 144 145
f 397 145 398
f 398 145 103
f 36 405 54
f 54 405 406
f 54 406 55
f 55 406 407
f 55 407 56
f 56 407 408
f 409 410 411
f 411 410 412
f 411 412 413
f 413 412 414
f 411 415 409
f 409 415 416
f 409 416 417
f 417 416 262
f 417 262 418
f 418 262 261
f 418 261 419
f 419 261 151
f 419 151 420
f 151 150 420
f 420 150 264
f 420 264 421
f 421 264 265
f 421 265 422
f 422 265 338
f 422 338 423
f 423 338 162
f 423 162 408
f 408 162 57
f 408 57 56
f 424 425 426
f 427 428 429
f 430 431 432
f 432 431 427
f 432 427 433
f 433 427 429
f 428 427 434
f 434 427 435
f 434 435 1
f 23 21 38
f 38 21 436
f 38 436 39
f 39 436 437
f 39 437 44
f 44 437 45
f 50 49 438
f 438 49 47
f 438 47 437
f 437 47 46
f 437 46 45
f 50 438 51
f 51 438 439
f 51 439 52
f 52 439 440
f 52 440 48
f 441 37 42
f 42 41 441
f 441 41 40
f 441 40 440
f 440 40 43
f 440 43 48
f 37 441 35
f 35 441 442
f 35 442 36
f 426 425 443
f 443 425 444
f 443 444 445
f 414 412 446
f 446 412 447
f 446 447 448
f 448 447 443
f 448 443 449
f 449 443 445
f 430 450 431
f 431 450 451
f 431 451 452
f 452 451 453
f 452 453 426
f 426 453 454
f 426 454 424
f 8 6 455
f 455 6 4
f 455 4 435
f 435 4 2
f 435 2 1
f 8 455 9
f 9 455 456
f 9 456 32
f 32 456 30
f 30 456 457
f 30 457 28
f 458 13 457
f 457 13 26
f 457 26 28
f 21 20 436
f 436 20 17
f 436 17 458
f 458 17 14
f 458 14 13
f 408 459 460
f 460 459 406
f 460 406 442
f 442 406 405
f 442 405 36
f 408 460 423
f 423 460 461
f 423 461 422
f 422 461 421
f 421 461 462
f 421 462 463
f 464 418 462
f 462 418 419
f 462 419 463
f 412 410 447
f 447 410 465
f 447 465 464
f 464 465 417
f 464 417 418
f 434 1 414
f 434 414 428
f 428 414 446
f 428 446 448
f 432 433 448
f 448 433 429
f 448 429 428
f 432 448 430
f 430 448 449
f 430 449 445
f 445 444 430
f 430 444 425
f 430 425 450
f 450 425 424
f 424 454 450
f 450 454 453
f 450 453 451
f 5 7 154
f 5 154 3
f 416 415 154
f 154 415 411
f 11 224 7
f 7 224 156
f 7 156 154
f 1 3 414
f 414 3 154
f 414 154 413
f 413 154 411
f 254 252 154
f 154 252 250
f 154 250 249
f 231 389 244
f 243 246 153
f 153 246 248
f 153 248 154
f 154 248 255
f 154 255 254
f 260 263 154
f 154 263 262
f 154 262 416
f 249 256 154
f 154 256 258
f 154 258 260
f 11 157 207
f 207 157 196
f 243 153 244
f 244 153 228
f 244 228 231
f 361 232 234
f 219 222 11
f 11 222 225
f 11 225 224
f 389 236 239
f 236 389 234
f 234 389 359
f 234 359 361
f 239 238 389
f 389 238 241
f 389 241 244
f 202 203 205
f 207 208 11
f 11 208 210
f 11 210 211
f 211 216 11
f 11 216 215
f 11 215 219
f 196 197 207
f 207 197 198
f 207 198 205
f 205 198 200
f 205 200 202
f 466 467 468
f 468 467 469
f 468 469 470
f 470 469 471
f 472 473 474
f 474 475 472
f 472 475 476
f 472 476 477
f 477 476 478
f 477 478 479
f 479 478 480
f 479 480 468
f 468 480 481
f 468 481 466
f 482 473 483
f 483 473 484
f 473 485 484
f 484 485 486
f 484 486 487
f 487 486 488
f 488 489 487
f 487 489 490
f 487 490 491
f 473 482 474
f 474 482 492
f 474 492 475
f 493 494 492
f 492 494 495
f 492 495 475
f 496 497 498
f 498 497 499
f 498 499 500
f 500 501 498
f 498 501 502
f 498 502 503
f 503 504 505
f 493 492 506
f 506 492 507
f 506 507 498
f 498 507 508
f 498 508 496
f 509 510 503
f 503 510 511
f 503 511 504
f 505 512 503
f 503 512 513
f 503 513 498
f 471 514 515
f 515 514 516
f 514 517 516
f 516 517 518
f 516 518 519
f 519 518 520
f 520 521 519
f 519 521 522
f 519 522 523
f 514 471 524
f 524 471 469
f 524 469 525
f 526 527 469
f 469 527 528
f 469 528 525
f 529 530 531
f 531 530 532
f 531 532 533
f 533 534 531
f 531 534 535
f 531 535 536
f 536 537 538
f 526 469 539
f 539 469 467
f 539 467 531
f 531 467 540
f 531 540 529
f 541 542 536
f 536 542 543
f 536 543 537
f 538 544 536
f 536 544 545
f 536 545 531
f 546 547 548
f 549 550 548
f 549 548 551
f 552 551 548
f 553 552 548
f 554 553 548
f 555 554 548
f 556 555 548
f 557 556 548
f 558 557 548
f 559 560 548
f 559 548 561
f 562 561 548
f 563 562 548
f 564 563 548
f 565 564 548
f 566 565 548
f 547 566 548
f 493 567 568
f 505 569 512
f 503 502 570
f 508 507 571
f 526 572 573
f 538 574 544
f 536 535 575
f 540 467 466
f 540 466 529
f 532 530 576
f 576 530 529
f 576 529 577
f 577 529 466
f 532 576 533
f 533 576 578
f 533 578 534
f 534 578 579
f 534 579 535
f 535 579 580
f 535 580 575
f 581 550 541
f 541 550 542
f 574 582 544
f 544 582 583
f 544 583 545
f 545 583 584
f 545 584 531
f 572 526 584
f 584 526 539
f 584 539 531
f 525 528 573
f 573 528 527
f 573 527 526
f 508 571 496
f 499 497 585
f 585 497 496
f 585 496 586
f 586 496 571
f 499 585 500
f 500 585 587
f 500 587 501
f 501 587 588
f 501 588 502
f 502 588 589
f 502 589 570
f 590 560 509
f 509 560 510
f 569 591 512
f 512 591 592
f 512 592 513
f 513 592 593
f 513 593 498
f 567 493 593
f 593 493 506
f 593 506 498
f 475 495 568
f 568 495 494
f 568 494 493
f 480 478 568
f 568 478 476
f 568 476 475
f 594 595 573
f 573 595 596
f 573 596 525
f 481 480 597
f 597 480 568
f 597 568 598
f 598 568 567
f 598 567 599
f 599 567 593
f 599 593 600
f 600 593 592
f 600 592 601
f 601 592 591
f 571 602 586
f 586 602 603
f 586 603 585
f 585 603 604
f 585 604 587
f 587 604 605
f 587 605 588
f 588 605 606
f 588 606 589
f 589 606 607
f 602 594 603
f 603 594 573
f 603 573 604
f 604 573 572
f 604 572 605
f 605 572 584
f 605 584 606
f 606 584 583
f 606 583 607
f 607 583 582
f 466 481 577
f 577 481 597
f 577 597 576
f 576 597 598
f 576 598 578
f 578 598 599
f 578 599 579
f 579 599 600
f 579 600 580
f 580 600 601
f 550 549 542
f 542 549 551
f 542 551 543
f 543 551 552
f 543 552 537
f 537 552 553
f 537 553 538
f 538 553 554
f 538 554 574
f 574 554 555
f 574 555 582
f 582 555 556
f 582 556 607
f 607 556 557
f 607 557 589
f 589 557 558
f 589 558 570
f 581 548 550
f 541 546 581
f 581 546 548
f 560 559 510
f 510 559 561
f 510 561 511
f 511 561 562
f 511 562 504
f 504 562 563
f 504 563 505
f 505 563 564
f 505 564 569
f 569 564 565
f 569 565 591
f 591 565 566
f 591 566 601
f 601 566 547
f 601 547 580
f 580 547 546
f 580 546 575
f 575 546 541
f 575 541 536
f 590 548 560
f 503 570 509
f 509 570 558
f 509 558 590
f 590 558 548
f 571 507 608
f 608 507 492
f 608 492 609
f 609 492 482
f 610 514 524
f 524 525 610
f 610 525 596
f 610 596 611
f 611 596 595
f 611 595 612
f 612 595 594
f 612 594 608
f 608 594 602
f 608 602 571
f 482 483 613
f 23 613 614
f 614 613 483
f 614 483 615
f 615 483 484
f 615 484 616
f 616 484 617
f 484 487 617
f 617 487 491
f 617 491 51
f 51 491 490
f 51 490 618
f 618 490 489
f 618 489 619
f 619 489 488
f 488 486 619
f 619 486 485
f 619 485 620
f 620 485 621
f 471 515 622
f 414 622 623
f 623 622 515
f 623 515 624
f 624 515 516
f 624 516 625
f 625 516 626
f 516 519 626
f 626 519 523
f 626 523 453
f 453 523 522
f 453 522 627
f 627 522 521
f 627 521 628
f 628 521 520
f 520 518 628
f 628 518 517
f 628 517 629
f 629 517 1
f 630 608 613
f 613 608 609
f 613 609 482
f 517 514 1
f 1 514 610
f 1 610 631
f 631 610 611
f 631 611 630
f 630 611 612
f 630 612 608
f 632 468 622
f 622 468 470
f 622 470 471
f 485 473 621
f 621 473 472
f 621 472 633
f 633 472 477
f 633 477 632
f 632 477 479
f 632 479 468
f 634 635 636
f 636 635 637
f 636 637 638
f 638 637 639
f 638 639 640
f 640 639 641
f 642 643 641
f 641 643 644
f 641 644 640
f 645 646 647
f 648 649 650
f 650 649 651
f 650 651 647
f 647 651 652
f 647 652 645
f 650 653 648
f 648 653 654
f 648 654 655
f 655 654 656
f 645 657 646
f 646 657 658
f 646 658 659
f 659 658 660
f 659 660 661
f 661 660 662
f 661 662 663
f 663 662 664
f 663 664 665
f 665 664 666
f 665 666 642
f 642 666 667
f 642 667 643
f 668 669 656
f 668 656 670
f 670 656 671
f 670 671 672
f 673 674 672
f 672 674 675
f 672 675 670
f 673 672 676
f 676 672 677
f 676 677 678
f 678 679 676
f 676 679 680
f 676 680 681
f 681 680 682
f 682 683 681
f 681 683 684
f 681 684 685
f 655 656 669
f 686 651 649
f 686 669 687
f 687 688 686
f 686 688 689
f 686 689 690
f 686 649 669
f 669 649 648
f 669 648 655
f 690 691 686
f 686 691 692
f 686 692 693
f 694 695 696
f 693 697 686
f 686 697 698
f 686 698 694
f 694 698 699
f 694 699 700
f 694 696 701
f 701 696 702
f 701 702 703
f 704 705 652
f 652 705 706
f 700 707 694
f 694 707 708
f 694 708 695
f 686 709 651
f 651 709 710
f 651 710 652
f 652 710 711
f 652 711 712
f 712 713 652
f 652 713 714
f 652 714 715
f 715 716 652
f 652 716 717
f 652 717 704
f 706 718 652
f 652 718 719
f 652 719 720
f 702 721 703
f 703 721 722
f 703 722 723
f 724 725 703
f 703 725 726
f 703 726 727
f 727 726 728
f 720 729 652
f 652 729 730
f 652 730 731
f 731 730 732
f 723 733 703
f 703 733 734
f 703 734 724
f 735 736 737
f 735 737 738
f 739 738 737
f 740 739 737
f 741 740 737
f 742 741 737
f 743 742 737
f 744 743 737
f 745 744 737
f 746 745 737
f 747 746 737
f 748 747 737
f 749 748 737
f 750 749 737
f 751 750 737
f 752 751 737
f 753 752 737
f 754 753 737
f 755 754 737
f 756 755 737
f 757 756 737
f 758 757 737
f 759 758 737
f 760 759 737
f 761 760 737
f 762 761 737
f 763 762 737
f 764 763 737
f 765 764 737
f 766 765 737
f 767 766 737
f 768 767 737
f 769 768 737
f 770 769 737
f 771 770 737
f 772 771 737
f 773 772 737
f 774 773 737
f 775 774 737
f 776 775 737
f 777 776 737
f 778 777 737
f 736 778 737
f 779 780 781
f 667 666 782
f 783 784 785
f 786 787 788
f 788 787 789
f 790 644 643
f 715 714 791
f 722 792 793
f 693 692 794
f 794 692 795
f 795 692 691
f 795 691 690
f 693 794 697
f 697 794 796
f 697 796 698
f 698 796 699
f 699 796 797
f 699 797 700
f 700 797 798
f 700 798 707
f 707 798 708
f 708 798 799
f 708 799 695
f 800 721 801
f 801 721 702
f 801 702 799
f 799 702 696
f 799 696 695
f 802 733 793
f 793 733 723
f 793 723 722
f 734 803 724
f 724 803 804
f 724 804 805
f 806 726 807
f 807 726 725
f 807 725 808
f 809 810 728
f 728 810 811
f 728 811 727
f 811 812 727
f 727 812 813
f 727 813 703
f 703 813 814
f 703 814 701
f 701 814 815
f 701 815 694
f 694 815 781
f 694 781 686
f 686 781 780
f 686 780 709
f 709 780 779
f 709 779 710
f 712 816 713
f 713 816 817
f 713 817 714
f 715 818 716
f 716 818 819
f 716 819 717
f 717 819 820
f 717 820 704
f 704 820 705
f 705 820 821
f 705 821 706
f 706 821 822
f 706 822 718
f 718 822 823
f 718 823 719
f 719 823 720
f 720 823 824
f 720 824 729
f 729 824 825
f 729 825 730
f 730 825 732
f 732 825 826
f 732 826 731
f 827 828 829
f 829 828 830
f 830 828 831
f 831 828 832
f 831 832 833
f 833 832 834
f 833 834 835
f 835 834 836
f 836 834 837
f 836 837 838
f 838 837 839
f 838 839 840
f 840 839 841
f 841 839 842
f 841 842 843
f 843 842 844
f 844 842 845
f 844 845 846
f 847 848 849
f 850 851 852
f 853 854 855
f 856 857 854
f 854 857 858
f 854 858 855
f 859 860 861
f 860 862 861
f 861 862 863
f 861 863 864
f 865 866 867
f 867 866 868
f 867 868 869
f 870 871 872
f 873 874 871
f 875 876 877
f 874 873 877
f 877 873 878
f 877 878 875
f 876 875 879
f 879 875 880
f 879 880 881
f 882 883 884
f 884 883 885
f 884 885 886
f 886 885 887
f 886 887 880
f 880 887 888
f 880 888 881
f 882 884 889
f 889 884 890
f 889 890 891
f 891 890 892
f 891 892 893
f 894 895 892
f 892 895 896
f 892 896 893
f 783 785 897
f 667 782 643
f 652 731 645
f 645 731 826
f 645 826 657
f 657 826 658
f 898 897 899
f 899 897 785
f 899 785 900
f 900 785 901
f 900 901 902
f 902 901 903
f 902 903 904
f 904 903 905
f 904 905 906
f 906 905 907
f 906 907 908
f 908 907 909
f 908 909 910
f 910 909 911
f 784 894 785
f 785 894 892
f 785 892 901
f 901 892 890
f 901 890 903
f 903 890 884
f 903 884 905
f 905 884 886
f 905 886 907
f 907 886 880
f 907 880 909
f 909 880 875
f 909 875 911
f 911 875 878
f 871 870 873
f 873 870 912
f 873 912 878
f 878 912 913
f 878 913 911
f 911 913 914
f 911 914 910
f 915 845 916
f 916 845 842
f 916 842 917
f 917 842 839
f 917 839 918
f 918 839 837
f 918 837 919
f 919 837 834
f 919 834 920
f 920 834 832
f 920 832 921
f 921 832 828
f 921 828 782
f 782 828 827
f 782 827 643
f 643 827 829
f 643 829 790
f 666 664 782
f 782 664 922
f 782 922 921
f 921 922 923
f 921 923 920
f 920 923 924
f 920 924 919
f 919 924 925
f 919 925 918
f 918 925 926
f 918 926 917
f 917 926 927
f 917 927 916
f 916 927 928
f 916 928 915
f 915 928 929
f 664 662 922
f 922 662 930
f 922 930 923
f 923 930 931
f 923 931 924
f 924 931 932
f 924 932 925
f 925 932 933
f 925 933 926
f 926 933 934
f 926 934 927
f 927 934 935
f 927 935 928
f 928 935 936
f 928 936 929
f 929 936 937
f 662 660 930
f 930 660 938
f 930 938 931
f 931 938 939
f 931 939 932
f 932 939 940
f 932 940 933
f 933 940 941
f 933 941 934
f 934 941 942
f 934 942 935
f 935 942 943
f 935 943 936
f 936 943 944
f 936 944 937
f 937 944 945
f 660 658 938
f 938 658 826
f 938 826 939
f 939 826 825
f 939 825 940
f 940 825 824
f 940 824 941
f 941 824 823
f 941 823 942
f 942 823 822
f 942 822 943
f 943 822 821
f 943 821 944
f 944 821 820
f 944 820 945
f 945 820 819
f 869 946 872
f 872 946 947
f 872 947 870
f 870 947 948
f 870 948 912
f 912 948 949
f 912 949 913
f 913 949 950
f 913 950 914
f 715 791 818
f 818 791 951
f 818 951 819
f 819 951 952
f 819 952 945
f 945 952 953
f 945 953 937
f 937 953 954
f 937 954 929
f 929 954 955
f 929 955 915
f 915 955 956
f 915 956 845
f 845 956 847
f 845 847 846
f 846 847 849
f 846 849 844
f 869 868 946
f 946 868 957
f 946 957 947
f 947 957 958
f 947 958 948
f 948 958 959
f 948 959 949
f 949 959 960
f 949 960 950
f 714 817 791
f 791 817 961
f 791 961 951
f 951 961 962
f 951 962 952
f 952 962 963
f 952 963 953
f 953 963 964
f 953 964 954
f 954 964 965
f 954 965 955
f 955 965 966
f 955 966 956
f 956 966 850
f 956 850 847
f 847 850 852
f 847 852 848
f 734 733 803
f 803 733 802
f 803 802 804
f 804 802 967
f 722 721 792
f 792 721 800
f 792 800 793
f 793 800 968
f 793 968 802
f 802 968 969
f 802 969 967
f 967 969 970
f 795 971 794
f 794 971 972
f 794 972 796
f 796 972 973
f 796 973 797
f 797 973 974
f 797 974 798
f 798 974 975
f 798 975 799
f 799 975 976
f 799 976 801
f 801 976 977
f 801 977 800
f 800 977 978
f 800 978 968
f 968 978 979
f 968 979 969
f 969 979 980
f 969 980 970
f 970 980 981
f 971 898 972
f 972 898 899
f 972 899 973
f 973 899 900
f 973 900 974
f 974 900 902
f 974 902 975
f 975 902 904
f 975 904 976
f 976 904 906
f 976 906 977
f 977 906 908
f 977 908 978
f 978 908 910
f 978 910 979
f 979 910 914
f 979 914 980
f 980 914 950
f 980 950 981
f 981 950 960
f 710 779 711
f 711 779 982
f 711 982 712
f 712 982 983
f 712 983 816
f 816 983 984
f 816 984 817
f 817 984 985
f 817 985 961
f 961 985 986
f 961 986 962
f 962 986 987
f 962 987 963
f 963 987 988
f 963 988 964
f 964 988 989
f 964 989 965
f 965 989 990
f 965 990 966
f 966 990 991
f 966 991 850
f 850 991 853
f 850 853 851
f 851 853 855
f 851 855 852
f 992 993 994
f 994 993 995
f 994 995 865
f 865 995 996
f 865 996 866
f 866 996 997
f 866 997 868
f 868 997 998
f 868 998 957
f 957 998 999
f 957 999 958
f 958 999 1000
f 958 1000 959
f 959 1000 1001
f 959 1001 960
f 960 1001 1002
f 960 1002 981
f 981 1002 1003
f 981 1003 970
f 970 1003 1004
f 970 1004 967
f 967 1004 1005
f 967 1005 804
f 804 1005 808
f 804 808 805
f 805 808 725
f 805 725 724
f 861 786 859
f 859 786 788
f 859 788 1006
f 789 857 788
f 788 857 856
f 788 856 1006
f 1006 856 854
f 1006 854 1007
f 1007 854 853
f 1007 853 1008
f 1008 853 991
f 1008 991 1009
f 1009 991 990
f 1009 990 1010
f 1010 990 989
f 1010 989 1011
f 1011 989 988
f 1011 988 1012
f 1012 988 987
f 1012 987 1013
f 1013 987 986
f 1013 986 1014
f 1014 986 985
f 1014 985 1015
f 1015 985 984
f 1015 984 1016
f 1016 984 983
f 1016 983 1017
f 1017 983 982
f 1017 982 1018
f 1018 982 779
f 1018 779 1019
f 1019 779 781
f 863 1020 864
f 864 1020 1021
f 864 1021 1022
f 1022 1021 1023
f 1022 1023 992
f 992 1023 1024
f 992 1024 993
f 993 1024 1025
f 993 1025 995
f 995 1025 1026
f 995 1026 996
f 996 1026 1027
f 996 1027 997
f 997 1027 1028
f 997 1028 998
f 998 1028 1029
f 998 1029 999
f 999 1029 1030
f 999 1030 1000
f 1000 1030 1031
f 1000 1031 1001
f 1001 1031 1032
f 1001 1032 1002
f 1002 1032 1033
f 1002 1033 1003
f 1003 1033 1034
f 1003 1034 1004
f 1004 1034 1035
f 1004 1035 1005
f 1005 1035 1036
f 1005 1036 808
f 808 1036 1037
f 808 1037 807
f 807 1037 809
f 807 809 806
f 806 809 728
f 806 728 726
f 1031 736 1032
f 1032 736 735
f 1032 735 1033
f 1033 735 738
f 1033 738 1034
f 1034 738 739
f 1034 739 1035
f 1035 739 740
f 1035 740 1036
f 1036 740 741
f 1036 741 1037
f 1037 741 742
f 1037 742 809
f 809 742 743
f 809 743 810
f 810 743 744
f 810 744 811
f 811 744 745
f 811 745 812
f 812 745 746
f 812 746 813
f 813 746 747
f 813 747 814
f 814 747 748
f 814 748 815
f 815 748 749
f 815 749 781
f 781 749 750
f 781 750 1019
f 1019 750 751
f 1019 751 1018
f 1018 751 752
f 1018 752 1017
f 1017 752 753
f 1017 753 1016
f 1016 753 754
f 1016 754 1015
f 1015 754 755
f 1015 755 1014
f 1014 755 756
f 1014 756 1013
f 1013 756 757
f 1013 757 1012
f 1012 757 758
f 1012 758 1011
f 1011 758 759
f 1011 759 1010
f 1010 759 760
f 1010 760 1009
f 1009 760 761
f 1009 761 1008
f 1008 761 762
f 1008 762 1007
f 1007 762 763
f 1007 763 1006
f 1006 763 764
f 1006 764 859
f 859 764 765
f 859 765 860
f 860 765 766
f 860 766 862
f 862 766 767
f 862 767 863
f 863 767 768
f 863 768 1020
f 1020 768 769
f 1020 769 1021
f 1021 769 770
f 1021 770 1023
f 1023 770 771
f 1023 771 1024
f 1024 771 772
f 1024 772 1025
f 1025 772 773
f 1025 773 1026
f 1026 773 774
f 1026 774 1027
f 1027 774 775
f 1027 775 1028
f 1028 775 776
f 1028 776 1029
f 1029 776 777
f 1029 777 1030
f 1030 777 778
f 1030 778 1031
f 1031 778 736
f 669 1038 687
f 687 1038 1039
f 687 1039 688
f 688 1039 1040
f 688 1040 689
f 689 1040 1041
f 1042 1043 1044
f 1044 1043 1045
f 1044 1045 1046
f 1046 1045 1047
f 1044 1048 1042
f 1042 1048 1049
f 1042 1049 1050
f 1050 1049 895
f 1050 895 1051
f 1051 895 894
f 1051 894 1052
f 1052 894 784
f 1052 784 1053
f 784 783 1053
f 1053 783 897
f 1053 897 1054
f 1054 897 898
f 1054 898 1055
f 1055 898 971
f 1055 971 1056
f 1056 971 795
f 1056 795 1041
f 1041 795 690
f 1041 690 689
f 1057 1058 1059
f 1060 1061 1062
f 1063 1064 1065
f 1065 1064 1060
f 1065 1060 1066
f 1066 1060 1062
f 1061 1060 1067
f 1067 1060 1068
f 1067 1068 634
f 656 654 671
f 671 654 1069
f 671 1069 672
f 672 1069 1070
f 672 1070 677
f 677 1070 678
f 683 682 1071
f 1071 682 680
f 1071 680 1070
f 1070 680 679
f 1070 679 678
f 683 1071 684
f 684 1071 1072
f 684 1072 685
f 685 1072 1073
f 685 1073 681
f 1074 670 675
f 675 674 1074
f 1074 674 673
f 1074 673 1073
f 1073 673 676
f 1073 676 681
f 670 1074 668
f 668 1074 1075
f 668 1075 669
f 1059 1058 1076
f 1076 1058 1077
f 1076 1077 1078
f 1047 1045 1079
f 1079 1045 1080
f 1079 1080 1081
f 1081 1080 1076
f 1081 1076 1082
f 1082 1076 1078
f 1063 1083 1064
f 1064 1083 1084
f 1064 1084 1085
f 1085 1084 1086
f 1085 1086 1059
f 1059 1086 1087
f 1059 1087 1057
f 641 639 1088
f 1088 639 637
f 1088 637 1068
f 1068 637 635
f 1068 635 634
f 641 1088 642
f 642 1088 1089
f 642 1089 665
f 665 1089 663
f 663 1089 1090
f 663 1090 661
f 1091 646 1090
f 1090 646 659
f 1090 659 661
f 654 653 1069
f 1069 653 650
f 1069 650 1091
f 1091 650 647
f 1091 647 646
f 1041 1092 1093
f 1093 1092 1039
f 1093 1039 1075
f 1075 1039 1038
f 1075 1038 669
f 1041 1093 1056
f 1056 1093 1094
f 1056 1094 1055
f 1055 1094 1054
f 1054 1094 1095
f 1054 1095 1096
f 1097 1051 1095
f 1095 1051 1052
f 1095 1052 1096
f 1045 1043 1080
f 1080 1043 1098
f 1080 1098 1097
f 1097 1098 1050
f 1097 1050 1051
f 1067 634 1047
f 1067 1047 1061
f 1061 1047 1079
f 1061 1079 1081
f 1065 1066 1081
f 1081 1066 1062
f 1081 1062 1061
f 1065 1081 1063
f 1063 1081 1082
f 1063 1082 1078
f 1078 1077 1063
f 1063 1077 1058
f 1063 1058 1083
f 1083 1058 1057
f 1057 1087 1083
f 1083 1087 1086
f 1083 1086 1084
f 638 640 787
f 638 787 636
f 1049 1048 787
f 787 1048 1044
f 644 857 640
f 640 857 789
f 640 789 787
f 634 636 1047
f 1047 636 787
f 1047 787 1046
f 1046 787 1044
f 887 885 787
f 787 885 883
f 787 883 882
f 864 1022 877
f 876 879 786
f 786 879 881
f 786 881 787
f 787 881 888
f 787 888 887
f 893 896 787
f 787 896 895
f 787 895 1049
f 882 889 787
f 787 889 891
f 787 891 893
f 644 790 840
f 840 790 829
f 876 786 877
f 877 786 861
f 877 861 864
f 994 865 867
f 852 855 644
f 644 855 858
f 644 858 857
f 1022 869 872
f 869 1022 867
f 867 1022 992
f 867 992 994
f 872 871 1022
f 1022 871 874
f 1022 874 877
f 835 836 838
f 840 841 644
f 644 841 843
f 644 843 844
f 844 849 644
f 644 849 848
f 644 848 852
f 829 830 840
f 840 830 831
f 840 831 838
f 838 831 833
f 838 833 835
f 1099 1100 1101
f 1101 1100 1102
f 1101 1102 1103
f 1103 1102 1104
f 1105 1106 1107
f 1107 1108 1105
f 1105 1108 1109
f 1105 1109 1110
f 1110 1109 1111
f 1110 1111 1112
f 1112 1111 1113
f 1112 1113 1101
f 1101 1113 1114
f 1101 1114 1099
f 1115 1106 1116
f 1116 1106 1117
f 1106 1118 1117
f 1117 1118 1119
f 1117 1119 1120
f 1120 1119 1121
f 1121 1122 1120
f 1120 1122 1123
f 1120 1123 1124
f 1106 1115 1107
f 1107 1115 1125
f 1107 1125 1108
f 1126 1127 1125
f 1125 1127 1128
f 1125 1128 1108
f 1129 1130 1131
f 1131 1130 1132
f 1131 1132 1133
f 1133 1134 1131
f 1131 1134 1135
f 1131 1135 1136
f 1136 1137 1138
f 1126 1125 1139
f 1139 1125 1140
f 1139 1140 1131
f 1131 1140 1141
f 1131 1141 1129
f 1142 1143 1136
f 1136 1143 1144
f 1136 1144 1137
f 1138 1145 1136
f 1136 1145 1146
f 1136 1146 1131
f 1104 1147 1148
f 1148 1147 1149
f 1147 1150 1149
f 1149 1150 1151
f 1149 1151 1152
f 1152 1151 1153
f 1153 1154 1152
f 1152 1154 1155
f 1152 1155 1156
f 1147 1104 1157
f 1157 1104 1102
f 1157 1102 1158
f 1159 1160 1102
f 1102 1160 1161
f 1102 1161 1158
f 1162 1163 1164
f 1164 1163 1165
f 1164 1165 1166
f 1166 1167 1164
f 1164 1167 1168
f 1164 1168 1169
f 1169 1170 1171
f 1159 1102 1172
f 1172 1102 1100
f 1172 1100 1164
f 1164 1100 1173
f 1164 1173 1162
f 1174 1175 1169
f 1169 1175 1176
f 1169 1176 1170
f 1171 1177 1169
f 1169 1177 1178
f 1169 1178 1164
f 1179 1180 1181
f 1182 1183 1181
f 1182 1181 1184
f 1185 1184 1181
f 1186 1185 1181
f 1187 1186 1181
f 1188 1187 1181
f 1189 1188 1181
f 1190 1189 1181
f 1191 1190 1181
f 1192 1193 1181
f 1192 1181 1194
f 1195 1194 1181
f 1196 1195 1181
f 1197 1196 1181
f 1198 1197 1181
f 1199 1198 1181
f 1180 1199 1181
f 1126 1200 1201
f 1138 1202 1145
f 1136 1135 1203
f 1141 1140 1204
f 1159 1205 1206
f 1171 1207 1177
f 1169 1168 1208
f 1173 1100 1099
f 1173 1099 1162
f 1165 1163 1209
f 1209 1163 1162
f 1209 1162 1210
f 1210 1162 1099
f 1165 1209 1166
f 1166 1209 1211
f 1166 1211 1167
f 1167 1211 1212
f 1167 1212 1168
f 1168 1212 1213
f 1168 1213 1208
f 1214 1183 1174
f 1174 1183 1175
f 1207 1215 1177
f 1177 1215 1216
f 1177 1216 1178
f 1178 1216 1217
f 1178 1217 1164
f 1205 1159 1217
f 1217 1159 1172
f 1217 1172 1164
f 1158 1161 1206
f 1206 1161 1160
f 1206 1160 1159
f 1141 1204 1129
f 1132 1130 1218
f 1218 1130 1129
f 1218 1129 1219
f 1219 1129 1204
f 1132 1218 1133
f 1133 1218 1220
f 1133 1220 1134
f 1134 1220 1221
f 1134 1221 1135
f 1135 1221 1222
f 1135 1222 1203
f 1223 1193 1142
f 1142 1193 1143
f 1202 1224 1145
f 1145 1224 1225
f 1145 1225 1146
f 1146 1225 1226
f 1146 1226 1131
f 1200 1126 1226
f 1226 1126 1139
f 1226 1139 1131
f 1108 1128 1201
f 1201 1128 1127
f 1201 1127 1126
f 1113 1111 1201
f 1201 1111 1109
f 1201 1109 1108
f 1227 1228 1206
f 1206 1228 1229
f 1206 1229 1158
f 1114 1113 1230
f 1230 1113 1201
f 1230 1201 1231
f 1231 1201 1200
f 1231 1200 1232
f 1232 1200 1226
f 1232 1226 1233
f 1233 1226 1225
f 1233 1225 1234
f 1234 1225 1224
f 1204 1235 1219
f 1219 1235 1236
f 1219 1236 1218
f 1218 1236 1237
f 1218 1237 1220
f 1220 1237 1238
f 1220 1238 1221
f 1221 1238 1239
f 1221 1239 1222
f 1222 1239 1240
f 1235 1227 1236
f 1236 1227 1206
f 1236 1206 1237
f 1237 1206 1205
f 1237 1205 1238
f 1238 1205 1217
f 1238 1217 1239
f 1239 1217 1216
f 1239 1216 1240
f 1240 1216 1215
f 1099 1114 1210
f 1210 1114 1230
f 1210 1230 1209
f 1209 1230 1231
f 1209 1231 1211
f 1211 1231 1232
f 1211 1232 1212
f 1212 1232 1233
f 1212 1233 1213
f 1213 1233 1234
f 1183 1182 1175
f 1175 1182 1184
f 1175 1184 1176
f 1176 1184 1185
f 1176 1185 1170
f 1170 1185 1186
f 1170 1186 1171
f 1171 1186 1187
f 1171 1187 1207
f 1207 1187 1188
f 1207 1188 1215
f 1215 1188 1189
f 1215 1189 1240
f 1240 1189 1190
f 1240 1190 1222
f 1222 1190 1191
f 1222 1191 1203
f 1214 1181 1183
f 1174 1179 1214
f 1214 1179 1181
f 1193 1192 1143
f 1143 1192 1194
f 1143 1194 1144
f 1144 1194 1195
f 1144 1195 1137
f 1137 1195 1196
f 1137 1196 1138
f 1138 1196 1197
f 1138 1197 1202
f 1202 1197 1198
f 1202 1198 1224
f 1224 1198 1199
f 1224 1199 1234
f 1234 1199 1180
f 1234 1180 1213
f 1213 1180 1179
f 1213 1179 1208
f 1208 1179 1174
f 1208 1174 1169
f 1223 1181 1193
f 1136 1203 1142
f 1142 1203 1191
f 1142 1191 1223
f 1223 1191 1181
f 1204 1140 1241
f 1241 1140 1125
f 1241 1125 1242
f 1242 1125 1115
f 1243 1147 1157
f 1157 1158 1243
f 1243 1158 1229
f 1243 1229 1244
f 1244 1229 1228
f 1244 1228 1245
f 1245 1228 1227
f 1245 1227 1241
f 1241 1227 1235
f 1241 1235 1204
f 1115 1116 1246
f 656 1246 1247
f 1247 1246 1116
f 1247 1116 1248
f 1248 1116 1117
f 1248 1117 1249
f 1249 1117 1250
f 1117 1120 1250
f 1250 1120 1124
f 1250 1124 684
f 684 1124 1123
f 684 1123 1251
f 1251 1123 1122
f 1251 1122 1252
f 1252 1122 1121
f 1121 1119 1252
f 1252 1119 1118
f 1252 1118 1253
f 1253 1118 1254
f 1104 1148 1255
f 1047 1255 1256
f 1256 1255 1148
f 1256 1148 1257
f 1257 1148 1149
f 1257 1149 1258
f 1258 1149 1259
f 1149 1152 1259
f 1259 1152 1156
f 1259 1156 1086
f 1086 1156 1155
f 1086 1155 1260
f 1260 1155 1154
f 1260 1154 1261
f 1261 1154 1153
f 1153 1151 1261
f 1261 1151 1150
f 1261 1150 1262
f 1262 1150 634
f 1263 1241 1246
f 1246 1241 1242
f 1246 1242 1115
f 1150 1147 634
f 634 1147 1243
f 634 1243 1264
f 1264 1243 1244
f 1264 1244 1263
f 1263 1244 1245
f 1263 1245 1241
f 1265 1101 1255
f 1255 1101 1103
f 1255 1103 1104
f 1118 1106 1254
f 1254 1106 1105
f 1254 1105 1266
f 1266 1105 1110
f 1266 1110 1265
f 1265 1110 1112
f 1265 1112 1101

