mtllib material.mtl
usemtl mtl_hip_xy_link
v 0.02435186 0.07506575 0.00450000
v 0.02641793 0.07674690 0.00450000
v 0.01039937 0.07567075 0.00450000
v 0.00992023 0.07829092 0.00450000
v 0.02920935 0.07904611 0.00450000
v 0.03125938 0.08202533 0.00450000
v 0.00970874 0.00954246 0.00450000
v -0.01278040 0.00237936 0.00450000
v -0.01294135 -0.00123346 0.00450000
v 0.03240937 0.08545402 0.00450000
v 0.03257032 0.08906684 0.00450000
v 0.00876639 0.08069166 0.00450000
v 0.03172978 0.09258422 0.00450000
v 0.02995280 0.09573393 0.00450000
v -0.00472289 0.01276764 0.00450000
v -0.00678895 0.01108648 0.00450000
v 0.02067203 0.10079147 0.00450000
v 0.00721929 0.08396044 0.00450000
v 0.00663254 0.08752892 0.00450000
v 0.01086259 0.00714172 0.00450000
v -0.01210081 -0.00475083 0.00450000
v -0.01032383 -0.00790055 0.00450000
v -0.00774791 -0.01043887 0.00450000
v -0.00457241 -0.01216935 0.00450000
v -0.00104306 -0.01295809 0.00450000
v 0.02737688 0.09827225 0.00450000
v 0.02420138 0.10000274 0.00450000
v 0.01070179 0.09728354 0.00450000
v 0.01365055 0.09937715 0.00450000
v 0.01706197 0.10057742 0.00450000
v 0.00256700 -0.01274404 0.00450000
v 0.00597842 -0.01154377 0.00450000
v 0.00892718 -0.00945016 0.00450000
v 0.01118509 -0.00662523 0.00450000
v 0.01257743 -0.00328759 0.00450000
v 0.01299644 0.00030446 0.00450000
v 0.01240968 0.00387295 0.00450000
v -0.00958038 0.00878728 0.00450000
v -0.01163041 0.00580806 0.00450000
v 0.00844388 0.09445861 0.00450000
v 0.00705154 0.09112098 0.00450000
v -0.00317393 0.01493457 0.00450000
v 0.00922960 0.01216264 0.00450000
v -0.00225196 0.01743355 0.00450000
v 0.00945916 0.01481635 0.00450000
v 0.01016982 0.07301703 0.00450000
v 0.02188093 0.07039984 0.00450000
v 0.02280290 0.07289881 0.00450000
v 0.00945916 0.01481635 -0.00450000
v 0.00922960 0.01216264 -0.00450000
v 0.00970874 0.00954246 -0.00450000
v 0.01086259 0.00714172 -0.00450000
v 0.02188093 0.07039984 -0.00450000
v 0.02641793 0.07674690 -0.00450000
v 0.02435186 0.07506575 -0.00450000
v 0.02280290 0.07289881 -0.00450000
v 0.00876639 0.08069166 -0.00450000
v 0.00721929 0.08396044 -0.00450000
v 0.00663254 0.08752892 -0.00450000
v 0.00705154 0.09112098 -0.00450000
v 0.00844388 0.09445861 -0.00450000
v 0.01070179 0.09728354 -0.00450000
v 0.01365055 0.09937715 -0.00450000
v 0.01706197 0.10057742 -0.00450000
v 0.02067203 0.10079147 -0.00450000
v 0.02420138 0.10000274 -0.00450000
v 0.02737688 0.09827225 -0.00450000
v 0.02995280 0.09573393 -0.00450000
v 0.03172978 0.09258422 -0.00450000
v 0.03257032 0.08906684 -0.00450000
v 0.03240937 0.08545402 -0.00450000
v 0.03125938 0.08202533 -0.00450000
v 0.02920935 0.07904611 -0.00450000
v 0.01016982 0.07301703 -0.00450000
v 0.01039937 0.07567075 -0.00450000
v 0.00992023 0.07829092 -0.00450000
v -0.00225196 0.01743355 -0.00450000
v 0.01240968 0.00387295 -0.00450000
v 0.01299644 0.00030446 -0.00450000
v 0.01257743 -0.00328759 -0.00450000
v 0.01118509 -0.00662523 -0.00450000
v 0.00892718 -0.00945016 -0.00450000
v 0.00597842 -0.01154377 -0.00450000
v 0.00256700 -0.01274404 -0.00450000
v -0.00104306 -0.01295809 -0.00450000
v -0.00457241 -0.01216935 -0.00450000
v -0.00774791 -0.01043887 -0.00450000
v -0.01032383 -0.00790055 -0.00450000
v -0.01210081 -0.00475083 -0.00450000
v -0.01294135 -0.00123346 -0.00450000
v -0.01278040 0.00237936 -0.00450000
v -0.01163041 0.00580806 -0.00450000
v -0.00958038 0.00878728 -0.00450000
v -0.00678895 0.01108648 -0.00450000
v -0.00472289 0.01276764 -0.00450000
v -0.00317393 0.01493457 -0.00450000
f 1 2 3
f 3 2 4
f 4 2 5
f 4 5 6
f 7 8 9
f 6 10 4
f 4 10 11
f 4 11 12
f 12 11 13
f 12 13 14
f 7 15 16
f 12 17 18
f 18 17 19
f 7 9 20
f 20 9 21
f 20 21 22
f 22 23 20
f 20 23 24
f 20 24 25
f 14 26 12
f 12 26 27
f 12 27 17
f 28 17 29
f 29 17 30
f 25 31 32
f 32 33 25
f 25 33 34
f 25 34 35
f 35 36 25
f 25 36 37
f 25 37 20
f 16 38 7
f 7 38 39
f 7 39 8
f 28 40 17
f 17 40 41
f 17 41 19
f 15 7 42
f 42 7 43
f 42 43 44
f 44 43 45
f 44 45 46
f 46 45 47
f 46 47 3
f 3 47 48
f 3 48 1
f 49 45 50
f 50 45 43
f 50 43 51
f 51 43 7
f 51 7 52
f 52 7 20
f 47 45 53
f 53 45 49
f 54 2 55
f 55 2 1
f 55 1 56
f 56 1 48
f 56 48 53
f 53 48 47
f 57 12 18
f 57 18 58
f 58 18 19
f 58 19 59
f 59 19 41
f 59 41 60
f 60 41 40
f 60 40 61
f 61 40 28
f 61 28 62
f 62 28 29
f 62 29 63
f 63 29 30
f 63 30 64
f 64 30 17
f 64 17 65
f 65 17 27
f 65 27 66
f 66 27 26
f 66 26 67
f 67 26 14
f 67 14 68
f 68 14 13
f 68 13 69
f 69 13 11
f 69 11 70
f 70 11 10
f 70 10 71
f 71 10 6
f 71 6 72
f 72 6 5
f 72 5 73
f 73 5 2
f 73 2 54
f 74 46 75
f 75 46 3
f 75 3 76
f 76 3 4
f 76 4 57
f 57 4 12
f 44 46 77
f 77 46 74
f 52 20 37
f 52 37 78
f 78 37 36
f 78 36 79
f 79 36 35
f 79 35 80
f 80 35 34
f 80 34 81
f 81 34 33
f 81 33 82
f 82 33 32
f 82 32 83
f 83 32 31
f 83 31 84
f 84 31 25
f 84 25 85
f 85 25 24
f 85 24 86
f 86 24 23
f 86 23 87
f 87 23 22
f 87 22 88
f 88 22 21
f 88 21 89
f 89 21 9
f 89 9 90
f 90 9 8
f 90 8 91
f 91 8 39
f 91 39 92
f 92 39 38
f 92 38 93
f 93 38 16
f 93 16 94
f 94 16 95
f 95 16 15
f 95 15 96
f 96 15 42
f 96 42 77
f 77 42 44
f 95 96 51
f 63 64 65
f 54 75 73
f 73 75 76
f 73 76 72
f 57 70 76
f 76 70 71
f 76 71 72
f 67 68 57
f 57 68 69
f 57 69 70
f 52 90 51
f 51 90 91
f 51 91 92
f 78 85 52
f 52 85 86
f 52 86 87
f 87 88 52
f 52 88 89
f 52 89 90
f 92 93 51
f 51 93 94
f 51 94 95
f 58 59 65
f 65 59 60
f 58 65 57
f 57 65 66
f 57 66 67
f 54 55 75
f 75 55 56
f 75 56 74
f 74 56 53
f 74 53 77
f 77 53 49
f 77 49 96
f 96 49 50
f 96 50 51
f 78 79 85
f 85 79 80
f 85 80 81
f 81 82 85
f 85 82 83
f 85 83 84
f 60 61 65
f 65 61 62
f 65 62 63

