mtllib material.mtl
usemtl mtl_ankle_femur_bar_r
v 0.00457695 -0.00811724 -0.00341726
v 0.00430621 -0.00766384 -0.00388751
v 0.00975304 -0.00604413 -0.00357138
v 0.00961171 -0.00553890 -0.00404549
v 0.01529759 -0.00548043 -0.00380319
v 0.01529487 -0.00496111 -0.00428309
v 0.00030236 -0.00936604 -0.00327132
v 0.00025661 -0.00884691 -0.00374925
v -0.00406771 -0.00852911 -0.00303703
v -0.00388347 -0.00805404 -0.00352729
v -0.00757196 -0.00579057 -0.00276592
v -0.00720328 -0.00545962 -0.00327045
v -0.00943953 -0.00175281 -0.00251763
v -0.00897256 -0.00163439 -0.00303523
v -0.00925960 0.00269593 -0.00234678
v -0.00880209 0.00258021 -0.00287337
v -0.00707175 0.00657705 -0.00229094
v -0.00672939 0.00625706 -0.00282047
v -0.00335725 0.00903678 -0.00236241
v -0.00321040 0.00858734 -0.00288818
v 0.00106678 0.00953406 -0.00254547
v 0.00098080 0.00905844 -0.00306160
v 0.00522718 0.00795947 -0.00279983
v 0.00492222 0.00756673 -0.00330258
v 0.01570142 0.00450405 -0.00341974
v 0.01565832 0.00402492 -0.00393798
v 0.01021969 0.00549362 -0.00312828
v 0.01003955 0.00503923 -0.00363923
v 0.00549062 0.00772840 0.00293948
v 0.00523148 0.00729547 0.00343488
v 0.01048314 0.00526254 0.00261104
v 0.01034881 0.00476797 0.00309822
v 0.01596486 0.00427298 0.00231957
v 0.01596758 0.00375366 0.00279947
v 0.00133023 0.00930298 0.00319385
v 0.00129006 0.00878718 0.00367585
v -0.00309381 0.00880571 0.00337690
v -0.00290113 0.00831608 0.00384927
v -0.00680830 0.00634597 0.00344837
v -0.00642013 0.00598580 0.00391698
v -0.00899616 0.00246486 0.00339253
v -0.00849283 0.00230895 0.00386409
v -0.00917609 -0.00198389 0.00322168
v -0.00866329 -0.00190565 0.00370222
v -0.00730852 -0.00602164 0.00297339
v -0.00689402 -0.00573089 0.00346700
v -0.00380427 -0.00876018 0.00270228
v -0.00357420 -0.00832530 0.00321016
v 0.00056581 -0.00959711 0.00246799
v 0.00056587 -0.00911817 0.00298820
v 0.00484039 -0.00834831 0.00232205
v 0.00461548 -0.00793510 0.00284995
v 0.01556103 -0.00571150 0.00193612
v 0.01560413 -0.00523237 0.00245436
v 0.01001649 -0.00627520 0.00216793
v 0.00992097 -0.00581016 0.00269197
v 0.36332577 -0.01892231 -0.02031957
v 0.36332306 -0.01840300 -0.02079947
v 0.36880749 -0.01991188 -0.02061103
v 0.36894184 -0.01941730 -0.02109822
v 0.37380001 -0.02237773 -0.02093948
v 0.37405917 -0.02194480 -0.02143488
v 0.37467518 -0.00671423 -0.02084995
v 0.37445024 -0.00630102 -0.02032205
v 0.37872484 -0.00505222 -0.02046799
v 0.37872478 -0.00553116 -0.02098820
v 0.38309491 -0.00588915 -0.02070228
v 0.38286486 -0.00632404 -0.02121016
v 0.38659915 -0.00862770 -0.02097339
v 0.38618469 -0.00891845 -0.02146700
v 0.38846675 -0.01266544 -0.02122168
v 0.38795394 -0.01274369 -0.02170222
v 0.38828680 -0.01711419 -0.02139253
v 0.38778350 -0.01695829 -0.02186408
v 0.38609895 -0.02099531 -0.02144837
v 0.38571081 -0.02063514 -0.02191698
v 0.38238445 -0.02345504 -0.02137690
v 0.38219181 -0.02296541 -0.02184927
v 0.37796044 -0.02395232 -0.02119385
v 0.37800059 -0.02343651 -0.02167585
v 0.36372960 -0.00893783 -0.01993612
v 0.36368650 -0.00941696 -0.02045436
v 0.36927414 -0.00837413 -0.02016793
v 0.36936969 -0.00883917 -0.02069197
v 0.36399305 -0.00916890 -0.01419681
v 0.36399576 -0.00968822 -0.01371691
v 0.36953759 -0.00860521 -0.01442862
v 0.36967894 -0.00911043 -0.01395451
v 0.37471369 -0.00653210 -0.01458274
v 0.37498444 -0.00698549 -0.01411249
v 0.37436843 -0.02221606 -0.01469742
v 0.37406346 -0.02260881 -0.01520017
v 0.37822387 -0.02418339 -0.01545453
v 0.37830985 -0.02370777 -0.01493840
v 0.38264790 -0.02368612 -0.01563758
v 0.38250107 -0.02323667 -0.01511182
v 0.38636240 -0.02122638 -0.01570906
v 0.38602006 -0.02090640 -0.01517953
v 0.38855025 -0.01734526 -0.01565322
v 0.38809276 -0.01722955 -0.01512663
v 0.38873017 -0.01289652 -0.01548237
v 0.38826323 -0.01301495 -0.01496477
v 0.38686261 -0.00885877 -0.01523408
v 0.38649395 -0.00918971 -0.01472955
v 0.38335836 -0.00612022 -0.01496297
v 0.38317412 -0.00659530 -0.01447271
v 0.37898830 -0.00528330 -0.01472868
v 0.37903404 -0.00580242 -0.01425075
v 0.36907095 -0.02014295 -0.01487172
v 0.36358923 -0.01915339 -0.01458026
v 0.36925110 -0.01968856 -0.01436077
v 0.36363232 -0.01867426 -0.01406202
f 1 2 3
f 3 2 4
f 3 4 5
f 5 4 6
f 2 1 7
f 2 7 8
f 8 7 9
f 8 9 10
f 10 9 11
f 10 11 12
f 12 11 13
f 12 13 14
f 14 13 15
f 14 15 16
f 16 15 17
f 16 17 18
f 18 17 19
f 18 19 20
f 20 19 21
f 20 21 22
f 22 21 23
f 22 23 24
f 25 26 27
f 27 26 28
f 27 28 23
f 23 28 24
f 29 30 31
f 31 30 32
f 31 32 33
f 33 32 34
f 23 29 27
f 27 29 31
f 27 31 25
f 25 31 33
f 30 29 35
f 30 35 36
f 36 35 37
f 36 37 38
f 38 37 39
f 38 39 40
f 40 39 41
f 40 41 42
f 42 41 43
f 42 43 44
f 44 43 45
f 44 45 46
f 46 45 47
f 46 47 48
f 48 47 49
f 48 49 50
f 50 49 51
f 50 51 52
f 53 54 55
f 55 54 56
f 55 56 51
f 51 56 52
f 5 53 3
f 3 53 55
f 3 55 1
f 1 55 51
f 1 51 49
f 1 49 7
f 7 49 47
f 7 47 9
f 9 47 45
f 9 45 11
f 11 45 43
f 11 43 13
f 13 43 41
f 13 41 15
f 15 41 39
f 15 39 17
f 17 39 37
f 17 37 19
f 19 37 35
f 19 35 21
f 21 35 29
f 21 29 23
f 57 58 59
f 59 58 60
f 59 60 61
f 61 60 62
f 5 6 57
f 57 6 58
f 63 64 65
f 63 65 66
f 66 65 67
f 66 67 68
f 68 67 69
f 68 69 70
f 70 69 71
f 70 71 72
f 72 71 73
f 72 73 74
f 74 73 75
f 74 75 76
f 76 75 77
f 76 77 78
f 78 77 79
f 78 79 80
f 80 79 61
f 80 61 62
f 81 82 25
f 25 82 26
f 64 63 83
f 83 63 84
f 83 84 81
f 81 84 82
f 22 24 20
f 20 24 10
f 28 2 24
f 24 2 8
f 24 8 10
f 16 18 14
f 14 18 20
f 14 20 12
f 12 20 10
f 84 63 80
f 80 63 78
f 78 63 74
f 78 74 76
f 72 74 70
f 70 74 63
f 70 63 68
f 68 63 66
f 80 62 84
f 84 62 60
f 84 60 82
f 82 60 58
f 82 58 26
f 26 58 6
f 26 6 28
f 28 6 4
f 28 4 2
f 85 86 87
f 87 86 88
f 87 88 89
f 89 88 90
f 86 85 34
f 34 85 33
f 85 81 33
f 33 81 25
f 81 85 83
f 83 85 87
f 83 87 64
f 64 87 89
f 91 92 93
f 91 93 94
f 94 93 95
f 94 95 96
f 96 95 97
f 96 97 98
f 98 97 99
f 98 99 100
f 100 99 101
f 100 101 102
f 102 101 103
f 102 103 104
f 104 103 105
f 104 105 106
f 106 105 107
f 106 107 108
f 108 107 89
f 108 89 90
f 64 89 107
f 64 107 65
f 65 107 105
f 65 105 67
f 67 105 103
f 67 103 69
f 69 103 101
f 69 101 71
f 71 101 99
f 71 99 73
f 73 99 97
f 73 97 75
f 75 97 95
f 75 95 77
f 77 95 93
f 77 93 79
f 79 93 92
f 79 92 61
f 61 92 59
f 59 92 109
f 59 109 57
f 57 109 110
f 92 91 109
f 109 91 111
f 109 111 110
f 110 111 112
f 54 53 112
f 112 53 110
f 53 5 110
f 110 5 57
f 96 98 90
f 90 98 100
f 90 100 102
f 88 91 90
f 90 91 94
f 90 94 96
f 30 48 50
f 30 50 32
f 102 104 90
f 90 104 106
f 90 106 108
f 36 38 30
f 30 38 40
f 46 48 44
f 44 48 30
f 44 30 42
f 42 30 40
f 50 52 32
f 32 52 56
f 32 56 34
f 34 56 54
f 34 54 86
f 86 54 112
f 86 112 88
f 88 112 111
f 88 111 91

