mtllib material.mtl
usemtl mtl_left_hip_xy_cross
v -0.03600000 0.00825000 0.00418330
v -0.03550000 0.00825000 0.00519615
v -0.03600000 0.00825000 0.00204634
v -0.03200000 0.00825000 0.00519615
v -0.03600000 0.00825000 -0.00204634
v -0.03200000 0.00825000 -0.00519615
v -0.03600000 0.00825000 -0.00418330
v -0.03550000 0.00825000 -0.00519615
v -0.03156797 0.00759364 0.00611549
v -0.03156797 0.00759364 -0.00611549
v -0.03183233 0.00792477 -0.00567983
v -0.03183157 0.00792357 0.00568150
v -0.03128133 0.00735352 -0.00640221
v -0.03128166 0.00735374 0.00640195
v -0.03091643 0.00715437 -0.00662401
v -0.03091643 0.00715437 0.00662401
v -0.03054608 0.00704043 0.00674498
v -0.03054745 0.00704071 -0.00674469
v -0.03014595 0.00700000 0.00678694
v -0.03014595 0.00700000 -0.00678694
v -0.02800000 -0.00471169 -0.00853595
v -0.02800000 -0.00243279 -0.00944161
v -0.02800000 -0.00500000 -0.01100000
v -0.02800000 -0.00000000 -0.00975000
v -0.02800000 0.00500000 -0.01100000
v -0.02800000 -0.00669253 -0.00709032
v -0.02800000 -0.00700000 -0.00900000
v -0.02800000 -0.00700000 -0.00678694
v -0.02800000 0.00243279 -0.00944161
v -0.02800000 0.00471169 -0.00853595
v -0.02800000 0.00700000 -0.00900000
v -0.02800000 0.00669253 -0.00709032
v -0.02800000 0.00700000 -0.00678694
v -0.02800000 0.00471169 0.00853595
v -0.02800000 0.00500000 0.01100000
v -0.02800000 0.00669253 0.00709032
v -0.02800000 0.00700000 0.00900000
v -0.02800000 0.00700000 0.00678694
v -0.02800000 0.00243279 0.00944161
v -0.02800000 -0.00000000 0.00975000
v -0.02800000 -0.00500000 0.01100000
v -0.02800000 -0.00243279 0.00944161
v -0.02800000 -0.00471169 0.00853595
v -0.02800000 -0.00700000 0.00900000
v -0.02800000 -0.00669253 0.00709032
v -0.02800000 -0.00700000 0.00678694
v 0.03100000 0.00825000 -0.00418330
v 0.03050000 0.00825000 -0.00519615
v 0.03100000 0.00825000 -0.00204634
v 0.02700000 0.00825000 -0.00519615
v 0.03100000 0.00825000 0.00204634
v 0.02700000 0.00825000 0.00519615
v 0.03100000 0.00825000 0.00418330
v 0.03050000 0.00825000 0.00519615
v 0.02514595 0.00700000 -0.00678694
v 0.02514595 0.00700000 0.00678694
v 0.02554745 0.00704071 0.00674469
v 0.02554608 0.00704043 -0.00674498
v 0.02591643 0.00715437 0.00662401
v 0.02591643 0.00715437 -0.00662401
v 0.02628166 0.00735374 -0.00640195
v 0.02628133 0.00735352 0.00640221
v 0.02656797 0.00759364 -0.00611549
v 0.02683233 0.00792477 0.00567983
v 0.02656797 0.00759364 0.00611549
v 0.02683157 0.00792357 -0.00568150
v -0.01775528 0.00500000 0.01100000
v -0.01775528 0.00700000 0.00900000
v -0.01129881 0.00500000 0.01336364
v -0.01000752 0.00700000 0.01183636
v -0.01324503 0.00500000 0.01207488
v -0.01234298 0.00700000 0.01028986
v -0.01543700 0.00500000 0.01127243
v -0.01497334 0.00700000 0.00932692
v -0.00841045 0.00500000 0.01534648
v -0.00744926 0.00700000 0.01359259
v -0.00518500 0.00500000 0.01671424
v -0.00459243 0.00700000 0.01480404
v -0.00175174 0.00500000 0.01741211
v -0.00155154 0.00700000 0.01542215
v 0.00175174 0.00500000 0.01741211
v 0.00155154 0.00700000 0.01542215
v 0.00518500 0.00500000 0.01671424
v 0.00459243 0.00700000 0.01480404
v 0.00841045 0.00500000 0.01534648
v 0.00744926 0.00700000 0.01359259
v 0.01129881 0.00500000 0.01336364
v 0.01000752 0.00700000 0.01183636
v 0.01775528 0.00500000 0.01100000
v 0.01775528 0.00700000 0.00900000
v 0.01543700 0.00500000 0.01127243
v 0.01497334 0.00700000 0.00932692
v 0.01324503 0.00500000 0.01207488
v 0.01234298 0.00700000 0.01028986
v 0.02300000 0.00700000 0.00900000
v 0.02300000 0.00500000 0.01100000
v 0.02300000 -0.00471169 0.00853595
v 0.02300000 -0.00500000 0.01100000
v 0.02300000 -0.00669253 0.00709032
v 0.02300000 -0.00700000 0.00900000
v 0.02300000 -0.00700000 0.00678694
v 0.02300000 -0.00243279 0.00944161
v 0.02300000 -0.00000000 0.00975000
v 0.02300000 0.00243279 0.00944161
v 0.02300000 0.00471169 0.00853595
v 0.02300000 0.00669253 0.00709032
v 0.02300000 0.00700000 0.00678694
v 0.02300000 0.00471169 -0.00853595
v 0.02300000 0.00500000 -0.01100000
v 0.02300000 0.00669253 -0.00709032
v 0.02300000 0.00700000 -0.00900000
v 0.02300000 0.00700000 -0.00678694
v 0.02300000 0.00243279 -0.00944161
v 0.02300000 -0.00000000 -0.00975000
v 0.02300000 -0.00500000 -0.01100000
v 0.02300000 -0.00243279 -0.00944161
v 0.02300000 -0.00471169 -0.00853595
v 0.02300000 -0.00700000 -0.00900000
v 0.02300000 -0.00669253 -0.00709032
v 0.02300000 -0.00700000 -0.00678694
v 0.03050000 0.00669253 -0.00709032
v 0.02656797 -0.00759364 -0.00611549
v 0.02628133 -0.00735352 -0.00640221
v 0.03050000 -0.00669253 -0.00709032
v 0.03050000 -0.00825000 -0.00519615
v 0.02700000 -0.00825000 -0.00519615
v 0.02683233 -0.00792477 -0.00567983
v 0.02591643 -0.00715437 -0.00662401
v 0.02554745 -0.00704071 -0.00674469
v 0.02514595 -0.00700000 -0.00678694
v 0.03050000 0.00471169 -0.00853595
v 0.03050000 0.00243279 -0.00944161
v 0.03050000 -0.00000000 -0.00975000
v 0.03050000 -0.00243279 -0.00944161
v 0.03050000 -0.00471169 -0.00853595
v 0.02656797 -0.00759364 0.00611549
v 0.02700000 -0.00825000 0.00519615
v 0.02683157 -0.00792357 0.00568150
v 0.02628166 -0.00735374 0.00640195
v 0.02591643 -0.00715437 0.00662401
v 0.02554608 -0.00704043 0.00674498
v 0.02514595 -0.00700000 0.00678694
v 0.03100000 -0.00825000 0.00418330
v 0.03050000 -0.00825000 0.00519615
v 0.03100000 -0.00825000 0.00204634
v 0.03100000 -0.00825000 -0.00204634
v 0.03100000 -0.00825000 -0.00418330
v 0.03050000 -0.00669253 0.00709032
v 0.03050000 0.00669253 0.00709032
v 0.03050000 -0.00471169 0.00853595
v 0.03050000 -0.00243279 0.00944161
v 0.03050000 -0.00000000 0.00975000
v 0.03050000 0.00243279 0.00944161
v 0.03050000 0.00471169 0.00853595
v 0.01129881 -0.00500000 0.01336364
v 0.01000752 -0.00700000 0.01183636
v 0.01324503 -0.00500000 0.01207488
v 0.01234298 -0.00700000 0.01028986
v 0.01543700 -0.00500000 0.01127243
v 0.01497334 -0.00700000 0.00932692
v 0.01775528 -0.00500000 0.01100000
v 0.01775528 -0.00700000 0.00900000
v -0.01129881 -0.00500000 0.01336364
v -0.00841045 -0.00500000 0.01534648
v -0.00518500 -0.00500000 0.01671424
v -0.00175174 -0.00500000 0.01741211
v 0.00175174 -0.00500000 0.01741211
v 0.00518500 -0.00500000 0.01671424
v 0.00841045 -0.00500000 0.01534648
v 0.00744926 -0.00700000 0.01359259
v 0.00459243 -0.00700000 0.01480404
v 0.00155154 -0.00700000 0.01542215
v -0.00155154 -0.00700000 0.01542215
v -0.00459243 -0.00700000 0.01480404
v -0.00744926 -0.00700000 0.01359259
v -0.01000752 -0.00700000 0.01183636
v -0.01775528 -0.00500000 0.01100000
v -0.01775528 -0.00700000 0.00900000
v -0.01543700 -0.00500000 0.01127243
v -0.01497334 -0.00700000 0.00932692
v -0.01324503 -0.00500000 0.01207488
v -0.01234298 -0.00700000 0.01028986
v -0.03014595 -0.00700000 0.00678694
v -0.03550000 0.00669253 0.00709032
v -0.03156797 -0.00759364 0.00611549
v -0.03128133 -0.00735352 0.00640221
v -0.03550000 -0.00669253 0.00709032
v -0.03550000 -0.00825000 0.00519615
v -0.03200000 -0.00825000 0.00519615
v -0.03183233 -0.00792477 0.00567983
v -0.03091643 -0.00715437 0.00662401
v -0.03054745 -0.00704071 0.00674469
v -0.03550000 -0.00471169 0.00853595
v -0.03550000 -0.00243279 0.00944161
v -0.03550000 -0.00000000 0.00975000
v -0.03550000 0.00243279 0.00944161
v -0.03550000 0.00471169 0.00853595
v -0.01497334 -0.00700000 -0.00932692
v -0.01234298 -0.00700000 -0.01028986
v -0.01775528 -0.00700000 -0.00900000
v 0.01000752 -0.00700000 -0.01183636
v 0.01234298 -0.00700000 -0.01028986
v -0.00744926 -0.00700000 -0.01359259
v -0.01000752 -0.00700000 -0.01183636
v 0.00744926 -0.00700000 -0.01359259
v 0.01497334 -0.00700000 -0.00932692
v 0.01775528 -0.00700000 -0.00900000
v 0.00155154 -0.00700000 -0.01542215
v -0.00155154 -0.00700000 -0.01542215
v -0.03014595 -0.00700000 -0.00678694
v 0.00459243 -0.00700000 -0.01480404
v -0.00459243 -0.00700000 -0.01480404
v -0.03054608 -0.00704043 -0.00674498
v -0.03091643 -0.00715437 -0.00662401
v -0.03128166 -0.00735374 -0.00640195
v -0.03156797 -0.00759364 -0.00611549
v -0.03200000 -0.00825000 -0.00519615
v -0.03183157 -0.00792357 -0.00568150
v -0.03550000 -0.00669253 -0.00709032
v -0.03550000 -0.00825000 -0.00519615
v -0.03550000 0.00669253 -0.00709032
v -0.03550000 0.00471169 -0.00853595
v -0.03550000 0.00243279 -0.00944161
v -0.03550000 -0.00000000 -0.00975000
v -0.03550000 -0.00243279 -0.00944161
v -0.03550000 -0.00471169 -0.00853595
v -0.03600000 -0.00825000 -0.00418330
v -0.03600000 -0.00825000 -0.00204634
v -0.03600000 -0.00825000 0.00204634
v -0.03600000 -0.00825000 0.00418330
v -0.01775528 -0.00500000 -0.01100000
v -0.01129881 -0.00500000 -0.01336364
v -0.01324503 -0.00500000 -0.01207488
v -0.01543700 -0.00500000 -0.01127243
v -0.00841045 -0.00500000 -0.01534648
v -0.00518500 -0.00500000 -0.01671424
v -0.00175174 -0.00500000 -0.01741211
v 0.00175174 -0.00500000 -0.01741211
v 0.00518500 -0.00500000 -0.01671424
v 0.00841045 -0.00500000 -0.01534648
v 0.01129881 -0.00500000 -0.01336364
v 0.01775528 -0.00500000 -0.01100000
v 0.01543700 -0.00500000 -0.01127243
v 0.01324503 -0.00500000 -0.01207488
v -0.01129881 0.00500000 -0.01336364
v -0.01324503 0.00500000 -0.01207488
v -0.01543700 0.00500000 -0.01127243
v -0.01775528 0.00500000 -0.01100000
v -0.01775528 0.00700000 -0.00900000
v -0.01497334 0.00700000 -0.00932692
v -0.01234298 0.00700000 -0.01028986
v -0.01000752 0.00700000 -0.01183636
v 0.01000752 0.00700000 -0.01183636
v 0.01129881 0.00500000 -0.01336364
v 0.00841045 0.00500000 -0.01534648
v 0.00744926 0.00700000 -0.01359259
v 0.00518500 0.00500000 -0.01671424
v 0.00459243 0.00700000 -0.01480404
v 0.00175174 0.00500000 -0.01741211
v 0.00155154 0.00700000 -0.01542215
v -0.00175174 0.00500000 -0.01741211
v -0.00155154 0.00700000 -0.01542215
v -0.00518500 0.00500000 -0.01671424
v -0.00459243 0.00700000 -0.01480404
v -0.00841045 0.00500000 -0.01534648
v -0.00744926 0.00700000 -0.01359259
v 0.01775528 0.00500000 -0.01100000
v 0.01543700 0.00500000 -0.01127243
v 0.01324503 0.00500000 -0.01207488
v 0.01234298 0.00700000 -0.01028986
v 0.01497334 0.00700000 -0.00932692
v 0.01775528 0.00700000 -0.00900000
f 1 2 3
f 3 2 4
f 3 4 5
f 5 4 6
f 5 6 7
f 7 6 8
f 9 10 11
f 6 4 11
f 11 4 12
f 11 12 9
f 10 9 13
f 13 9 14
f 13 14 15
f 14 16 15
f 15 16 17
f 15 17 18
f 18 17 19
f 18 19 20
f 21 22 23
f 23 22 24
f 23 24 25
f 21 23 26
f 26 23 27
f 26 27 28
f 24 29 25
f 25 29 30
f 25 30 31
f 31 30 32
f 31 32 33
f 34 35 36
f 36 35 37
f 36 37 38
f 34 39 35
f 35 39 40
f 35 40 41
f 40 42 41
f 41 42 43
f 41 43 44
f 44 43 45
f 44 45 46
f 47 48 49
f 49 48 50
f 49 50 51
f 51 50 52
f 51 52 53
f 53 52 54
f 55 56 57
f 55 57 58
f 58 57 59
f 58 59 60
f 60 59 61
f 61 59 62
f 61 62 63
f 64 52 50
f 62 65 63
f 63 65 64
f 63 64 66
f 66 64 50
f 67 68 35
f 35 68 37
f 69 70 71
f 71 70 72
f 71 72 73
f 73 72 74
f 73 74 67
f 67 74 68
f 70 69 75
f 70 75 76
f 76 75 77
f 76 77 78
f 78 77 79
f 78 79 80
f 80 79 81
f 80 81 82
f 82 81 83
f 82 83 84
f 84 83 85
f 84 85 86
f 86 85 87
f 86 87 88
f 89 90 91
f 91 90 92
f 91 92 93
f 93 92 94
f 93 94 87
f 87 94 88
f 90 89 95
f 95 89 96
f 97 98 99
f 99 98 100
f 99 100 101
f 97 102 98
f 98 102 103
f 98 103 96
f 103 104 96
f 96 104 105
f 96 105 95
f 95 105 106
f 95 106 107
f 108 109 110
f 110 109 111
f 110 111 112
f 108 113 109
f 109 113 114
f 109 114 115
f 114 116 115
f 115 116 117
f 115 117 118
f 118 117 119
f 118 119 120
f 110 112 55
f 55 58 121
f 121 58 60
f 121 60 61
f 50 48 66
f 66 48 121
f 66 121 63
f 63 121 61
f 122 123 124
f 125 126 124
f 124 126 127
f 124 127 122
f 123 128 124
f 124 128 129
f 124 129 130
f 55 121 110
f 110 121 131
f 110 131 108
f 108 131 132
f 108 132 113
f 113 132 133
f 113 133 114
f 114 133 134
f 114 134 116
f 116 134 135
f 116 135 117
f 117 135 124
f 117 124 119
f 119 124 130
f 119 130 120
f 136 122 127
f 126 137 127
f 127 137 138
f 127 138 136
f 122 136 123
f 123 136 139
f 123 139 128
f 139 140 128
f 128 140 141
f 128 141 129
f 129 141 142
f 129 142 130
f 143 144 145
f 145 144 137
f 145 137 146
f 146 137 126
f 146 126 147
f 147 126 125
f 99 101 142
f 142 141 148
f 148 141 140
f 148 140 139
f 137 144 138
f 138 144 148
f 138 148 136
f 136 148 139
f 65 62 149
f 54 52 149
f 149 52 64
f 149 64 65
f 62 59 149
f 149 59 57
f 149 57 56
f 142 148 99
f 99 148 150
f 99 150 97
f 97 150 151
f 97 151 102
f 102 151 152
f 102 152 103
f 103 152 153
f 103 153 104
f 104 153 154
f 104 154 105
f 105 154 149
f 105 149 106
f 106 149 56
f 106 56 107
f 155 156 157
f 157 156 158
f 157 158 159
f 159 158 160
f 159 160 161
f 161 160 162
f 161 162 98
f 98 162 100
f 98 96 161
f 161 96 89
f 87 155 93
f 93 155 157
f 93 157 91
f 91 157 159
f 91 159 89
f 89 159 161
f 69 163 164
f 69 164 75
f 75 164 165
f 75 165 77
f 77 165 166
f 77 166 79
f 79 166 167
f 79 167 81
f 81 167 168
f 81 168 83
f 83 168 169
f 83 169 85
f 85 169 155
f 85 155 87
f 156 155 169
f 156 169 170
f 170 169 168
f 170 168 171
f 171 168 167
f 171 167 172
f 172 167 166
f 172 166 173
f 173 166 165
f 173 165 174
f 174 165 164
f 174 164 175
f 175 164 163
f 175 163 176
f 177 178 179
f 179 178 180
f 179 180 181
f 181 180 182
f 181 182 163
f 163 182 176
f 67 177 73
f 73 177 179
f 73 179 71
f 71 179 181
f 71 181 69
f 69 181 163
f 177 67 41
f 41 67 35
f 178 177 44
f 44 177 41
f 183 46 45
f 36 38 19
f 17 16 184
f 184 16 14
f 4 2 12
f 12 2 184
f 12 184 9
f 9 184 14
f 185 186 187
f 188 189 187
f 187 189 190
f 187 190 185
f 186 191 187
f 187 191 192
f 187 192 183
f 183 45 187
f 187 45 43
f 187 43 193
f 193 43 42
f 193 42 194
f 194 42 40
f 194 40 195
f 195 40 39
f 195 39 196
f 196 39 34
f 196 34 197
f 197 34 36
f 197 36 184
f 184 36 19
f 184 19 17
f 178 44 46
f 198 199 46
f 130 142 120
f 120 142 101
f 198 46 200
f 201 202 101
f 180 178 203
f 203 178 46
f 203 46 204
f 204 46 199
f 201 101 205
f 202 206 101
f 101 206 207
f 101 207 120
f 120 207 118
f 100 162 208
f 208 162 160
f 208 160 209
f 209 160 158
f 27 200 28
f 28 200 46
f 28 46 210
f 210 46 183
f 100 208 101
f 101 208 211
f 101 211 205
f 180 203 182
f 182 203 212
f 182 212 209
f 158 156 209
f 209 156 170
f 209 170 171
f 171 172 209
f 209 172 173
f 209 173 174
f 174 175 209
f 209 175 176
f 209 176 182
f 210 183 192
f 210 192 213
f 213 192 191
f 213 191 214
f 214 191 215
f 215 191 186
f 215 186 216
f 190 189 217
f 186 185 216
f 216 185 190
f 216 190 218
f 218 190 217
f 20 33 32
f 26 28 210
f 213 214 219
f 219 214 215
f 217 220 218
f 218 220 219
f 218 219 216
f 216 219 215
f 10 13 221
f 8 6 221
f 221 6 11
f 221 11 10
f 13 15 221
f 221 15 18
f 221 18 20
f 20 32 221
f 221 32 30
f 221 30 222
f 222 30 29
f 222 29 223
f 223 29 24
f 223 24 224
f 224 24 22
f 224 22 225
f 225 22 21
f 225 21 226
f 226 21 26
f 226 26 219
f 219 26 210
f 219 210 213
f 227 220 228
f 228 220 217
f 228 217 229
f 229 217 189
f 229 189 230
f 230 189 188
f 231 200 23
f 23 200 27
f 232 204 233
f 233 204 199
f 233 199 234
f 234 199 198
f 234 198 231
f 231 198 200
f 204 232 235
f 204 235 203
f 203 235 236
f 203 236 212
f 212 236 237
f 212 237 209
f 209 237 238
f 209 238 208
f 208 238 239
f 208 239 211
f 211 239 240
f 211 240 205
f 205 240 241
f 205 241 201
f 242 207 243
f 243 207 206
f 243 206 244
f 244 206 202
f 244 202 241
f 241 202 201
f 115 118 242
f 242 118 207
f 245 232 246
f 246 232 233
f 246 233 247
f 247 233 234
f 247 234 248
f 248 234 231
f 23 25 231
f 231 25 248
f 249 248 31
f 31 248 25
f 248 249 247
f 247 249 250
f 247 250 246
f 246 250 251
f 246 251 245
f 245 251 252
f 253 254 255
f 253 255 256
f 256 255 257
f 256 257 258
f 258 257 259
f 258 259 260
f 260 259 261
f 260 261 262
f 262 261 263
f 262 263 264
f 264 263 265
f 264 265 266
f 266 265 245
f 266 245 252
f 254 241 240
f 254 240 255
f 255 240 239
f 255 239 257
f 257 239 238
f 257 238 259
f 259 238 237
f 259 237 261
f 261 237 236
f 261 236 263
f 263 236 235
f 263 235 265
f 265 235 232
f 265 232 245
f 242 267 115
f 115 267 109
f 267 242 268
f 268 242 243
f 268 243 269
f 269 243 244
f 269 244 254
f 254 244 241
f 254 253 269
f 269 253 270
f 269 270 268
f 268 270 271
f 268 271 267
f 267 271 272
f 111 109 272
f 272 109 267
f 56 55 107
f 107 55 112
f 88 94 112
f 20 19 33
f 33 19 38
f 82 112 111
f 94 92 112
f 112 92 90
f 112 90 107
f 107 90 95
f 37 266 38
f 38 266 252
f 38 252 251
f 251 250 38
f 38 250 249
f 38 249 33
f 33 249 31
f 82 84 112
f 112 84 86
f 112 86 88
f 37 68 266
f 266 68 74
f 266 74 264
f 264 74 72
f 264 72 262
f 253 256 70
f 70 256 258
f 70 258 72
f 72 258 260
f 72 260 262
f 111 272 82
f 82 272 271
f 82 271 80
f 80 271 270
f 80 270 78
f 78 270 253
f 78 253 76
f 76 253 70

