mtllib material.mtl
usemtl mtl_ankle_crank_r
v -0.00971239 0.06197116 0.00900000
v -0.00971239 0.06197116 0.00450000
v -0.01128919 0.06348695 0.00450000
v -0.01128919 0.06348695 0.00900000
v -0.01327951 0.06439390 0.00450000
v -0.01327951 0.06439390 0.00900000
v -0.01545798 0.06458932 0.00450000
v -0.01545798 0.06458932 0.00900000
v -0.01757794 0.06405108 0.00450000
v -0.01757794 0.06405108 0.00900000
v -0.01939935 0.06284013 0.00450000
v -0.01939935 0.06284013 0.00900000
v -0.02071596 0.06109357 0.00450000
v -0.02071596 0.06109357 0.00900000
v -0.02137871 0.05900917 0.00450000
v -0.02137871 0.05900917 0.00900000
v -0.02131254 0.05682295 0.00450000
v -0.02131254 0.05682295 0.00900000
v -0.02131254 0.05682295 -0.00450000
v -0.02131254 0.05682295 -0.01650000
v -0.01967986 0.04873998 -0.00450000
v -0.01797841 0.04031658 -0.01650000
v -0.01967986 0.04873998 0.00450000
v -0.01797841 0.04031658 0.00900000
v -0.00369816 0.05382683 0.00450000
v 0.01587097 0.02732679 0.00900000
v -0.00369816 0.05382683 -0.00450000
v 0.01587097 0.02732679 -0.01650000
v -0.00971239 0.06197116 -0.00450000
v -0.00971239 0.06197116 -0.01650000
v -0.01843875 0.00458395 -0.00850000
v -0.01843875 0.00458395 -0.01650000
v -0.01899022 0.00060953 -0.01650000
v -0.01899022 0.00060953 -0.00850000
v -0.01869475 -0.00339208 -0.01650000
v -0.01869475 -0.00339208 -0.00850000
v -0.01756552 -0.00724240 -0.01650000
v -0.01756552 -0.00724240 -0.00850000
v -0.01565289 -0.01076972 -0.01650000
v -0.01565289 -0.01076972 -0.00850000
v -0.01304216 -0.01381673 -0.01650000
v -0.01304216 -0.01381673 -0.00850000
v -0.00984977 -0.01624752 -0.01650000
v -0.00984977 -0.01624752 -0.00850000
v -0.00621809 -0.01795370 -0.01650000
v -0.00621809 -0.01795370 -0.00850000
v -0.00230909 -0.01885916 -0.01650000
v -0.00230909 -0.01885916 -0.00850000
v 0.00170289 -0.01892353 -0.01650000
v 0.00170289 -0.01892353 -0.00850000
v 0.00563893 -0.01814394 -0.01650000
v 0.00563893 -0.01814394 -0.00850000
v 0.00932347 -0.01655515 -0.01650000
v 0.00932347 -0.01655515 -0.00850000
v 0.01259221 -0.01422801 -0.01650000
v 0.01259221 -0.01422801 -0.00850000
v 0.01529934 -0.01126633 -0.01650000
v 0.01529934 -0.01126633 -0.00850000
v 0.01732414 -0.00780218 -0.01650000
v 0.01732414 -0.00780218 -0.00850000
v 0.01857631 -0.00399007 -0.01650000
v 0.01857631 -0.00399007 -0.00850000
v 0.01900000 0.00000000 -0.01650000
v 0.01900000 0.00000000 -0.00850000
v -0.01576524 0.02735579 0.00900000
v -0.01576524 0.02735579 -0.01650000
v -0.01420598 0.02594296 0.00900000
v -0.01420598 0.02594296 -0.01650000
v -0.01297686 0.02423513 0.00900000
v -0.01297686 0.02423513 -0.01650000
v -0.01213230 0.02230792 0.00900000
v -0.01213230 0.02230792 -0.01650000
v -0.01120488 0.01938876 0.00900000
v -0.01120488 0.01938876 -0.00850000
v -0.01120488 0.01938876 -0.01650000
v -0.01681601 0.01111137 -0.01650000
v -0.01681601 0.01111137 -0.00850000
v -0.01128919 0.06348695 -0.01650000
v -0.01128919 0.06348695 -0.00450000
v -0.01327951 0.06439390 -0.01650000
v -0.01327951 0.06439390 -0.00450000
v -0.01545798 0.06458932 -0.01650000
v -0.01545798 0.06458932 -0.00450000
v -0.01757794 0.06405108 -0.01650000
v -0.01757794 0.06405108 -0.00450000
v -0.01939935 0.06284013 -0.01650000
v -0.01939935 0.06284013 -0.00450000
v -0.02071596 0.06109357 -0.01650000
v -0.02071596 0.06109357 -0.00450000
v -0.02137871 0.05900917 -0.01650000
v -0.02137871 0.05900917 -0.00450000
v -0.01779828 0.03773969 0.00900000
v -0.01779828 0.03773969 -0.01650000
v -0.01828424 0.03520264 0.00900000
v -0.01828424 0.03520264 -0.01650000
v -0.01863684 0.03303733 -0.01650000
v -0.01863684 0.03303733 0.00900000
v -0.01830189 0.03086923 -0.01650000
v -0.01830189 0.03086923 0.00900000
v -0.01731229 0.02891128 -0.01650000
v -0.01731229 0.02891128 0.00900000
v -0.01558564 0.02994167 0.00900000
v -0.01649178 0.03181294 0.00900000
v -0.01231876 0.03796211 0.00900000
v -0.01024513 0.03781122 0.00900000
v -0.00841214 0.03682995 0.00900000
v -0.01655846 0.03389098 0.00900000
v -0.01577416 0.03581650 0.00900000
v -0.01427449 0.03725654 0.00900000
v 0.01611842 0.00681517 0.00900000
v 0.01900000 0.00000000 0.00900000
v 0.01900000 0.01782214 0.00900000
v -0.01399673 0.02860074 0.00900000
v -0.01199978 0.02802201 0.00900000
v -0.00713675 0.03518797 0.00900000
v -0.00663947 0.03316919 0.00900000
v 0.01758289 0.02440539 0.00900000
v -0.00700629 0.03112269 0.00900000
v 0.01864171 0.02118917 0.00900000
v 0.00261097 0.01730413 0.00900000
v 0.00606578 0.01641512 0.00900000
v 0.00926852 0.01484400 0.00900000
v 0.01208613 0.01265605 0.00900000
v 0.01440150 0.00994218 0.00900000
v -0.00994009 0.02830555 0.00900000
v -0.00817379 0.02940232 0.00900000
v -0.00817379 0.02940232 -0.01650000
v -0.00994009 0.02830555 -0.01650000
v -0.01199978 0.02802201 -0.01650000
v -0.01399673 0.02860074 -0.01650000
v -0.01558564 0.02994167 -0.01650000
v -0.01649178 0.03181294 -0.01650000
v -0.01655846 0.03389098 -0.01650000
v -0.01577416 0.03581650 -0.01650000
v -0.01427449 0.03725654 -0.01650000
v -0.01231876 0.03796211 -0.01650000
v -0.01024513 0.03781122 -0.01650000
v -0.00841214 0.03682995 -0.01650000
v -0.00713675 0.03518797 -0.01650000
v -0.00663947 0.03316919 -0.01650000
v -0.00700629 0.03112269 -0.01650000
v 0.01073564 -0.01118017 -0.00850000
v 0.01073564 -0.01118017 -0.01650000
v 0.00774809 -0.01342450 -0.00850000
v 0.00774809 -0.01342450 -0.01650000
v 0.00431025 -0.01488864 -0.00850000
v 0.00431025 -0.01488864 -0.01650000
v 0.00062192 -0.01548752 -0.00850000
v 0.00062192 -0.01548752 -0.01650000
v -0.00310256 -0.01518631 -0.00850000
v -0.00310256 -0.01518631 -0.01650000
v -0.00664673 -0.01400254 -0.00850000
v -0.00664673 -0.01400254 -0.01650000
v -0.00980461 -0.01200498 -0.00850000
v -0.00980461 -0.01200498 -0.01650000
v -0.01239269 -0.00930974 -0.00850000
v -0.01239269 -0.00930974 -0.01650000
v -0.01426055 -0.00607345 -0.00850000
v -0.01426055 -0.00607345 -0.01650000
v -0.01529963 -0.00248420 -0.00850000
v -0.01529963 -0.00248420 -0.01650000
v -0.01544956 0.00124943 -0.00850000
v -0.01544956 0.00124943 -0.01650000
v -0.01470162 0.00491045 -0.00850000
v -0.01470162 0.00491045 -0.01650000
v -0.01309927 0.00828609 -0.00850000
v -0.01309927 0.00828609 -0.01650000
v -0.01073564 0.01118017 -0.00850000
v -0.01073564 0.01118017 -0.01650000
v -0.00774809 0.01342450 -0.00850000
v -0.00774809 0.01342450 -0.01650000
v -0.00431025 0.01488864 -0.00850000
v -0.00431025 0.01488864 -0.01650000
v -0.00062192 0.01548752 -0.00850000
v -0.00062192 0.01548752 -0.01650000
v 0.00310256 0.01518631 -0.00850000
v 0.00310256 0.01518631 -0.01650000
v 0.00664673 0.01400254 -0.00850000
v 0.00664673 0.01400254 -0.01650000
v 0.00980461 0.01200498 -0.00850000
v 0.00980461 0.01200498 -0.01650000
v 0.01239269 0.00930974 -0.00850000
v 0.01239269 0.00930974 -0.01650000
v 0.01426055 0.00607345 -0.00850000
v 0.01426055 0.00607345 -0.01650000
v 0.01529963 0.00248420 -0.00850000
v 0.01529963 0.00248420 -0.01650000
v 0.01544956 -0.00124943 -0.00850000
v 0.01544956 -0.00124943 -0.01650000
v 0.01470162 -0.00491045 -0.00850000
v 0.01470162 -0.00491045 -0.01650000
v 0.01309927 -0.00828609 -0.00850000
v 0.01309927 -0.00828609 -0.01650000
v 0.01758289 0.02440539 -0.01650000
v 0.01900000 0.01782214 -0.01650000
v 0.01864171 0.02118917 -0.01650000
v 0.00261097 0.01730413 -0.00850000
v 0.00606578 0.01641512 -0.00850000
v 0.00926852 0.01484400 -0.00850000
v 0.01208613 0.01265605 -0.00850000
v 0.01440150 0.00994218 -0.00850000
v 0.01611842 0.00681517 -0.00850000
v -0.01560744 0.04763105 0.00450000
v -0.01560744 0.04763105 -0.00450000
v -0.01769994 0.04797878 0.00450000
v -0.01769994 0.04797878 -0.00450000
v -0.01259145 0.04627600 0.00450000
v -0.01259145 0.04627600 -0.00450000
v -0.01397659 0.04722698 -0.00450000
v -0.01397659 0.04722698 0.00450000
v -0.01188127 0.04557199 0.00450000
v -0.01188127 0.04557199 -0.00450000
f 1 2 3
f 1 3 4
f 4 3 5
f 4 5 6
f 6 5 7
f 6 7 8
f 8 7 9
f 8 9 10
f 10 9 11
f 10 11 12
f 12 11 13
f 12 13 14
f 14 13 15
f 14 15 16
f 16 15 17
f 16 17 18
f 19 20 21
f 21 20 22
f 21 22 23
f 23 22 24
f 23 24 17
f 17 24 18
f 2 1 25
f 25 1 26
f 25 26 27
f 27 26 28
f 27 28 29
f 29 28 30
f 31 32 33
f 31 33 34
f 34 33 35
f 34 35 36
f 36 35 37
f 36 37 38
f 38 37 39
f 38 39 40
f 40 39 41
f 40 41 42
f 42 41 43
f 42 43 44
f 44 43 45
f 44 45 46
f 46 45 47
f 46 47 48
f 48 47 49
f 48 49 50
f 50 49 51
f 50 51 52
f 52 51 53
f 52 53 54
f 54 53 55
f 54 55 56
f 56 55 57
f 56 57 58
f 58 57 59
f 58 59 60
f 60 59 61
f 60 61 62
f 62 61 63
f 62 63 64
f 65 66 67
f 67 66 68
f 67 68 69
f 69 68 70
f 69 70 71
f 71 70 72
f 73 71 74
f 74 71 72
f 74 72 75
f 75 76 74
f 74 76 77
f 76 32 77
f 77 32 31
f 29 30 78
f 29 78 79
f 79 78 80
f 79 80 81
f 81 80 82
f 81 82 83
f 83 82 84
f 83 84 85
f 85 84 86
f 85 86 87
f 87 86 88
f 87 88 89
f 89 88 90
f 89 90 91
f 91 90 20
f 91 20 19
f 24 22 92
f 92 22 93
f 92 93 94
f 94 93 95
f 94 95 96
f 94 96 97
f 97 96 98
f 97 98 99
f 99 98 100
f 99 100 101
f 101 100 66
f 101 66 65
f 102 103 99
f 6 8 104
f 1 105 106
f 99 103 97
f 97 103 107
f 97 107 94
f 94 107 92
f 92 107 108
f 92 108 24
f 24 108 109
f 24 109 18
f 1 106 26
f 110 111 112
f 105 1 104
f 104 1 4
f 104 4 6
f 12 14 10
f 10 14 16
f 10 16 8
f 8 16 18
f 8 18 104
f 104 18 109
f 99 101 102
f 102 101 65
f 102 65 113
f 113 65 67
f 113 67 114
f 114 67 69
f 106 115 26
f 26 115 116
f 26 116 117
f 117 116 118
f 117 118 119
f 119 118 112
f 71 73 120
f 120 121 112
f 112 121 122
f 122 123 112
f 112 123 124
f 112 124 110
f 69 71 114
f 114 71 120
f 114 120 125
f 125 120 112
f 125 112 126
f 126 112 118
f 126 127 125
f 125 127 128
f 125 128 114
f 114 128 129
f 114 129 113
f 113 129 130
f 113 130 102
f 102 130 131
f 102 131 103
f 103 131 132
f 103 132 107
f 107 132 133
f 107 133 108
f 108 133 134
f 108 134 109
f 109 134 135
f 109 135 104
f 104 135 136
f 104 136 105
f 105 136 137
f 105 137 106
f 106 137 138
f 106 138 115
f 115 138 139
f 115 139 116
f 116 139 140
f 116 140 118
f 118 140 141
f 118 141 126
f 126 141 127
f 142 143 144
f 144 143 145
f 144 145 146
f 146 145 147
f 146 147 148
f 148 147 149
f 148 149 150
f 150 149 151
f 150 151 152
f 152 151 153
f 152 153 154
f 154 153 155
f 154 155 156
f 156 155 157
f 156 157 158
f 158 157 159
f 158 159 160
f 160 159 161
f 160 161 162
f 162 161 163
f 162 163 164
f 164 163 165
f 164 165 166
f 166 165 167
f 166 167 168
f 168 167 169
f 168 169 170
f 170 169 171
f 170 171 172
f 172 171 173
f 172 173 174
f 174 173 175
f 174 175 176
f 176 175 177
f 176 177 178
f 178 177 179
f 178 179 180
f 180 179 181
f 180 181 182
f 182 181 183
f 182 183 184
f 184 183 185
f 184 185 186
f 186 185 187
f 186 187 188
f 188 187 189
f 188 189 190
f 190 189 191
f 190 191 192
f 192 191 193
f 192 193 142
f 142 193 143
f 173 75 175
f 175 75 177
f 30 28 139
f 82 136 135
f 194 141 28
f 28 141 140
f 28 140 139
f 132 96 133
f 133 96 95
f 133 95 134
f 134 95 93
f 134 93 135
f 70 68 130
f 130 68 66
f 130 66 131
f 131 66 100
f 131 100 132
f 132 100 98
f 132 98 96
f 139 138 30
f 30 138 137
f 30 137 78
f 78 137 136
f 78 136 80
f 80 136 82
f 90 88 86
f 93 22 135
f 135 22 20
f 135 20 82
f 82 20 90
f 82 90 84
f 84 90 86
f 63 61 191
f 191 61 59
f 191 59 193
f 193 59 57
f 193 57 143
f 143 57 55
f 143 55 145
f 145 55 53
f 145 53 147
f 147 53 51
f 147 51 149
f 149 51 49
f 149 49 151
f 151 49 47
f 151 47 153
f 191 189 63
f 63 189 187
f 63 187 195
f 187 185 195
f 195 185 183
f 195 183 196
f 196 183 181
f 194 196 141
f 141 196 181
f 141 181 127
f 127 181 179
f 127 179 128
f 128 179 177
f 128 177 129
f 129 177 75
f 129 75 130
f 130 75 72
f 130 72 70
f 173 171 75
f 75 171 169
f 75 169 76
f 76 169 167
f 76 167 32
f 32 167 165
f 32 165 33
f 33 165 163
f 33 163 35
f 35 163 161
f 35 161 37
f 37 161 159
f 37 159 39
f 39 159 157
f 39 157 41
f 41 157 155
f 41 155 43
f 43 155 153
f 43 153 45
f 45 153 47
f 197 176 198
f 198 176 178
f 198 178 199
f 168 170 74
f 74 170 172
f 74 172 197
f 197 172 174
f 197 174 176
f 199 178 200
f 200 178 180
f 200 180 201
f 201 180 182
f 201 182 202
f 202 182 184
f 202 184 64
f 168 74 166
f 166 74 77
f 166 77 164
f 164 77 31
f 164 31 162
f 162 31 34
f 162 34 160
f 160 34 36
f 160 36 158
f 158 36 38
f 158 38 156
f 156 38 40
f 156 40 154
f 154 40 42
f 154 42 152
f 184 186 64
f 64 186 188
f 64 188 62
f 62 188 190
f 42 44 152
f 152 44 46
f 152 46 150
f 150 46 48
f 150 48 148
f 148 48 50
f 148 50 146
f 146 50 52
f 146 52 144
f 144 52 54
f 144 54 142
f 142 54 56
f 142 56 192
f 192 56 58
f 192 58 190
f 190 58 60
f 190 60 62
f 110 202 111
f 111 202 64
f 120 197 121
f 121 197 198
f 121 198 122
f 122 198 199
f 122 199 123
f 123 199 200
f 123 200 124
f 124 200 201
f 124 201 110
f 110 201 202
f 73 74 120
f 120 74 197
f 63 195 64
f 64 195 112
f 64 112 111
f 112 195 196
f 112 196 119
f 119 196 194
f 119 194 117
f 117 194 28
f 117 28 26
f 203 204 205
f 205 204 206
f 205 206 23
f 23 206 21
f 207 208 209
f 207 209 210
f 210 209 204
f 210 204 203
f 207 211 208
f 208 211 212
f 211 25 212
f 212 25 27
f 203 3 210
f 210 3 2
f 210 2 207
f 207 2 25
f 207 25 211
f 205 23 17
f 9 7 5
f 15 13 11
f 11 9 15
f 15 9 5
f 15 5 17
f 17 5 3
f 17 3 205
f 205 3 203
f 21 79 19
f 19 79 81
f 19 81 91
f 21 206 79
f 79 206 204
f 79 204 29
f 29 204 209
f 29 209 27
f 27 209 208
f 27 208 212
f 87 89 85
f 85 89 91
f 85 91 83
f 83 91 81

