mtllib material.mtl
usemtl mtl_hip_xy_bracket_r
v 0.01237277 -0.00177894 -0.04750000
v 0.01400592 -0.00375288 -0.04750000
v 0.01137040 -0.00519269 -0.04750000
v 0.01255737 -0.00725000 -0.04750000
v 0.00944687 -0.00818576 -0.04750000
v 0.01025305 -0.01025305 -0.04750000
v 0.00675801 -0.01051567 -0.04750000
v 0.00725000 -0.01255737 -0.04750000
v 0.00352166 -0.01199366 -0.04750000
v 0.00375288 -0.01400592 -0.04750000
v 0.00000000 -0.01250000 -0.04750000
v 0.00000000 -0.01450000 -0.04750000
v -0.00352166 -0.01199366 -0.04750000
v -0.00375288 -0.01400592 -0.04750000
v -0.00675801 -0.01051567 -0.04750000
v -0.00725000 -0.01255737 -0.04750000
v -0.00944687 -0.00818576 -0.04750000
v -0.01025305 -0.01025305 -0.04750000
v -0.01137040 -0.00519269 -0.04750000
v -0.01255737 -0.00725000 -0.04750000
v -0.01237277 -0.00177894 -0.04750000
v -0.01400592 -0.00375288 -0.04750000
v -0.01237277 0.00177894 -0.04750000
v -0.01450000 0.00000000 -0.04750000
v -0.01400592 0.00375288 -0.04750000
v -0.01137040 0.00519269 -0.04750000
v -0.01255737 0.00725000 -0.04750000
v -0.00944687 0.00818576 -0.04750000
v -0.01025305 0.01025305 -0.04750000
v -0.00675801 0.01051567 -0.04750000
v -0.00725000 0.01255737 -0.04750000
v -0.00352166 0.01199366 -0.04750000
v -0.00375288 0.01400592 -0.04750000
v 0.00000000 0.01250000 -0.04750000
v -0.00000000 0.01450000 -0.04750000
v 0.00352166 0.01199366 -0.04750000
v 0.00375288 0.01400592 -0.04750000
v 0.00675801 0.01051567 -0.04750000
v 0.00725000 0.01255737 -0.04750000
v 0.00944687 0.00818576 -0.04750000
v 0.01025305 0.01025305 -0.04750000
v 0.01137040 0.00519269 -0.04750000
v 0.01255737 0.00725000 -0.04750000
v 0.01237277 0.00177894 -0.04750000
v 0.01400592 0.00375288 -0.04750000
v 0.01450000 0.00000000 -0.04750000
v -0.00000000 0.01500000 -0.04700000
v -0.00388229 0.01448889 -0.04700000
v -0.00750000 0.01299038 -0.04700000
v -0.01060660 0.01060660 -0.04700000
v -0.01299038 0.00750000 -0.04700000
v -0.01448889 0.00388229 -0.04700000
v -0.01500000 0.00000000 -0.04700000
v -0.01448889 -0.00388229 -0.04700000
v -0.01299038 -0.00750000 -0.04700000
v -0.01060660 -0.01060660 -0.04700000
v -0.00750000 -0.01299038 -0.04700000
v -0.00388229 -0.01448889 -0.04700000
v -0.00000000 -0.01500000 -0.04700000
v 0.00388229 -0.01448889 -0.04700000
v 0.00750000 -0.01299038 -0.04700000
v 0.01060660 -0.01060660 -0.04700000
v 0.01299038 -0.00750000 -0.04700000
v 0.01448889 -0.00388229 -0.04700000
v 0.01500000 0.00000000 -0.04700000
v 0.01448889 0.00388229 -0.04700000
v 0.01299038 0.00750000 -0.04700000
v 0.01060660 0.01060660 -0.04700000
v 0.00750000 0.01299038 -0.04700000
v 0.00388229 0.01448889 -0.04700000
v -0.02021174 -0.02757994 -0.02016260
v -0.01992164 -0.02722778 -0.02132245
v -0.01865567 -0.03100000 -0.02638401
v -0.01965275 -0.02665273 -0.02239753
v -0.01832045 -0.03081702 -0.02772428
v -0.01941858 -0.02588386 -0.02333378
v -0.01782438 -0.02973541 -0.02970766
v -0.01723907 -0.01027578 -0.03204785
v -0.01704040 -0.00773631 -0.03284213
v -0.01500000 -0.01261508 -0.04100000
v -0.01689853 -0.00513913 -0.03340936
v -0.01500000 0.00000000 -0.04100000
v -0.02376785 -0.03100000 -0.00594469
v -0.02376785 -0.02769971 -0.00594469
v -0.02051505 -0.02769971 -0.01894993
v -0.01678836 0.01500000 -0.03384985
v -0.01500000 0.01500000 -0.04100000
v -0.01678836 0.00000000 -0.03384985
v -0.01681438 -0.00250444 -0.03374581
v -0.01749307 -0.01273734 -0.03103230
v -0.01548995 -0.01741266 -0.03904109
v -0.01780032 -0.01509985 -0.02980386
v -0.01922591 -0.02494545 -0.02410410
v -0.01917216 -0.02459985 -0.02431903
v -0.01691421 -0.02604600 -0.03334666
v -0.01613165 -0.02191507 -0.03647548
v -0.00615728 -0.01367801 -0.04339957
v -0.00664774 -0.01344647 -0.04307464
v -0.00388229 -0.01448889 -0.04409163
v -0.00505455 -0.01412273 -0.04384005
v -0.00706850 -0.01323013 -0.04265230
v -0.00736964 -0.01306478 -0.04212005
v -0.00748331 -0.01300000 -0.04150000
v 0.00195572 -0.01487196 -0.04427984
v -0.00000000 -0.01500000 -0.04432843
v -0.00196954 -0.01487014 -0.04427910
v 0.00748331 -0.01300000 -0.04150000
v 0.00736970 -0.01306474 -0.04211990
v 0.00711307 -0.01320622 -0.04259307
v 0.00645357 -0.01354073 -0.04321814
v 0.00522665 -0.01405995 -0.04378827
v 0.00388229 -0.01448889 -0.04409163
v 0.00748331 -0.01300000 -0.04086918
v 0.00750001 -0.01299037 -0.04087251
v 0.00811540 -0.01261508 -0.04100000
v 0.01060660 -0.01060660 -0.04100000
v 0.01299038 -0.00750000 -0.04100000
v 0.01448889 -0.00388229 -0.04100000
v 0.01500000 0.00000000 -0.04100000
v 0.01448889 0.00388229 -0.04100000
v 0.01299038 0.00750000 -0.04100000
v 0.01060660 0.01060660 -0.04100000
v 0.00750000 0.01299038 -0.04100000
v 0.00388229 0.01448889 -0.04100000
v -0.00000000 0.01500000 -0.04100000
v -0.00388229 0.01448889 -0.04100000
v -0.00750000 0.01299038 -0.04100000
v -0.01060660 0.01060660 -0.04100000
v -0.01299038 0.00750000 -0.04100000
v -0.01448889 0.00388229 -0.04100000
v -0.01448889 -0.00388229 -0.04100000
v -0.01299038 -0.00750000 -0.04100000
v -0.01060660 -0.01060660 -0.04100000
v -0.00811540 -0.01261508 -0.04100000
v -0.00750001 -0.01299037 -0.04087251
v -0.00748331 -0.01300000 -0.04086918
v 0.01500000 -0.01261508 -0.04100000
v 0.01500000 0.01500000 -0.04100000
v 0.01120850 -0.01396647 -0.04052117
v 0.01053418 -0.01346011 -0.04070702
v 0.01203849 -0.01520415 -0.04003365
v 0.01190704 -0.01490833 -0.04015453
v 0.01143760 -0.01420767 -0.04042990
v 0.01020962 -0.01329440 -0.04076615
v 0.00942261 -0.01305145 -0.04085136
v 0.00907709 -0.01300820 -0.04086635
v 0.00884789 -0.01300000 -0.04086918
v 0.01223411 -0.01600000 -0.03969452
v 0.01548995 -0.01741266 -0.03904109
v 0.01239754 -0.01741266 -0.03904109
v 0.01613165 -0.02191507 -0.03647548
v 0.01303924 -0.02191507 -0.03647548
v 0.01691421 -0.02604600 -0.03334666
v 0.01382180 -0.02604600 -0.03334666
v 0.01472690 -0.02971738 -0.02972792
v 0.01782438 -0.02973541 -0.02970766
v 0.01473189 -0.02973541 -0.02970766
v -0.00884789 -0.01300000 -0.04086918
v -0.00965956 -0.01310284 -0.04083349
v -0.00990673 -0.01317596 -0.04080791
v -0.01066636 -0.01354046 -0.04067805
v -0.01084615 -0.01366321 -0.04063341
v -0.01146871 -0.01424420 -0.04041592
v -0.01162394 -0.01444321 -0.04033903
v -0.01202932 -0.01518074 -0.04004331
v -0.01212576 -0.01546091 -0.03992647
v -0.01223411 -0.01600000 -0.03969452
v -0.01473189 -0.02973541 -0.02970766
v -0.01472690 -0.02971738 -0.02972792
v -0.01382180 -0.02604600 -0.03334666
v -0.01303924 -0.02191507 -0.03647548
v -0.01239754 -0.01741266 -0.03904109
v -0.01917216 -0.02459985 0.02431903
v -0.01934765 -0.02558057 0.02361738
v -0.01810524 -0.03048963 0.02858473
v -0.01865567 -0.03100000 0.02638401
v -0.01474989 0.00000000 0.04200000
v -0.01678836 -0.00000000 0.03384985
v -0.01681753 -0.00265181 0.03373320
v -0.01474989 -0.00909067 0.04200000
v -0.01956788 -0.02640870 0.02273688
v -0.01982534 -0.02705269 0.02170750
v -0.02010970 -0.02748413 0.02057059
v -0.01690486 -0.00528348 0.03338406
v -0.01704969 -0.00787507 0.03280500
v -0.01512481 -0.01402019 0.04050100
v -0.01725099 -0.01040663 0.03200017
v -0.01580857 -0.01981835 0.03776718
v -0.02376785 -0.02769971 0.00594469
v -0.02376785 -0.03100000 0.00594469
v -0.02051505 -0.02769971 0.01894993
v -0.02041059 -0.02768564 0.01936757
v -0.01750735 -0.01285931 0.03097522
v -0.01780032 -0.01509985 0.02980386
v -0.01671628 -0.02510245 0.03413802
v -0.01782438 -0.02973541 0.02970766
v -0.02441829 -0.03100000 -0.00199932
v -0.02441829 -0.02769971 -0.00199932
v -0.02441829 -0.03100000 0.00199932
v -0.02441829 -0.02769971 0.00199932
v 0.02376785 -0.02769971 0.00594469
v 0.02376785 -0.03100000 0.00594469
v 0.02441829 -0.03100000 0.00199932
v 0.02441829 -0.02769971 0.00199932
v 0.02441829 -0.03100000 -0.00199932
v 0.02441829 -0.02769971 -0.00199932
v 0.02376785 -0.03100000 -0.00594469
v 0.02376785 -0.02769971 -0.00594469
v 0.02021174 -0.02757994 0.02016260
v 0.01992164 -0.02722778 0.02132245
v 0.01865567 -0.03100000 0.02638401
v 0.01965275 -0.02665273 0.02239753
v 0.01832045 -0.03081702 0.02772428
v 0.01941858 -0.02588386 0.02333378
v 0.01782438 -0.02973541 0.02970766
v 0.01474989 -0.00909067 0.04200000
v 0.01689854 -0.00513918 0.03340935
v 0.01474989 0.00000000 0.04200000
v 0.01681438 -0.00250466 0.03374580
v 0.01678836 0.00000000 0.03384985
v 0.02051505 -0.02769971 0.01894993
v 0.01780032 -0.01509985 0.02980386
v 0.01749309 -0.01273748 0.03103223
v 0.01524059 -0.01519340 0.04003809
v 0.01723908 -0.01027597 0.03204778
v 0.01704042 -0.00773654 0.03284207
v 0.01922591 -0.02494545 0.02410410
v 0.01917216 -0.02459985 0.02431903
v 0.01691909 -0.02606849 0.03332717
v 0.01596996 -0.02090204 0.03712193
v 0.01917216 -0.02459985 -0.02431903
v 0.01934765 -0.02558057 -0.02361738
v 0.01810524 -0.03048963 -0.02858473
v 0.01865567 -0.03100000 -0.02638401
v 0.01678836 0.01500000 -0.03384985
v 0.01956788 -0.02640870 -0.02273688
v 0.01982534 -0.02705269 -0.02170750
v 0.02010970 -0.02748413 -0.02057059
v 0.01678836 0.00000000 -0.03384985
v 0.01681751 -0.00265078 -0.03373329
v 0.01690479 -0.00528188 -0.03338435
v 0.02051505 -0.02769971 -0.01894993
v 0.02041059 -0.02768564 -0.01936757
v 0.01704959 -0.00787353 -0.03280542
v 0.01725088 -0.01040539 -0.03200062
v 0.01750718 -0.01285788 -0.03097589
v 0.01780032 -0.01509985 -0.02980386
v 0.01809063 0.02960049 -0.02864313
v 0.01500000 0.01900000 -0.04100000
v -0.01809063 0.02960049 -0.02864313
v -0.01500000 0.01900000 -0.04100000
v -0.01890838 0.03211765 -0.02537367
v 0.01890838 0.03211765 -0.02537367
v -0.01961779 0.03300000 -0.02253730
v 0.01961779 0.03300000 -0.02253730
v 0.01924632 0.03277432 -0.02402252
v -0.01924632 0.03277432 -0.02402252
v -0.02376785 0.03300000 -0.00594469
v -0.02376785 0.02922298 -0.00594469
v -0.02441829 0.02922298 -0.00199932
v -0.02441829 0.03300000 -0.00199932
v -0.02441829 0.02922298 0.00199932
v -0.02441829 0.03300000 0.00199932
v -0.02376785 0.02922298 0.00594469
v -0.02376785 0.03300000 0.00594469
v -0.02013905 0.02898343 -0.02045322
v -0.01986774 0.02856013 -0.02153799
v -0.01962151 0.02794403 -0.02252245
v -0.01940892 0.02715892 -0.02337243
v -0.01667670 0.01500000 -0.03429627
v -0.02056673 0.02922298 -0.01874330
v -0.02040382 0.02918878 -0.01939462
v -0.02044099 0.02911388 0.01924602
v -0.02016068 0.02878994 0.02036677
v -0.01961779 0.03300000 0.02253730
v -0.01924632 0.03277432 0.02402252
v -0.01990102 0.02826406 0.02140491
v -0.01890838 0.03211765 0.02537367
v -0.01967041 0.02755409 0.02232694
v -0.01782443 0.02865315 0.02970745
v -0.02073114 0.02922298 0.01808597
v -0.01779476 0.01511149 0.02982608
v -0.01750031 0.01285856 0.03100336
v -0.01545001 0.01511762 0.03920077
v -0.01725424 0.01051467 0.03198717
v -0.01500445 0.00986302 0.04098222
v -0.01705843 0.00809811 0.03277005
v -0.01691416 0.00562615 0.03334689
v -0.01474989 0.00440880 0.04200000
v -0.01682233 0.00311727 0.03371401
v -0.01678417 0.00072050 0.03386660
v -0.01678202 0.00000000 0.03387520
v -0.01949632 0.02678828 0.02302296
v -0.01938320 0.02611149 0.02347523
v -0.01687442 0.02460873 0.03350575
v -0.01607757 0.02006624 0.03669168
v 0.01961779 0.03300000 0.02253730
v 0.02376785 0.03300000 0.00594469
v 0.02376785 0.03300000 -0.00594469
v 0.02441829 0.03300000 -0.00199932
v 0.02441829 0.03300000 0.00199932
v 0.01890838 0.03211765 0.02537367
v 0.01924632 0.03277432 0.02402252
v 0.01161420 0.00468794 0.04196722
v 0.01145804 0.00440880 0.04200000
v 0.01474989 0.00440880 0.04200000
v -0.01145804 0.00440880 0.04200000
v -0.01161383 0.00468694 0.04196734
v -0.01167544 0.00500000 0.04192816
v -0.01191203 0.00986302 0.04098222
v -0.01235760 0.01511762 0.03920077
v -0.01298516 0.02006624 0.03669168
v -0.01378201 0.02460873 0.03350575
v -0.01472690 0.02863424 0.02972792
v -0.01432398 0.03066020 0.02735295
v -0.01388802 0.03106420 0.02682998
v -0.01330680 0.03138866 0.02639632
v -0.01260033 0.03160199 0.02610419
v -0.01473194 0.02865315 0.02970745
v -0.01477848 0.02970265 0.02852355
v -0.01461865 0.03019891 0.02792845
v -0.01181655 0.03167708 0.02600000
v 0.01181655 0.03167708 0.02600000
v 0.01259712 0.03160262 0.02610333
v 0.01322110 0.03142342 0.02634910
v 0.01480045 0.02956054 0.02868962
v 0.01782443 0.02865315 0.02970745
v 0.01450363 0.03041152 0.02766597
v 0.01408081 0.03090983 0.02703197
v 0.01472690 0.02863424 0.02972792
v 0.01378201 0.02460873 0.03350575
v 0.01687442 0.02460873 0.03350575
v 0.01298516 0.02006624 0.03669168
v 0.01607757 0.02006624 0.03669168
v 0.01235760 0.01511762 0.03920077
v 0.01545001 0.01511762 0.03920077
v 0.01191203 0.00986302 0.04098222
v 0.01500445 0.00986302 0.04098222
v 0.01167544 0.00500000 0.04192816
v 0.01676308 0.00000000 0.03395092
v 0.01936659 0.02614618 0.02354166
v 0.01953410 0.02709256 0.02287192
v 0.01974265 0.02790147 0.02203812
v 0.01998626 0.02854639 0.02106412
v 0.02025556 0.02900021 0.01998742
v 0.01678965 0.00253473 0.03384468
v 0.01686919 0.00505196 0.03352666
v 0.01700117 0.00753424 0.03299901
v 0.02376785 0.02929237 0.00594469
v 0.02072955 0.02929237 0.01809231
v 0.02052413 0.02923849 0.01891362
v 0.01718474 0.00996472 0.03226503
v 0.01741872 0.01232650 0.03132956
v 0.01768591 0.01448874 0.03026127
v 0.01777815 0.01514618 0.02989251
v 0.02441829 0.02929237 0.00199932
v 0.02441829 0.02929237 -0.00199932
v 0.02376785 0.02929237 -0.00594469
v 0.02056514 0.02929237 -0.01874963
v 0.02027322 0.02918317 -0.01991679
v 0.01999147 0.02885943 -0.02104328
v 0.01973003 0.02833341 -0.02208857
v 0.01951094 0.02767209 -0.02296452
v 0.01665179 0.01500000 -0.03439589
v 0.01939442 0.02720529 -0.02343038
v -0.01865567 -0.03115000 0.02638401
v -0.01867669 -0.03115000 0.02630000
v -0.01867669 -0.03345786 0.02630000
v -0.01509079 0.02037507 0.04063701
v -0.01599030 0.01992045 0.03704061
v -0.01479502 0.01756019 0.04181954
v -0.01527199 0.01392433 0.03991256
v -0.01461450 0.01459354 0.04254131
v -0.01455381 0.01155000 0.04278396
v -0.01812861 0.03004193 0.02849132
v -0.01695173 0.02534500 0.03319667
v -0.01791299 0.02987125 0.02935338
v -0.01723797 0.02878886 0.03205222
v -0.01549436 0.02296708 0.03902347
v -0.01599556 0.02527066 0.03701959
v -0.01658170 0.02722770 0.03467610
v -0.01481744 0.00752911 0.04172990
v -0.01469986 0.00447012 0.04220000
v -0.01455381 -0.00845000 0.04278396
v -0.01469986 -0.00906379 0.04220000
v -0.01458659 -0.01111720 0.04265287
v -0.01521854 -0.01545183 0.04012624
v -0.01468458 -0.01375874 0.04226109
v -0.01570083 -0.02356802 0.03819796
v -0.01535748 -0.02127746 0.03957074
v -0.01599722 -0.02140288 0.03701296
v -0.01507188 -0.01886347 0.04071259
v -0.01484690 -0.01634911 0.04161213
v -0.01701394 -0.02674920 0.03294792
v -0.01654725 -0.02769159 0.03481383
v -0.01609873 -0.02571286 0.03660711
v -0.01832133 -0.03097524 0.02772076
v -0.01815152 -0.03244850 0.02839971
v -0.01779113 -0.02983483 0.02984061
v -0.01757862 -0.03107571 0.03069026
v -0.01704216 -0.02948486 0.03283511
v -0.02376785 -0.03370000 0.00594469
v -0.02376785 -0.03566171 0.00594469
v -0.02231233 -0.03370000 0.01176411
v -0.02135986 -0.03566171 0.01557225
v -0.01882252 -0.03370000 0.02571693
v -0.01947765 -0.03370000 0.02309760
v -0.01938417 -0.03448988 0.02347136
v -0.01947765 -0.03385948 0.02309760
v -0.02003206 -0.03513885 0.02088099
v -0.02069275 -0.03553062 0.01823945
v -0.02441829 -0.03370000 0.00199932
v -0.02442024 -0.03566171 0.00197530
v -0.02441829 -0.03370000 -0.00199932
v -0.02441431 -0.03566171 -0.00204734
v -0.02376785 -0.03370000 -0.00594469
v -0.02376785 -0.03566171 -0.00594469
v -0.01947840 -0.03385943 -0.02309770
v -0.02023502 -0.03566171 -0.02007207
v -0.02231233 -0.03370000 -0.01176516
v -0.01947840 -0.03370000 -0.02309770
v -0.01870863 -0.03466618 -0.02617594
v -0.01946174 -0.03541119 -0.02316433
v -0.01872762 -0.03370000 -0.02610000
v -0.01870204 -0.03367187 -0.02620228
v -0.01799532 -0.03344622 -0.02902839
v -0.01868398 -0.03359773 -0.02627449
v -0.01867760 -0.03350000 -0.02630000
v -0.01779220 -0.02983483 -0.02984061
v -0.01734040 -0.03178306 -0.03164731
v -0.01807099 -0.03059285 -0.02872579
v -0.01865660 -0.03115000 -0.02638401
v -0.01867760 -0.03115000 -0.02630000
v -0.01574156 -0.01969222 -0.03804092
v -0.01566508 -0.02062428 -0.03834673
v -0.01663561 -0.02496487 -0.03446570
v -0.01565005 -0.02101015 -0.03840686
v -0.01570405 -0.02283728 -0.03819091
v -0.01588668 -0.02461858 -0.03746059
v -0.01627216 -0.02731090 -0.03591909
v -0.01676098 -0.02972003 -0.03396437
v -0.01565276 -0.02198116 -0.03839599
v -0.01567080 -0.02238071 -0.03832387
v 0.01032625 -0.02057399 -0.04061002
v 0.00962343 -0.01991050 -0.04072614
v 0.01087045 -0.02039889 -0.04034324
v 0.00277918 -0.01704593 -0.04099193
v 0.00472393 -0.01695554 -0.03999325
v 0.00485256 -0.01756202 -0.04097188
v 0.01325016 -0.01872055 -0.03857464
v 0.01221529 -0.01841144 -0.03877760
v 0.01051271 -0.01789276 -0.03900222
v 0.01564999 -0.02188801 -0.03840706
v 0.01570405 -0.02283728 -0.03819091
v 0.01547006 -0.02282511 -0.03829558
v 0.01255664 -0.02268943 -0.03958128
v 0.01133781 -0.02264018 -0.04011115
v 0.01131694 -0.02244548 -0.04016729
v 0.01257816 -0.02045009 -0.03963195
v 0.01128915 -0.02229173 -0.04021024
v 0.01101474 -0.02154159 -0.04040270
v 0.01551431 -0.02055387 -0.03839830
v 0.01567013 -0.02053095 -0.03832654
v 0.01564420 -0.02149870 -0.03843023
v 0.01539887 -0.01954351 -0.03812489
v 0.01574156 -0.01969222 -0.03804092
v 0.01569632 -0.02015363 -0.03822182
v 0.00617375 -0.01698127 -0.03944530
v 0.00758855 -0.01722904 -0.03932767
v 0.00879618 -0.01835893 -0.04017658
v 0.01050539 -0.01838367 -0.03947823
v 0.00655386 -0.01815737 -0.04093365
v 0.00004544 -0.01645142 -0.03968991
v 0.00042270 -0.01645681 -0.03968747
v 0.00058613 -0.01669147 -0.04099867
v 0.00327536 -0.01661787 -0.03961407
v 0.00856797 -0.01916290 -0.04083209
v 0.00810473 -0.01889285 -0.04086395
v 0.01091506 -0.02136113 -0.04044483
v 0.01401383 -0.02275383 -0.03894199
v 0.01404596 -0.02049920 -0.03901716
v -0.00302094 -0.01659533 -0.03962440
v -0.00471558 -0.01695552 -0.03999666
v -0.00605146 -0.01696203 -0.03945434
v -0.01551221 -0.02055379 -0.03839919
v -0.01546798 -0.02282501 -0.03829651
v -0.00939876 -0.01973198 -0.04075382
v -0.01034954 -0.02059969 -0.04060509
v -0.01086836 -0.02039883 -0.04034411
v -0.01059856 -0.02089689 -0.04054588
v -0.01109600 -0.02170989 -0.04036196
v -0.00496301 -0.01759540 -0.04097016
v -0.00688492 -0.01829627 -0.04092239
v -0.00902882 -0.01752963 -0.03918216
v -0.00879200 -0.01835888 -0.04017829
v -0.01050330 -0.01838364 -0.03947909
v -0.00004544 -0.01645142 -0.03968991
v -0.00058613 -0.01669147 -0.04099867
v -0.00181243 -0.01686795 -0.04099603
v -0.00420898 -0.01738019 -0.04098033
v -0.01231418 -0.01841260 -0.03873656
v -0.01223503 -0.01838781 -0.03874945
v -0.01221529 -0.01841144 -0.03877760
v -0.00973215 -0.01769478 -0.03910089
v -0.01458590 -0.01921125 -0.03830949
v -0.01404492 -0.02049916 -0.03901760
v -0.01257816 -0.02045009 -0.03963195
v -0.01401279 -0.02275379 -0.03894245
v -0.01255664 -0.02268943 -0.03958128
v -0.01116984 -0.02188844 -0.04031721
v -0.01133781 -0.02264018 -0.04011115
v -0.00852598 -0.01913722 -0.04083527
v -0.01159961 -0.02580413 -0.03891220
v -0.01143859 -0.02403914 -0.03964956
v -0.01189911 -0.02829233 -0.03754072
v -0.01198509 -0.02888720 -0.03714698
v -0.01247391 -0.03164597 -0.03490856
v -0.01254816 -0.03199406 -0.03456858
v -0.01305334 -0.03400842 -0.03225522
v -0.01335565 -0.03497245 -0.03087082
v -0.01594795 -0.03845000 -0.01900000
v -0.01517467 -0.03816311 -0.02254106
v -0.01442156 -0.03730999 -0.02598976
v -0.01428359 -0.03708756 -0.02662155
v -0.01370825 -0.03591296 -0.02925620
v 0.01143859 -0.02403914 -0.03964956
v 0.01159961 -0.02580413 -0.03891220
v 0.01189911 -0.02829233 -0.03754072
v 0.01198509 -0.02888720 -0.03714698
v 0.01247391 -0.03164597 -0.03490856
v 0.01254816 -0.03199406 -0.03456858
v 0.01305334 -0.03400842 -0.03225522
v 0.01335565 -0.03497245 -0.03087082
v 0.01370825 -0.03591296 -0.02925620
v 0.01428359 -0.03708756 -0.02662155
v 0.01442156 -0.03730999 -0.02598976
v 0.01517467 -0.03816311 -0.02254106
v 0.01594795 -0.03845000 -0.01900000
v -0.01948078 -0.03845000 -0.00487262
v -0.02001068 -0.03845000 -0.00167806
v -0.02001555 -0.03845000 0.00161901
v -0.01948083 -0.03845000 0.00487244
v -0.01707283 -0.03845000 0.01450000
v -0.01845439 -0.03361093 0.02626642
v -0.01860659 -0.03350000 0.02630000
v -0.01842414 -0.03364663 0.02623601
v -0.01386450 -0.03490753 0.02864185
v -0.01841515 -0.03366667 0.02621054
v -0.01446827 -0.03616638 0.02598050
v -0.01841640 -0.03368289 0.02618094
v -0.01842653 -0.03369291 0.02615277
v -0.01845486 -0.03369970 0.02611105
v -0.01846481 -0.03370000 0.02610000
v -0.01502627 -0.03706147 0.02352093
v -0.01640573 -0.03830548 0.01744050
v -0.01630240 -0.03825710 0.01789596
v -0.01574504 -0.03787356 0.02035271
v -0.01509715 -0.03715810 0.02320851
v -0.01382532 -0.03481451 0.02881454
v -0.01329160 -0.03339409 0.03116711
v -0.01275514 -0.03164022 0.03353173
v -0.01226023 -0.02966320 0.03571320
v -0.01182115 -0.02753233 0.03764860
v -0.01181171 -0.02748173 0.03769023
v -0.01141381 -0.02511711 0.03944409
v -0.01109160 -0.02276488 0.04086432
v -0.01107046 -0.02259185 0.04095754
v -0.01026678 -0.00845000 0.04450000
v -0.01029957 -0.01139050 0.04435548
v -0.01039756 -0.01430271 0.04392356
v -0.01055988 -0.01715851 0.04320810
v -0.01058183 -0.01747136 0.04311133
v -0.01078486 -0.01993050 0.04221639
v -0.01026678 0.01155000 0.04450000
v -0.01713030 0.03033969 0.02934769
v -0.01358111 0.03246431 0.02932578
v -0.01438319 0.03198408 0.02933023
v -0.01340892 0.03219037 0.03011390
v -0.01295095 0.03129081 0.03221071
v -0.01575679 0.03116181 0.02933850
v -0.01032748 0.01503526 0.04422213
v -0.01050800 0.01843248 0.04339560
v -0.01056386 0.01916531 0.04313984
v -0.01080377 0.02165590 0.04204145
v -0.01102514 0.02341220 0.04102793
v -0.01120734 0.02462409 0.04019373
v -0.01170854 0.02726200 0.03789902
v -0.01248152 0.03007935 0.03435999
v -0.01229468 0.02950308 0.03521541
v -0.00958189 0.03350363 0.02392763
v -0.01025580 0.03310869 0.02393378
v -0.01047389 0.03346763 0.02440197
v -0.01061548 0.03346004 0.02448752
v -0.01365045 0.03233235 0.02548712
v -0.01258457 0.03299032 0.02553133
v -0.01184770 0.03282252 0.02460202
v -0.01694204 0.03086361 0.02748141
v -0.01593583 0.03146238 0.02743535
v -0.01545372 0.03162713 0.02647768
v -0.01456059 0.03228172 0.02742823
v -0.01497069 0.03183524 0.02619207
v -0.00768256 0.03353880 0.02320199
v -0.00712757 0.03323576 0.02292184
v -0.00922897 0.03351351 0.02376658
v -0.00909830 0.03316559 0.02347044
v -0.01000600 0.03309413 0.02380093
v -0.01034440 0.03305838 0.02393594
v -0.01168528 0.03337688 0.02525447
v -0.00658688 0.03354605 0.02291709
v -0.00466992 0.03354975 0.02260499
v -0.00509920 0.03324965 0.02259735
v -0.00268256 0.03355000 0.02250000
v -0.00318451 0.03325000 0.02250000
v -0.00437290 0.03325000 0.02253730
v -0.01359951 0.03249419 0.02923355
v -0.01246691 0.03326759 0.02601370
v -0.01309349 0.03311105 0.02687277
v -0.01331033 0.03302252 0.02728862
v -0.01358732 0.03281453 0.02814089
v -0.01362883 0.03273798 0.02842195
v 0.01456059 0.03228172 0.02742823
v 0.01438319 0.03198408 0.02933023
v 0.01575798 0.03116110 0.02933851
v 0.00980312 0.03349633 0.02403577
v 0.01026055 0.03310586 0.02393379
v 0.00958501 0.03350353 0.02392911
v 0.01319430 0.03307365 0.02705333
v 0.01330780 0.03302375 0.02728309
v 0.01365045 0.03233235 0.02548712
v 0.01303397 0.03252816 0.02518042
v 0.01258694 0.03298890 0.02553133
v 0.01122415 0.03293708 0.02431393
v 0.01023684 0.03307034 0.02389236
v 0.00931923 0.03315113 0.02354649
v 0.00815029 0.03353354 0.02335087
v 0.00837443 0.03320207 0.02324167
v 0.00631917 0.03354705 0.02285996
v 0.00640659 0.03324436 0.02277932
v 0.00547607 0.03354900 0.02270948
v 0.00437290 0.03325000 0.02253730
v 0.00341190 0.03354999 0.02251402
v 0.00318451 0.03325000 0.02250000
v 0.00268256 0.03355000 0.02250000
v 0.01101620 0.03343487 0.02474776
v 0.01210296 0.03332601 0.02563137
v 0.01257218 0.03324735 0.02613661
v 0.01667428 0.03101765 0.02728423
v 0.01525067 0.03171656 0.02635560
v 0.01593702 0.03146167 0.02743535
v 0.01358111 0.03246431 0.02932578
v 0.01363665 0.03271293 0.02851088
v 0.01359115 0.03280915 0.02816113
v 0.01713267 0.03033827 0.02934770
v 0.01759429 0.03044581 0.02800347
v 0.01791299 0.02987125 0.02935338
v 0.01812861 0.03004193 0.02849132
v 0.01723797 0.02878886 0.03205222
v 0.01295095 0.03129081 0.03221071
v 0.01340892 0.03219037 0.03011390
v 0.01248152 0.03007935 0.03435999
v 0.01658170 0.02722770 0.03467610
v 0.01229468 0.02950308 0.03521541
v 0.01599556 0.02527066 0.03701959
v 0.01170854 0.02726200 0.03789902
v 0.01549436 0.02296708 0.03902347
v 0.01120734 0.02462409 0.04019373
v 0.01102514 0.02341220 0.04102793
v 0.01509079 0.02037507 0.04063701
v 0.01026678 0.01155000 0.04450000
v 0.01455381 0.01155000 0.04278396
v 0.01032748 0.01503526 0.04422213
v 0.01461450 0.01459354 0.04254131
v 0.01050800 0.01843248 0.04339560
v 0.01479502 0.01756019 0.04181954
v 0.01056386 0.01916531 0.04313984
v 0.01080377 0.02165590 0.04204145
v 0.00739276 0.03349393 0.02406968
v -0.00718392 0.03350668 0.02387995
v 0.01026678 -0.00845000 0.04450000
v 0.01455381 -0.00845000 0.04278396
v 0.01029957 -0.01139050 0.04435548
v 0.01039756 -0.01430271 0.04392356
v 0.01055988 -0.01715851 0.04320810
v 0.01109160 -0.02276488 0.04086432
v 0.01107046 -0.02259185 0.04095754
v 0.01078486 -0.01993050 0.04221639
v 0.01058183 -0.01747136 0.04311133
v 0.01141381 -0.02511711 0.03944409
v 0.01181171 -0.02748173 0.03769023
v 0.01182115 -0.02753233 0.03764860
v 0.01446827 -0.03616638 0.02598050
v 0.01386450 -0.03490753 0.02864185
v 0.01226023 -0.02966320 0.03571320
v 0.01275514 -0.03164022 0.03353173
v 0.01329160 -0.03339409 0.03116711
v 0.01382532 -0.03481451 0.02881454
v 0.01502627 -0.03706147 0.02352093
v 0.01509715 -0.03715810 0.02320851
v 0.01574504 -0.03787356 0.02035271
v 0.01707283 -0.03845000 0.01450000
v 0.01640573 -0.03830548 0.01744050
v 0.01630240 -0.03825710 0.01789596
v 0.01948078 -0.03845000 -0.00487262
v 0.02001068 -0.03845000 -0.00167806
v 0.01948083 -0.03845000 0.00487244
v 0.02001555 -0.03845000 0.00161901
v 0.01779113 -0.02983483 0.02984061
v 0.01757862 -0.03107571 0.03069026
v 0.01806996 -0.03059286 0.02872578
v 0.01815152 -0.03244850 0.02839971
v 0.01865567 -0.03115000 0.02638401
v 0.01867669 -0.03345785 0.02630000
v 0.01867669 -0.03115000 0.02630000
v 0.01570083 -0.02356802 0.03819796
v 0.01663433 -0.02496489 0.03446568
v 0.01535748 -0.02127746 0.03957074
v 0.01569762 -0.01938980 0.03821080
v 0.01507188 -0.01886347 0.04071259
v 0.01500740 -0.01326672 0.04097040
v 0.01469986 -0.00906379 0.04220000
v 0.01469986 0.00447012 0.04220000
v 0.01502680 0.01098878 0.04089284
v 0.01562457 0.01719278 0.03850287
v 0.01647596 0.02290367 0.03509886
v 0.01609873 -0.02571286 0.03660711
v 0.01654725 -0.02769159 0.03481383
v 0.01704216 -0.02948486 0.03283511
v 0.01458659 -0.01111720 0.04265287
v 0.01468458 -0.01375874 0.04226109
v 0.01484690 -0.01634911 0.04161213
v 0.01755649 0.02795717 0.03077871
v 0.01846481 -0.03370000 0.02610000
v 0.01843542 -0.03369653 0.02613707
v 0.01841866 -0.03368646 0.02617233
v 0.01841436 -0.03367260 0.02620105
v 0.01841971 -0.03365442 0.02622710
v 0.01843808 -0.03362815 0.02625355
v 0.01848174 -0.03358644 0.02628036
v 0.01860659 -0.03350000 0.02630000
v 0.01882252 -0.03370000 0.02571693
v 0.01938417 -0.03448988 0.02347136
v 0.02003206 -0.03513885 0.02088099
v 0.02135986 -0.03566171 0.01557225
v 0.02069275 -0.03553062 0.01823945
v 0.02376785 -0.03566171 0.00594469
v 0.02376785 -0.03370000 0.00594469
v 0.02231233 -0.03370000 0.01176411
v 0.01947765 -0.03370000 0.02309760
v 0.01947765 -0.03385948 0.02309760
v 0.02376785 -0.03566171 -0.00594469
v 0.02376785 -0.03370000 -0.00594469
v 0.02441829 -0.03370000 -0.00199932
v 0.02441431 -0.03566171 -0.00204734
v 0.02441829 -0.03370000 0.00199932
v 0.02442024 -0.03566171 0.00197530
v 0.01872762 -0.03370000 -0.02610000
v 0.01947840 -0.03370000 -0.02309770
v 0.01947840 -0.03385943 -0.02309770
v 0.01779220 -0.02983483 -0.02984061
v 0.01832232 -0.03097525 -0.02772075
v 0.01799532 -0.03344622 -0.02902839
v 0.01865660 -0.03115000 -0.02638401
v 0.01867760 -0.03115000 -0.02630000
v 0.01867760 -0.03350000 -0.02630000
v 0.02023502 -0.03566171 -0.02007207
v 0.02231233 -0.03370000 -0.01176516
v 0.01669016 -0.02523465 -0.03424758
v 0.01870204 -0.03367187 -0.02620228
v 0.01870863 -0.03466618 -0.02617594
v 0.01946174 -0.03541119 -0.02316433
v 0.01868398 -0.03359773 -0.02627449
v 0.01627216 -0.02731090 -0.03591909
v 0.01676098 -0.02972003 -0.03396437
v 0.01734040 -0.03178306 -0.03164731
v 0.01588668 -0.02461858 -0.03746059
v 0.02380613 -0.03120000 -0.00578948
v 0.02380613 -0.03346564 -0.00578948
v 0.01907681 -0.03120000 -0.02523630
v 0.01964046 -0.03370000 -0.02291859
v 0.01907681 -0.03370000 -0.02523630
v 0.02432591 -0.03120000 -0.00291545
v 0.02432591 -0.03343640 -0.00291545
v 0.02450000 -0.03120000 0.00000000
v 0.02450000 -0.03342661 -0.00000000
v 0.02432591 -0.03120000 0.00291545
v 0.02432591 -0.03343640 0.00291545
v 0.02380613 -0.03120000 0.00578948
v 0.02380613 -0.03346564 0.00578948
v 0.01964046 -0.03370000 0.02291859
v 0.01907681 -0.03120000 0.02523630
v 0.01907681 -0.03370000 0.02523630
v -0.02380613 -0.03346564 -0.00578948
v -0.02380613 -0.03120000 -0.00578948
v -0.01964046 -0.03370000 -0.02291859
v -0.01907681 -0.03120000 -0.02523630
v -0.01907681 -0.03370000 -0.02523630
v -0.02380613 -0.03346564 0.00578948
v -0.02380613 -0.03120000 0.00578948
v -0.02432591 -0.03120000 0.00291545
v -0.02432591 -0.03343640 0.00291545
v -0.02450000 -0.03120000 -0.00000000
v -0.02450000 -0.03342661 -0.00000000
v -0.02432591 -0.03120000 -0.00291545
v -0.02432591 -0.03343640 -0.00291545
v -0.01907681 -0.03120000 0.02523630
v -0.01964046 -0.03370000 0.02291859
v -0.01907681 -0.03370000 0.02523630
f 1 2 3
f 3 2 4
f 3 4 5
f 5 4 6
f 5 6 7
f 7 6 8
f 7 8 9
f 9 8 10
f 9 10 11
f 11 10 12
f 11 12 13
f 13 12 14
f 13 14 15
f 15 14 16
f 15 16 17
f 17 16 18
f 17 18 19
f 19 18 20
f 19 20 21
f 21 20 22
f 21 22 23
f 22 24 23
f 23 24 25
f 23 25 26
f 26 25 27
f 26 27 28
f 28 27 29
f 28 29 30
f 30 29 31
f 30 31 32
f 32 31 33
f 32 33 34
f 34 33 35
f 34 35 36
f 36 35 37
f 36 37 38
f 38 37 39
f 38 39 40
f 40 39 41
f 40 41 42
f 42 41 43
f 42 43 44
f 44 43 45
f 44 45 1
f 1 45 46
f 1 46 2
f 47 33 48
f 48 33 31
f 48 31 49
f 49 31 29
f 49 29 50
f 50 29 27
f 50 27 51
f 51 27 25
f 51 25 52
f 52 25 24
f 52 24 53
f 53 24 22
f 53 22 54
f 54 22 20
f 54 20 55
f 55 20 18
f 55 18 56
f 56 18 16
f 56 16 57
f 57 16 14
f 57 14 58
f 58 14 12
f 58 12 59
f 59 12 10
f 59 10 60
f 60 10 8
f 60 8 61
f 61 8 6
f 61 6 62
f 62 6 4
f 62 4 63
f 63 4 2
f 63 2 64
f 64 2 46
f 64 46 65
f 65 46 45
f 65 45 66
f 66 45 43
f 66 43 67
f 67 43 41
f 67 41 68
f 68 41 39
f 68 39 69
f 69 39 37
f 69 37 70
f 70 37 35
f 70 35 47
f 47 35 33
f 71 72 73
f 73 72 74
f 73 74 75
f 75 74 76
f 75 76 77
f 78 79 80
f 80 79 81
f 80 81 82
f 83 84 73
f 73 84 85
f 73 85 71
f 86 87 88
f 88 87 82
f 88 82 89
f 89 82 81
f 78 80 90
f 90 80 91
f 90 91 92
f 76 93 77
f 77 93 94
f 77 94 95
f 95 94 92
f 95 92 96
f 96 92 91
f 97 98 57
f 58 99 57
f 57 99 100
f 57 100 97
f 98 101 57
f 57 101 102
f 57 102 103
f 60 104 59
f 59 104 105
f 59 105 58
f 58 105 106
f 58 106 99
f 107 108 61
f 61 108 109
f 109 110 61
f 61 110 111
f 61 111 60
f 60 111 112
f 60 112 104
f 113 107 114
f 114 107 61
f 114 61 115
f 115 61 116
f 61 62 116
f 116 62 63
f 116 63 117
f 117 63 64
f 117 64 118
f 118 64 65
f 118 65 119
f 119 65 66
f 119 66 120
f 120 66 67
f 120 67 121
f 121 67 68
f 121 68 122
f 122 68 69
f 122 69 123
f 123 69 70
f 123 70 124
f 124 70 47
f 124 47 125
f 125 47 48
f 125 48 126
f 126 48 49
f 126 49 127
f 127 49 50
f 127 50 128
f 128 50 51
f 128 51 129
f 129 51 52
f 129 52 130
f 130 52 53
f 130 53 82
f 82 53 54
f 82 54 131
f 131 54 55
f 131 55 132
f 132 55 56
f 132 56 133
f 133 56 134
f 134 56 57
f 134 57 135
f 135 57 103
f 135 103 136
f 80 82 131
f 131 132 80
f 80 132 133
f 80 133 134
f 137 115 116
f 116 117 137
f 137 117 118
f 137 118 119
f 119 120 138
f 138 120 121
f 138 121 122
f 122 123 138
f 138 123 124
f 138 124 125
f 139 140 137
f 141 142 137
f 137 142 143
f 137 143 139
f 140 144 137
f 137 144 145
f 137 145 115
f 145 146 115
f 115 146 147
f 115 147 114
f 114 147 113
f 141 137 148
f 148 137 149
f 148 149 150
f 150 149 151
f 150 151 152
f 152 151 153
f 152 153 154
f 154 153 155
f 155 153 156
f 155 156 157
f 135 136 158
f 135 158 134
f 134 158 159
f 134 159 80
f 80 159 160
f 80 160 161
f 161 162 80
f 80 162 163
f 80 163 164
f 164 165 80
f 80 165 166
f 80 166 91
f 91 166 167
f 168 77 169
f 169 77 95
f 169 95 170
f 170 95 96
f 170 96 171
f 171 96 91
f 171 91 172
f 172 91 167
f 125 126 87
f 87 126 127
f 87 127 128
f 128 129 87
f 87 129 130
f 87 130 82
f 173 174 175
f 175 174 176
f 177 178 179
f 177 179 180
f 174 181 176
f 176 181 182
f 176 182 183
f 179 184 180
f 180 184 185
f 180 185 186
f 186 185 187
f 186 187 188
f 189 190 191
f 191 190 176
f 191 176 192
f 192 176 183
f 187 193 188
f 188 193 194
f 188 194 195
f 195 194 173
f 195 173 196
f 196 173 175
f 84 83 197
f 84 197 198
f 198 197 199
f 198 199 200
f 200 199 190
f 200 190 189
f 201 202 203
f 201 203 204
f 204 203 205
f 204 205 206
f 206 205 207
f 206 207 208
f 209 210 211
f 211 210 212
f 211 212 213
f 213 212 214
f 213 214 215
f 216 217 218
f 218 217 219
f 218 219 220
f 202 201 211
f 211 201 221
f 211 221 209
f 222 223 224
f 224 223 225
f 224 225 216
f 216 225 226
f 216 226 217
f 214 227 215
f 215 227 228
f 215 228 229
f 229 228 222
f 229 222 230
f 230 222 224
f 231 232 233
f 233 232 234
f 119 138 235
f 232 236 234
f 234 236 237
f 234 237 238
f 235 239 119
f 119 239 240
f 119 240 137
f 137 240 241
f 208 207 242
f 242 207 234
f 242 234 243
f 243 234 238
f 241 244 137
f 137 244 245
f 137 245 149
f 149 245 246
f 149 246 151
f 151 246 247
f 151 247 153
f 153 247 231
f 153 231 156
f 156 231 233
f 248 249 250
f 250 249 251
f 87 251 138
f 138 251 249
f 250 252 248
f 248 252 253
f 254 255 256
f 254 256 257
f 257 256 253
f 257 253 252
f 258 259 260
f 258 260 261
f 261 260 262
f 261 262 263
f 263 262 264
f 263 264 265
f 266 254 267
f 267 254 257
f 267 257 268
f 268 257 252
f 268 252 269
f 269 252 250
f 269 250 270
f 270 250 251
f 270 251 87
f 259 258 271
f 271 258 254
f 271 254 272
f 272 254 266
f 273 274 275
f 275 274 276
f 276 274 277
f 276 277 278
f 278 277 279
f 278 279 280
f 265 264 275
f 275 264 281
f 275 281 273
f 282 283 284
f 284 283 285
f 284 285 286
f 285 287 286
f 286 287 288
f 286 288 289
f 289 288 290
f 289 290 177
f 177 290 291
f 177 291 292
f 279 293 280
f 280 293 294
f 280 294 295
f 295 294 282
f 295 282 296
f 296 282 284
f 275 297 265
f 265 297 298
f 265 298 263
f 263 298 261
f 255 254 299
f 299 254 258
f 299 258 300
f 261 298 258
f 258 298 301
f 258 301 300
f 278 302 303
f 278 303 276
f 276 303 297
f 276 297 275
f 304 305 306
f 307 308 289
f 289 308 309
f 289 309 286
f 309 310 286
f 286 310 311
f 286 311 284
f 284 311 312
f 284 312 296
f 296 312 313
f 296 313 295
f 295 313 314
f 295 314 280
f 315 316 278
f 278 316 317
f 278 317 318
f 314 319 280
f 280 319 320
f 280 320 278
f 278 320 321
f 278 321 315
f 318 322 278
f 278 322 323
f 278 323 302
f 302 323 324
f 302 324 325
f 326 327 328
f 328 327 302
f 328 302 329
f 329 302 325
f 326 330 327
f 327 330 331
f 327 331 332
f 332 331 333
f 332 333 334
f 334 333 335
f 334 335 336
f 336 335 337
f 336 337 338
f 338 337 306
f 306 337 339
f 306 339 304
f 306 218 340
f 341 342 302
f 302 342 343
f 302 343 303
f 303 343 344
f 303 344 297
f 297 344 345
f 340 346 306
f 306 346 347
f 306 347 338
f 338 347 348
f 338 348 336
f 349 298 350
f 350 298 297
f 350 297 351
f 351 297 345
f 348 352 336
f 336 352 353
f 336 353 334
f 353 354 334
f 334 354 355
f 334 355 332
f 332 355 341
f 332 341 327
f 327 341 302
f 298 349 356
f 298 356 301
f 301 356 357
f 301 357 300
f 300 357 358
f 300 358 299
f 299 358 255
f 255 358 359
f 359 360 255
f 255 360 361
f 255 361 256
f 256 361 362
f 256 362 253
f 253 362 363
f 253 363 248
f 138 249 364
f 364 249 248
f 364 248 365
f 365 248 363
f 366 367 368
f 369 370 371
f 371 370 372
f 371 372 373
f 373 372 374
f 375 376 377
f 377 376 378
f 369 379 370
f 370 379 380
f 370 380 376
f 376 380 381
f 376 381 378
f 372 382 374
f 374 382 383
f 374 383 384
f 384 383 385
f 384 385 386
f 386 385 387
f 386 387 388
f 389 390 391
f 391 390 392
f 391 392 387
f 387 392 393
f 387 393 388
f 394 395 391
f 391 395 396
f 391 396 389
f 366 368 397
f 397 368 398
f 397 398 399
f 399 398 400
f 399 400 394
f 394 400 401
f 394 401 395
f 402 403 404
f 404 403 405
f 406 407 408
f 408 407 409
f 408 409 410
f 410 409 404
f 410 404 411
f 411 404 405
f 403 402 412
f 403 412 413
f 413 412 414
f 413 414 415
f 415 414 416
f 415 416 417
f 418 419 420
f 420 419 417
f 420 417 416
f 421 422 418
f 418 422 423
f 418 423 419
f 421 424 422
f 422 424 425
f 422 425 426
f 426 425 427
f 426 427 428
f 429 430 431
f 431 430 426
f 431 426 432
f 432 426 428
f 432 428 433
f 434 435 436
f 436 435 437
f 438 439 436
f 436 439 440
f 436 440 429
f 429 440 441
f 429 441 430
f 437 442 436
f 436 442 443
f 436 443 438
f 444 445 446
f 447 448 449
f 450 451 452
f 453 454 455
f 456 457 458
f 459 460 461
f 462 463 464
f 453 455 464
f 465 466 467
f 468 469 470
f 470 469 452
f 470 452 471
f 471 452 451
f 449 448 472
f 473 474 475
f 475 474 476
f 477 478 470
f 470 478 472
f 470 472 468
f 468 472 448
f 468 448 476
f 476 448 447
f 476 447 475
f 459 461 446
f 446 461 479
f 446 479 444
f 464 455 462
f 462 455 480
f 462 480 481
f 481 480 456
f 481 456 459
f 459 456 458
f 459 458 460
f 477 470 445
f 445 470 471
f 445 471 446
f 446 471 451
f 446 451 459
f 459 451 450
f 459 450 481
f 481 450 465
f 481 465 462
f 462 465 467
f 462 467 463
f 482 483 484
f 437 435 485
f 437 485 442
f 442 486 443
f 443 486 438
f 487 488 489
f 489 488 490
f 489 490 491
f 483 492 484
f 484 492 493
f 484 493 494
f 494 493 495
f 494 495 496
f 497 498 482
f 482 498 499
f 482 499 483
f 483 499 500
f 483 500 492
f 501 502 503
f 503 502 504
f 435 434 485
f 485 434 505
f 485 505 506
f 506 505 501
f 506 501 507
f 507 501 503
f 507 503 496
f 496 503 504
f 496 504 494
f 442 485 486
f 486 485 506
f 486 506 508
f 508 506 507
f 508 507 509
f 509 507 510
f 509 510 511
f 493 512 495
f 495 512 487
f 495 487 496
f 496 487 489
f 496 489 507
f 507 489 491
f 507 491 510
f 439 438 486
f 486 508 513
f 513 508 509
f 513 509 514
f 514 509 511
f 486 513 439
f 439 513 515
f 439 515 440
f 440 515 516
f 440 516 441
f 516 517 441
f 441 517 518
f 441 518 430
f 518 519 430
f 430 519 520
f 430 520 426
f 521 419 522
f 522 419 423
f 522 423 523
f 523 423 422
f 523 422 524
f 524 422 426
f 524 426 525
f 525 426 520
f 514 511 458
f 458 511 510
f 458 510 491
f 445 444 488
f 488 444 479
f 488 479 461
f 491 490 458
f 458 490 488
f 458 488 460
f 460 488 461
f 458 457 514
f 514 457 526
f 514 526 513
f 513 526 527
f 513 527 528
f 518 517 529
f 529 517 516
f 529 516 528
f 528 516 515
f 528 515 513
f 529 530 518
f 518 530 531
f 518 531 519
f 531 532 519
f 519 532 533
f 519 533 520
f 520 533 525
f 533 534 525
f 525 534 535
f 525 535 524
f 524 535 523
f 535 536 523
f 523 536 537
f 523 537 522
f 522 537 538
f 522 538 521
f 493 492 477
f 493 477 512
f 445 488 477
f 477 488 487
f 477 487 512
f 498 475 447
f 492 500 477
f 477 500 499
f 477 499 478
f 478 499 472
f 498 447 499
f 499 447 449
f 499 449 472
f 419 521 417
f 417 521 539
f 415 417 539
f 539 540 415
f 415 540 541
f 415 541 413
f 413 541 542
f 413 542 403
f 403 542 405
f 405 542 543
f 544 398 545
f 545 398 368
f 544 546 547
f 547 546 548
f 547 548 549
f 549 548 550
f 549 550 551
f 551 552 549
f 549 552 553
f 549 553 554
f 554 553 406
f 554 406 408
f 411 405 543
f 543 555 411
f 411 555 556
f 411 556 410
f 410 556 557
f 410 557 408
f 408 557 558
f 408 558 554
f 544 547 398
f 398 547 559
f 398 559 400
f 400 559 560
f 400 560 401
f 401 560 561
f 401 561 395
f 561 562 395
f 395 562 563
f 395 563 396
f 396 563 564
f 396 564 389
f 564 565 389
f 389 565 566
f 389 566 390
f 390 566 567
f 390 567 392
f 568 384 569
f 569 384 386
f 569 386 570
f 570 386 388
f 570 388 571
f 571 388 393
f 571 393 572
f 572 393 392
f 572 392 573
f 573 392 567
f 384 568 374
f 374 568 574
f 575 377 378
f 576 577 578
f 578 577 579
f 575 378 580
f 374 574 373
f 373 574 581
f 373 581 371
f 581 582 371
f 371 582 583
f 371 583 369
f 583 584 369
f 369 584 585
f 369 585 379
f 379 585 586
f 379 586 380
f 380 586 587
f 380 587 381
f 577 580 579
f 579 580 378
f 579 378 588
f 588 378 381
f 588 381 589
f 589 381 587
f 590 591 592
f 592 591 593
f 594 595 596
f 375 377 575
f 597 598 599
f 599 598 600
f 599 600 601
f 602 603 604
f 604 603 605
f 604 605 590
f 590 605 606
f 590 606 591
f 591 606 607
f 591 607 593
f 593 607 608
f 602 609 603
f 603 609 610
f 603 610 611
f 612 613 610
f 610 613 614
f 610 614 611
f 577 576 615
f 607 596 608
f 608 596 595
f 608 595 616
f 616 595 594
f 616 594 617
f 617 594 601
f 617 601 618
f 618 601 600
f 618 600 619
f 619 600 620
f 375 575 597
f 597 575 580
f 597 580 598
f 598 580 577
f 598 577 600
f 600 577 615
f 600 615 620
f 621 622 623
f 624 625 626
f 627 628 621
f 629 630 631
f 631 630 632
f 624 632 625
f 625 632 633
f 625 633 626
f 626 633 634
f 626 634 635
f 635 634 636
f 635 636 637
f 637 636 638
f 637 638 639
f 639 638 640
f 639 640 641
f 641 640 642
f 641 642 643
f 624 644 632
f 632 644 645
f 632 645 631
f 631 645 646
f 631 646 629
f 647 648 649
f 649 648 629
f 650 622 651
f 651 622 621
f 651 621 652
f 652 621 628
f 646 627 629
f 629 627 621
f 629 621 649
f 649 621 623
f 649 623 647
f 647 623 653
f 647 653 654
f 654 653 655
f 654 655 656
f 657 655 653
f 653 623 658
f 658 623 622
f 658 622 659
f 659 622 650
f 653 658 657
f 657 658 660
f 657 660 661
f 661 660 662
f 661 662 663
f 663 662 664
f 663 664 665
f 664 666 665
f 665 666 667
f 665 667 668
f 669 670 671
f 671 670 672
f 671 672 673
f 673 672 674
f 673 674 675
f 675 674 668
f 675 668 676
f 676 668 667
f 667 585 584
f 574 669 581
f 581 669 671
f 581 671 582
f 582 671 673
f 582 673 583
f 583 673 675
f 583 675 584
f 584 675 676
f 584 676 667
f 659 578 579
f 585 667 586
f 586 667 666
f 586 666 587
f 587 666 664
f 587 664 589
f 589 664 662
f 589 662 588
f 588 662 660
f 588 660 579
f 579 660 658
f 579 658 659
f 616 617 645
f 617 618 645
f 645 618 619
f 645 619 620
f 651 652 576
f 576 652 628
f 576 628 627
f 578 659 576
f 576 659 650
f 576 650 651
f 620 615 645
f 645 615 576
f 645 576 646
f 646 576 627
f 626 635 677
f 677 635 637
f 677 637 639
f 645 644 677
f 677 644 624
f 677 624 626
f 639 641 677
f 677 641 643
f 677 643 612
f 604 590 678
f 590 592 678
f 678 592 593
f 678 593 608
f 610 609 678
f 678 609 602
f 678 602 604
f 616 645 608
f 608 645 677
f 608 677 678
f 678 677 612
f 678 612 610
f 679 680 669
f 669 680 670
f 568 679 574
f 574 679 669
f 679 568 681
f 681 568 569
f 681 569 682
f 682 569 570
f 682 570 683
f 683 570 571
f 683 571 572
f 684 685 573
f 573 685 686
f 573 686 572
f 572 686 687
f 572 687 683
f 573 567 684
f 684 567 566
f 684 566 688
f 688 566 565
f 688 565 689
f 689 565 690
f 549 691 692
f 565 564 690
f 690 564 563
f 690 563 693
f 693 563 562
f 693 562 694
f 694 562 561
f 694 561 695
f 695 561 560
f 695 560 696
f 696 560 559
f 696 559 692
f 692 559 547
f 692 547 549
f 691 549 697
f 697 549 554
f 697 554 698
f 698 554 558
f 698 558 699
f 699 558 557
f 699 557 556
f 543 700 555
f 555 700 701
f 555 701 556
f 556 701 702
f 556 702 699
f 521 538 539
f 539 538 703
f 542 703 704
f 542 541 703
f 703 541 540
f 703 540 539
f 700 543 705
f 705 543 542
f 705 542 706
f 706 542 704
f 707 708 709
f 709 708 710
f 709 710 711
f 711 710 712
f 711 712 713
f 714 715 716
f 716 715 717
f 716 717 718
f 719 720 680
f 680 720 721
f 680 721 670
f 670 721 722
f 670 722 672
f 672 722 723
f 672 723 674
f 724 663 665
f 714 725 715
f 715 725 726
f 715 726 707
f 707 726 727
f 707 727 708
f 680 728 719
f 719 728 729
f 719 729 717
f 717 729 730
f 717 730 718
f 724 665 723
f 723 665 668
f 723 668 674
f 656 655 731
f 731 655 657
f 731 657 724
f 724 657 661
f 724 661 663
f 732 733 691
f 691 733 734
f 691 734 692
f 692 734 735
f 692 735 736
f 737 738 710
f 710 738 739
f 710 739 712
f 680 679 728
f 728 679 681
f 728 681 729
f 729 681 682
f 729 682 730
f 682 683 730
f 730 683 687
f 730 687 718
f 718 687 686
f 718 686 716
f 686 685 716
f 716 685 684
f 716 684 714
f 714 684 688
f 714 688 725
f 688 689 725
f 725 689 690
f 725 690 726
f 726 690 693
f 726 693 727
f 727 693 694
f 727 694 708
f 736 737 692
f 692 737 710
f 692 710 696
f 696 710 708
f 696 708 695
f 695 708 694
f 732 691 740
f 740 691 697
f 740 697 741
f 741 697 698
f 741 698 742
f 700 743 701
f 701 743 744
f 701 744 702
f 702 744 742
f 702 742 699
f 699 742 698
f 745 746 743
f 743 746 747
f 743 747 744
f 748 740 749
f 749 740 741
f 749 741 747
f 747 741 742
f 747 742 744
f 750 751 752
f 750 752 753
f 753 752 754
f 753 754 755
f 755 754 746
f 755 746 745
f 756 757 758
f 759 760 761
f 762 763 764
f 765 758 750
f 750 758 766
f 750 766 751
f 467 466 767
f 768 756 769
f 769 756 758
f 769 758 770
f 770 758 765
f 768 769 771
f 771 769 761
f 771 761 764
f 764 761 760
f 764 760 762
f 772 767 773
f 773 767 759
f 773 759 774
f 774 759 761
f 772 775 767
f 767 775 454
f 767 454 453
f 453 464 767
f 767 464 463
f 767 463 467
f 455 454 775
f 455 775 480
f 457 456 526
f 526 456 527
f 765 538 770
f 770 538 537
f 770 537 769
f 537 536 769
f 769 536 535
f 769 535 761
f 535 534 761
f 761 534 533
f 761 533 774
f 533 532 774
f 774 532 531
f 774 531 773
f 773 531 530
f 773 530 772
f 456 480 527
f 527 480 775
f 527 775 528
f 528 775 772
f 528 772 529
f 529 772 530
f 538 765 703
f 703 765 750
f 704 703 750
f 750 753 704
f 704 753 755
f 704 755 706
f 706 755 745
f 706 745 705
f 705 745 700
f 700 745 743
f 776 777 778
f 778 777 779
f 778 779 780
f 777 776 781
f 777 781 782
f 782 781 783
f 782 783 784
f 784 783 785
f 784 785 786
f 786 785 787
f 786 787 788
f 788 787 789
f 789 787 790
f 789 790 791
f 792 793 794
f 794 793 795
f 794 795 796
f 797 798 799
f 797 799 800
f 800 799 801
f 800 801 802
f 802 801 803
f 802 803 804
f 804 803 793
f 804 793 792
f 798 797 805
f 805 797 806
f 805 806 807

