mtllib material.mtl
usemtl mtl_ankle_tibia_bar_l
v 0.00429008 0.00845219 -0.00294470
v 0.00407589 0.00799615 -0.00344083
v -0.00030500 0.01161135 -0.00308085
v -0.00063407 0.01123428 -0.00358039
v -0.00384851 0.01591695 -0.00321798
v -0.00426617 0.01564752 -0.00372094
v 0.00769941 0.00558562 -0.00283470
v 0.00730578 0.00528045 -0.00333662
v 0.00942632 0.00147948 -0.00273337
v 0.00894180 0.00139042 -0.00324062
v 0.00909092 -0.00296298 -0.00266300
v 0.00862405 -0.00281822 -0.00317396
v 0.00676699 -0.00676452 -0.00263907
v 0.00642243 -0.00641968 -0.00315129
v 0.00296575 -0.00908889 -0.00266685
v 0.00282126 -0.00862171 -0.00317761
v -0.00147662 -0.00942477 -0.00274022
v -0.00138731 -0.00893992 -0.00324712
v -0.00558291 -0.00769830 -0.00284305
v -0.00527747 -0.00730431 -0.00334453
v -0.00844983 -0.00428924 -0.00295271
v -0.00799350 -0.00407468 -0.00344842
v -0.00944671 0.00005248 -0.00304508
v -0.00893792 0.00003853 -0.00353593
v -0.01237978 0.01070028 -0.00328032
v -0.01194431 0.01095253 -0.00377705
v -0.01016346 0.00558314 -0.00315290
v -0.00967258 0.00570746 -0.00364644
v -0.00954912 0.00015127 0.00270316
v -0.00905813 0.00015450 0.00321200
v -0.01026586 0.00568192 0.00259534
v -0.00979280 0.00582342 0.00310149
v -0.01248219 0.01079907 0.00246792
v -0.01206453 0.01106849 0.00297089
v -0.00855223 -0.00419046 0.00279553
v -0.00811372 -0.00395872 0.00329951
v -0.00568532 -0.00759951 0.00290519
v -0.00539769 -0.00718835 0.00340340
v -0.00157903 -0.00932599 0.00300801
v -0.00150753 -0.00882396 0.00350081
v 0.00286334 -0.00899010 0.00308139
v 0.00270104 -0.00850575 0.00357032
v 0.00666458 -0.00666574 0.00310916
v 0.00630221 -0.00630372 0.00359664
v 0.00898851 -0.00286420 0.00308524
v 0.00850383 -0.00270226 0.00357397
v 0.00932391 0.00157826 0.00301487
v 0.00882158 0.00150638 0.00350731
v 0.00759700 0.00568440 0.00291354
v 0.00718556 0.00539642 0.00341131
v 0.00418767 0.00855098 0.00280354
v 0.00395567 0.00811212 0.00330710
v -0.00395092 0.01601573 0.00253026
v -0.00438639 0.01576349 0.00302699
v -0.00040741 0.01171013 0.00266739
v -0.00075429 0.01135025 0.00316754
v -0.18564953 0.31333208 -0.01156792
v -0.18606719 0.31306267 -0.01207088
v -0.18786585 0.31844923 -0.01169534
v -0.18833894 0.31830773 -0.01220149
v -0.18858260 0.32397988 -0.01180316
v -0.18907359 0.32397667 -0.01231200
v -0.20208740 0.31601906 -0.01240710
v -0.20231940 0.31558016 -0.01190354
v -0.20572874 0.31844676 -0.01201354
v -0.20531729 0.31873474 -0.01251131
v -0.20745564 0.32255289 -0.01211487
v -0.20695332 0.32262477 -0.01260731
v -0.20712024 0.32699534 -0.01218524
v -0.20663556 0.32683343 -0.01267397
v -0.20479631 0.33079690 -0.01220916
v -0.20443395 0.33043489 -0.01269664
v -0.20099507 0.33312127 -0.01218139
v -0.20083277 0.33263692 -0.01267033
v -0.19655269 0.33345714 -0.01210801
v -0.19662422 0.33295512 -0.01260081
v -0.19244641 0.33173066 -0.01200519
v -0.19273405 0.33131951 -0.01250340
v -0.18957950 0.32832164 -0.01189553
v -0.19001801 0.32808986 -0.01239951
v -0.19418080 0.30811542 -0.01163026
v -0.19374533 0.30836767 -0.01212699
v -0.19772431 0.31242102 -0.01176739
v -0.19737744 0.31278092 -0.01226754
v -0.19428322 0.30821419 -0.00588202
v -0.19386555 0.30848363 -0.00537906
v -0.19782673 0.31251979 -0.00601915
v -0.19749767 0.31289688 -0.00551961
v -0.20242180 0.31567895 -0.00615530
v -0.20220762 0.31613502 -0.00565917
v -0.18919381 0.32409263 -0.00556407
v -0.18868501 0.32407865 -0.00605492
v -0.18968192 0.32842040 -0.00614729
v -0.19013824 0.32820585 -0.00565158
v -0.19254881 0.33182946 -0.00625695
v -0.19285426 0.33143547 -0.00575547
v -0.19665511 0.33355594 -0.00635978
v -0.19674443 0.33307108 -0.00585288
v -0.20109747 0.33322003 -0.00643315
v -0.20095299 0.33275288 -0.00592239
v -0.20489872 0.33089566 -0.00646093
v -0.20455417 0.33055085 -0.00594871
v -0.20722264 0.32709414 -0.00643700
v -0.20675579 0.32694939 -0.00592604
v -0.20755805 0.32265168 -0.00636663
v -0.20707352 0.32274073 -0.00585938
v -0.20583116 0.31854555 -0.00626530
v -0.20543751 0.31885070 -0.00576338
v -0.18796827 0.31854799 -0.00594710
v -0.18575194 0.31343088 -0.00581968
v -0.18845916 0.31842372 -0.00545356
v -0.18618742 0.31317863 -0.00532295
f 1 2 3
f 3 2 4
f 3 4 5
f 5 4 6
f 2 1 7
f 2 7 8
f 8 7 9
f 8 9 10
f 10 9 11
f 10 11 12
f 12 11 13
f 12 13 14
f 14 13 15
f 14 15 16
f 16 15 17
f 16 17 18
f 18 17 19
f 18 19 20
f 20 19 21
f 20 21 22
f 22 21 23
f 22 23 24
f 25 26 27
f 27 26 28
f 27 28 23
f 23 28 24
f 29 30 31
f 31 30 32
f 31 32 33
f 33 32 34
f 23 29 27
f 27 29 31
f 27 31 25
f 25 31 33
f 30 29 35
f 30 35 36
f 36 35 37
f 36 37 38
f 38 37 39
f 38 39 40
f 40 39 41
f 40 41 42
f 42 41 43
f 42 43 44
f 44 43 45
f 44 45 46
f 46 45 47
f 46 47 48
f 48 47 49
f 48 49 50
f 50 49 51
f 50 51 52
f 53 54 55
f 55 54 56
f 55 56 51
f 51 56 52
f 5 53 3
f 3 53 55
f 3 55 1
f 1 55 51
f 1 51 49
f 1 49 7
f 7 49 47
f 7 47 9
f 9 47 45
f 9 45 11
f 11 45 43
f 11 43 13
f 13 43 41
f 13 41 15
f 15 41 39
f 15 39 17
f 17 39 37
f 17 37 19
f 19 37 35
f 19 35 21
f 21 35 29
f 21 29 23
f 57 58 59
f 59 58 60
f 59 60 61
f 61 60 62
f 5 6 57
f 57 6 58
f 63 64 65
f 63 65 66
f 66 65 67
f 66 67 68
f 68 67 69
f 68 69 70
f 70 69 71
f 70 71 72
f 72 71 73
f 72 73 74
f 74 73 75
f 74 75 76
f 76 75 77
f 76 77 78
f 78 77 79
f 78 79 80
f 80 79 61
f 80 61 62
f 81 82 25
f 25 82 26
f 64 63 83
f 83 63 84
f 83 84 81
f 81 84 82
f 22 24 20
f 20 24 10
f 28 2 24
f 24 2 8
f 24 8 10
f 16 18 14
f 14 18 20
f 14 20 12
f 12 20 10
f 84 63 80
f 80 63 78
f 78 63 74
f 78 74 76
f 72 74 70
f 70 74 63
f 70 63 68
f 68 63 66
f 80 62 84
f 84 62 60
f 84 60 82
f 82 60 58
f 82 58 26
f 26 58 6
f 26 6 28
f 28 6 4
f 28 4 2
f 85 86 87
f 87 86 88
f 87 88 89
f 89 88 90
f 86 85 34
f 34 85 33
f 85 81 33
f 33 81 25
f 81 85 83
f 83 85 87
f 83 87 64
f 64 87 89
f 91 92 93
f 91 93 94
f 94 93 95
f 94 95 96
f 96 95 97
f 96 97 98
f 98 97 99
f 98 99 100
f 100 99 101
f 100 101 102
f 102 101 103
f 102 103 104
f 104 103 105
f 104 105 106
f 106 105 107
f 106 107 108
f 108 107 89
f 108 89 90
f 64 89 107
f 64 107 65
f 65 107 105
f 65 105 67
f 67 105 103
f 67 103 69
f 69 103 101
f 69 101 71
f 71 101 99
f 71 99 73
f 73 99 97
f 73 97 75
f 75 97 95
f 75 95 77
f 77 95 93
f 77 93 79
f 79 93 92
f 79 92 61
f 61 92 59
f 59 92 109
f 59 109 57
f 57 109 110
f 92 91 109
f 109 91 111
f 109 111 110
f 110 111 112
f 54 53 112
f 112 53 110
f 53 5 110
f 110 5 57
f 96 98 90
f 90 98 100
f 90 100 102
f 88 91 90
f 90 91 94
f 90 94 96
f 30 48 50
f 30 50 32
f 102 104 90
f 90 104 106
f 90 106 108
f 36 38 30
f 30 38 40
f 46 48 44
f 44 48 30
f 44 30 42
f 42 30 40
f 50 52 32
f 32 52 56
f 32 56 34
f 34 56 54
f 34 54 86
f 86 54 112
f 86 112 88
f 88 112 111
f 88 111 91

