mtllib material.mtl
usemtl mtl_femur_triangle
v 0.00157056 0.00991073 -0.00800000
v 0.00157056 0.00991073 -0.00600000
v 0.00094071 0.01126402 -0.00600000
v 0.00094071 0.01126402 -0.00800000
v 0.00104101 0.01275334 -0.00600000
v 0.00104101 0.01275334 -0.00800000
v 0.00184663 0.01400996 -0.00600000
v 0.00184663 0.01400996 -0.00800000
v 0.00368864 0.00653023 -0.00800000
v 0.00579854 0.00475677 -0.00800000
v -0.00000000 -0.00900000 -0.00800000
v 0.01850303 -0.00900000 -0.00800000
v 0.01722009 -0.00871184 -0.00800000
v -0.00613003 0.00658959 -0.00800000
v 0.00748979 -0.00039116 -0.00800000
v 0.01618361 -0.00790271 -0.00800000
v 0.00712533 0.00234088 -0.00800000
v 0.00684272 -0.00307037 -0.00800000
v 0.00527150 -0.00533491 -0.00800000
v 0.00298834 -0.00687894 -0.00800000
v 0.00030158 -0.00749394 -0.00800000
v -0.00301630 -0.00847950 -0.00800000
v -0.00242590 -0.00709683 -0.00800000
v -0.00568371 -0.00697821 -0.00800000
v -0.00482576 -0.00574126 -0.00800000
v -0.00769371 -0.00466977 -0.00800000
v -0.00657387 -0.00361030 -0.00800000
v -0.00881381 -0.00182120 -0.00800000
v -0.00743414 -0.00099175 -0.00800000
v -0.00891444 0.00123802 -0.00800000
v -0.00729039 0.00176074 -0.00800000
v -0.00798398 0.00415405 -0.00800000
v -0.00616203 0.00427544 -0.00800000
v -0.00420146 0.00621271 -0.00800000
v -0.00167345 0.00731092 -0.00800000
v 0.00108056 0.00742175 -0.00800000
v 0.01618361 -0.00790271 -0.00600000
v 0.01850303 -0.00900000 -0.00600000
v 0.01722009 -0.00871184 -0.00600000
v 0.03201043 0.03520338 -0.01250000
v 0.03201043 0.03520338 -0.00600000
v 0.09340808 0.00623513 -0.01250000
v 0.09340808 0.00623513 -0.00600000
v 0.09457504 0.00555882 -0.01250000
v 0.09561179 0.00469609 -0.00600000
v 0.09561179 0.00469609 -0.01250000
v 0.09648888 0.00367144 -0.01250000
v 0.09718136 0.00251400 -0.00600000
v 0.09718136 0.00251400 -0.01250000
v 0.09766956 0.00125669 -0.01250000
v 0.09793960 -0.00006478 -0.00600000
v 0.09793960 -0.00006478 -0.01250000
v 0.09798378 -0.00141282 -0.01250000
v 0.09780089 -0.00274914 -0.00600000
v 0.09780089 -0.00274914 -0.01250000
v 0.09739609 -0.00403573 -0.01250000
v 0.09678090 -0.00523603 -0.00600000
v 0.09678090 -0.00523603 -0.01250000
v 0.09597281 -0.00631593 -0.01250000
v 0.09499479 -0.00724472 -0.00600000
v 0.09499479 -0.00724472 -0.01250000
v 0.09387463 -0.00799601 -0.01250000
v 0.09264418 -0.00854844 -0.00600000
v 0.09264418 -0.00854844 -0.01250000
v 0.09133841 -0.00888630 -0.01250000
v 0.08999444 -0.00900000 -0.00600000
v 0.08999444 -0.00900000 -0.01250000
v -0.00000000 -0.00900000 -0.01250000
v -0.00613003 0.00658959 -0.01250000
v -0.00599315 0.00644245 -0.01325000
v -0.00700140 0.00532949 -0.01325000
v -0.00561920 0.00604046 -0.01379904
v -0.00656453 0.00499694 -0.01379904
v -0.00510836 0.00549133 -0.01400000
v -0.00596775 0.00454268 -0.01400000
v -0.00665331 0.00346171 -0.01400000
v -0.00731865 0.00380788 -0.01379904
v -0.00714507 0.00227990 -0.01400000
v -0.00785958 0.00250789 -0.01379904
v -0.00742870 0.00103168 -0.01400000
v -0.00817157 0.00113485 -0.01379904
v -0.00749595 -0.00024658 -0.01400000
v -0.00824554 -0.00027124 -0.01379904
v -0.00734484 -0.00151767 -0.01400000
v -0.00807932 -0.00166943 -0.01379904
v -0.00697979 -0.00274455 -0.01400000
v -0.00767777 -0.00301900 -0.01379904
v -0.00641143 -0.00389148 -0.01400000
v -0.00705257 -0.00428063 -0.01379904
v -0.00565631 -0.00492506 -0.01400000
v -0.00622194 -0.00541756 -0.01379904
v -0.00473643 -0.00581518 -0.01400000
v -0.00521007 -0.00639669 -0.01379904
v -0.00367858 -0.00653590 -0.01400000
v -0.00404644 -0.00718949 -0.01379904
v -0.00251358 -0.00706625 -0.01400000
v -0.00276494 -0.00777288 -0.01379904
v -0.00127537 -0.00739077 -0.01400000
v -0.00140290 -0.00812984 -0.01379904
v 0.00000000 -0.00750000 -0.01400000
v -0.00000000 -0.00825000 -0.01379904
v -0.00780570 0.00406129 -0.01325000
v -0.00838264 0.00267479 -0.01325000
v -0.00871539 0.00121038 -0.01325000
v -0.00879428 -0.00028929 -0.01325000
v -0.00861700 -0.00178054 -0.01325000
v -0.00818873 -0.00321992 -0.01325000
v -0.00752192 -0.00456550 -0.01325000
v -0.00663601 -0.00577810 -0.01325000
v -0.00555680 -0.00682239 -0.01325000
v -0.00431573 -0.00766796 -0.01325000
v -0.00294895 -0.00829016 -0.01325000
v -0.00149627 -0.00867089 -0.01325000
v -0.00000000 -0.00879904 -0.01325000
v -0.00716130 0.00545121 -0.01250000
v -0.00798398 0.00415405 -0.01250000
v -0.00857409 0.00273588 -0.01250000
v -0.00891444 0.00123802 -0.01250000
v -0.00899513 -0.00029590 -0.01250000
v -0.00881381 -0.00182120 -0.01250000
v -0.00837575 -0.00329346 -0.01250000
v -0.00769371 -0.00466977 -0.01250000
v -0.00678757 -0.00591007 -0.01250000
v -0.00568371 -0.00697821 -0.01250000
v -0.00441430 -0.00784309 -0.01250000
v -0.00301630 -0.00847950 -0.01250000
v -0.00153044 -0.00886892 -0.01250000
v 0.02314788 0.03382567 -0.00600000
v 0.02314788 0.03382567 -0.01250000
v 0.02407623 0.03456860 -0.01250000
v 0.02510446 0.03516572 -0.00600000
v 0.02510446 0.03516572 -0.01250000
v 0.02620982 0.03560385 -0.01250000
v 0.02736792 0.03587331 -0.00600000
v 0.02736792 0.03587331 -0.01250000
v 0.02855317 0.03596814 -0.01250000
v 0.02973938 0.03588624 -0.00600000
v 0.02973938 0.03588624 -0.01250000
v 0.03090035 0.03562944 -0.01250000
v 0.03192468 0.03502164 -0.01325000
v 0.03084248 0.03543698 -0.01325000
v 0.03169040 0.03452509 -0.01379904
v 0.03068439 0.03491120 -0.01379904
v 0.03137037 0.03384680 -0.01400000
v 0.03046843 0.03419296 -0.01400000
v 0.02952514 0.03440162 -0.01400000
v 0.02963226 0.03514393 -0.01379904
v 0.02856135 0.03446816 -0.01400000
v 0.02855726 0.03521815 -0.01379904
v 0.02759834 0.03439111 -0.01400000
v 0.02748313 0.03513221 -0.01379904
v 0.02665738 0.03417218 -0.01400000
v 0.02643360 0.03488802 -0.01379904
v 0.02575927 0.03381620 -0.01400000
v 0.02543186 0.03449096 -0.01379904
v 0.02492384 0.03333104 -0.01400000
v 0.02450004 0.03394982 -0.01379904
v 0.02416955 0.03272741 -0.01400000
v 0.02365871 0.03327654 -0.01379904
v 0.02971068 0.03568734 -0.01325000
v 0.02855427 0.03576718 -0.01325000
v 0.02739879 0.03567473 -0.01325000
v 0.02626979 0.03541205 -0.01325000
v 0.02519219 0.03498492 -0.01325000
v 0.02418979 0.03440280 -0.01325000
v 0.02328475 0.03367853 -0.01325000
v 0.08999445 -0.00750000 -0.01400000
v 0.08999444 -0.00825000 -0.01379904
v 0.08999444 -0.00879904 -0.01325000
v 0.09130465 -0.00868819 -0.01325000
v 0.09121241 -0.00814696 -0.01379904
v 0.09108642 -0.00740762 -0.01400000
v 0.09214736 -0.00713311 -0.01400000
v 0.09239577 -0.00784077 -0.01379904
v 0.09314710 -0.00668425 -0.01400000
v 0.09351087 -0.00734014 -0.01379904
v 0.09405722 -0.00607384 -0.01400000
v 0.09452601 -0.00665928 -0.01379904
v 0.09485187 -0.00531919 -0.01400000
v 0.09541234 -0.00581756 -0.01379904
v 0.09550844 -0.00444177 -0.01400000
v 0.09614468 -0.00483891 -0.01379904
v 0.09600828 -0.00346653 -0.01400000
v 0.09670219 -0.00375113 -0.01379904
v 0.09633718 -0.00242117 -0.01400000
v 0.09706903 -0.00258515 -0.01379904
v 0.09648578 -0.00133542 -0.01400000
v 0.09723479 -0.00137412 -0.01379904
v 0.09644987 -0.00024013 -0.01400000
v 0.09719473 -0.00015245 -0.01379904
v 0.09623048 0.00083355 -0.01400000
v 0.09695002 0.00104512 -0.01379904
v 0.09583382 0.00185512 -0.01400000
v 0.09650759 0.00218456 -0.01379904
v 0.09527117 0.00279554 -0.01400000
v 0.09588002 0.00323349 -0.01379904
v 0.09455854 0.00362807 -0.01400000
v 0.09508517 0.00416208 -0.01379904
v 0.09371617 0.00432904 -0.01400000
v 0.09414561 0.00494393 -0.01379904
v 0.09276802 0.00487854 -0.01400000
v 0.09308805 0.00555684 -0.01379904
v 0.09257762 -0.00835882 -0.01325000
v 0.09377716 -0.00782027 -0.01325000
v 0.09486918 -0.00708785 -0.01325000
v 0.09582263 -0.00618239 -0.01325000
v 0.09661042 -0.00512963 -0.01325000
v 0.09721015 -0.00395947 -0.01325000
v 0.09760478 -0.00270519 -0.01325000
v 0.09778309 -0.00140245 -0.01325000
v 0.09774001 -0.00008827 -0.01325000
v 0.09747676 0.00119999 -0.01325000
v 0.09700083 0.00242573 -0.01325000
v 0.09632574 0.00355409 -0.01325000
v 0.09547069 0.00455300 -0.01325000
v 0.09445997 0.00539406 -0.01325000
v 0.09332232 0.00605338 -0.01325000
v 0.01722009 -0.00871184 0.00800000
v 0.01850303 -0.00900000 0.00800000
v -0.00000000 -0.00900000 0.00800000
v 0.00094071 0.01126402 0.00800000
v -0.00613003 0.00658959 0.00800000
v 0.00104101 0.01275334 0.00800000
v 0.00184663 0.01400996 0.00800000
v 0.00712533 0.00234088 0.00800000
v 0.00579854 0.00475677 0.00800000
v 0.01618361 -0.00790271 0.00800000
v 0.00748979 -0.00039116 0.00800000
v 0.00527150 -0.00533491 0.00800000
v 0.00684272 -0.00307037 0.00800000
v 0.00368864 0.00653023 0.00800000
v 0.00157056 0.00991073 0.00800000
v 0.00108056 0.00742175 0.00800000
v -0.00167345 0.00731092 0.00800000
v -0.00420146 0.00621271 0.00800000
v -0.00798398 0.00415405 0.00800000
v -0.00616203 0.00427544 0.00800000
v -0.00891444 0.00123802 0.00800000
v -0.00729039 0.00176074 0.00800000
v -0.00881381 -0.00182120 0.00800000
v -0.00743414 -0.00099175 0.00800000
v -0.00769371 -0.00466977 0.00800000
v -0.00657387 -0.00361030 0.00800000
v -0.00568371 -0.00697821 0.00800000
v -0.00482576 -0.00574126 0.00800000
v -0.00301630 -0.00847950 0.00800000
v -0.00242590 -0.00709683 0.00800000
v 0.00030158 -0.00749394 0.00800000
v 0.00298834 -0.00687894 0.00800000
v 0.00184663 0.01400996 0.00600000
v 0.00104101 0.01275334 0.00600000
v 0.00094071 0.01126402 0.00600000
v 0.00157056 0.00991073 0.00600000
v 0.01618361 -0.00790271 0.00600000
v 0.01722009 -0.00871184 0.00600000
v 0.01850303 -0.00900000 0.00600000
v 0.09301296 0.00539768 0.01388582
v 0.09276802 0.00487854 0.01400000
v 0.09371617 0.00432904 0.01400000
v 0.09322061 0.00583779 0.01356066
v 0.09308805 0.00555684 0.01379904
v 0.09414561 0.00494393 0.01379904
v 0.09335935 0.00613187 0.01307403
v 0.09332232 0.00605338 0.01325000
v 0.09445997 0.00539406 0.01325000
v 0.09457504 0.00555882 0.01250000
v 0.09340808 0.00623513 0.01250000
v 0.09455854 0.00362807 0.01400000
v 0.09508517 0.00416208 0.01379904
v 0.09527117 0.00279554 0.01400000
v 0.09588002 0.00323349 0.01379904
v 0.09583382 0.00185512 0.01400000
v 0.09650759 0.00218456 0.01379904
v 0.09623048 0.00083355 0.01400000
v 0.09695002 0.00104512 0.01379904
v 0.09644987 -0.00024013 0.01400000
v 0.09719473 -0.00015245 0.01379904
v 0.09648578 -0.00133542 0.01400000
v 0.09723479 -0.00137412 0.01379904
v 0.09633718 -0.00242117 0.01400000
v 0.09706903 -0.00258515 0.01379904
v 0.09600828 -0.00346653 0.01400000
v 0.09670219 -0.00375113 0.01379904
v 0.09550844 -0.00444177 0.01400000
v 0.09614468 -0.00483891 0.01379904
v 0.09485187 -0.00531919 0.01400000
v 0.09541234 -0.00581756 0.01379904
v 0.09405722 -0.00607384 0.01400000
v 0.09452601 -0.00665928 0.01379904
v 0.09314710 -0.00668425 0.01400000
v 0.09351087 -0.00734014 0.01379904
v 0.09214736 -0.00713311 0.01400000
v 0.09239577 -0.00784077 0.01379904
v 0.09108642 -0.00740762 0.01400000
v 0.09121241 -0.00814696 0.01379904
v 0.08999445 -0.00750000 0.01400000
v 0.08999444 -0.00825000 0.01379904
v 0.09547069 0.00455300 0.01325000
v 0.09632574 0.00355409 0.01325000
v 0.09700083 0.00242573 0.01325000
v 0.09747676 0.00119999 0.01325000
v 0.09774001 -0.00008827 0.01325000
v 0.09778309 -0.00140245 0.01325000
v 0.09760478 -0.00270519 0.01325000
v 0.09721015 -0.00395947 0.01325000
v 0.09661042 -0.00512963 0.01325000
v 0.09582263 -0.00618239 0.01325000
v 0.09486918 -0.00708785 0.01325000
v 0.09377716 -0.00782027 0.01325000
v 0.09257762 -0.00835882 0.01325000
v 0.09130465 -0.00868819 0.01325000
v 0.08999444 -0.00879904 0.01325000
v 0.09561179 0.00469609 0.01250000
v 0.09648888 0.00367144 0.01250000
v 0.09718136 0.00251400 0.01250000
v 0.09766956 0.00125669 0.01250000
v 0.09793960 -0.00006478 0.01250000
v 0.09798378 -0.00141282 0.01250000
v 0.09780089 -0.00274914 0.01250000
v 0.09739609 -0.00403573 0.01250000
v 0.09678090 -0.00523603 0.01250000
v 0.09597281 -0.00631593 0.01250000
v 0.09499479 -0.00724472 0.01250000
v 0.09387463 -0.00799601 0.01250000
v 0.09264418 -0.00854844 0.01250000
v 0.09133841 -0.00888630 0.01250000
v 0.08999444 -0.00900000 0.01250000
v 0.08999444 -0.00900000 0.00600000
v 0.09264418 -0.00854844 0.00600000
v 0.09499479 -0.00724472 0.00600000
v 0.09678090 -0.00523603 0.00600000
v 0.09780089 -0.00274914 0.00600000
v 0.09793960 -0.00006478 0.00600000
v 0.09718136 0.00251400 0.00600000
v 0.09561179 0.00469609 0.00600000
v 0.09340808 0.00623513 0.00600000
v -0.00000000 -0.00900000 0.01250000
v -0.00000000 -0.00879904 0.01325000
v -0.00000000 -0.00825000 0.01379904
v 0.00000000 -0.00750000 0.01400000
v -0.00149627 -0.00867089 0.01325000
v -0.00140290 -0.00812984 0.01379904
v -0.00127537 -0.00739077 0.01400000
v -0.00251358 -0.00706625 0.01400000
v -0.00276494 -0.00777288 0.01379904
v -0.00367858 -0.00653590 0.01400000
v -0.00404644 -0.00718949 0.01379904
v -0.00473643 -0.00581518 0.01400000
v -0.00521007 -0.00639669 0.01379904
v -0.00565631 -0.00492506 0.01400000
v -0.00622194 -0.00541756 0.01379904
v -0.00641143 -0.00389148 0.01400000
v -0.00705257 -0.00428063 0.01379904
v -0.00697979 -0.00274455 0.01400000
v -0.00767777 -0.00301900 0.01379904
v -0.00734484 -0.00151767 0.01400000
v -0.00807932 -0.00166943 0.01379904
v -0.00749595 -0.00024658 0.01400000
v -0.00824554 -0.00027124 0.01379904
v -0.00742870 0.00103168 0.01400000
v -0.00817157 0.00113485 0.01379904
v -0.00714507 0.00227990 0.01400000
v -0.00785958 0.00250789 0.01379904
v -0.00665331 0.00346171 0.01400000
v -0.00731865 0.00380788 0.01379904
v -0.00596775 0.00454268 0.01400000
v -0.00656453 0.00499694 0.01379904
v -0.00510836 0.00549133 0.01400000
v -0.00561920 0.00604046 0.01379904
v -0.00294895 -0.00829016 0.01325000
v -0.00431573 -0.00766796 0.01325000
v -0.00555680 -0.00682239 0.01325000
v -0.00663601 -0.00577810 0.01325000
v -0.00752192 -0.00456550 0.01325000
v -0.00818873 -0.00321992 0.01325000
v -0.00861700 -0.00178054 0.01325000
v -0.00879428 -0.00028929 0.01325000
v -0.00871539 0.00121038 0.01325000
v -0.00838264 0.00267479 0.01325000
v -0.00780570 0.00406129 0.01325000
v -0.00700140 0.00532949 0.01325000
v -0.00599315 0.00644245 0.01325000
v -0.00153044 -0.00886892 0.01250000
v -0.00301630 -0.00847950 0.01250000
v -0.00441430 -0.00784309 0.01250000
v -0.00568371 -0.00697821 0.01250000
v -0.00678757 -0.00591007 0.01250000
v -0.00769371 -0.00466977 0.01250000
v -0.00837575 -0.00329346 0.01250000
v -0.00881381 -0.00182120 0.01250000
v -0.00899513 -0.00029590 0.01250000
v -0.00891444 0.00123802 0.01250000
v -0.00857409 0.00273588 0.01250000
v -0.00798398 0.00415405 0.01250000
v -0.00716130 0.00545121 0.01250000
v -0.00613003 0.00658959 0.01250000
v 0.03137037 0.03384680 0.01400000
v 0.02856135 0.03446816 0.01400000
v 0.02952514 0.03440162 0.01400000
v 0.03046843 0.03419296 0.01400000
v 0.02759834 0.03439111 0.01400000
v 0.02665738 0.03417218 0.01400000
v 0.02575927 0.03381620 0.01400000
v 0.02492384 0.03333104 0.01400000
v 0.02416955 0.03272741 0.01400000
v 0.03201043 0.03520338 0.01250000
v 0.03196171 0.03510012 0.01307403
v 0.03192468 0.03502164 0.01325000
v 0.03182296 0.03480605 0.01356066
v 0.03169040 0.03452509 0.01379904
v 0.03161531 0.03436594 0.01388582
v 0.02314788 0.03382567 0.01250000
v 0.02328475 0.03367853 0.01325000
v 0.02418979 0.03440280 0.01325000
v 0.02365871 0.03327654 0.01379904
v 0.02450004 0.03394982 0.01379904
v 0.02543186 0.03449096 0.01379904
v 0.02519219 0.03498492 0.01325000
v 0.02643360 0.03488802 0.01379904
v 0.02626979 0.03541205 0.01325000
v 0.02748313 0.03513221 0.01379904
v 0.02739879 0.03567473 0.01325000
v 0.02855726 0.03521815 0.01379904
v 0.02855427 0.03576718 0.01325000
v 0.02963226 0.03514393 0.01379904
v 0.02971068 0.03568734 0.01325000
v 0.03068439 0.03491120 0.01379904
v 0.03084248 0.03543698 0.01325000
v 0.02407623 0.03456860 0.01250000
v 0.02510446 0.03516572 0.01250000
v 0.02620982 0.03560385 0.01250000
v 0.02736792 0.03587331 0.01250000
v 0.02855317 0.03596814 0.01250000
v 0.02973938 0.03588624 0.01250000
v 0.03090035 0.03562944 0.01250000
v 0.02314788 0.03382567 0.00600000
v 0.03201043 0.03520338 0.00600000
v 0.02973938 0.03588624 0.00600000
v 0.02736792 0.03587331 0.00600000
v 0.02510446 0.03516572 0.00600000
f 1 2 3
f 1 3 4
f 4 3 5
f 4 5 6
f 6 5 7
f 6 7 8
f 9 10 1
f 11 12 13
f 8 14 6
f 6 14 4
f 15 16 17
f 17 16 10
f 15 18 16
f 16 18 19
f 16 19 13
f 13 19 20
f 13 20 11
f 11 20 21
f 11 21 22
f 22 21 23
f 22 23 24
f 24 23 25
f 24 25 26
f 26 25 27
f 26 27 28
f 28 27 29
f 28 29 30
f 30 29 31
f 30 31 32
f 32 31 33
f 32 33 14
f 14 33 34
f 14 34 4
f 4 34 35
f 4 35 1
f 1 35 36
f 1 36 9
f 16 37 10
f 10 37 2
f 10 2 1
f 12 38 39
f 12 39 13
f 13 39 37
f 13 37 16
f 40 41 42
f 42 41 43
f 42 43 44
f 44 43 45
f 44 45 46
f 46 45 47
f 47 45 48
f 47 48 49
f 49 48 50
f 50 48 51
f 50 51 52
f 52 51 53
f 53 51 54
f 53 54 55
f 55 54 56
f 56 54 57
f 56 57 58
f 58 57 59
f 59 57 60
f 59 60 61
f 61 60 62
f 62 60 63
f 62 63 64
f 64 63 65
f 65 63 66
f 65 66 67
f 11 68 12
f 12 68 67
f 12 67 38
f 38 67 66
f 69 70 71
f 70 72 73
f 72 74 75
f 72 75 73
f 73 75 76
f 73 76 77
f 77 76 78
f 77 78 79
f 79 78 80
f 79 80 81
f 81 80 82
f 81 82 83
f 83 82 84
f 83 84 85
f 85 84 86
f 85 86 87
f 87 86 88
f 87 88 89
f 89 88 90
f 89 90 91
f 91 90 92
f 91 92 93
f 93 92 94
f 93 94 95
f 95 94 96
f 95 96 97
f 97 96 98
f 97 98 99
f 99 98 100
f 99 100 101
f 70 73 71
f 71 73 77
f 71 77 102
f 102 77 79
f 102 79 103
f 103 79 81
f 103 81 104
f 104 81 83
f 104 83 105
f 105 83 85
f 105 85 106
f 106 85 87
f 106 87 107
f 107 87 89
f 107 89 108
f 108 89 91
f 108 91 109
f 109 91 93
f 109 93 110
f 110 93 95
f 110 95 111
f 111 95 97
f 111 97 112
f 112 97 99
f 112 99 113
f 113 99 101
f 113 101 114
f 69 71 115
f 115 71 102
f 115 102 116
f 116 102 103
f 116 103 117
f 117 103 104
f 117 104 118
f 118 104 105
f 118 105 119
f 119 105 106
f 119 106 120
f 120 106 107
f 120 107 121
f 121 107 108
f 121 108 122
f 122 108 109
f 122 109 123
f 123 109 110
f 123 110 124
f 124 110 111
f 124 111 125
f 125 111 112
f 125 112 126
f 126 112 113
f 126 113 127
f 127 113 114
f 127 114 68
f 68 11 127
f 127 11 22
f 127 22 126
f 126 22 125
f 125 22 24
f 125 24 124
f 124 24 123
f 123 24 26
f 123 26 122
f 122 26 121
f 121 26 28
f 121 28 120
f 120 28 119
f 119 28 30
f 119 30 118
f 118 30 117
f 117 30 32
f 117 32 116
f 116 32 115
f 115 32 14
f 115 14 69
f 69 14 8
f 7 128 8
f 8 128 129
f 8 129 69
f 129 128 130
f 130 128 131
f 130 131 132
f 132 131 133
f 133 131 134
f 133 134 135
f 135 134 136
f 136 134 137
f 136 137 138
f 138 137 139
f 139 137 41
f 139 41 40
f 40 140 141
f 140 142 143
f 142 144 145
f 142 145 143
f 143 145 146
f 143 146 147
f 147 146 148
f 147 148 149
f 149 148 150
f 149 150 151
f 151 150 152
f 151 152 153
f 153 152 154
f 153 154 155
f 155 154 156
f 155 156 157
f 157 156 158
f 157 158 159
f 140 143 141
f 141 143 147
f 141 147 160
f 160 147 149
f 160 149 161
f 161 149 151
f 161 151 162
f 162 151 153
f 162 153 163
f 163 153 155
f 163 155 164
f 164 155 157
f 164 157 165
f 165 157 159
f 165 159 166
f 40 141 139
f 139 141 160
f 139 160 138
f 138 160 161
f 138 161 136
f 136 161 162
f 136 162 135
f 135 162 163
f 135 163 133
f 133 163 164
f 133 164 132
f 132 164 165
f 132 165 130
f 130 165 166
f 130 166 129
f 158 74 72
f 158 72 159
f 159 72 70
f 159 70 166
f 166 70 69
f 166 69 129
f 100 167 168
f 100 168 101
f 101 168 169
f 101 169 114
f 114 169 67
f 114 67 68
f 67 169 170
f 169 168 171
f 168 167 172
f 168 172 171
f 171 172 173
f 171 173 174
f 174 173 175
f 174 175 176
f 176 175 177
f 176 177 178
f 178 177 179
f 178 179 180
f 180 179 181
f 180 181 182
f 182 181 183
f 182 183 184
f 184 183 185
f 184 185 186
f 186 185 187
f 186 187 188
f 188 187 189
f 188 189 190
f 190 189 191
f 190 191 192
f 192 191 193
f 192 193 194
f 194 193 195
f 194 195 196
f 196 195 197
f 196 197 198
f 198 197 199
f 198 199 200
f 200 199 201
f 200 201 202
f 169 171 170
f 170 171 174
f 170 174 203
f 203 174 176
f 203 176 204
f 204 176 178
f 204 178 205
f 205 178 180
f 205 180 206
f 206 180 182
f 206 182 207
f 207 182 184
f 207 184 208
f 208 184 186
f 208 186 209
f 209 186 188
f 209 188 210
f 210 188 190
f 210 190 211
f 211 190 192
f 211 192 212
f 212 192 194
f 212 194 213
f 213 194 196
f 213 196 214
f 214 196 198
f 214 198 215
f 215 198 200
f 215 200 216
f 216 200 202
f 216 202 217
f 67 170 65
f 65 170 203
f 65 203 64
f 64 203 204
f 64 204 62
f 62 204 205
f 62 205 61
f 61 205 206
f 61 206 59
f 59 206 207
f 59 207 58
f 58 207 208
f 58 208 56
f 56 208 209
f 56 209 55
f 55 209 210
f 55 210 53
f 53 210 211
f 53 211 52
f 52 211 212
f 52 212 50
f 50 212 213
f 50 213 49
f 49 213 214
f 49 214 47
f 47 214 215
f 47 215 46
f 46 215 216
f 46 216 44
f 44 216 217
f 44 217 42
f 201 144 142
f 201 142 202
f 202 142 140
f 202 140 217
f 217 140 40
f 217 40 42
f 156 154 152
f 158 148 146
f 156 152 158
f 158 152 150
f 158 150 148
f 146 145 158
f 158 145 144
f 158 144 74
f 195 193 185
f 98 74 100
f 100 74 144
f 100 144 167
f 167 144 201
f 167 201 172
f 195 185 197
f 98 96 74
f 74 96 94
f 74 94 92
f 92 90 74
f 74 90 88
f 74 88 86
f 78 76 80
f 80 76 82
f 86 84 74
f 74 84 82
f 74 82 75
f 75 82 76
f 193 191 185
f 185 191 189
f 185 189 187
f 183 181 201
f 201 181 179
f 201 179 177
f 177 175 201
f 201 175 173
f 201 173 172
f 183 201 185
f 185 201 199
f 185 199 197
f 218 219 220
f 221 222 223
f 223 222 224
f 225 226 227
f 225 227 228
f 218 229 227
f 227 229 230
f 227 230 228
f 226 231 232
f 232 231 233
f 232 233 221
f 221 233 234
f 221 234 222
f 222 234 235
f 222 235 236
f 236 235 237
f 236 237 238
f 238 237 239
f 238 239 240
f 240 239 241
f 240 241 242
f 242 241 243
f 242 243 244
f 244 243 245
f 244 245 246
f 246 245 247
f 246 247 220
f 220 247 248
f 220 248 218
f 218 248 249
f 218 249 229
f 224 250 251
f 224 251 223
f 223 251 252
f 223 252 221
f 221 252 253
f 221 253 232
f 232 253 226
f 226 253 254
f 226 254 227
f 227 254 255
f 227 255 218
f 218 255 256
f 218 256 219
f 257 258 259
f 260 261 262
f 262 261 257
f 263 264 265
f 265 264 260
f 266 267 263
f 257 259 262
f 262 259 268
f 262 268 269
f 269 268 270
f 269 270 271
f 271 270 272
f 271 272 273
f 273 272 274
f 273 274 275
f 275 274 276
f 275 276 277
f 277 276 278
f 277 278 279
f 279 278 280
f 279 280 281
f 281 280 282
f 281 282 283
f 283 282 284
f 283 284 285
f 285 284 286
f 285 286 287
f 287 286 288
f 287 288 289
f 289 288 290
f 289 290 291
f 291 290 292
f 291 292 293
f 293 292 294
f 293 294 295
f 295 294 296
f 295 296 297
f 260 262 265
f 265 262 269
f 265 269 298
f 298 269 271
f 298 271 299
f 299 271 273
f 299 273 300
f 300 273 275
f 300 275 301
f 301 275 277
f 301 277 302
f 302 277 279
f 302 279 303
f 303 279 281
f 303 281 304
f 304 281 283
f 304 283 305
f 305 283 285
f 305 285 306
f 306 285 287
f 306 287 307
f 307 287 289
f 307 289 308
f 308 289 291
f 308 291 309
f 309 291 293
f 309 293 310
f 310 293 295
f 310 295 311
f 311 295 297
f 311 297 312
f 263 265 266
f 266 265 298
f 266 298 313
f 313 298 299
f 313 299 314
f 314 299 300
f 314 300 315
f 315 300 301
f 315 301 316
f 316 301 302
f 316 302 317
f 317 302 303
f 317 303 318
f 318 303 304
f 318 304 319
f 319 304 305
f 319 305 320
f 320 305 306
f 320 306 321
f 321 306 307
f 321 307 322
f 322 307 308
f 322 308 323
f 323 308 309
f 323 309 324
f 324 309 310
f 324 310 325
f 325 310 311
f 325 311 326
f 326 311 312
f 326 312 327
f 327 328 326
f 326 328 329
f 326 329 325
f 325 329 324
f 324 329 330
f 324 330 323
f 323 330 322
f 322 330 331
f 322 331 321
f 321 331 320
f 320 331 332
f 320 332 319
f 319 332 318
f 318 332 333
f 318 333 317
f 317 333 316
f 316 333 334
f 316 334 315
f 315 334 314
f 314 334 335
f 314 335 313
f 313 335 266
f 266 335 336
f 266 336 267
f 337 327 312
f 337 312 338
f 338 312 297
f 338 297 339
f 339 297 296
f 339 296 340
f 337 220 219
f 256 328 219
f 219 328 327
f 219 327 337
f 337 338 341
f 338 339 342
f 339 340 343
f 339 343 342
f 342 343 344
f 342 344 345
f 345 344 346
f 345 346 347
f 347 346 348
f 347 348 349
f 349 348 350
f 349 350 351
f 351 350 352
f 351 352 353
f 353 352 354
f 353 354 355
f 355 354 356
f 355 356 357
f 357 356 358
f 357 358 359
f 359 358 360
f 359 360 361
f 361 360 362
f 361 362 363
f 363 362 364
f 363 364 365
f 365 364 366
f 365 366 367
f 367 366 368
f 367 368 369
f 338 342 341
f 341 342 345
f 341 345 370
f 370 345 347
f 370 347 371
f 371 347 349
f 371 349 372
f 372 349 351
f 372 351 373
f 373 351 353
f 373 353 374
f 374 353 355
f 374 355 375
f 375 355 357
f 375 357 376
f 376 357 359
f 376 359 377
f 377 359 361
f 377 361 378
f 378 361 363
f 378 363 379
f 379 363 365
f 379 365 380
f 380 365 367
f 380 367 381
f 381 367 369
f 381 369 382
f 337 341 383
f 383 341 370
f 383 370 384
f 384 370 371
f 384 371 385
f 385 371 372
f 385 372 386
f 386 372 373
f 386 373 387
f 387 373 374
f 387 374 388
f 388 374 375
f 388 375 389
f 389 375 376
f 389 376 390
f 390 376 377
f 390 377 391
f 391 377 378
f 391 378 392
f 392 378 379
f 392 379 393
f 393 379 380
f 393 380 394
f 394 380 381
f 394 381 395
f 395 381 382
f 395 382 396
f 396 222 395
f 395 222 236
f 395 236 394
f 394 236 393
f 393 236 238
f 393 238 392
f 392 238 391
f 391 238 240
f 391 240 390
f 390 240 389
f 389 240 242
f 389 242 388
f 388 242 387
f 387 242 244
f 387 244 386
f 386 244 385
f 385 244 246
f 385 246 384
f 384 246 383
f 383 246 220
f 383 220 337
f 397 340 258
f 258 340 296
f 398 397 399
f 399 397 400
f 398 401 397
f 397 401 402
f 397 402 403
f 296 294 258
f 258 294 292
f 258 292 290
f 290 288 258
f 258 288 286
f 258 286 284
f 284 282 258
f 258 282 280
f 258 280 278
f 403 404 397
f 397 404 405
f 397 405 340
f 340 405 368
f 340 368 366
f 366 364 340
f 340 364 362
f 340 362 360
f 278 276 258
f 258 276 274
f 258 274 272
f 272 270 258
f 258 270 268
f 258 268 259
f 360 358 340
f 340 358 356
f 340 356 343
f 354 352 350
f 350 348 354
f 354 348 346
f 354 346 356
f 356 346 344
f 356 344 343
f 406 407 267
f 267 407 263
f 263 407 264
f 264 407 408
f 264 408 260
f 260 408 409
f 260 409 261
f 261 409 410
f 261 410 257
f 410 411 257
f 257 411 397
f 257 397 258
f 412 413 414
f 413 415 416
f 413 416 414
f 414 416 417
f 414 417 418
f 418 417 419
f 418 419 420
f 420 419 421
f 420 421 422
f 422 421 423
f 422 423 424
f 424 423 425
f 424 425 426
f 426 425 427
f 426 427 428
f 400 397 411
f 411 427 400
f 400 427 425
f 400 425 399
f 399 425 423
f 399 423 398
f 398 423 421
f 398 421 401
f 401 421 419
f 401 419 402
f 402 419 417
f 402 417 403
f 403 417 416
f 403 416 404
f 404 416 415
f 404 415 405
f 411 410 427
f 427 410 409
f 427 409 428
f 428 409 408
f 428 408 407
f 412 414 429
f 429 414 418
f 429 418 430
f 430 418 420
f 430 420 431
f 431 420 422
f 431 422 432
f 432 422 424
f 432 424 433
f 433 424 426
f 433 426 434
f 434 426 428
f 434 428 435
f 435 428 407
f 435 407 406
f 412 396 382
f 412 382 413
f 413 382 369
f 413 369 415
f 415 369 368
f 415 368 405
f 222 396 224
f 224 396 412
f 224 412 250
f 250 412 436
f 406 437 435
f 435 437 438
f 435 438 434
f 434 438 433
f 433 438 439
f 433 439 432
f 432 439 431
f 431 439 440
f 431 440 430
f 430 440 429
f 429 440 436
f 429 436 412
f 437 406 336
f 336 406 267

