mtllib material.mtl
usemtl mtl_femur_rod
v -0.00353261 0.01518165 -0.00515589
v -0.00433734 0.01439999 -0.00450000
v -0.00541266 0.01439999 -0.00312500
v 0.00353261 0.01518165 0.00515589
v 0.00433734 0.01439999 0.00450000
v 0.00541266 0.01439999 0.00312500
v 0.00000000 0.01648558 0.00625000
v 0.00177023 0.01618053 0.00599406
v 0.00314571 0.38879585 0.00540132
v 0.00314552 0.01547346 0.00540076
v 0.00353202 0.38908753 0.00515657
v 0.00433734 0.38987002 0.00450000
v -0.00313944 0.01547768 0.00540430
v -0.00287823 0.01564871 0.00554782
v -0.00315454 0.38880256 0.00539568
v -0.00103063 0.01638359 0.00616444
v -0.00260523 0.38846156 0.00568184
v 0.00178914 0.38809595 0.00598860
v 0.00000000 0.38778442 0.00625000
v -0.00072025 0.38783357 0.00620879
v -0.00541266 0.38987002 0.00312500
v -0.00541266 0.01439999 0.00312500
v -0.00433734 0.01439999 0.00450000
v -0.00433734 0.38987002 0.00450000
v 0.00000000 0.01648558 -0.00625000
v -0.00177023 0.01618053 -0.00599406
v -0.00314571 0.38879585 -0.00540132
v -0.00314552 0.01547346 -0.00540076
v -0.00353202 0.38908753 -0.00515657
v -0.00433734 0.38987002 -0.00450000
v 0.00313944 0.01547768 -0.00540430
v 0.00287823 0.01564871 -0.00554782
v 0.00315454 0.38880256 -0.00539568
v 0.00103063 0.01638359 -0.00616444
v 0.00260523 0.38846156 -0.00568184
v -0.00178914 0.38809595 -0.00598860
v 0.00000000 0.38778442 -0.00625000
v 0.00072025 0.38783357 -0.00620879
v 0.00541266 0.38987002 -0.00312500
v 0.00541266 0.01439999 -0.00312500
v 0.00433734 0.01439999 -0.00450000
v 0.00433734 0.38987002 -0.00450000
v 0.00541266 0.38987002 0.00312500
v 0.00565491 0.38987002 0.00266167
v 0.00625000 0.01439999 -0.00000000
v 0.00624993 0.38987002 -0.00003014
v 0.00562897 0.38987002 -0.00271610
v -0.00541266 0.38987002 -0.00312500
v -0.00565491 0.38987002 -0.00266167
v -0.00625000 0.01439999 0.00000000
v -0.00624993 0.38987002 0.00003014
v -0.00562897 0.38987002 0.00271610
v 0.01111923 0.40460622 -0.00449996
v 0.01102758 0.40280753 -0.00450040
v -0.00823636 0.39618668 -0.00450000
v 0.00554648 0.39166817 -0.00450000
v 0.01060617 0.40762427 -0.00450090
v -0.00976175 0.39893538 -0.00450000
v -0.01081416 0.40166187 -0.00450018
v 0.01087308 0.40192059 -0.00450071
v 0.00976175 0.39893538 -0.00450000
v -0.00248277 0.41511369 -0.00450001
v 0.00015675 0.41539320 -0.00450002
v -0.01111544 0.40471408 -0.00449996
v -0.00511700 0.41414773 -0.00449966
v 0.00281224 0.41503298 -0.00449997
v 0.00538369 0.41400474 -0.00450009
v 0.00763775 0.41235793 -0.00450004
v -0.00744273 0.41253740 -0.00450066
v -0.01059442 0.40766224 -0.00450012
v -0.00937332 0.41026142 -0.00449930
v -0.01102769 0.40280706 -0.00449999
v 0.00939872 0.41022092 -0.00450005
v -0.01111923 0.40460622 0.00449996
v -0.01102758 0.40280753 0.00450040
v 0.00823636 0.39618668 0.00450000
v -0.00554648 0.39166817 0.00450000
v -0.01060617 0.40762427 0.00450090
v 0.00976175 0.39893538 0.00450000
v 0.01081416 0.40166187 0.00450018
v -0.01087308 0.40192059 0.00450071
v -0.00976175 0.39893538 0.00450000
v 0.00248277 0.41511369 0.00450001
v -0.00015675 0.41539320 0.00450002
v 0.01111544 0.40471408 0.00449996
v 0.00511700 0.41414773 0.00449966
v -0.00281224 0.41503298 0.00449997
v -0.00538369 0.41400474 0.00450009
v -0.00763775 0.41235793 0.00450004
v 0.00744273 0.41253740 0.00450066
v 0.01059442 0.40766224 0.00450012
v 0.00937332 0.41026142 0.00449930
v 0.01102769 0.40280706 0.00449999
v -0.00939872 0.41022092 0.00450005
v -0.00993082 0.39893538 -0.00411348
v -0.00993082 0.39893538 0.00411348
v -0.01074904 0.39893538 0.00000000
v -0.00152528 0.41558874 -0.00368236
v -0.00281836 0.41558874 -0.00281836
v 0.00000000 0.41627002 0.00000000
v 0.00000000 0.41558874 -0.00398576
v 0.00152528 0.41558874 -0.00368236
v 0.00281836 0.41558874 -0.00281836
v 0.00368236 0.41558874 -0.00152528
v 0.00281836 0.41558874 0.00281836
v 0.00368236 0.41558874 0.00152528
v 0.00152528 0.41558874 0.00368236
v 0.00000000 0.41558874 0.00398576
v -0.00152528 0.41558874 0.00368236
v -0.00281836 0.41558874 0.00281836
v -0.00368236 0.41558874 0.00152528
v -0.00398576 0.41558874 0.00000000
v -0.00368236 0.41558874 -0.00152528
v -0.00694661 0.41362229 0.00287738
v 0.00993082 0.39893538 -0.00411348
v -0.01088018 0.40732634 -0.00403490
v -0.01171991 0.40684757 0.00000000
v 0.00942211 0.41059396 -0.00390277
v 0.00694661 0.41362229 -0.00287738
v 0.01087907 0.40731844 -0.00404385
v 0.01171991 0.40684757 0.00000000
v 0.01191067 0.40280849 0.00000000
v 0.01074904 0.39893538 0.00000000
v 0.00993082 0.39893538 0.00411348
v 0.01088018 0.40732634 0.00403490
v 0.00694661 0.41362229 0.00287738
v 0.00942211 0.41059396 0.00390277
v -0.01191067 0.40280849 0.00000000
v -0.01087907 0.40731844 0.00404385
v -0.00942211 0.41059396 0.00390277
v -0.01019842 0.41059396 0.00000000
v -0.00942211 0.41059396 -0.00390277
v 0.01019842 0.41059396 0.00000000
v 0.00751895 0.41362229 0.00000000
v 0.00398576 0.41558874 0.00000000
v -0.00751895 0.41362229 0.00000000
v -0.00694661 0.41362229 -0.00287738
v -0.00381061 0.01494104 0.00495398
v -0.00338242 0.01530108 0.00525610
v 0.00374258 0.01500251 0.00500556
v 0.00338352 0.01529970 0.00525493
v -0.00197588 0.01610394 0.00592977
v -0.00260896 0.01580643 0.00568013
v -0.00322163 0.01542053 0.00535633
v -0.00176337 0.01618313 0.00599622
v 0.00309105 0.01551119 0.00543240
v 0.00247454 0.01587768 0.00573992
v 0.00183811 0.01615633 0.00597374
v 0.00176199 0.01618356 0.00599659
v -0.00133748 0.01631332 0.00610547
v 0.00118875 0.01635009 0.00613632
v 0.00054305 0.01645774 0.00622665
v -0.00068738 0.01644084 0.00621247
v 0.00488653 0.01360844 0.00450000
v 0.00230990 -0.01088184 0.00449999
v 0.00835193 0.00787773 0.00450000
v 0.00763907 0.00912895 0.00450000
v -0.00551027 0.01265683 0.00450000
v -0.00708322 0.01008429 0.00450000
v -0.00908646 0.00656304 0.00450000
v -0.00976175 0.00533462 0.00450000
v 0.00610527 0.01171071 0.00450000
v -0.01024746 0.00432873 0.00450019
v -0.01048195 0.00372508 0.00450027
v -0.01063122 0.00327488 0.00450026
v 0.00228848 -0.01088637 0.00450000
v -0.01067133 -0.00314185 0.00450016
v -0.01052770 -0.00359399 0.00450009
v -0.01090930 0.00217627 0.00450011
v -0.01093640 0.00203581 0.00450008
v -0.01107524 0.00104389 0.00449994
v -0.01112377 -0.00011137 0.00449993
v 0.00117574 -0.01106180 0.00450046
v -0.01011439 -0.00463143 0.00449989
v 0.00008251 -0.01112400 0.00450000
v 0.00955337 -0.00569924 0.00450020
v 0.01007105 -0.00472404 0.00450083
v 0.00976175 0.00533462 0.00450000
v 0.01049419 -0.00368960 0.00450098
v -0.01105054 -0.00127858 0.00450009
v -0.01085186 -0.00244648 0.00450020
v 0.00231557 -0.01088063 0.00449999
v 0.00323321 -0.01064409 0.00449998
v 0.00339875 -0.01059238 0.00449999
v 0.00447915 -0.01018270 0.00449996
v 0.00551021 -0.00966367 0.00450012
v 0.00645291 -0.00906135 0.00450023
v 0.00734786 -0.00835208 0.00450020
v 0.00818633 -0.00753234 0.00449976
v 0.00894253 -0.00661681 0.00449988
v 0.01081423 -0.00260706 0.00450062
v 0.01102436 -0.00148733 0.00450016
v 0.01111908 -0.00034122 0.00449996
v -0.00959975 -0.00562144 0.00449935
v -0.00897388 -0.00657449 0.00449951
v -0.00823641 -0.00747722 0.00450030
v -0.00551389 -0.00966179 0.00449966
v -0.00448155 -0.01018166 0.00449993
v -0.00339722 -0.01059278 0.00450020
v -0.00106193 -0.01107332 0.00450044
v -0.00225351 -0.01089365 0.00450000
v 0.01109393 0.00082043 0.00450016
v 0.01094521 0.00198670 0.00450060
v 0.01026524 0.00428608 0.00450049
v 0.01066968 0.00314649 0.00450083
v -0.00739030 -0.00831431 0.00450064
v -0.00646943 -0.00904965 0.00450004
v -0.00472343 0.01439999 0.00409288
v -0.00483220 0.01439999 0.00396388
v -0.00551653 0.01439999 0.00293775
v -0.00568520 0.01439999 0.00259634
v -0.00548794 0.01439999 -0.00299083
v -0.00479374 0.01439999 -0.00401031
v -0.00610527 0.01171071 -0.00450000
v -0.00472343 0.01439999 -0.00409288
v -0.00488653 0.01360844 -0.00450000
v -0.00763907 0.00912895 -0.00450000
v -0.00835193 0.00787773 -0.00450000
v -0.00568520 0.01439999 -0.00259634
v -0.00976175 0.00533462 -0.00450000
v -0.00596841 0.01439999 -0.00185487
v -0.01029329 0.00533462 -0.00309679
v -0.00618638 0.01439999 -0.00088947
v -0.01063449 0.00533462 -0.00156507
v -0.00621645 0.01439999 -0.00064668
v -0.01069135 0.00533462 -0.00111220
v -0.01074904 0.00533462 0.00000000
v -0.00622240 0.01439999 0.00058669
v -0.01070158 0.00533462 0.00100902
v -0.00618638 0.01439999 0.00088947
v -0.01063449 0.00533462 0.00156507
v -0.00598603 0.01439999 0.00179722
v -0.01029329 0.00533462 0.00309679
v -0.00166159 -0.01187388 0.00049990
v -0.00171666 -0.01187388 0.00025264
v 0.00000000 -0.01200001 0.00000000
v -0.00157109 -0.01187388 0.00073650
v -0.00144712 -0.01187388 0.00095740
v -0.00129230 -0.01187388 0.00115790
v -0.00110993 -0.01187388 0.00133372
v -0.00090391 -0.01187388 0.00148112
v -0.00067863 -0.01187388 0.00159694
v -0.00043888 -0.01187388 0.00167873
v -0.00018978 -0.01187388 0.00172475
v 0.00006337 -0.01187388 0.00173400
v 0.00031517 -0.01187388 0.00170629
v 0.00056025 -0.01187388 0.00164222
v 0.00079339 -0.01187388 0.00154315
v 0.00100962 -0.01187388 0.00141118
v 0.00120433 -0.01187388 0.00124914
v 0.00137337 -0.01187388 0.00106048
v 0.00151314 -0.01187388 0.00084922
v 0.00162066 -0.01187388 0.00061985
v 0.00169364 -0.01187388 0.00037728
v 0.00173053 -0.01187388 0.00012666
v 0.00173053 -0.01187388 -0.00012666
v 0.00169364 -0.01187388 -0.00037728
v 0.00162066 -0.01187388 -0.00061985
v 0.00151314 -0.01187388 -0.00084922
v 0.00137337 -0.01187388 -0.00106048
v 0.00120433 -0.01187388 -0.00124914
v 0.00100962 -0.01187388 -0.00141118
v 0.00079339 -0.01187388 -0.00154315
v 0.00056025 -0.01187388 -0.00164222
v 0.00031517 -0.01187388 -0.00170629
v 0.00006337 -0.01187388 -0.00173400
v -0.00018978 -0.01187388 -0.00172475
v -0.00043888 -0.01187388 -0.00167873
v -0.00067863 -0.01187388 -0.00159694
v -0.00090391 -0.01187388 -0.00148112
v -0.00110993 -0.01187388 -0.00133372
v -0.00129230 -0.01187388 -0.00115790
v -0.00144712 -0.01187388 -0.00095740
v -0.00157109 -0.01187388 -0.00073650
v -0.00166159 -0.01187388 -0.00049990
v -0.00171666 -0.01187388 -0.00025264
v -0.00173516 -0.01187388 0.00000000
v 0.00294441 -0.01088085 0.00411553
v 0.00231437 -0.01088157 0.00449835
v 0.00157010 -0.01149821 0.00305386
v 0.01029504 0.00533462 -0.00309094
v 0.01049188 0.00533462 -0.00233717
v 0.01113453 0.00372428 -0.00248032
v -0.01128588 0.00372428 -0.00166094
v 0.00225351 -0.01089365 -0.00450000
v 0.00230356 -0.01088318 -0.00450000
v 0.00231524 -0.01088242 -0.00449584
v 0.00231830 -0.01088005 -0.00450000
v 0.01024746 0.00432873 -0.00450019
v 0.00976175 0.00533462 -0.00450000
v 0.01003978 0.00533462 -0.00383989
v 0.00694355 -0.00897781 0.00389691
v -0.00923414 -0.00632395 0.00432879
v -0.00830914 -0.00773213 0.00389516
v -0.01092377 0.00372428 0.00328647
v -0.01132466 0.00203567 0.00340708
v -0.01148751 0.00030427 0.00345608
v -0.01140892 -0.00143352 0.00343243
v -0.01109052 -0.00314119 0.00333664
v -0.00976601 -0.00632395 0.00293815
v -0.01053903 -0.00478284 0.00317072
v -0.00720949 -0.00897781 0.00337967
v -0.00664057 -0.00897781 0.00439336
v -0.00548812 -0.01003480 0.00363091
v -0.00490097 -0.01003480 0.00439129
v -0.00263614 -0.01088085 0.00431948
v -0.00323697 -0.01088085 0.00388963
v -0.00376881 -0.01088085 0.00337687
v -0.00178883 -0.01149821 0.00293110
v -0.00134299 -0.01149821 0.00316032
v -0.00086853 -0.01149821 0.00332219
v -0.00037556 -0.01149821 0.00341324
v 0.00012541 -0.01149821 0.00343155
v 0.00062371 -0.01149821 0.00337672
v 0.00110872 -0.01149821 0.00324992
v 0.00520844 -0.01003480 0.00402183
v 0.00573852 -0.01003480 0.00322062
v 0.00800264 -0.00773213 0.00449130
v 0.00857130 -0.00773213 0.00327824
v 0.00952549 -0.00632395 0.00364319
v 0.01027946 -0.00478284 0.00393156
v 0.01081738 -0.00314119 0.00413730
v 0.01112793 -0.00143352 0.00425607
v 0.01120459 0.00030427 0.00428539
v 0.01104574 0.00203567 0.00422464
v 0.01065473 0.00372428 0.00407509
v 0.01065473 0.00372428 -0.00407509
v 0.01104574 0.00203567 -0.00422464
v 0.01063122 0.00327488 -0.00450026
v 0.01090930 0.00217627 -0.00450011
v 0.01107524 0.00104389 -0.00449994
v 0.01120459 0.00030427 -0.00428539
v 0.01112377 -0.00011137 -0.00449993
v 0.01112793 -0.00143352 -0.00425607
v 0.01105054 -0.00127858 -0.00450009
v 0.01085186 -0.00244648 -0.00450020
v 0.01081738 -0.00314119 -0.00413730
v 0.01052770 -0.00359399 -0.00450009
v 0.01027946 -0.00478284 -0.00393156
v 0.01011439 -0.00463143 -0.00449989
v 0.00959975 -0.00562144 -0.00449935
v 0.00952549 -0.00632395 -0.00364319
v 0.00897388 -0.00657449 -0.00449951
v 0.00823641 -0.00747722 -0.00450030
v 0.00857130 -0.00773213 -0.00327824
v 0.00800264 -0.00773213 -0.00449130
v 0.00694355 -0.00897781 -0.00389691
v 0.00646943 -0.00904965 -0.00450004
v 0.00739030 -0.00831431 -0.00450064
v 0.00573852 -0.01003480 -0.00322062
v 0.00520844 -0.01003480 -0.00402183
v 0.00551389 -0.00966179 -0.00449966
v 0.00400525 -0.01088085 -0.00309275
v 0.00351226 -0.01088085 -0.00364297
v 0.00448155 -0.01018166 -0.00449993
v 0.00294441 -0.01088085 -0.00411553
v 0.00323368 -0.01064387 -0.00450017
v 0.00339722 -0.01059278 -0.00450020
v 0.00157010 -0.01149821 -0.00305386
v 0.00110872 -0.01149821 -0.00324992
v 0.00106193 -0.01107332 -0.00450044
v 0.00062371 -0.01149821 -0.00337672
v 0.00012541 -0.01149821 -0.00343155
v -0.00008251 -0.01112400 -0.00450000
v -0.00447915 -0.01018270 -0.00449996
v -0.00490097 -0.01003480 -0.00439129
v -0.00551021 -0.00966367 -0.00450012
v -0.00548812 -0.01003480 -0.00363091
v -0.00645291 -0.00906135 -0.00450023
v -0.00830914 -0.00773213 -0.00389516
v -0.00818633 -0.00753234 -0.00449976
v -0.00734786 -0.00835208 -0.00450020
v -0.00923414 -0.00632395 -0.00432879
v -0.00894253 -0.00661681 -0.00449988
v -0.01053903 -0.00478284 -0.00317072
v -0.01007105 -0.00472404 -0.00450083
v -0.00955337 -0.00569924 -0.00450020
v -0.00976601 -0.00632395 -0.00293815
v -0.01049419 -0.00368960 -0.00450098
v -0.01109052 -0.00314119 -0.00333664
v -0.01067105 -0.00314185 -0.00450084
v -0.01109393 0.00082043 -0.00450016
v -0.01112012 0.00030431 -0.00450003
v -0.01148751 0.00030427 -0.00345608
v -0.01111908 -0.00034122 -0.00449996
v -0.01140892 -0.00143352 -0.00343243
v -0.01102436 -0.00148733 -0.00450016
v -0.01081423 -0.00260706 -0.00450062
v -0.01094521 0.00198670 -0.00450060
v -0.01132466 0.00203567 -0.00340708
v -0.01066968 0.00314649 -0.00450083
v -0.01092377 0.00372428 -0.00328647
v -0.01048171 0.00372520 -0.00450074
v -0.01026524 0.00428608 -0.00450049
v 0.01003978 0.00533462 0.00383989
v 0.01026475 0.00533462 0.00319010
v 0.01049188 0.00533462 0.00233717
v -0.01140744 0.00372428 0.00000000
v -0.01182607 0.00203567 0.00000000
v -0.01170005 0.00203567 -0.00172189
v -0.01199614 0.00030427 0.00000000
v -0.01186830 0.00030427 -0.00174665
v -0.01191407 -0.00143352 0.00000000
v -0.01178710 -0.00143352 -0.00173470
v -0.01158158 -0.00314119 0.00000000
v -0.01145816 -0.00314119 -0.00168629
v -0.01100566 -0.00478284 0.00000000
v -0.01088838 -0.00478284 -0.00160244
v -0.01019842 -0.00632395 0.00000000
v -0.01008974 -0.00632395 -0.00148490
v -0.00878773 -0.00773213 -0.00264383
v -0.00907903 -0.00773213 -0.00133616
v -0.00917682 -0.00773213 0.00000000
v 0.00895727 -0.00773213 -0.00199532
v 0.00995443 -0.00632395 -0.00221744
v 0.01074236 -0.00478284 -0.00239296
v 0.01130450 -0.00314119 -0.00251818
v 0.01162903 -0.00143352 -0.00259048
v 0.01170914 0.00030427 -0.00260832
v 0.01154315 0.00203567 -0.00257135
v 0.01072036 0.00533462 -0.00078463
v 0.01137701 0.00372428 -0.00083269
v 0.01179453 0.00203567 -0.00086325
v 0.01196414 0.00030427 -0.00087566
v 0.01188228 -0.00143352 -0.00086967
v 0.01155068 -0.00314119 -0.00084540
v 0.01097630 -0.00478284 -0.00080336
v 0.01017121 -0.00632395 -0.00074444
v 0.00915234 -0.00773213 -0.00066986
v 0.01072036 0.00533462 0.00078463
v 0.01137701 0.00372428 0.00083269
v 0.01179453 0.00203567 0.00086325
v 0.01196414 0.00030427 0.00087566
v 0.01188228 -0.00143352 0.00086967
v 0.01155068 -0.00314119 0.00084540
v 0.01097630 -0.00478284 0.00080336
v 0.01017121 -0.00632395 0.00074444
v 0.00915234 -0.00773213 0.00066986
v 0.01069135 0.00533462 0.00111220
v 0.01113453 0.00372428 0.00248032
v 0.01154315 0.00203567 0.00257135
v 0.01170914 0.00030427 0.00260832
v 0.01162903 -0.00143352 0.00259048
v 0.01130450 -0.00314119 0.00251818
v 0.01074236 -0.00478284 0.00239296
v 0.00995443 -0.00632395 0.00221744
v 0.00895727 -0.00773213 0.00199532
v -0.00664057 -0.00897781 -0.00439336
v -0.00720949 -0.00897781 -0.00337967
v -0.00762474 -0.00897781 -0.00229394
v -0.00787749 -0.00897781 -0.00115933
v -0.00796234 -0.00897781 0.00000000
v 0.00743695 -0.00897781 0.00284439
v 0.00777185 -0.00897781 0.00173125
v 0.00794110 -0.00897781 0.00058121
v 0.00794110 -0.00897781 -0.00058121
v 0.00777185 -0.00897781 -0.00173125
v 0.00743695 -0.00897781 -0.00284439
v -0.00595830 -0.01003480 -0.00279314
v -0.00630149 -0.01003480 -0.00189584
v -0.00651038 -0.01003480 -0.00095813
v -0.00658050 -0.01003480 0.00000000
v 0.00614629 -0.01003480 0.00235076
v 0.00642307 -0.01003480 0.00143080
v 0.00656295 -0.01003480 0.00048035
v 0.00656295 -0.01003480 -0.00048035
v 0.00642307 -0.01003480 -0.00143080
v 0.00614629 -0.01003480 -0.00235076
v -0.00595830 -0.01003480 0.00279314
v -0.00878773 -0.00773213 0.00264383
v -0.00762474 -0.00897781 0.00229394
v -0.00630149 -0.01003480 0.00189584
v -0.01128588 0.00372428 0.00166094
v -0.01170005 0.00203567 0.00172189
v -0.01186830 0.00030427 0.00174665
v -0.01178710 -0.00143352 0.00173470
v -0.01145816 -0.00314119 0.00168629
v -0.01088838 -0.00478284 0.00160244
v -0.01008974 -0.00632395 0.00148490
v -0.00907903 -0.00773213 0.00133616
v -0.00787749 -0.00897781 0.00115933
v -0.00651038 -0.01003480 0.00095813
v 0.00351226 -0.01088085 0.00364297
v 0.00400525 -0.01088085 0.00309275
v 0.00441288 -0.01088085 0.00247663
v 0.00472645 -0.01088085 0.00180771
v 0.00493929 -0.01088085 0.00110027
v 0.00504685 -0.01088085 0.00036938
v 0.00504685 -0.01088085 -0.00036938
v 0.00493929 -0.01088085 -0.00110027
v 0.00472645 -0.01088085 -0.00180771
v 0.00441288 -0.01088085 -0.00247663
v -0.00228848 -0.01088637 -0.00450000
v -0.00263614 -0.01088085 -0.00431948
v -0.00339875 -0.01059238 -0.00449999
v -0.00323697 -0.01088085 -0.00388963
v -0.00376881 -0.01088085 -0.00337687
v -0.00422032 -0.01088085 -0.00279214
v -0.00458189 -0.01088085 -0.00214790
v -0.00484580 -0.01088085 -0.00145788
v -0.00500643 -0.01088085 -0.00073679
v -0.00506035 -0.01088085 0.00000000
v -0.00500643 -0.01088085 0.00073679
v -0.00484580 -0.01088085 0.00145788
v -0.00458189 -0.01088085 0.00214790
v -0.00422032 -0.01088085 0.00279214
v 0.00199801 -0.01149821 -0.00279271
v 0.00238334 -0.01149821 -0.00247203
v 0.00271787 -0.01149821 -0.00209867
v 0.00299448 -0.01149821 -0.00168058
v 0.00320726 -0.01149821 -0.00122667
v 0.00335169 -0.01149821 -0.00074662
v 0.00342468 -0.01149821 -0.00025065
v 0.00342468 -0.01149821 0.00025065
v 0.00335169 -0.01149821 0.00074662
v 0.00320726 -0.01149821 0.00122667
v 0.00299448 -0.01149821 0.00168058
v 0.00271787 -0.01149821 0.00209867
v 0.00238334 -0.01149821 0.00247203
v 0.00199801 -0.01149821 0.00279271
v -0.00037556 -0.01149821 -0.00341324
v -0.00086853 -0.01149821 -0.00332219
v -0.00117574 -0.01106180 -0.00450046
v -0.00134299 -0.01149821 -0.00316032
v -0.00178883 -0.01149821 -0.00293110
v -0.00219654 -0.01149821 -0.00263941
v -0.00255743 -0.01149821 -0.00229147
v -0.00286382 -0.01149821 -0.00189468
v -0.00310917 -0.01149821 -0.00145752
v -0.00328825 -0.01149821 -0.00098929
v -0.00339725 -0.01149821 -0.00049997
v -0.00343384 -0.01149821 0.00000000
v -0.00339725 -0.01149821 0.00049997
v -0.00328825 -0.01149821 0.00098929
v -0.00310917 -0.01149821 0.00145752
v -0.00286382 -0.01149821 0.00189468
v -0.00255743 -0.01149821 0.00229147
v -0.00219654 -0.01149821 0.00263941
v 0.00472343 0.01439999 -0.00409288
v 0.00551027 0.01265683 -0.00450000
v 0.00483220 0.01439999 -0.00396388
v 0.00708322 0.01008429 -0.00450000
v 0.00551653 0.01439999 -0.00293775
v 0.00908646 0.00656304 -0.00450000
v 0.00568520 0.01439999 -0.00259634
v 0.00598603 0.01439999 -0.00179722
v 0.00596841 0.01439999 0.00185487
v 0.00568520 0.01439999 0.00259634
v 0.00548794 0.01439999 0.00299083
v 0.00479374 0.01439999 0.00401031
v 0.00472343 0.01439999 0.00409288
v 0.00618638 0.01439999 0.00088947
v 0.00621645 0.01439999 0.00064668
v 0.00622240 0.01439999 -0.00058669
v 0.00618638 0.01439999 -0.00088947
v 0.00381061 0.01494104 -0.00495398
v 0.00338242 0.01530108 -0.00525610
v -0.00374258 0.01500251 -0.00500556
v -0.00338352 0.01529970 -0.00525493
v 0.00197588 0.01610394 -0.00592977
v 0.00260896 0.01580643 -0.00568013
v 0.00322163 0.01542053 -0.00535633
v 0.00176337 0.01618313 -0.00599622
v -0.00309105 0.01551119 -0.00543240
v -0.00247454 0.01587768 -0.00573992
v -0.00183811 0.01615633 -0.00597374
v -0.00176199 0.01618356 -0.00599659
v 0.00133748 0.01631332 -0.00610547
v -0.00118875 0.01635009 -0.00613632
v -0.00054305 0.01645774 -0.00622665
v 0.00068738 0.01644084 -0.00621247
v -0.00176083 0.03160000 -0.00599683
v 0.00337901 0.03160000 -0.00525783
v 0.00176083 0.03160000 -0.00599683
v 0.00472343 0.03160000 -0.00409288
v 0.00472343 0.03160000 0.00409288
v 0.00337901 0.03160000 0.00525783
v 0.00176083 0.03160000 0.00599683
v 0.00000000 0.03160000 0.00625000
v -0.00176083 0.03160000 0.00599683
v -0.00337901 0.03160000 0.00525783
v -0.00472343 0.03160000 0.00409288
v -0.00337901 0.03160000 -0.00525783
v -0.00472343 0.03160000 -0.00409288
v 0.00000000 0.03160000 -0.00625000
v 0.00568520 0.03160000 -0.00259634
v 0.00618638 0.03160000 -0.00088947
v 0.00618638 0.03160000 0.00088947
v 0.00568520 0.03160000 0.00259634
v -0.00568520 0.03160000 0.00259634
v -0.00618638 0.03160000 0.00088947
v -0.00618638 0.03160000 -0.00088947
v -0.00568520 0.03160000 -0.00259634
f 1 2 3
f 4 5 6
f 7 8 9
f 9 8 10
f 9 10 11
f 11 10 4
f 11 4 12
f 13 14 15
f 15 14 16
f 15 16 17
f 9 18 7
f 7 18 19
f 7 19 16
f 16 19 20
f 16 20 17
f 21 22 23
f 13 15 23
f 23 15 24
f 23 24 21
f 25 26 27
f 27 26 28
f 27 28 29
f 29 28 1
f 29 1 30
f 31 32 33
f 33 32 34
f 33 34 35
f 27 36 25
f 25 36 37
f 25 37 34
f 34 37 38
f 34 38 35
f 39 40 41
f 31 33 41
f 41 33 42
f 41 42 39
f 12 4 43
f 43 4 6
f 43 6 44
f 44 6 45
f 44 45 46
f 40 39 45
f 45 39 47
f 45 47 46
f 30 1 48
f 48 1 3
f 48 3 49
f 49 3 50
f 49 50 51
f 22 21 50
f 50 21 52
f 50 52 51
f 53 54 55
f 42 30 56
f 56 30 55
f 53 55 57
f 57 55 58
f 57 58 59
f 54 60 55
f 55 60 61
f 55 61 56
f 62 63 64
f 62 64 65
f 63 66 64
f 64 66 67
f 64 67 68
f 65 64 69
f 69 64 70
f 69 70 71
f 59 72 57
f 57 72 64
f 57 64 73
f 73 64 68
f 29 30 42
f 29 42 27
f 37 36 27
f 38 37 35
f 35 37 27
f 35 27 33
f 33 27 42
f 11 12 24
f 11 24 9
f 19 18 9
f 20 19 17
f 17 19 9
f 17 9 15
f 15 9 24
f 74 75 76
f 24 12 77
f 77 12 76
f 74 76 78
f 78 76 79
f 78 79 80
f 75 81 76
f 76 81 82
f 76 82 77
f 83 84 85
f 83 85 86
f 84 87 85
f 85 87 88
f 85 88 89
f 86 85 90
f 90 85 91
f 90 91 92
f 80 93 78
f 78 93 85
f 78 85 94
f 94 85 89
f 49 55 48
f 48 55 30
f 51 95 49
f 49 95 58
f 49 58 55
f 24 77 21
f 21 77 82
f 21 82 52
f 52 82 96
f 52 96 51
f 51 96 97
f 51 97 95
f 98 99 100
f 98 100 101
f 102 101 100
f 103 102 100
f 104 103 100
f 105 106 100
f 105 100 107
f 108 107 100
f 109 108 100
f 110 109 100
f 111 110 100
f 112 111 100
f 113 112 100
f 89 88 114
f 60 115 61
f 64 116 70
f 59 95 97
f 95 59 58
f 116 64 117
f 104 67 103
f 103 67 66
f 103 66 102
f 102 66 63
f 102 63 101
f 101 63 62
f 101 62 98
f 98 62 65
f 98 65 99
f 99 65 113
f 99 113 100
f 118 73 119
f 119 73 68
f 57 73 120
f 120 73 118
f 120 118 121
f 122 54 53
f 115 60 123
f 122 93 80
f 79 124 80
f 80 124 123
f 80 123 122
f 122 123 60
f 122 60 54
f 121 125 85
f 57 120 53
f 53 120 121
f 53 121 122
f 122 121 85
f 122 85 93
f 106 86 126
f 126 86 90
f 126 90 127
f 127 90 92
f 127 92 91
f 89 114 94
f 81 75 128
f 128 75 74
f 78 129 74
f 74 129 117
f 74 117 128
f 128 117 64
f 128 64 72
f 72 59 128
f 128 59 97
f 128 97 81
f 81 97 96
f 81 96 82
f 78 94 129
f 129 94 130
f 129 130 117
f 117 130 131
f 117 131 116
f 116 131 132
f 116 132 70
f 70 132 71
f 125 121 133
f 133 121 118
f 133 118 134
f 134 118 119
f 134 119 135
f 94 114 130
f 130 114 136
f 130 136 131
f 131 136 137
f 131 137 132
f 132 137 69
f 132 69 71
f 135 106 134
f 134 106 126
f 134 126 133
f 133 126 127
f 133 127 125
f 125 127 91
f 125 91 85
f 106 105 86
f 86 105 107
f 86 107 83
f 83 107 108
f 83 108 84
f 84 108 109
f 84 109 87
f 87 109 110
f 87 110 88
f 88 110 111
f 88 111 114
f 114 111 112
f 114 112 136
f 136 112 113
f 136 113 137
f 137 113 65
f 137 65 69
f 135 100 106
f 68 67 119
f 119 67 104
f 119 104 135
f 135 104 100
f 44 76 43
f 43 76 12
f 46 124 44
f 44 124 79
f 44 79 76
f 42 56 39
f 39 56 61
f 39 61 47
f 47 61 115
f 47 115 46
f 46 115 123
f 46 123 124
f 138 23 5
f 138 5 139
f 139 5 140
f 139 140 141
f 142 143 141
f 141 143 144
f 141 144 139
f 142 141 145
f 145 141 146
f 145 146 147
f 147 148 145
f 145 148 149
f 145 149 150
f 150 149 151
f 151 152 150
f 150 152 7
f 150 7 153
f 154 5 23
f 155 156 157
f 155 23 158
f 158 159 155
f 155 159 160
f 155 160 161
f 155 157 23
f 23 157 162
f 23 162 154
f 161 163 155
f 155 163 164
f 155 164 165
f 166 167 168
f 165 169 155
f 155 169 170
f 155 170 166
f 166 170 171
f 166 171 172
f 166 168 173
f 173 168 174
f 173 174 175
f 176 177 178
f 178 177 179
f 172 180 166
f 166 180 181
f 166 181 167
f 155 182 156
f 156 182 183
f 156 183 178
f 178 183 184
f 178 184 185
f 185 186 178
f 178 186 187
f 178 187 188
f 188 189 178
f 178 189 190
f 178 190 176
f 179 191 178
f 178 191 192
f 178 192 193
f 174 194 175
f 175 194 195
f 175 195 196
f 197 198 175
f 175 198 199
f 175 199 200
f 200 199 201
f 193 202 178
f 178 202 203
f 178 203 204
f 204 203 205
f 196 206 175
f 175 206 207
f 175 207 197
f 23 208 158
f 158 208 209
f 158 209 159
f 159 209 210
f 159 210 160
f 160 210 211
f 212 213 214
f 214 213 215
f 214 215 216
f 216 215 2
f 214 217 212
f 212 217 218
f 212 218 219
f 219 218 220
f 219 220 221
f 221 220 222
f 221 222 223
f 223 222 224
f 223 224 225
f 224 226 225
f 225 226 227
f 225 227 228
f 228 227 229
f 228 229 230
f 230 229 231
f 230 231 232
f 232 231 233
f 232 233 211
f 211 233 161
f 211 161 160
f 234 235 236
f 234 236 237
f 238 237 236
f 239 238 236
f 240 239 236
f 241 240 236
f 242 241 236
f 243 242 236
f 244 243 236
f 245 244 236
f 246 245 236
f 247 246 236
f 248 247 236
f 249 248 236
f 250 249 236
f 251 250 236
f 252 251 236
f 253 252 236
f 254 253 236
f 255 254 236
f 256 255 236
f 257 256 236
f 258 257 236
f 259 258 236
f 260 259 236
f 261 260 236
f 262 261 236
f 263 262 236
f 264 263 236
f 265 264 236
f 266 265 236
f 267 266 236
f 268 267 236
f 269 268 236
f 270 269 236
f 271 270 236
f 272 271 236
f 273 272 236
f 274 273 236
f 275 274 236
f 276 275 236
f 277 276 236
f 235 277 236
f 278 279 280
f 281 282 283
f 226 224 284
f 285 286 287
f 287 286 288
f 289 290 291
f 188 187 292
f 195 293 294
f 165 164 295
f 295 164 233
f 233 164 163
f 233 163 161
f 165 295 169
f 169 295 296
f 169 296 170
f 170 296 171
f 171 296 297
f 171 297 172
f 172 297 298
f 172 298 180
f 180 298 181
f 181 298 299
f 181 299 167
f 300 194 301
f 301 194 174
f 301 174 299
f 299 174 168
f 299 168 167
f 302 206 294
f 294 206 196
f 294 196 195
f 207 303 197
f 197 303 304
f 197 304 305
f 306 199 307
f 307 199 198
f 307 198 308
f 309 310 201
f 201 310 311
f 201 311 200
f 311 312 200
f 200 312 313
f 200 313 175
f 175 313 314
f 175 314 173
f 173 314 315
f 173 315 166
f 166 315 280
f 166 280 155
f 155 280 279
f 155 279 182
f 182 279 278
f 182 278 183
f 185 316 186
f 186 316 317
f 186 317 187
f 188 318 189
f 189 318 319
f 189 319 190
f 190 319 320
f 190 320 176
f 176 320 177
f 177 320 321
f 177 321 179
f 179 321 322
f 179 322 191
f 191 322 323
f 191 323 192
f 192 323 193
f 193 323 324
f 193 324 202
f 202 324 325
f 202 325 203
f 203 325 205
f 205 325 326
f 205 326 204
f 327 328 329
f 329 328 330
f 330 328 331
f 331 328 332
f 331 332 333
f 333 332 334
f 333 334 335
f 335 334 336
f 336 334 337
f 336 337 338
f 338 337 339
f 338 339 340
f 340 339 341
f 341 339 342
f 341 342 343
f 343 342 344
f 344 342 345
f 344 345 346
f 347 348 349
f 350 351 352
f 353 354 355
f 356 357 354
f 354 357 358
f 354 358 355
f 359 360 361
f 360 362 361
f 361 362 363
f 361 363 364
f 365 366 367
f 367 366 368
f 367 368 369
f 370 371 372
f 373 374 371
f 375 376 377
f 374 373 377
f 377 373 378
f 377 378 375
f 376 375 379
f 379 375 380
f 379 380 381
f 382 383 384
f 384 383 385
f 384 385 386
f 386 385 387
f 386 387 380
f 380 387 388
f 380 388 381
f 382 384 389
f 389 384 390
f 389 390 391
f 391 390 392
f 391 392 393
f 222 220 392
f 392 220 394
f 392 394 393
f 226 284 227
f 281 283 291
f 178 204 395
f 395 204 326
f 395 326 396
f 396 326 397
f 229 227 398
f 398 227 284
f 398 284 399
f 399 284 400
f 399 400 401
f 401 400 402
f 401 402 403
f 403 402 404
f 403 404 405
f 405 404 406
f 405 406 407
f 407 406 408
f 407 408 409
f 409 408 410
f 224 222 284
f 284 222 392
f 284 392 400
f 400 392 390
f 400 390 402
f 402 390 384
f 402 384 404
f 404 384 386
f 404 386 406
f 406 386 380
f 406 380 408
f 408 380 375
f 408 375 410
f 410 375 378
f 371 370 373
f 373 370 411
f 373 411 378
f 378 411 412
f 378 412 410
f 410 412 413
f 410 413 409
f 414 345 415
f 415 345 342
f 415 342 416
f 416 342 339
f 416 339 417
f 417 339 337
f 417 337 418
f 418 337 334
f 418 334 419
f 419 334 332
f 419 332 420
f 420 332 328
f 420 328 283
f 283 328 327
f 283 327 291
f 291 327 329
f 291 329 289
f 282 421 283
f 283 421 422
f 283 422 420
f 420 422 423
f 420 423 419
f 419 423 424
f 419 424 418
f 418 424 425
f 418 425 417
f 417 425 426
f 417 426 416
f 416 426 427
f 416 427 415
f 415 427 428
f 415 428 414
f 414 428 429
f 421 430 422
f 422 430 431
f 422 431 423
f 423 431 432
f 423 432 424
f 424 432 433
f 424 433 425
f 425 433 434
f 425 434 426
f 426 434 435
f 426 435 427
f 427 435 436
f 427 436 428
f 428 436 437
f 428 437 429
f 429 437 438
f 430 439 431
f 431 439 440
f 431 440 432
f 432 440 441
f 432 441 433
f 433 441 442
f 433 442 434
f 434 442 443
f 434 443 435
f 435 443 444
f 435 444 436
f 436 444 445
f 436 445 437
f 437 445 446
f 437 446 438
f 438 446 447
f 439 397 440
f 440 397 326
f 440 326 441
f 441 326 325
f 441 325 442
f 442 325 324
f 442 324 443
f 443 324 323
f 443 323 444
f 444 323 322
f 444 322 445
f 445 322 321
f 445 321 446
f 446 321 320
f 446 320 447
f 447 320 319
f 369 448 372
f 372 448 449
f 372 449 370
f 370 449 450
f 370 450 411
f 411 450 451
f 411 451 412
f 412 451 452
f 412 452 413
f 188 292 318
f 318 292 453
f 318 453 319
f 319 453 454
f 319 454 447
f 447 454 455
f 447 455 438
f 438 455 456
f 438 456 429
f 429 456 457
f 429 457 414
f 414 457 458
f 414 458 345
f 345 458 347
f 345 347 346
f 346 347 349
f 346 349 344
f 369 368 448
f 448 368 459
f 448 459 449
f 449 459 460
f 449 460 450
f 450 460 461
f 450 461 451
f 451 461 462
f 451 462 452
f 187 317 292
f 292 317 463
f 292 463 453
f 453 463 464
f 453 464 454
f 454 464 465
f 454 465 455
f 455 465 466
f 455 466 456
f 456 466 467
f 456 467 457
f 457 467 468
f 457 468 458
f 458 468 350
f 458 350 347
f 347 350 352
f 347 352 348
f 207 206 303
f 303 206 302
f 303 302 304
f 304 302 469
f 195 194 293
f 293 194 300
f 293 300 294
f 294 300 470
f 294 470 302
f 302 470 471
f 302 471 469
f 469 471 472
f 233 231 295
f 295 231 473
f 295 473 296
f 296 473 474
f 296 474 297
f 297 474 475
f 297 475 298
f 298 475 476
f 298 476 299
f 299 476 477
f 299 477 301
f 301 477 478
f 301 478 300
f 300 478 479
f 300 479 470
f 470 479 480
f 470 480 471
f 471 480 481
f 471 481 472
f 472 481 482
f 231 229 473
f 473 229 398
f 473 398 474
f 474 398 399
f 474 399 475
f 475 399 401
f 475 401 476
f 476 401 403
f 476 403 477
f 477 403 405
f 477 405 478
f 478 405 407
f 478 407 479
f 479 407 409
f 479 409 480
f 480 409 413
f 480 413 481
f 481 413 452
f 481 452 482
f 482 452 462
f 183 278 184
f 184 278 483
f 184 483 185
f 185 483 484
f 185 484 316
f 316 484 485
f 316 485 317
f 317 485 486
f 317 486 463
f 463 486 487
f 463 487 464
f 464 487 488
f 464 488 465
f 465 488 489
f 465 489 466
f 466 489 490
f 466 490 467
f 467 490 491
f 467 491 468
f 468 491 492
f 468 492 350
f 350 492 353
f 350 353 351
f 351 353 355
f 351 355 352
f 493 494 495
f 495 494 496
f 495 496 365
f 365 496 497
f 365 497 366
f 366 497 498
f 366 498 368
f 368 498 499
f 368 499 459
f 459 499 500
f 459 500 460
f 460 500 501
f 460 501 461
f 461 501 502
f 461 502 462
f 462 502 503
f 462 503 482
f 482 503 504
f 482 504 472
f 472 504 505
f 472 505 469
f 469 505 506
f 469 506 304
f 304 506 308
f 304 308 305
f 305 308 198
f 305 198 197
f 361 285 359
f 359 285 287
f 359 287 507
f 288 357 287
f 287 357 356
f 287 356 507
f 507 356 354
f 507 354 508
f 508 354 353
f 508 353 509
f 509 353 492
f 509 492 510
f 510 492 491
f 510 491 511
f 511 491 490
f 511 490 512
f 512 490 489
f 512 489 513
f 513 489 488
f 513 488 514
f 514 488 487
f 514 487 515
f 515 487 486
f 515 486 516
f 516 486 485
f 516 485 517
f 517 485 484
f 517 484 518
f 518 484 483
f 518 483 519
f 519 483 278
f 519 278 520
f 520 278 280
f 363 521 364
f 364 521 522
f 364 522 523
f 523 522 524
f 523 524 493
f 493 524 525
f 493 525 494
f 494 525 526
f 494 526 496
f 496 526 527
f 496 527 497
f 497 527 528
f 497 528 498
f 498 528 529
f 498 529 499
f 499 529 530
f 499 530 500
f 500 530 531
f 500 531 501
f 501 531 532
f 501 532 502
f 502 532 533
f 502 533 503
f 503 533 534
f 503 534 504
f 504 534 535
f 504 535 505
f 505 535 536
f 505 536 506
f 506 536 537
f 506 537 308
f 308 537 538
f 308 538 307
f 307 538 309
f 307 309 306
f 306 309 201
f 306 201 199
f 532 235 533
f 533 235 234
f 533 234 534
f 534 234 237
f 534 237 535
f 535 237 238
f 535 238 536
f 536 238 239
f 536 239 537
f 537 239 240
f 537 240 538
f 538 240 241
f 538 241 309
f 309 241 242
f 309 242 310
f 310 242 243
f 310 243 311
f 311 243 244
f 311 244 312
f 312 244 245
f 312 245 313
f 313 245 246
f 313 246 314
f 314 246 247
f 314 247 315
f 315 247 248
f 315 248 280
f 280 248 249
f 280 249 520
f 520 249 250
f 520 250 519
f 519 250 251
f 519 251 518
f 518 251 252
f 518 252 517
f 517 252 253
f 517 253 516
f 516 253 254
f 516 254 515
f 515 254 255
f 515 255 514
f 514 255 256
f 514 256 513
f 513 256 257
f 513 257 512
f 512 257 258
f 512 258 511
f 511 258 259
f 511 259 510
f 510 259 260
f 510 260 509
f 509 260 261
f 509 261 508
f 508 261 262
f 508 262 507
f 507 262 263
f 507 263 359
f 359 263 264
f 359 264 360
f 360 264 265
f 360 265 362
f 362 265 266
f 362 266 363
f 363 266 267
f 363 267 521
f 521 267 268
f 521 268 522
f 522 268 269
f 522 269 524
f 524 269 270
f 524 270 525
f 525 270 271
f 525 271 526
f 526 271 272
f 526 272 527
f 527 272 273
f 527 273 528
f 528 273 274
f 528 274 529
f 529 274 275
f 529 275 530
f 530 275 276
f 530 276 531
f 531 276 277
f 531 277 532
f 532 277 235
f 41 539 540
f 540 539 541
f 540 541 542
f 542 541 543
f 542 543 544
f 544 543 545
f 546 291 545
f 545 291 290
f 545 290 544
f 395 547 548
f 162 157 549
f 549 157 156
f 549 156 548
f 548 156 178
f 548 178 395
f 549 550 162
f 162 550 551
f 162 551 154
f 154 551 5
f 395 396 547
f 547 396 397
f 547 397 552
f 552 397 439
f 552 439 553
f 553 439 430
f 553 430 554
f 554 430 421
f 554 421 555
f 555 421 282
f 555 282 546
f 546 282 281
f 546 281 291
f 542 544 286
f 542 286 540
f 218 217 286
f 286 217 214
f 290 357 544
f 544 357 288
f 544 288 286
f 41 540 2
f 2 540 286
f 2 286 216
f 216 286 214
f 387 385 286
f 286 385 383
f 286 383 382
f 364 523 377
f 376 379 285
f 285 379 381
f 285 381 286
f 286 381 388
f 286 388 387
f 393 394 286
f 286 394 220
f 286 220 218
f 382 389 286
f 286 389 391
f 286 391 393
f 290 289 340
f 340 289 329
f 376 285 377
f 377 285 361
f 377 361 364
f 495 365 367
f 352 355 290
f 290 355 358
f 290 358 357
f 523 369 372
f 369 523 367
f 367 523 493
f 367 493 495
f 372 371 523
f 523 371 374
f 523 374 377
f 335 336 338
f 340 341 290
f 290 341 343
f 290 343 344
f 344 349 290
f 290 349 348
f 290 348 352
f 329 330 340
f 340 330 331
f 340 331 338
f 338 331 333
f 338 333 335
f 556 41 2
f 556 2 557
f 557 2 558
f 557 558 559
f 560 561 559
f 559 561 562
f 559 562 557
f 560 559 563
f 563 559 564
f 563 564 565
f 565 566 563
f 563 566 567
f 563 567 568
f 568 567 569
f 569 570 568
f 568 570 25
f 568 25 571
f 569 567 572
f 573 557 562
f 563 574 560
f 560 574 573
f 560 573 561
f 561 573 562
f 557 573 556
f 556 573 575
f 556 575 41
f 5 551 140
f 140 551 576
f 140 576 141
f 141 576 577
f 141 577 146
f 146 577 147
f 152 151 578
f 578 151 149
f 578 149 577
f 577 149 148
f 577 148 147
f 152 578 7
f 7 578 579
f 7 579 153
f 153 579 580
f 153 580 150
f 581 139 144
f 144 143 581
f 581 143 142
f 581 142 580
f 580 142 145
f 580 145 150
f 139 581 138
f 138 581 582
f 138 582 23
f 572 567 583
f 583 567 566
f 583 566 565
f 2 215 558
f 558 215 584
f 558 584 559
f 559 584 583
f 559 583 564
f 564 583 565
f 563 568 574
f 574 568 571
f 574 571 585
f 585 571 25
f 585 25 572
f 572 25 570
f 572 570 569
f 545 543 586
f 586 543 541
f 586 541 575
f 575 541 539
f 575 539 41
f 545 586 546
f 546 586 587
f 546 587 555
f 555 587 554
f 554 587 588
f 554 588 553
f 589 547 588
f 588 547 552
f 588 552 553
f 551 550 576
f 576 550 549
f 576 549 589
f 589 549 548
f 589 548 547
f 211 210 590
f 590 210 209
f 590 209 582
f 582 209 208
f 582 208 23
f 211 590 232
f 232 590 591
f 232 591 230
f 230 591 228
f 228 591 592
f 228 592 225
f 593 221 592
f 592 221 223
f 592 223 225
f 215 213 584
f 584 213 212
f 584 212 593
f 593 212 219
f 593 219 221

