mtllib material.mtl
usemtl mtl_leg_ankle_cross
v -0.00807067 -0.00297314 0.00778325
v -0.01065364 -0.00304357 0.01406957
v 0.00599086 -0.00297502 0.00263767
v 0.01212175 -0.00305468 0.00579388
v 0.00369313 -0.00300526 -0.00279570
v 0.00167852 -0.00300000 -0.00023259
v 0.00126397 -0.00300000 0.00106060
v 0.00023259 -0.00300000 0.00167852
v -0.00106060 -0.00300000 0.00126397
v -0.00167852 -0.00300000 0.00023259
v -0.01188179 -0.00301863 -0.00292341
v -0.00126397 -0.00300000 -0.00106060
v -0.00023259 -0.00300000 -0.00167852
v 0.00106060 -0.00300000 -0.00126397
v 0.00601332 0.00297124 0.00264205
v 0.01201207 0.00305102 0.00582872
v -0.01078461 0.00303811 0.01411278
v 0.00006242 0.00300000 0.00169340
v -0.00106060 0.00300000 0.00126397
v -0.00810560 0.00296583 0.00775485
v -0.01203216 0.00300856 -0.00290253
v 0.00362000 0.00300434 -0.00275964
v -0.00006242 0.00300000 -0.00169340
v -0.00126397 0.00300000 -0.00106060
v -0.00169340 0.00300000 0.00006242
v 0.00169340 0.00300000 -0.00006242
v 0.00106060 0.00300000 -0.00126397
v 0.00126397 0.00300000 0.00106060
v -0.00169340 -0.00950000 0.00006242
v -0.00126397 -0.00950000 -0.00106060
v -0.00006242 -0.00950000 -0.00169340
v 0.00106060 -0.00950000 -0.00126397
v 0.00169340 -0.00950000 -0.00006242
v 0.00126397 -0.00950000 0.00106060
v 0.00006242 -0.00950000 0.00169340
v -0.00106060 -0.00950000 0.00126397
v -0.01141682 -0.00000043 0.00591178
v -0.01134157 -0.00137205 0.00521456
v -0.01836423 -0.00114892 0.00802094
v -0.01894527 -0.00164480 0.00642444
v -0.01168970 -0.00162206 0.00378431
v -0.01225191 -0.00105813 0.00309229
v -0.01934895 -0.00047542 0.00531495
v -0.01823856 0.00047542 0.00836578
v -0.01139958 0.00071895 0.00580158
v -0.01864248 0.00164480 0.00725638
v -0.01135663 0.00152391 0.00484427
v -0.01168744 0.00161835 0.00377440
v -0.01922358 0.00114892 0.00565991
v -0.01246145 0.00073021 0.00288446
v -0.01254588 -0.00000051 0.00280966
v 0.01377696 -0.00164480 -0.00454333
v 0.00664521 -0.00152391 -0.00170786
v 0.00729346 -0.00071896 -0.00100213
v 0.01418064 -0.00047542 -0.00343384
v 0.00621022 -0.00161872 -0.00274053
v 0.01319592 -0.00114892 -0.00613983
v 0.00623183 -0.00075353 -0.00391550
v 0.00624841 0.00000050 -0.00403092
v 0.01307023 0.00047542 -0.00648467
v 0.00615055 0.00135531 -0.00335720
v 0.01347416 0.00164480 -0.00537527
v 0.00652550 0.00161467 -0.00188558
v 0.01405527 0.00114892 -0.00377879
v 0.00712391 0.00096900 -0.00116681
v 0.00737750 0.00000043 -0.00092880
v -0.00167852 0.00950000 0.00023259
v -0.00126397 0.00950000 -0.00106060
v -0.00023259 0.00950000 -0.00167852
v 0.00106060 0.00950000 -0.00126397
v 0.00167852 0.00950000 -0.00023259
v 0.00126397 0.00950000 0.00106060
v 0.00023259 0.00950000 0.00167852
v -0.00106060 0.00950000 0.00126397
v 0.01481362 -0.00501212 -0.00608079
v 0.01556353 -0.00475528 -0.00402042
v 0.01598999 -0.00965216 -0.00285039
v 0.01674518 -0.00000000 -0.00077386
v 0.01846132 -0.00000100 0.00392470
v 0.01666149 -0.00154508 -0.00100382
v 0.01806344 -0.00475544 0.00284682
v 0.01629176 -0.00346990 -0.00201962
v 0.01719517 -0.00781707 0.00046134
v 0.01662916 0.00212404 -0.00109264
v 0.01838957 0.00195090 0.00374404
v 0.01471598 0.00496690 -0.00634906
v 0.01574209 0.00988282 -0.00353507
v 0.01577544 0.00456672 -0.00343821
v 0.01377840 0.00346990 -0.00892503
v 0.01290335 0.00787374 -0.01133049
v 0.01332498 0.00000000 -0.01017079
v 0.01168060 0.00195090 -0.01468869
v 0.01340868 0.00154508 -0.00994083
v 0.01203520 0.00488870 -0.01371597
v 0.01463901 -0.00997557 -0.00656206
v 0.01336354 -0.00877251 -0.01006639
v 0.01384831 -0.00367429 -0.00873296
v 0.01719523 0.00781701 0.00046126
v 0.01804789 0.00482043 0.00280549
v 0.01409630 0.00965994 -0.00805315
v 0.01340868 -0.00154508 -0.00994083
v 0.01169791 -0.00252437 -0.01463337
v 0.01161488 0.00000000 -0.01486925
v 0.01234252 -0.00623397 -0.01287137
v -0.02042486 0.00501212 0.00674497
v -0.01937495 0.00443549 0.00962956
v -0.01924955 0.00965215 0.00997576
v -0.01849329 -0.00000000 0.01205190
v -0.01678775 0.00000100 0.01675431
v -0.01860201 0.00199336 0.01175318
v -0.01717580 0.00475542 0.01567286
v -0.02146007 -0.00346990 0.00390073
v -0.02282042 -0.00650620 0.00016476
v -0.02176968 -0.00893855 0.00305164
v -0.02052250 -0.00496690 0.00647669
v -0.02048056 -0.01001009 0.00659346
v -0.01804404 0.00781707 0.01328735
v -0.01857699 -0.00154508 0.01182194
v -0.01684891 -0.00195090 0.01656980
v -0.01901662 -0.00367429 0.01061407
v -0.01804413 -0.00781701 0.01328733
v -0.01719046 -0.00482043 0.01563120
v -0.01920156 -0.00959846 0.01010711
v -0.01967494 -0.00475528 0.00880534
v -0.02191349 0.00000000 0.00265497
v -0.02352940 -0.00268315 -0.00179460
v -0.02182980 -0.00154508 0.00288493
v -0.02060045 0.00997557 0.00626406
v -0.02187592 0.00877251 0.00275973
v -0.02139017 0.00367429 0.00409279
v -0.02182980 0.00154508 0.00288493
v -0.02362672 0.00000078 -0.00204357
v -0.02262184 0.00707107 0.00070880
v -0.02326105 0.00457807 -0.00104588
v -0.00214846 -0.01230540 0.00458052
v -0.00327487 -0.01124826 0.00387997
v -0.00390822 -0.01228084 0.00306354
v -0.00190136 -0.01079430 0.00469550
v 0.00017450 -0.01230000 0.00499695
v 0.00004881 -0.01029135 0.00506988
v 0.00248436 -0.01230050 0.00440867
v 0.00176760 -0.01012822 0.00471692
v 0.00295150 -0.01024123 0.00409257
v 0.00414519 -0.01230000 0.00279596
v 0.00404387 -0.01058753 0.00302930
v 0.00480631 -0.01230000 0.00137819
v 0.00480798 -0.01105078 0.00161021
v 0.00497206 -0.01226388 -0.00038577
v 0.00507207 -0.01139203 0.00021399
v 0.00214846 -0.01230540 -0.00458052
v 0.00327487 -0.01124826 -0.00387997
v 0.00390822 -0.01228084 -0.00306354
v 0.00190136 -0.01079430 -0.00469550
v -0.00017450 -0.01230000 -0.00499695
v -0.00004881 -0.01029135 -0.00506988
v -0.00248436 -0.01230050 -0.00440867
v -0.00176760 -0.01012822 -0.00471692
v -0.00295150 -0.01024123 -0.00409257
v -0.00414519 -0.01230000 -0.00279596
v -0.00404387 -0.01058753 -0.00302930
v -0.00480631 -0.01230000 -0.00137819
v -0.00480798 -0.01105078 -0.00161021
v -0.00497206 -0.01226388 0.00038577
v -0.00507207 -0.01139203 -0.00021399
v -0.00189114 -0.01300000 0.00239159
v -0.00194802 -0.01300150 0.00388354
v -0.00385889 -0.01300125 0.00199695
v -0.00302835 -0.01300000 0.00035387
v -0.00429738 -0.01300000 0.00015007
v -0.00239159 -0.01300000 -0.00189114
v 0.00239159 -0.01300000 0.00189114
v 0.00388354 -0.01300150 0.00194802
v 0.00199695 -0.01300125 0.00385889
v 0.00035387 -0.01300000 0.00302835
v 0.00015007 -0.01300000 0.00429738
v 0.00189114 -0.01300000 -0.00239159
v 0.00194802 -0.01300150 -0.00388354
v 0.00385889 -0.01300125 -0.00199695
v 0.00302835 -0.01300000 -0.00035387
v 0.00429738 -0.01300000 -0.00015007
v -0.00388354 -0.01300150 -0.00194802
v -0.00199695 -0.01300125 -0.00385889
v -0.00035387 -0.01300000 -0.00302835
v -0.00015007 -0.01300000 -0.00429738
v 0.00299460 -0.00950000 -0.00057315
v 0.00171223 -0.00950000 -0.00252278
v -0.00057315 -0.00950000 -0.00299460
v -0.00252278 -0.00950000 -0.00171223
v -0.00299460 -0.00950000 0.00057315
v -0.00171223 -0.00950000 0.00252278
v 0.00057315 -0.00950000 0.00299460
v 0.00252278 -0.00950000 0.00171223
v 0.00271892 0.01300000 0.00126785
v 0.00398856 0.01300150 0.00172280
v 0.00299460 0.01300000 -0.00057315
v 0.00423970 0.01300125 -0.00095069
v 0.00171223 0.01300000 -0.00252278
v 0.00338845 0.01300000 -0.00264734
v -0.00171223 0.01300000 0.00252278
v -0.00172280 0.01300150 0.00398856
v -0.00013086 0.01300000 0.00299714
v 0.00095069 0.01300125 0.00423970
v 0.00167550 0.01300000 0.00254732
v 0.00264734 0.01300000 0.00338845
v -0.00252278 0.01300000 -0.00171223
v -0.00398856 0.01300150 -0.00172280
v -0.00299460 0.01300000 0.00057315
v -0.00423970 0.01300125 0.00095069
v -0.00338845 0.01300000 0.00264734
v 0.00172280 0.01300150 -0.00398856
v -0.00057315 0.01300000 -0.00299460
v -0.00095069 0.01300125 -0.00423970
v -0.00264734 0.01300000 -0.00338845
v 0.00109371 0.01056959 -0.00495044
v -0.00060759 0.01020296 -0.00500443
v -0.00017450 0.01230000 -0.00499695
v -0.00109371 0.01056959 0.00495044
v 0.00060759 0.01020296 0.00500443
v 0.00017450 0.01230000 0.00499695
v 0.00480631 0.01230000 0.00137819
v 0.00502572 0.01126469 0.00082895
v 0.00496484 0.01226381 -0.00019544
v 0.00367834 0.01230403 0.00347083
v 0.00438293 0.01075328 0.00252654
v 0.00326899 0.01029530 0.00386048
v 0.00171010 0.01230000 0.00469846
v 0.00194438 0.01012874 0.00465382
v -0.00137819 0.01230000 0.00480631
v -0.00279596 0.01230000 0.00414519
v -0.00400363 0.01227325 0.00293487
v -0.00405716 0.01138044 0.00315606
v -0.00284292 0.01109123 0.00420963
v -0.00480631 0.01230000 -0.00137819
v -0.00502572 0.01126469 -0.00082895
v -0.00496484 0.01226381 0.00019544
v -0.00367834 0.01230403 -0.00347083
v -0.00438293 0.01075328 -0.00252654
v -0.00326899 0.01029530 -0.00386048
v -0.00171010 0.01230000 -0.00469846
v -0.00194438 0.01012874 -0.00465382
v 0.00137819 0.01230000 -0.00480631
v 0.00279596 0.01230000 -0.00414519
v 0.00400363 0.01227325 -0.00293487
v 0.00405716 0.01138044 -0.00315606
v 0.00284292 0.01109123 -0.00420963
v -0.00302835 0.00950000 0.00035387
v -0.00239159 0.00950000 -0.00189114
v -0.00035387 0.00950000 -0.00302835
v 0.00189114 0.00950000 -0.00239159
v 0.00302835 0.00950000 -0.00035387
v 0.00239159 0.00950000 0.00189114
v 0.00035387 0.00950000 0.00302835
v -0.00189114 0.00950000 0.00239159
v 0.01746189 -0.00259507 -0.00465233
v 0.01793615 -0.00315879 -0.00335371
v 0.01710605 -0.00430917 -0.00563367
v 0.01691447 -0.00300000 -0.00615636
v 0.01630395 -0.00247181 -0.00783373
v 0.01620367 -0.00381319 -0.00811365
v 0.01752498 0.00247181 -0.00447899
v 0.01828885 0.00172014 -0.00237221
v 0.01794396 0.00048563 -0.00332786
v 0.01838515 -0.00000000 -0.00211568
v 0.01786242 -0.00114805 -0.00355187
v 0.01831317 -0.00132877 -0.00231345
v 0.01636705 0.00259507 -0.00766039
v 0.01589561 0.00315879 -0.00896005
v 0.01672524 0.00430917 -0.00667992
v 0.01691447 0.00300000 -0.00615636
v 0.01762809 0.00381319 -0.00420009
v 0.01553490 -0.00172014 -0.00993863
v 0.01588497 -0.00048563 -0.00898487
v 0.01544378 0.00000000 -0.01019704
v 0.01596651 0.00114805 -0.00876085
v 0.01551576 0.00132877 -0.00999928
v 0.01572823 0.00475528 -0.00736885
v 0.01525151 0.00404509 -0.00867864
v 0.01487318 0.00293893 -0.00971809
v 0.01463028 0.00154508 -0.01038545
v 0.01454658 0.00000000 -0.01061541
v 0.01463028 -0.00154508 -0.01038545
v 0.01487318 -0.00293893 -0.00971809
v 0.01525151 -0.00404509 -0.00867864
v 0.01572823 -0.00475528 -0.00736885
v 0.01625668 -0.00500000 -0.00591695
v 0.01678513 -0.00475528 -0.00446504
v 0.01726186 -0.00404509 -0.00315526
v 0.01764018 -0.00293893 -0.00211581
v 0.01788308 -0.00154508 -0.00144844
v 0.01796678 -0.00000000 -0.00121849
v 0.01788308 0.00154508 -0.00144844
v 0.01764018 0.00293893 -0.00211581
v 0.01726186 0.00404509 -0.00315526
v 0.01678513 0.00475528 -0.00446504
v 0.01625668 0.00500000 -0.00591695
v 0.01379164 0.00301003 -0.00450295
v 0.01323289 0.00277164 -0.00603811
v 0.01273798 0.00160056 -0.00739786
v 0.01261085 -0.00070322 -0.00774713
v 0.01307812 -0.00259507 -0.00646332
v 0.01362554 -0.00300000 -0.00495929
v 0.01423606 -0.00247181 -0.00328192
v 0.01457350 -0.00114805 -0.00235480
v 0.01464023 0.00070322 -0.00217146
v 0.01435108 0.00212132 -0.00296590
v -0.02195344 -0.00475528 0.00634615
v -0.02243016 -0.00404509 0.00503637
v -0.02280849 -0.00293893 0.00399692
v -0.02305139 -0.00154508 0.00332956
v -0.02313509 0.00000000 0.00309960
v -0.02305139 0.00154508 0.00332956
v -0.02280849 0.00293893 0.00399692
v -0.02243016 0.00404509 0.00503637
v -0.02195344 0.00475528 0.00634615
v -0.02142499 0.00500000 0.00779806
v -0.02089654 0.00475528 0.00924996
v -0.02041982 0.00404509 0.01055975
v -0.02004149 0.00293893 0.01159920
v -0.01979859 0.00154508 0.01226656
v -0.01971489 -0.00000000 0.01249652
v -0.01979859 -0.00154508 0.01226656
v -0.02004149 -0.00293893 0.01159920
v -0.02041982 -0.00404509 0.01055975
v -0.02089654 -0.00475528 0.00924996
v -0.02142499 -0.00500000 0.00779806
v -0.02123737 0.00178502 0.01036021
v -0.02106392 0.00315879 0.01084116
v -0.02191668 0.00301003 0.00849382
v -0.02189355 0.00430917 0.00856103
v -0.02269329 0.00247181 0.00636010
v -0.02279640 0.00381319 0.00608121
v -0.02147226 -0.00247181 0.00971484
v -0.02100382 -0.00298308 0.01100628
v -0.02105328 -0.00048563 0.01086598
v -0.02061740 -0.00001508 0.01208043
v -0.02068407 0.00132877 0.01188039
v -0.02292819 -0.00178502 0.00571473
v -0.02310446 -0.00315878 0.00523481
v -0.02224887 -0.00301003 0.00758113
v -0.02227436 -0.00430917 0.00751478
v -0.02162831 -0.00408954 0.00928611
v -0.02345716 0.00172014 0.00425332
v -0.02311227 0.00048563 0.00520897
v -0.02355346 0.00000000 0.00399679
v -0.02348148 -0.00132877 0.00419456
v -0.01903437 -0.00296675 0.00617959
v -0.01968142 -0.00160056 0.00440184
v -0.01980854 0.00070323 0.00405257
v -0.01934128 0.00259507 0.00533637
v -0.01855334 0.00296675 0.00750122
v -0.01790629 0.00160056 0.00927897
v -0.01777916 -0.00070323 0.00962824
v -0.01824643 -0.00259507 0.00834444
v -0.01552944 0.00122305 -0.00524441
v -0.01452879 0.00000000 -0.00263902
v -0.01540128 0.00000000 -0.00503617
v -0.01539278 -0.00109209 -0.00497431
v -0.01307086 -0.00408695 -0.00526587
v 0.00218518 -0.00603199 -0.00940013
v 0.00228077 -0.00310958 -0.00315554
v -0.01329898 0.00405915 -0.00522909
v 0.00252829 0.00312522 -0.00323399
v 0.00219529 0.00602541 -0.00938649
v 0.00497688 0.00198363 -0.00772748
v 0.00506151 0.00419180 -0.01235107
v 0.00500000 0.00000000 -0.00798918
v 0.00500000 0.00000000 -0.01282560
v 0.00499890 -0.00062276 -0.00793261
v 0.00508236 -0.00213934 -0.01308129
v 0.00501333 -0.00466375 -0.01205061
v 0.00510328 -0.00120962 -0.00672056
v 0.01143510 -0.00777817 -0.01243940
v 0.00308323 -0.00746714 -0.00972735
v 0.00489220 -0.00617448 -0.01145206
v 0.01096722 -0.00611127 -0.01372489
v -0.02239187 -0.00611127 -0.00158317
v -0.02273954 -0.00420952 -0.00253838
v -0.01455844 -0.00483779 -0.00522053
v -0.00524981 -0.00618917 -0.00772876
v -0.02192399 -0.00777817 -0.00029768
v -0.01663442 -0.00199313 -0.00548866
v -0.02302592 0.00000000 -0.00332521
v -0.01668300 0.00000000 -0.00563384
v -0.02295363 -0.00214599 -0.00312659
v -0.00534424 -0.01097239 0.00287789
v -0.01968914 -0.01096430 0.00590680
v -0.00550351 -0.01103301 0.00106890
v -0.00555705 -0.01080219 -0.00053156
v -0.02070344 -0.01016267 0.00305576
v -0.00477456 -0.00999341 -0.00318621
v 0.01200521 -0.00914617 -0.01087302
v 0.00059643 -0.00994555 -0.00532740
v -0.00128562 -0.00968643 -0.00516744
v -0.02135388 -0.00914617 0.00126870
v 0.00370213 -0.01075485 -0.00412214
v 0.00227887 -0.01036462 -0.00493457
v 0.01265565 -0.01016267 -0.00908596
v 0.01454252 -0.01096032 -0.00396667
v 0.00584784 -0.01100411 -0.00130435
v 0.01336142 -0.01078864 -0.00714688
v 0.00491926 -0.01106540 -0.00268243
v 0.01047147 -0.00317476 -0.01508207
v 0.00566412 -0.00207558 -0.01355725
v 0.00565798 0.00000000 -0.01376529
v 0.01033317 0.00000000 -0.01546692
v 0.00542756 -0.00451292 -0.01261954
v -0.01600949 -0.00562459 0.01591889
v -0.01160085 -0.00423373 0.01503013
v -0.01563859 -0.00309194 0.01696034
v 0.01772111 -0.00313056 0.00479904
v 0.01785752 -0.00031382 0.00520637
v 0.01692403 -0.00193009 0.00533941
v 0.01349712 -0.00419294 0.00591223
v 0.01734252 -0.00556988 0.00380673
v 0.01560892 -0.01008122 -0.00099585
v 0.00472018 -0.00998246 0.00323422
v 0.00542835 -0.01063377 0.00122902
v -0.00056087 -0.00993845 0.00532465
v 0.00127221 -0.00969517 0.00516361
v -0.01709467 -0.00895690 0.01301218
v 0.01656484 -0.00837783 0.00169635
v -0.01777111 -0.01008840 0.01113640
v -0.00215961 -0.01032481 0.00499539
v -0.01850558 -0.01077268 0.00910852
v -0.00372367 -0.01075102 0.00412196
v -0.01469475 -0.00211871 0.01682790
v -0.01550104 -0.00000053 0.01735044
v -0.01652886 -0.00756330 0.01453346
v 0.00583229 0.01102198 -0.00155139
v 0.01370020 0.01096356 -0.00627267
v 0.00468355 0.01101273 -0.00305488
v 0.01265565 0.01016267 -0.00908596
v 0.00351416 0.01071029 -0.00425620
v -0.02070344 0.01016267 0.00305576
v -0.00454344 0.01017732 -0.00292338
v -0.02135388 0.00914617 0.00126870
v -0.00328978 0.00981002 -0.00419037
v -0.00128567 0.00968173 -0.00516827
v 0.01200521 0.00914617 -0.01087302
v 0.00155748 0.01015573 -0.00521384
v -0.00545988 0.01069159 -0.00105684
v -0.01968245 0.01095093 0.00599986
v -0.00539523 0.01099833 0.00269204
v -0.00555844 0.01097956 0.00031680
v -0.01664406 0.00176062 -0.00551986
v -0.02289444 0.00322712 -0.00288484
v -0.01533232 0.00386256 -0.00534296
v -0.02226353 0.00677266 -0.00119740
v -0.01386720 0.00488520 -0.00540277
v 0.01096722 0.00611127 -0.01372489
v 0.00507541 0.00592523 -0.01170025
v 0.01143510 0.00777817 -0.01243940
v 0.00301864 0.00746805 -0.00970245
v -0.00455945 0.00626143 -0.00791520
v 0.00534570 0.00455190 -0.01255221
v 0.01042688 0.00278682 -0.01520022
v 0.00566539 0.00227796 -0.01351423
v -0.01850406 0.01077227 0.00911062
v -0.00160044 0.01016520 0.00520947
v -0.00372020 0.01074907 0.00412583
v -0.01776981 0.01008765 0.01113877
v 0.00335409 0.00982151 0.00414141
v 0.00128518 0.00968758 0.00516313
v 0.01652809 0.00848653 0.00156181
v -0.01676916 0.00838532 0.01382106
v 0.00557400 0.01078101 0.00060559
v 0.00454584 0.01016978 0.00293314
v 0.01560831 0.01008208 -0.00099892
v 0.01486226 0.01077303 -0.00303678
v 0.01771344 0.00309193 0.00482120
v 0.01337962 0.00423374 0.00593798
v 0.01690530 0.00211870 0.00532643
v 0.01785883 0.00000053 0.00520844
v 0.01732814 0.00562459 0.00378499
v -0.01565870 0.00313056 0.01694830
v -0.01550137 0.00031383 0.01734802
v -0.01470075 0.00193010 0.01684989
v -0.01170739 0.00419294 0.01508593
v -0.01600653 0.00556988 0.01594479
v -0.02061209 -0.00000000 0.01207815
v -0.00467858 0.01227928 0.00171985
v 0.00467858 0.01227928 -0.00171985
v 0.00465303 -0.01228673 -0.00176457
v -0.00465303 -0.01228673 0.00176457
v 0.01845528 -0.00000000 0.00392460
v 0.01785761 -0.00000000 0.00520632
v -0.02362359 0.00000000 -0.00204349
v -0.01550148 -0.00000000 0.01734803
v -0.01678319 -0.00000000 0.01675036
v 0.00496894 0.01151432 -0.00143177
v 0.00533660 0.01113394 -0.00135998
v -0.00496894 0.01151432 0.00143177
v -0.00533660 0.01113394 0.00135998
v -0.00469714 0.01108233 0.00288594
v 0.00519926 0.01064318 0.00151301
v 0.00501312 -0.01147703 -0.00123655
v 0.00435697 -0.01145391 -0.00273577
v -0.00486656 -0.01112803 0.00259552
v -0.00501312 -0.01147703 0.00123655
v -0.00515222 -0.01060573 -0.00164992
v -0.00384841 -0.00998625 -0.00372158
v -0.00435697 -0.01145391 0.00273577
v 0.00551379 -0.01104979 -0.00043880
v 0.00384842 -0.00998632 0.00372157
v -0.01259987 -0.00283298 -0.00274515
v -0.01387304 -0.00380215 -0.00512866
v -0.01348323 -0.00228749 -0.00258566
v -0.01491847 -0.00298119 -0.00510631
v -0.01417372 -0.00110502 -0.00227282
v -0.01550363 -0.00177784 -0.00523973
v -0.01444524 -0.00076594 -0.00265619
v -0.01504658 -0.00056280 0.01689000
v -0.01130917 -0.00000000 0.00877590
v -0.01510134 -0.00000000 0.01690821
v -0.01110161 -0.00105354 0.00872904
v -0.01454348 -0.00162152 0.01665179
v -0.01362822 -0.00221992 0.01590087
v -0.01003395 -0.00213255 0.00796968
v -0.01195344 -0.00288135 0.01483888
v -0.00892844 -0.00274227 0.00774616
v -0.01013295 -0.00215821 0.00680775
v -0.01101518 -0.00102173 0.00654116
v -0.01120902 -0.00000000 0.00648198
v -0.00893164 0.00274087 0.00773113
v -0.01002699 0.00213494 0.00799369
v -0.01190352 0.00290948 0.01484173
v -0.01352228 0.00228270 0.01584521
v -0.01109104 0.00105292 0.00870885
v -0.01499046 0.00095748 0.01690519
v -0.01442414 0.00095920 -0.00266060
v -0.01254541 0.00000000 0.00281026
v -0.01013192 0.00216607 0.00681240
v -0.01345896 0.00235458 -0.00263595
v -0.01141675 -0.00000000 0.00591125
v -0.01105706 0.00093422 0.00652287
v -0.01257278 0.00269530 -0.00208283
v -0.01415519 0.00365756 -0.00511642
v -0.01461382 0.00302879 -0.00486991
v -0.01520404 0.00254168 -0.00514423
v 0.00355672 0.00314433 -0.00411328
v 0.00303313 0.00604587 -0.00982102
v 0.00400392 0.00576144 -0.01057607
v 0.00439018 0.00276944 -0.00500882
v 0.00488210 0.00215648 -0.00586373
v 0.00475215 0.00509121 -0.01145269
v 0.01721472 0.00056281 0.00514785
v 0.00913606 -0.00000000 0.00133444
v 0.01726837 -0.00000000 0.00512660
v 0.00897977 0.00102431 0.00143162
v 0.01667621 0.00162151 0.00528875
v 0.01549240 0.00221991 0.00530183
v 0.00764096 0.00213256 0.00153655
v 0.01352680 0.00288135 0.00556483
v 0.00666235 0.00272850 0.00204414
v 0.00433515 0.00282731 -0.00356161
v 0.00696357 0.00214617 0.00054378
v 0.00505191 0.00224488 -0.00447787
v 0.00512899 0.00139129 -0.00636433
v 0.00748694 0.00096885 -0.00022279
v 0.00758483 -0.00000000 -0.00035842
v 0.00518604 0.00000040 -0.00696421
v 0.00664285 -0.00273441 0.00204295
v 0.00819372 -0.00214196 0.00187300
v 0.01349040 -0.00290948 0.00559909
v 0.01537546 -0.00228270 0.00532729
v 0.00898073 -0.00101664 0.00143075
v 0.01718149 -0.00095748 0.00519556
v 0.00624844 0.00000000 -0.00403014
v 0.00518092 0.00000000 -0.00696312
v 0.00510770 -0.00163825 -0.00601839
v 0.00720456 -0.00216255 0.00111259
v 0.00517670 -0.00207018 -0.00465038
v 0.00737710 -0.00000000 -0.00092915
v 0.00749471 -0.00093421 -0.00022942
v 0.00421412 -0.00283729 -0.00424821
v 0.00475538 -0.00518642 -0.01157069
v 0.00468693 -0.00270957 -0.00622550
v 0.00414198 -0.00566312 -0.01068959
v 0.00382105 -0.00333900 -0.00515015
v 0.00320097 -0.00600857 -0.00991956
v 0.00319446 -0.00318479 -0.00384175
v 0.00473794 -0.00242332 -0.00523815
v 0.00496622 -0.00000031 -0.00798579
v 0.00497930 -0.00000021 -0.00798691
v -0.01054378 -0.00155459 0.00766706
v -0.01108984 -0.00000763 0.00764029
v -0.01054318 0.00155459 0.00765331
v -0.01108949 0.00000763 0.00763238
v 0.00782769 -0.00155459 0.00096686
v 0.00823273 -0.00000763 0.00059966
v 0.00783699 0.00155459 0.00097701
v 0.00823809 0.00000763 0.00060550
v -0.01334518 0.00452382 -0.00549754
v -0.01468259 0.00383722 -0.00530914
v -0.01595561 0.00220182 -0.00551759
v -0.01668772 -0.00000055 -0.00566787
v -0.01577409 0.00000006 -0.00553755
v 0.00298686 0.00705853 -0.00994022
v 0.00257073 0.00659681 -0.00980384
v -0.01669092 -0.00000059 -0.00569056
v -0.01597136 -0.00219265 -0.00551961
v -0.01571758 0.00000013 -0.00549770
v 0.00427882 0.00608768 -0.01097372
v -0.01522444 -0.00360400 -0.00538129
v -0.01372916 -0.00459303 -0.00545556
v 0.00517938 0.00217769 -0.01318863
v 0.00516167 0.00000001 -0.01340673
v 0.00236059 -0.00657383 -0.00975801
v 0.00274460 -0.00705918 -0.00984505
v 0.00519939 -0.00000015 -0.01345251
v 0.00361080 -0.00642829 -0.01040095
v 0.01345321 0.00384034 0.00598652
v 0.01424132 0.00314075 0.00572972
v 0.01213766 0.00345976 0.00625498
v -0.01158993 0.00382568 0.01509916
v -0.01036516 0.00345714 0.01443306
v 0.01725920 0.00000022 0.00516024
v -0.01234130 0.00317349 0.01540328
v 0.01418671 -0.00317349 0.00574787
v 0.01204925 -0.00345714 0.00627488
v 0.01341565 -0.00382568 0.00599788
v -0.01507268 -0.00000022 0.01692809
v -0.01162601 -0.00384034 0.01511461
v -0.01044568 -0.00345976 0.01447465
v -0.01239481 -0.00314075 0.01542448
f 1 2 3
f 3 2 4
f 5 6 3
f 6 7 3
f 3 7 8
f 3 8 1
f 8 9 1
f 1 9 10
f 1 10 11
f 10 12 11
f 11 12 13
f 11 13 5
f 5 13 14
f 5 14 6
f 15 16 17
f 18 15 17
f 18 17 19
f 19 17 20
f 21 22 23
f 23 24 21
f 21 24 25
f 21 25 20
f 20 25 19
f 22 26 27
f 22 27 23
f 18 28 15
f 15 28 26
f 15 26 22
f 10 29 12
f 12 29 30
f 12 30 13
f 13 30 31
f 13 31 14
f 14 31 32
f 14 32 6
f 6 32 33
f 6 33 7
f 7 33 34
f 7 34 8
f 8 34 35
f 8 35 9
f 9 35 36
f 9 36 10
f 10 36 29
f 37 38 39
f 40 41 42
f 40 42 43
f 41 40 38
f 38 40 39
f 37 39 44
f 37 44 45
f 45 44 46
f 45 46 47
f 47 46 48
f 48 46 49
f 49 50 48
f 43 42 51
f 43 51 49
f 49 51 50
f 52 53 54
f 52 54 55
f 53 52 56
f 56 52 57
f 57 58 56
f 58 57 59
f 59 57 60
f 59 60 61
f 61 60 62
f 61 62 63
f 63 62 64
f 64 65 63
f 55 54 66
f 55 66 64
f 64 66 65
f 67 25 68
f 68 25 24
f 68 24 69
f 69 24 23
f 69 23 70
f 70 23 27
f 70 27 71
f 71 27 26
f 71 26 72
f 72 26 28
f 72 28 73
f 73 28 18
f 73 18 74
f 74 18 19
f 74 19 67
f 67 19 25
f 75 76 77
f 78 79 80
f 80 79 81
f 80 81 82
f 82 81 83
f 82 83 76
f 76 83 77
f 84 85 78
f 78 85 79
f 86 87 88
f 89 90 86
f 91 92 93
f 93 92 94
f 93 94 89
f 89 94 90
f 77 95 75
f 75 95 96
f 75 96 97
f 87 98 88
f 88 98 84
f 84 98 99
f 84 99 85
f 90 100 86
f 86 100 87
f 101 102 91
f 91 102 103
f 91 103 92
f 97 96 104
f 97 104 101
f 101 104 102
f 105 106 107
f 108 109 110
f 110 109 111
f 112 113 114
f 112 114 115
f 115 114 116
f 110 111 117
f 110 117 106
f 106 117 107
f 118 119 108
f 108 119 109
f 120 121 122
f 120 122 118
f 118 122 119
f 115 116 123
f 115 123 124
f 124 123 120
f 120 123 121
f 125 126 127
f 127 126 112
f 112 126 113
f 107 128 105
f 105 128 129
f 105 129 130
f 131 132 125
f 125 132 126
f 130 129 133
f 130 133 134
f 130 134 131
f 131 134 132
f 135 136 137
f 136 135 138
f 139 140 135
f 135 140 138
f 141 142 140
f 141 140 139
f 141 143 142
f 144 145 141
f 141 145 143
f 146 147 144
f 144 147 145
f 148 149 146
f 146 149 147
f 150 151 152
f 151 150 153
f 154 155 150
f 150 155 153
f 156 157 155
f 156 155 154
f 156 158 157
f 159 160 156
f 156 160 158
f 161 162 159
f 159 162 160
f 163 164 161
f 161 164 162
f 165 166 167
f 165 167 168
f 168 167 169
f 168 169 170
f 171 172 173
f 171 173 174
f 174 173 175
f 174 175 165
f 165 175 166
f 176 177 178
f 176 178 179
f 179 178 180
f 179 180 171
f 171 180 172
f 169 181 170
f 170 181 182
f 170 182 183
f 183 182 184
f 183 184 176
f 176 184 177
f 179 185 176
f 176 185 186
f 176 186 183
f 183 186 187
f 183 187 170
f 170 187 188
f 170 188 168
f 168 188 189
f 168 189 165
f 165 189 190
f 165 190 174
f 174 190 191
f 174 191 171
f 171 191 192
f 171 192 179
f 179 192 185
f 34 192 35
f 35 192 191
f 35 191 36
f 30 188 31
f 31 188 187
f 31 187 32
f 187 186 32
f 32 186 33
f 33 186 185
f 33 185 34
f 34 185 192
f 191 190 36
f 36 190 29
f 29 190 189
f 29 189 30
f 30 189 188
f 193 194 195
f 195 194 196
f 195 196 197
f 197 196 198
f 199 200 201
f 201 200 202
f 201 202 203
f 203 202 204
f 203 204 193
f 193 204 194
f 205 206 207
f 207 206 208
f 207 208 199
f 199 208 209
f 199 209 200
f 198 210 197
f 197 210 211
f 211 210 212
f 211 212 205
f 205 212 213
f 205 213 206
f 214 215 216
f 217 218 219
f 220 221 222
f 223 224 220
f 220 224 221
f 223 225 224
f 226 227 225
f 226 225 223
f 219 218 226
f 226 218 227
f 228 217 219
f 229 230 231
f 231 232 229
f 229 232 228
f 228 232 217
f 233 234 235
f 236 237 233
f 233 237 234
f 236 238 237
f 239 240 238
f 239 238 236
f 216 215 239
f 239 215 240
f 241 214 216
f 242 243 244
f 244 245 242
f 242 245 241
f 241 245 214
f 207 246 205
f 205 246 247
f 205 247 211
f 211 247 248
f 211 248 197
f 197 248 249
f 197 249 195
f 195 249 250
f 195 250 193
f 193 250 251
f 193 251 203
f 203 251 252
f 203 252 201
f 201 252 199
f 199 252 253
f 199 253 207
f 207 253 246
f 69 248 68
f 74 253 73
f 73 253 252
f 73 252 72
f 248 247 68
f 68 247 67
f 67 247 246
f 67 246 74
f 74 246 253
f 252 251 72
f 72 251 71
f 71 251 250
f 71 250 70
f 70 250 249
f 70 249 69
f 69 249 248
f 254 255 256
f 254 256 257
f 257 256 258
f 258 256 259
f 260 261 262
f 262 261 263
f 262 263 264
f 264 263 265
f 264 265 254
f 254 265 255
f 266 267 268
f 266 268 269
f 269 268 260
f 260 268 270
f 260 270 261
f 258 259 271
f 258 271 272
f 272 271 273
f 272 273 274
f 274 273 275
f 274 275 266
f 266 275 267
f 86 276 277
f 86 277 89
f 89 277 278
f 89 278 279
f 89 279 93
f 93 279 280
f 93 280 91
f 91 280 281
f 91 281 101
f 101 281 282
f 101 282 97
f 97 282 283
f 97 283 284
f 97 284 75
f 75 284 285
f 75 285 286
f 75 286 76
f 76 286 287
f 76 287 82
f 82 287 288
f 82 288 289
f 82 289 80
f 80 289 290
f 80 290 78
f 78 290 291
f 78 291 84
f 84 291 292
f 84 292 293
f 84 293 88
f 88 293 294
f 88 294 295
f 88 295 86
f 86 295 276
f 269 296 266
f 266 296 297
f 266 297 298
f 266 298 274
f 274 298 272
f 272 298 299
f 272 299 258
f 258 299 300
f 258 300 257
f 257 300 301
f 257 301 254
f 254 301 302
f 254 302 264
f 264 302 303
f 264 303 262
f 262 303 304
f 262 304 260
f 260 304 305
f 260 305 296
f 260 296 269
f 64 304 55
f 55 304 303
f 55 303 52
f 62 297 296
f 62 296 64
f 64 296 305
f 64 305 304
f 57 299 60
f 60 299 298
f 60 298 62
f 62 298 297
f 303 302 52
f 52 302 301
f 52 301 57
f 57 301 300
f 57 300 299
f 115 306 307
f 115 307 112
f 112 307 308
f 112 308 309
f 112 309 127
f 127 309 310
f 127 310 125
f 125 310 311
f 125 311 131
f 131 311 312
f 131 312 130
f 130 312 313
f 130 313 314
f 130 314 105
f 105 314 315
f 105 315 316
f 105 316 106
f 106 316 317
f 106 317 318
f 106 318 110
f 110 318 319
f 110 319 320
f 110 320 108
f 108 320 321
f 108 321 118
f 118 321 322
f 118 322 120
f 120 322 323
f 120 323 324
f 120 324 124
f 124 324 325
f 124 325 115
f 115 325 306
f 326 327 328
f 328 327 329
f 328 329 330
f 330 329 331
f 332 333 334
f 334 333 335
f 334 335 326
f 326 335 336
f 326 336 327
f 337 338 339
f 339 338 340
f 339 340 332
f 332 340 341
f 332 341 333
f 330 331 342
f 330 342 343
f 343 342 344
f 343 344 337
f 337 344 345
f 337 345 338
f 339 346 337
f 337 346 347
f 337 347 343
f 343 347 348
f 343 348 330
f 330 348 349
f 330 349 328
f 328 349 350
f 328 350 326
f 326 350 351
f 326 351 334
f 334 351 352
f 334 352 332
f 332 352 353
f 332 353 339
f 339 353 346
f 44 351 46
f 46 351 350
f 46 350 49
f 39 353 352
f 39 352 44
f 44 352 351
f 40 346 39
f 39 346 353
f 350 349 49
f 49 349 348
f 49 348 43
f 43 348 347
f 43 347 40
f 40 347 346
f 354 355 356
f 356 355 357
f 358 11 359
f 359 11 360
f 21 361 362
f 362 361 363
f 364 365 366
f 366 365 367
f 366 367 368
f 368 367 369
f 368 369 370
f 368 370 371
f 372 373 374
f 372 374 375
f 376 377 378
f 378 379 376
f 376 379 380
f 380 379 373
f 377 381 378
f 382 383 384
f 384 383 381
f 384 381 377
f 385 386 387
f 387 386 388
f 389 390 388
f 389 388 386
f 391 392 393
f 394 393 390
f 394 390 389
f 395 396 397
f 397 396 391
f 391 396 392
f 398 399 400
f 400 399 401
f 400 401 395
f 400 395 397
f 402 403 404
f 402 404 405
f 375 374 406
f 375 406 402
f 402 406 403
f 373 372 380
f 380 372 391
f 380 391 394
f 394 391 393
f 407 408 409
f 410 411 412
f 410 412 413
f 410 413 414
f 415 416 417
f 415 417 398
f 398 417 399
f 418 419 420
f 419 416 421
f 416 415 421
f 422 423 420
f 420 423 418
f 386 385 424
f 385 425 424
f 424 425 422
f 422 425 423
f 409 408 426
f 409 426 427
f 420 419 421
f 420 421 428
f 428 421 407
f 407 421 414
f 407 414 408
f 408 414 413
f 429 430 431
f 432 433 430
f 430 433 431
f 434 435 436
f 435 437 436
f 436 437 438
f 439 438 440
f 439 440 432
f 432 440 433
f 434 441 435
f 442 443 444
f 444 441 442
f 442 441 434
f 383 382 445
f 445 382 446
f 447 445 446
f 448 449 446
f 446 449 447
f 450 451 452
f 451 453 452
f 453 454 448
f 448 454 449
f 455 451 450
f 450 456 455
f 455 456 457
f 457 456 405
f 457 405 404
f 453 448 452
f 452 448 436
f 452 436 439
f 439 436 438
f 458 443 442
f 459 460 461
f 461 460 458
f 458 460 443
f 462 463 464
f 465 463 459
f 459 461 465
f 466 467 468
f 468 467 464
f 464 467 462
f 429 469 430
f 469 429 466
f 469 466 468
f 470 471 472
f 470 472 473
f 471 470 474
f 475 476 477
f 475 477 478
f 475 478 479
f 464 463 465
f 464 465 474
f 474 465 479
f 474 479 471
f 471 479 478
f 325 340 306
f 306 340 338
f 306 338 307
f 307 338 308
f 308 338 345
f 308 345 309
f 309 345 344
f 309 344 310
f 310 344 342
f 310 342 311
f 311 342 312
f 312 342 331
f 312 331 313
f 313 331 314
f 314 331 329
f 314 329 315
f 315 329 316
f 316 329 327
f 316 327 317
f 317 327 318
f 318 327 336
f 318 336 319
f 319 336 480
f 319 480 320
f 320 480 335
f 320 335 321
f 321 335 333
f 321 333 322
f 322 333 323
f 323 333 341
f 323 341 324
f 324 341 340
f 324 340 325
f 481 208 235
f 235 208 206
f 235 206 233
f 233 206 236
f 236 206 213
f 236 213 212
f 236 212 239
f 239 212 216
f 216 212 210
f 216 210 241
f 241 210 242
f 242 210 198
f 242 198 243
f 243 198 196
f 243 196 482
f 482 196 222
f 222 196 194
f 222 194 220
f 220 194 223
f 223 194 204
f 223 204 202
f 223 202 226
f 226 202 219
f 219 202 200
f 219 200 228
f 228 200 229
f 229 200 209
f 229 209 230
f 230 209 208
f 230 208 481
f 483 178 152
f 152 178 177
f 152 177 150
f 150 177 184
f 150 184 154
f 154 184 182
f 154 182 156
f 156 182 181
f 156 181 159
f 159 181 161
f 161 181 169
f 161 169 163
f 163 169 167
f 163 167 484
f 484 167 137
f 137 167 166
f 137 166 135
f 135 166 175
f 135 175 139
f 139 175 173
f 139 173 141
f 141 173 172
f 141 172 144
f 144 172 146
f 146 172 180
f 146 180 148
f 148 180 178
f 148 178 483
f 295 268 276
f 276 268 267
f 276 267 277
f 277 267 278
f 278 267 275
f 278 275 279
f 279 275 273
f 279 273 280
f 280 273 271
f 280 271 281
f 281 271 282
f 282 271 259
f 282 259 283
f 283 259 284
f 284 259 256
f 284 256 285
f 285 256 286
f 286 256 255
f 286 255 287
f 287 255 288
f 288 255 265
f 288 265 289
f 289 265 263
f 289 263 290
f 290 263 261
f 290 261 291
f 291 261 292
f 292 261 270
f 292 270 293
f 293 270 294
f 294 270 268
f 294 268 295
f 103 405 456
f 103 456 92
f 92 456 94
f 94 456 450
f 94 450 452
f 94 452 90
f 90 452 439
f 90 439 432
f 90 432 100
f 100 432 430
f 100 430 87
f 87 430 469
f 469 468 87
f 87 468 98
f 468 464 98
f 98 464 99
f 464 474 99
f 99 474 470
f 99 470 85
f 85 470 473
f 85 473 485
f 95 398 400
f 95 400 397
f 95 397 96
f 96 397 391
f 96 391 372
f 96 372 104
f 104 372 375
f 104 375 402
f 104 402 102
f 102 402 405
f 102 405 103
f 79 486 411
f 411 410 79
f 79 410 81
f 81 410 414
f 81 414 421
f 81 421 83
f 83 421 415
f 83 415 77
f 77 415 398
f 77 398 95
f 128 442 434
f 128 434 129
f 129 434 436
f 129 436 448
f 129 448 133
f 133 448 134
f 134 448 446
f 134 446 132
f 132 446 382
f 487 382 384
f 487 384 126
f 126 384 377
f 126 377 376
f 126 376 113
f 113 376 380
f 113 380 394
f 113 394 114
f 114 394 389
f 114 389 386
f 114 386 116
f 109 488 476
f 476 475 109
f 109 475 111
f 111 475 479
f 111 479 465
f 111 465 117
f 117 465 461
f 117 461 107
f 107 461 458
f 107 458 442
f 107 442 128
f 116 386 424
f 116 424 123
f 424 422 123
f 123 422 121
f 422 420 121
f 420 428 121
f 121 428 122
f 428 407 122
f 122 407 409
f 122 409 119
f 119 409 427
f 119 427 489
f 490 491 431
f 492 481 235
f 492 235 234
f 443 493 444
f 244 243 482
f 244 482 490
f 490 431 244
f 244 431 433
f 244 433 245
f 245 433 440
f 245 440 214
f 214 440 215
f 215 440 438
f 215 438 240
f 240 438 437
f 240 437 238
f 238 437 435
f 238 435 237
f 237 435 441
f 237 441 234
f 234 441 444
f 234 444 492
f 492 444 493
f 429 431 491
f 492 493 494
f 490 482 222
f 490 222 221
f 429 491 466
f 466 495 467
f 231 230 481
f 231 481 492
f 492 494 231
f 231 494 460
f 231 460 232
f 232 460 459
f 232 459 217
f 217 459 218
f 218 459 463
f 218 463 227
f 227 463 462
f 227 462 225
f 225 462 467
f 225 467 224
f 224 467 495
f 224 495 221
f 221 495 466
f 221 466 490
f 490 466 491
f 460 494 443
f 443 494 493
f 401 496 497
f 498 385 387
f 499 498 387
f 484 499 163
f 499 164 163
f 500 388 390
f 500 390 501
f 501 390 393
f 401 497 395
f 395 497 151
f 395 151 396
f 396 151 153
f 396 153 392
f 392 153 155
f 392 155 393
f 393 155 157
f 393 157 501
f 501 157 158
f 501 158 160
f 501 160 500
f 500 160 162
f 500 162 388
f 388 162 164
f 388 164 387
f 387 164 499
f 151 497 152
f 152 497 483
f 483 497 496
f 498 499 502
f 496 401 503
f 483 496 148
f 401 399 503
f 503 399 417
f 496 149 148
f 417 416 504
f 504 416 419
f 425 385 498
f 498 502 425
f 425 502 136
f 425 136 423
f 423 136 138
f 423 138 418
f 418 138 140
f 418 140 419
f 419 140 142
f 419 142 504
f 504 142 143
f 504 143 145
f 504 145 417
f 417 145 147
f 417 147 503
f 503 147 149
f 503 149 496
f 136 502 137
f 137 502 484
f 484 502 499
f 11 358 505
f 505 358 506
f 505 506 507
f 507 506 508
f 508 509 507
f 509 508 510
f 510 357 509
f 509 357 511
f 511 357 355
f 512 513 514
f 513 512 515
f 515 512 516
f 516 517 515
f 515 517 518
f 519 520 518
f 519 518 517
f 520 519 2
f 520 2 1
f 1 11 520
f 521 505 507
f 520 11 505
f 520 505 521
f 41 507 42
f 507 41 521
f 521 41 38
f 38 522 521
f 37 523 522
f 37 522 38
f 51 509 355
f 507 509 42
f 42 509 51
f 17 524 20
f 525 526 527
f 524 17 526
f 524 526 525
f 525 527 528
f 528 527 529
f 528 529 513
f 513 529 514
f 530 50 531
f 530 531 355
f 47 48 532
f 50 530 533
f 50 533 48
f 523 534 535
f 535 534 45
f 47 532 535
f 47 535 45
f 536 532 533
f 533 532 48
f 21 524 536
f 536 524 532
f 524 21 20
f 21 533 537
f 354 530 355
f 538 533 539
f 539 533 530
f 539 530 354
f 533 538 537
f 361 21 537
f 540 363 541
f 362 363 540
f 541 542 543
f 541 543 540
f 542 544 543
f 542 545 544
f 364 544 545
f 365 364 545
f 546 547 548
f 547 546 549
f 549 546 550
f 550 551 549
f 549 551 552
f 553 554 552
f 553 552 551
f 554 553 16
f 554 16 15
f 15 22 554
f 554 22 555
f 556 555 557
f 554 555 556
f 61 557 558
f 557 61 63
f 557 63 556
f 63 559 556
f 66 560 559
f 66 559 65
f 65 559 63
f 561 59 558
f 61 558 59
f 4 562 3
f 563 564 565
f 562 4 564
f 562 564 563
f 563 565 566
f 566 565 567
f 566 567 547
f 547 567 548
f 568 569 371
f 568 371 58
f 58 371 570
f 571 53 56
f 58 570 572
f 572 56 58
f 560 573 574
f 574 573 54
f 53 571 574
f 53 574 54
f 56 572 571
f 572 575 571
f 571 575 562
f 575 5 562
f 562 5 3
f 370 576 371
f 371 576 577
f 578 577 576
f 578 579 577
f 580 579 578
f 580 581 579
f 580 359 581
f 581 359 360
f 355 509 511
f 360 11 5
f 360 5 581
f 570 371 577
f 570 577 582
f 572 570 582
f 572 582 575
f 582 577 579
f 582 579 575
f 575 579 581
f 575 581 5
f 583 368 371
f 569 583 371
f 558 364 584
f 558 584 561
f 544 364 558
f 544 557 543
f 543 557 555
f 543 555 540
f 558 557 544
f 540 555 22
f 540 22 362
f 21 362 22
f 21 536 533
f 520 521 518
f 518 521 585
f 518 585 515
f 585 521 522
f 585 522 586
f 586 522 523
f 515 585 586
f 515 586 513
f 524 525 532
f 532 525 587
f 532 587 535
f 587 525 528
f 587 528 588
f 588 528 513
f 535 587 588
f 535 588 523
f 562 563 571
f 571 563 589
f 571 589 574
f 589 563 566
f 589 566 590
f 590 566 547
f 574 589 590
f 574 590 560
f 554 556 552
f 552 556 591
f 552 591 549
f 591 556 559
f 591 559 592
f 592 559 560
f 549 591 592
f 549 592 547
f 537 538 539
f 593 361 594
f 594 361 537
f 594 537 539
f 594 539 595
f 449 593 594
f 449 594 447
f 447 594 595
f 595 445 447
f 539 354 595
f 596 445 595
f 596 595 597
f 597 595 354
f 597 354 356
f 454 453 598
f 454 598 599
f 593 454 599
f 593 599 361
f 361 599 363
f 449 454 593
f 381 600 601
f 601 600 602
f 601 602 510
f 510 602 357
f 357 602 356
f 455 365 545
f 455 545 603
f 603 545 542
f 603 542 541
f 603 541 599
f 599 541 363
f 451 455 603
f 451 603 598
f 598 603 599
f 451 598 453
f 601 510 508
f 601 508 604
f 604 508 506
f 604 506 605
f 605 506 358
f 381 601 604
f 381 604 378
f 378 604 605
f 455 457 606
f 455 606 365
f 367 365 607
f 607 365 606
f 607 606 404
f 404 606 457
f 379 378 605
f 379 605 608
f 608 605 358
f 358 359 608
f 373 379 609
f 609 379 608
f 369 367 610
f 369 610 403
f 403 610 404
f 370 369 406
f 406 369 403
f 373 609 374
f 608 359 580
f 608 580 611
f 611 580 578
f 611 578 576
f 370 406 374
f 370 374 576
f 576 374 611
f 611 374 609
f 611 609 608
f 472 471 612
f 473 472 550
f 550 472 612
f 550 612 613
f 546 473 550
f 551 550 613
f 551 613 553
f 613 612 614
f 613 614 553
f 553 614 16
f 473 546 548
f 471 478 615
f 471 615 612
f 612 615 616
f 612 616 614
f 614 616 17
f 614 17 16
f 617 411 486
f 567 411 617
f 476 529 477
f 477 529 527
f 477 527 618
f 618 527 526
f 618 526 17
f 618 17 616
f 477 618 615
f 615 618 616
f 477 615 478
f 411 567 412
f 412 567 565
f 412 565 619
f 619 565 564
f 619 564 4
f 619 4 620
f 412 619 621
f 621 619 620
f 412 621 413
f 622 476 488
f 529 476 622
f 408 413 621
f 408 621 623
f 623 621 620
f 623 620 624
f 624 620 4
f 624 4 2
f 427 512 514
f 426 408 623
f 427 426 516
f 516 426 623
f 516 623 625
f 512 427 516
f 517 516 625
f 517 625 519
f 625 623 624
f 625 624 519
f 519 624 2

