mtllib material.mtl
usemtl mtl_ankle_crank_l
v -0.02131254 0.05682295 -0.00900000
v -0.02131254 0.05682295 -0.00450000
v -0.02137871 0.05900917 -0.00450000
v -0.02137871 0.05900917 -0.00900000
v -0.02071596 0.06109357 -0.00450000
v -0.02071596 0.06109357 -0.00900000
v -0.01939935 0.06284013 -0.00450000
v -0.01939935 0.06284013 -0.00900000
v -0.01757794 0.06405108 -0.00450000
v -0.01757794 0.06405108 -0.00900000
v -0.01545798 0.06458932 -0.00450000
v -0.01545798 0.06458932 -0.00900000
v -0.01327951 0.06439390 -0.00450000
v -0.01327951 0.06439390 -0.00900000
v -0.01128919 0.06348695 -0.00450000
v -0.01128919 0.06348695 -0.00900000
v -0.00971239 0.06197116 -0.00450000
v -0.00971239 0.06197116 -0.00900000
v -0.01967986 0.04873998 -0.00450000
v -0.01797841 0.04031658 -0.00900000
v -0.01967986 0.04873998 0.00450000
v -0.01797841 0.04031658 0.01650000
v -0.02131254 0.05682295 0.00450000
v -0.02131254 0.05682295 0.01650000
v -0.00369816 0.05382683 -0.00450000
v -0.00971239 0.06197116 0.00450000
v -0.00971239 0.06197116 0.01650000
v -0.00369816 0.05382683 0.00450000
v 0.01587097 0.02732679 0.01650000
v 0.01587097 0.02732679 -0.00900000
v 0.01900000 0.00000000 0.00850000
v 0.01900000 0.00000000 0.01650000
v 0.01857631 -0.00399007 0.01650000
v 0.01857631 -0.00399007 0.00850000
v 0.01732414 -0.00780218 0.01650000
v 0.01732414 -0.00780218 0.00850000
v 0.01529934 -0.01126633 0.01650000
v 0.01529934 -0.01126633 0.00850000
v 0.01259221 -0.01422801 0.01650000
v 0.01259221 -0.01422801 0.00850000
v 0.00932347 -0.01655515 0.01650000
v 0.00932347 -0.01655515 0.00850000
v 0.00563893 -0.01814394 0.01650000
v 0.00563893 -0.01814394 0.00850000
v 0.00170289 -0.01892353 0.01650000
v 0.00170289 -0.01892353 0.00850000
v -0.00230909 -0.01885916 0.01650000
v -0.00230909 -0.01885916 0.00850000
v -0.00621809 -0.01795370 0.01650000
v -0.00621809 -0.01795370 0.00850000
v -0.00984977 -0.01624752 0.01650000
v -0.00984977 -0.01624752 0.00850000
v -0.01304216 -0.01381673 0.01650000
v -0.01304216 -0.01381673 0.00850000
v -0.01565289 -0.01076972 0.01650000
v -0.01565289 -0.01076972 0.00850000
v -0.01756552 -0.00724240 0.01650000
v -0.01756552 -0.00724240 0.00850000
v -0.01869475 -0.00339208 0.01650000
v -0.01869475 -0.00339208 0.00850000
v -0.01899022 0.00060953 0.01650000
v -0.01899022 0.00060953 0.00850000
v -0.01843875 0.00458395 0.01650000
v -0.01843875 0.00458395 0.00850000
v -0.01213230 0.02230792 -0.00900000
v -0.01213230 0.02230792 0.01650000
v -0.01297686 0.02423513 -0.00900000
v -0.01297686 0.02423513 0.01650000
v -0.01420598 0.02594296 -0.00900000
v -0.01420598 0.02594296 0.01650000
v -0.01576524 0.02735579 -0.00900000
v -0.01576524 0.02735579 0.01650000
v -0.01120488 0.01938876 -0.00900000
v -0.01120488 0.01938876 0.00850000
v -0.01120488 0.01938876 0.01650000
v -0.01681601 0.01111137 0.01650000
v -0.01681601 0.01111137 0.00850000
v -0.02137871 0.05900917 0.01650000
v -0.02137871 0.05900917 0.00450000
v -0.02071596 0.06109357 0.01650000
v -0.02071596 0.06109357 0.00450000
v -0.01939935 0.06284013 0.01650000
v -0.01939935 0.06284013 0.00450000
v -0.01757794 0.06405108 0.01650000
v -0.01757794 0.06405108 0.00450000
v -0.01545798 0.06458932 0.01650000
v -0.01545798 0.06458932 0.00450000
v -0.01327951 0.06439390 0.01650000
v -0.01327951 0.06439390 0.00450000
v -0.01128919 0.06348695 0.01650000
v -0.01128919 0.06348695 0.00450000
v -0.01828424 0.03520264 -0.00900000
v -0.01828424 0.03520264 0.01650000
v -0.01779828 0.03773969 -0.00900000
v -0.01779828 0.03773969 0.01650000
v -0.01731229 0.02891128 0.01650000
v -0.01731229 0.02891128 -0.00900000
v -0.01830189 0.03086923 0.01650000
v -0.01830189 0.03086923 -0.00900000
v -0.01863684 0.03303733 0.01650000
v -0.01863684 0.03303733 -0.00900000
v -0.00700629 0.03112269 -0.00900000
v 0.01208613 0.01265605 -0.00900000
v -0.00817379 0.02940232 -0.00900000
v 0.00926852 0.01484400 -0.00900000
v 0.01900000 0.00000000 -0.00900000
v 0.01611842 0.00681517 -0.00900000
v 0.01900000 0.01782214 -0.00900000
v 0.01440150 0.00994218 -0.00900000
v 0.01864171 0.02118917 -0.00900000
v -0.01024513 0.03781122 -0.00900000
v -0.01231876 0.03796211 -0.00900000
v -0.01427449 0.03725654 -0.00900000
v -0.01649178 0.03181294 -0.00900000
v -0.01655846 0.03389098 -0.00900000
v -0.01577416 0.03581650 -0.00900000
v -0.01399673 0.02860074 -0.00900000
v -0.01558564 0.02994167 -0.00900000
v -0.01199978 0.02802201 -0.00900000
v 0.00606578 0.01641512 -0.00900000
v 0.00261097 0.01730413 -0.00900000
v -0.00994009 0.02830555 -0.00900000
v 0.01758289 0.02440539 -0.00900000
v -0.00663947 0.03316919 -0.00900000
v -0.00713675 0.03518797 -0.00900000
v -0.00841214 0.03682995 -0.00900000
v -0.00817379 0.02940232 0.01650000
v -0.00700629 0.03112269 0.01650000
v -0.00663947 0.03316919 0.01650000
v -0.00713675 0.03518797 0.01650000
v -0.00841214 0.03682995 0.01650000
v -0.01024513 0.03781122 0.01650000
v -0.01231876 0.03796211 0.01650000
v -0.01427449 0.03725654 0.01650000
v -0.01577416 0.03581650 0.01650000
v -0.01655846 0.03389098 0.01650000
v -0.01649178 0.03181294 0.01650000
v -0.01558564 0.02994167 0.01650000
v -0.01399673 0.02860074 0.01650000
v -0.01199978 0.02802201 0.01650000
v -0.00994009 0.02830555 0.01650000
v 0.01073564 -0.01118017 0.00850000
v 0.01073564 -0.01118017 0.01650000
v 0.01309927 -0.00828609 0.00850000
v 0.01309927 -0.00828609 0.01650000
v 0.01470162 -0.00491045 0.00850000
v 0.01470162 -0.00491045 0.01650000
v 0.01544956 -0.00124943 0.00850000
v 0.01544956 -0.00124943 0.01650000
v 0.01529963 0.00248420 0.00850000
v 0.01529963 0.00248420 0.01650000
v 0.01426055 0.00607345 0.00850000
v 0.01426055 0.00607345 0.01650000
v 0.01239269 0.00930974 0.00850000
v 0.01239269 0.00930974 0.01650000
v 0.00980461 0.01200498 0.00850000
v 0.00980461 0.01200498 0.01650000
v 0.00664673 0.01400254 0.00850000
v 0.00664673 0.01400254 0.01650000
v 0.00310256 0.01518631 0.00850000
v 0.00310256 0.01518631 0.01650000
v -0.00062192 0.01548752 0.00850000
v -0.00062192 0.01548752 0.01650000
v -0.00431025 0.01488864 0.00850000
v -0.00431025 0.01488864 0.01650000
v -0.00774809 0.01342450 0.00850000
v -0.00774809 0.01342450 0.01650000
v -0.01073564 0.01118017 0.00850000
v -0.01073564 0.01118017 0.01650000
v -0.01309927 0.00828609 0.00850000
v -0.01309927 0.00828609 0.01650000
v -0.01470162 0.00491045 0.00850000
v -0.01470162 0.00491045 0.01650000
v -0.01544956 0.00124943 0.00850000
v -0.01544956 0.00124943 0.01650000
v -0.01529963 -0.00248420 0.00850000
v -0.01529963 -0.00248420 0.01650000
v -0.01426055 -0.00607345 0.00850000
v -0.01426055 -0.00607345 0.01650000
v -0.01239269 -0.00930974 0.00850000
v -0.01239269 -0.00930974 0.01650000
v -0.00980461 -0.01200498 0.00850000
v -0.00980461 -0.01200498 0.01650000
v -0.00664673 -0.01400254 0.00850000
v -0.00664673 -0.01400254 0.01650000
v -0.00310256 -0.01518631 0.00850000
v -0.00310256 -0.01518631 0.01650000
v 0.00062192 -0.01548752 0.00850000
v 0.00062192 -0.01548752 0.01650000
v 0.00431025 -0.01488864 0.00850000
v 0.00431025 -0.01488864 0.01650000
v 0.00774809 -0.01342450 0.00850000
v 0.00774809 -0.01342450 0.01650000
v 0.01758289 0.02440539 0.01650000
v 0.01864171 0.02118917 0.01650000
v 0.01900000 0.01782214 0.01650000
v 0.00261097 0.01730413 0.00850000
v 0.00606578 0.01641512 0.00850000
v 0.00926852 0.01484400 0.00850000
v 0.01208613 0.01265605 0.00850000
v 0.01440150 0.00994218 0.00850000
v 0.01611842 0.00681517 0.00850000
v -0.01769994 0.04797878 -0.00450000
v -0.01769994 0.04797878 0.00450000
v -0.01560744 0.04763105 -0.00450000
v -0.01560744 0.04763105 0.00450000
v -0.01397659 0.04722698 0.00450000
v -0.01397659 0.04722698 -0.00450000
v -0.01259145 0.04627600 0.00450000
v -0.01259145 0.04627600 -0.00450000
v -0.01188127 0.04557199 -0.00450000
v -0.01188127 0.04557199 0.00450000
f 1 2 3
f 1 3 4
f 4 3 5
f 4 5 6
f 6 5 7
f 6 7 8
f 8 7 9
f 8 9 10
f 10 9 11
f 10 11 12
f 12 11 13
f 12 13 14
f 14 13 15
f 14 15 16
f 16 15 17
f 16 17 18
f 2 1 19
f 19 1 20
f 19 20 21
f 21 20 22
f 21 22 23
f 23 22 24
f 18 17 25
f 26 27 28
f 28 27 29
f 28 29 25
f 25 29 30
f 25 30 18
f 31 32 33
f 31 33 34
f 34 33 35
f 34 35 36
f 36 35 37
f 36 37 38
f 38 37 39
f 38 39 40
f 40 39 41
f 40 41 42
f 42 41 43
f 42 43 44
f 44 43 45
f 44 45 46
f 46 45 47
f 46 47 48
f 48 47 49
f 48 49 50
f 50 49 51
f 50 51 52
f 52 51 53
f 52 53 54
f 54 53 55
f 54 55 56
f 56 55 57
f 56 57 58
f 58 57 59
f 58 59 60
f 60 59 61
f 60 61 62
f 62 61 63
f 62 63 64
f 65 66 67
f 67 66 68
f 67 68 69
f 69 68 70
f 69 70 71
f 71 70 72
f 65 73 66
f 66 73 74
f 66 74 75
f 76 75 77
f 77 75 74
f 63 76 64
f 64 76 77
f 23 24 78
f 23 78 79
f 79 78 80
f 79 80 81
f 81 80 82
f 81 82 83
f 83 82 84
f 83 84 85
f 85 84 86
f 85 86 87
f 87 86 88
f 87 88 89
f 89 88 90
f 89 90 91
f 91 90 27
f 91 27 26
f 92 93 94
f 94 93 95
f 94 95 20
f 20 95 22
f 71 72 96
f 71 96 97
f 97 96 98
f 97 98 99
f 99 98 100
f 99 100 101
f 101 100 93
f 101 93 92
f 102 103 104
f 104 103 105
f 106 107 108
f 108 107 109
f 108 109 110
f 18 111 16
f 16 111 112
f 16 112 14
f 14 112 12
f 12 112 113
f 12 113 1
f 114 101 115
f 115 101 92
f 115 92 116
f 116 92 94
f 116 94 113
f 113 94 20
f 113 20 1
f 117 71 118
f 118 71 97
f 118 97 114
f 114 97 99
f 114 99 101
f 119 67 117
f 117 67 69
f 117 69 71
f 105 120 104
f 104 120 121
f 104 121 122
f 122 121 73
f 122 73 119
f 119 73 65
f 119 65 67
f 109 103 110
f 110 103 102
f 110 102 123
f 123 102 30
f 102 124 30
f 30 124 125
f 30 125 18
f 18 125 126
f 18 126 111
f 8 10 6
f 6 10 12
f 6 12 4
f 4 12 1
f 104 127 102
f 102 127 128
f 102 128 124
f 124 128 129
f 124 129 125
f 125 129 130
f 125 130 126
f 126 130 131
f 126 131 111
f 111 131 132
f 111 132 112
f 112 132 133
f 112 133 113
f 113 133 134
f 113 134 116
f 116 134 135
f 116 135 115
f 115 135 136
f 115 136 114
f 114 136 137
f 114 137 118
f 118 137 138
f 118 138 117
f 117 138 139
f 117 139 119
f 119 139 140
f 119 140 122
f 122 140 141
f 122 141 104
f 104 141 127
f 142 143 144
f 144 143 145
f 144 145 146
f 146 145 147
f 146 147 148
f 148 147 149
f 148 149 150
f 150 149 151
f 150 151 152
f 152 151 153
f 152 153 154
f 154 153 155
f 154 155 156
f 156 155 157
f 156 157 158
f 158 157 159
f 158 159 160
f 160 159 161
f 160 161 162
f 162 161 163
f 162 163 164
f 164 163 165
f 164 165 166
f 166 165 167
f 166 167 168
f 168 167 169
f 168 169 170
f 170 169 171
f 170 171 172
f 172 171 173
f 172 173 174
f 174 173 175
f 174 175 176
f 176 175 177
f 176 177 178
f 178 177 179
f 178 179 180
f 180 179 181
f 180 181 182
f 182 181 183
f 182 183 184
f 184 183 185
f 184 185 186
f 186 185 187
f 186 187 188
f 188 187 189
f 188 189 190
f 190 189 191
f 190 191 192
f 192 191 193
f 192 193 142
f 142 193 143
f 138 137 98
f 98 137 100
f 100 137 136
f 100 136 93
f 78 24 80
f 80 24 86
f 80 86 82
f 82 86 84
f 27 90 133
f 93 136 95
f 95 136 135
f 95 135 22
f 22 135 134
f 22 134 24
f 24 134 133
f 24 133 86
f 86 133 90
f 86 90 88
f 133 132 27
f 27 132 131
f 27 131 29
f 98 96 138
f 138 96 72
f 138 72 139
f 139 72 70
f 139 70 140
f 70 68 140
f 140 68 66
f 140 66 141
f 141 66 75
f 131 130 29
f 29 130 129
f 29 129 194
f 194 129 128
f 194 128 195
f 195 128 161
f 161 159 195
f 195 159 157
f 195 157 196
f 169 167 127
f 127 167 165
f 127 165 128
f 128 165 163
f 128 163 161
f 157 155 196
f 196 155 153
f 196 153 32
f 127 141 169
f 169 141 75
f 169 75 171
f 171 75 76
f 171 76 173
f 173 76 63
f 173 63 175
f 175 63 61
f 175 61 177
f 177 61 59
f 177 59 179
f 179 59 57
f 179 57 181
f 181 57 55
f 181 55 183
f 183 55 53
f 183 53 185
f 153 151 32
f 32 151 149
f 32 149 33
f 33 149 147
f 53 51 185
f 185 51 49
f 185 49 187
f 187 49 47
f 187 47 189
f 189 47 45
f 189 45 191
f 191 45 43
f 191 43 193
f 193 43 41
f 193 41 143
f 143 41 39
f 143 39 145
f 145 39 37
f 145 37 147
f 147 37 35
f 147 35 33
f 197 198 158
f 158 198 199
f 158 199 156
f 156 199 200
f 156 200 154
f 154 200 201
f 154 201 152
f 152 201 202
f 152 202 150
f 150 202 31
f 150 31 148
f 148 31 146
f 164 74 162
f 162 74 197
f 162 197 160
f 160 197 158
f 31 34 146
f 146 34 36
f 146 36 144
f 144 36 38
f 144 38 142
f 142 38 40
f 142 40 192
f 192 40 42
f 192 42 190
f 190 42 44
f 190 44 188
f 188 44 46
f 188 46 186
f 186 46 48
f 186 48 184
f 164 166 74
f 74 166 168
f 74 168 77
f 77 168 170
f 77 170 64
f 64 170 172
f 64 172 62
f 62 172 174
f 62 174 60
f 60 174 176
f 60 176 58
f 58 176 178
f 58 178 56
f 56 178 180
f 56 180 54
f 54 180 182
f 54 182 52
f 52 182 184
f 52 184 50
f 50 184 48
f 202 107 31
f 31 107 106
f 107 202 109
f 109 202 201
f 109 201 103
f 103 201 200
f 103 200 105
f 105 200 199
f 105 199 120
f 120 199 198
f 120 198 121
f 121 198 197
f 74 73 197
f 197 73 121
f 106 108 31
f 31 108 196
f 31 196 32
f 30 29 194
f 30 194 123
f 123 194 195
f 123 195 110
f 110 195 196
f 110 196 108
f 19 21 203
f 203 21 204
f 203 204 205
f 205 204 206
f 205 206 207
f 205 207 208
f 208 207 209
f 208 209 210
f 211 210 212
f 212 210 209
f 25 211 28
f 28 211 212
f 19 15 2
f 2 15 13
f 2 13 11
f 19 203 15
f 15 203 205
f 15 205 17
f 17 205 208
f 17 208 25
f 25 208 210
f 25 210 211
f 3 2 5
f 5 2 11
f 5 11 7
f 7 11 9
f 28 212 209
f 204 21 23
f 28 209 26
f 26 209 207
f 26 207 91
f 91 207 206
f 91 206 204
f 204 23 91
f 91 23 87
f 91 87 89
f 83 85 81
f 81 85 87
f 81 87 79
f 79 87 23

