mtllib material.mtl
usemtl mtl_left_hip_xy_slider_l
v -0.00700000 0.00900000 0.06594327
v 0.00700000 0.00900000 0.06594327
v -0.00700000 -0.00900000 0.06594327
v 0.00700000 -0.00900000 0.06594327
v 0.00700000 -0.01054509 0.06618799
v -0.00700000 -0.01054509 0.06618799
v 0.00700000 -0.01193893 0.06689819
v -0.00700000 -0.01193893 0.06689819
v 0.00700000 -0.01304508 0.06800435
v -0.00700000 -0.01304508 0.06800435
v 0.00700000 -0.01375528 0.06939819
v -0.00700000 -0.01375528 0.06939819
v 0.00700000 -0.01400000 0.07094327
v -0.00700000 -0.01400000 0.07094327
v 0.00884006 -0.01400000 0.08450279
v 0.01023529 -0.01400000 0.08717919
v -0.00782426 -0.01400000 0.08166062
v -0.00884006 -0.01400000 0.08450279
v 0.01128355 -0.01400000 0.08935898
v 0.01187339 -0.01400000 0.09170470
v -0.00700000 -0.01400000 0.07569503
v 0.00700000 -0.01400000 0.07569503
v -0.00720704 -0.01400000 0.07870616
v 0.00720704 -0.01400000 0.07870616
v 0.00782426 -0.01400000 0.08166062
v 0.01198084 -0.01400000 0.09412105
v 0.01160155 -0.01400000 0.09650987
v -0.01023529 -0.01400000 0.08717919
v 0.01075092 -0.01400000 0.09877410
v -0.01128355 -0.01400000 0.08935898
v 0.00946351 -0.01400000 0.10082176
v -0.00946351 -0.01400000 0.10082176
v 0.00580319 -0.01400000 0.10394675
v -0.00779162 -0.01400000 0.10256964
v 0.00357898 -0.01400000 0.10489713
v -0.00580319 -0.01400000 0.10394675
v -0.01075092 -0.01400000 0.09877410
v -0.01160155 -0.01400000 0.09650987
v -0.01198084 -0.01400000 0.09412105
v -0.00357898 -0.01400000 0.10489713
v 0.00120937 -0.01400000 0.10538217
v -0.00120937 -0.01400000 0.10538217
v 0.00779162 -0.01400000 0.10256964
v -0.01187339 -0.01400000 0.09170470
v 0.00778637 -0.00558969 0.08152443
v 0.00789749 -0.00571544 0.08191469
v 0.00793895 -0.00577817 0.08205365
v 0.00802758 -0.00589296 0.08234014
v 0.01023529 -0.00600000 0.08717919
v 0.00884006 -0.00600000 0.08450279
v 0.00825272 -0.00600000 0.08301283
v 0.00818083 -0.00598992 0.08280573
v 0.00758887 -0.00541729 0.08075106
v 0.00731483 -0.00507713 0.07940359
v 0.00700000 -0.00400000 0.07569503
v 0.00700002 -0.00400856 0.07572343
v 0.00701914 -0.00427603 0.07661252
v 0.00712362 -0.00469223 0.07802394
v 0.00720690 -0.00488588 0.07870514
v 0.00809253 0.00594784 0.08254176
v 0.00800257 0.00586564 0.08226070
v 0.00782426 0.01400000 0.08166062
v 0.00793895 0.00577817 0.08205365
v 0.01023529 0.01400000 0.08717919
v 0.01023529 0.00600000 0.08717919
v 0.00884006 0.01400000 0.08450279
v 0.00884006 0.00600000 0.08450279
v 0.00825272 0.00600000 0.08301283
v 0.00720704 0.01400000 0.07870616
v 0.00720508 0.00488220 0.07869197
v 0.00700000 0.01400000 0.07569503
v 0.00705246 0.00445507 0.07721342
v 0.00701914 0.00427603 0.07661252
v 0.00700002 0.00400856 0.07572343
v 0.00700000 0.00400000 0.07569503
v 0.00781772 0.00561748 0.08163735
v 0.00778637 0.00558969 0.08152443
v 0.00745206 0.00526644 0.08013196
v 0.00700000 0.01400000 0.07094327
v 0.00700000 0.00400000 0.08101154
v 0.00700000 -0.00400000 0.08101154
v 0.00700000 0.01193893 0.06689819
v 0.00700000 0.01304508 0.06800435
v 0.00700000 0.01375528 0.06939819
v 0.00700000 0.01054509 0.06618799
v -0.00700000 0.01054509 0.06618799
v -0.00700000 0.01193893 0.06689819
v -0.00700000 0.01304508 0.06800435
v -0.00700000 0.01375528 0.06939819
v -0.00700000 0.01400000 0.07094327
v 0.00946351 0.01400000 0.10082176
v 0.01075092 0.01400000 0.09877410
v -0.00779162 0.01400000 0.10256964
v -0.00782426 0.01400000 0.08166062
v 0.01128355 0.01400000 0.08935898
v -0.00884006 0.01400000 0.08450279
v 0.01187339 0.01400000 0.09170470
v -0.00700000 0.01400000 0.07569503
v -0.00720704 0.01400000 0.07870616
v -0.01128355 0.01400000 0.08935898
v -0.01023529 0.01400000 0.08717919
v 0.01160155 0.01400000 0.09650987
v 0.01198084 0.01400000 0.09412105
v 0.00779162 0.01400000 0.10256964
v -0.00120937 0.01400000 0.10538217
v 0.00120937 0.01400000 0.10538217
v 0.00357898 0.01400000 0.10489713
v -0.01187339 0.01400000 0.09170470
v -0.01198084 0.01400000 0.09412105
v -0.01160155 0.01400000 0.09650987
v -0.01075092 0.01400000 0.09877410
v -0.00946351 0.01400000 0.10082176
v 0.00580319 0.01400000 0.10394675
v -0.00580319 0.01400000 0.10394675
v -0.00357898 0.01400000 0.10489713
v 0.01128355 0.00600000 0.08935898
v 0.01187339 0.00600000 0.09170470
v 0.01198084 0.00600000 0.09412105
v 0.01160155 0.00600000 0.09650987
v 0.01075092 0.00600000 0.09877410
v 0.00946351 0.00600000 0.10082176
v 0.00779162 0.00600000 0.10256964
v 0.00580319 0.00600000 0.10394675
v 0.00357898 0.00600000 0.10489713
v 0.00120937 0.00600000 0.10538217
v -0.00120937 0.00600000 0.10538217
v -0.00357898 0.00600000 0.10489713
v -0.00580319 0.00600000 0.10394675
v -0.00779162 0.00600000 0.10256964
v -0.00946351 0.00600000 0.10082176
v -0.01075092 0.00600000 0.09877410
v -0.01160155 0.00600000 0.09650987
v -0.01198084 0.00600000 0.09412105
v -0.01187339 0.00600000 0.09170470
v -0.01128355 0.00600000 0.08935898
v -0.01023529 0.00600000 0.08717919
v -0.00778637 0.00558969 0.08152443
v -0.00789749 0.00571544 0.08191469
v -0.00793895 0.00577817 0.08205365
v -0.00802758 0.00589296 0.08234014
v -0.00884006 0.00600000 0.08450279
v -0.00825272 0.00600000 0.08301283
v -0.00818083 0.00598992 0.08280573
v -0.00758887 0.00541729 0.08075106
v -0.00731483 0.00507713 0.07940359
v -0.00700000 0.00400000 0.07569503
v -0.00700002 0.00400856 0.07572343
v -0.00701914 0.00427603 0.07661252
v -0.00712362 0.00469223 0.07802394
v -0.00720690 0.00488588 0.07870514
v -0.00700000 -0.00400000 0.08101154
v -0.00700000 0.00400000 0.08101154
v -0.00700000 -0.00400000 0.07569503
v -0.00809253 -0.00594784 0.08254176
v -0.00800257 -0.00586564 0.08226070
v -0.00793895 -0.00577817 0.08205365
v -0.01023529 -0.00600000 0.08717919
v -0.00884006 -0.00600000 0.08450279
v -0.00825272 -0.00600000 0.08301283
v -0.00720508 -0.00488220 0.07869197
v -0.00705246 -0.00445507 0.07721342
v -0.00701914 -0.00427603 0.07661252
v -0.00700002 -0.00400856 0.07572343
v -0.00781772 -0.00561748 0.08163735
v -0.00778637 -0.00558969 0.08152443
v -0.00745206 -0.00526644 0.08013196
v 0.01128355 -0.00600000 0.08935898
v 0.01187339 -0.00600000 0.09170470
v 0.01198084 -0.00600000 0.09412105
v 0.01160155 -0.00600000 0.09650987
v 0.01075092 -0.00600000 0.09877410
v 0.00946351 -0.00600000 0.10082176
v 0.00779162 -0.00600000 0.10256964
v 0.00580319 -0.00600000 0.10394675
v 0.00357898 -0.00600000 0.10489713
v 0.00120937 -0.00600000 0.10538217
v -0.00120937 -0.00600000 0.10538217
v -0.00357898 -0.00600000 0.10489713
v -0.00580319 -0.00600000 0.10394675
v -0.00779162 -0.00600000 0.10256964
v -0.00946351 -0.00600000 0.10082176
v -0.01075092 -0.00600000 0.09877410
v -0.01160155 -0.00600000 0.09650987
v -0.01198084 -0.00600000 0.09412105
v -0.01187339 -0.00600000 0.09170470
v -0.01128355 -0.00600000 0.08935898
v 0.00254552 0.00158755 -0.05455673
v 0.00549362 0.00241250 -0.05455673
v 0.00283496 0.00098131 -0.05455673
v 0.00580947 0.00150003 -0.05455673
v 0.00298225 0.00032587 -0.05455673
v 0.00597486 0.00054870 -0.05455673
v 0.00297999 -0.00034591 -0.05455673
v 0.00160462 0.00253479 -0.05455673
v 0.00374321 0.00468918 -0.05455673
v 0.00212844 0.00211418 -0.05455673
v 0.00444693 0.00402800 -0.05455673
v 0.00503548 0.00326250 -0.05455673
v -0.00032587 0.00298225 -0.05455673
v 0.00017549 0.00599743 -0.05455673
v 0.00034591 0.00297999 -0.05455673
v 0.00113528 0.00589162 -0.05455673
v 0.00100035 0.00282830 -0.05455673
v 0.00206566 0.00563321 -0.05455673
v 0.00294254 0.00522891 -0.05455673
v -0.00158755 0.00254552 -0.05455673
v -0.00263175 0.00539202 -0.05455673
v -0.00098131 0.00283496 -0.05455673
v -0.00173273 0.00574436 -0.05455673
v -0.00078883 0.00594792 -0.05455673
v 0.00598550 -0.00041684 -0.05455673
v 0.00584113 -0.00137159 -0.05455673
v 0.00282830 -0.00100035 -0.05455673
v 0.00554547 -0.00229081 -0.05455673
v 0.00253479 -0.00160462 -0.05455673
v 0.00510618 -0.00315070 -0.05455673
v 0.00211418 -0.00212844 -0.05455673
v -0.00282830 0.00100035 -0.05455673
v -0.00534315 0.00272960 -0.05455673
v -0.00253479 0.00160462 -0.05455673
v -0.00483610 0.00355136 -0.05455673
v -0.00211418 0.00212844 -0.05455673
v -0.00420379 0.00428113 -0.05455673
v -0.00346261 0.00490003 -0.05455673
v -0.00298225 -0.00032587 -0.05455673
v -0.00599964 -0.00006614 -0.05455673
v -0.00297999 0.00034591 -0.05455673
v -0.00593255 0.00089713 -0.05455673
v -0.00571182 0.00183716 -0.05455673
v -0.00212844 -0.00211418 -0.05455673
v -0.00475663 -0.00365711 -0.05455673
v -0.00254552 -0.00158755 -0.05455673
v -0.00528168 -0.00284673 -0.05455673
v -0.00283496 -0.00098131 -0.05455673
v -0.00566993 -0.00196263 -0.05455673
v -0.00591133 -0.00102769 -0.05455673
v 0.00098131 -0.00283496 -0.05455673
v 0.00126489 -0.00586516 -0.05455673
v 0.00032587 -0.00298225 -0.05455673
v 0.00030767 -0.00599211 -0.05455673
v -0.00034591 -0.00297999 -0.05455673
v -0.00065752 -0.00596386 -0.05455673
v -0.00100035 -0.00282830 -0.05455673
v 0.00453465 -0.00392899 -0.05455673
v 0.00384567 -0.00460552 -0.05455673
v 0.00158755 -0.00254552 -0.05455673
v 0.00305710 -0.00516277 -0.05455673
v 0.00218934 -0.00558630 -0.05455673
v -0.00160567 -0.00578116 -0.05455673
v -0.00251224 -0.00544873 -0.05455673
v -0.00160462 -0.00253479 -0.05455673
v -0.00335375 -0.00497518 -0.05455673
v -0.00410839 -0.00437277 -0.05455673
v 0.00586889 0.00124747 0.06594327
v 0.00485410 0.00352671 0.06594327
v 0.00485410 0.00352671 -0.05455673
v 0.00300000 0.00519615 -0.05455673
v 0.00300000 0.00519615 0.06594327
v 0.00062717 0.00596713 -0.05455673
v 0.00062717 0.00596713 0.06594327
v -0.00000000 0.00600000 0.06594327
v -0.00185410 0.00570634 -0.05455673
v -0.00185410 0.00570634 0.06594327
v -0.00401478 0.00445887 -0.05455673
v -0.00401478 0.00445887 0.06594327
v -0.00548127 0.00244042 -0.05455673
v -0.00548127 0.00244042 0.06594327
v -0.00600000 -0.00000000 -0.05455673
v -0.00600000 0.00000000 0.06594327
v -0.00548127 -0.00244042 -0.05455673
v -0.00548127 -0.00244042 0.06594327
v -0.00401478 -0.00445887 -0.05455673
v -0.00401478 -0.00445887 0.06594327
v -0.00185410 -0.00570634 -0.05455673
v -0.00185410 -0.00570634 0.06594327
v 0.00062717 -0.00596713 -0.05455673
v 0.00062717 -0.00596713 0.06594327
v 0.00300000 -0.00519615 -0.05455673
v 0.00300000 -0.00519615 0.06594327
v 0.00485410 -0.00352671 -0.05455673
v 0.00485410 -0.00352671 0.06594327
v 0.00586889 -0.00124747 -0.05455673
v 0.00586889 -0.00124747 0.06594327
v 0.00600000 -0.00000000 -0.05455673
v 0.00586889 0.00124747 -0.05455673
f 1 2 3
f 3 2 4
f 3 4 5
f 3 5 6
f 6 5 7
f 6 7 8
f 8 7 9
f 8 9 10
f 10 9 11
f 10 11 12
f 12 11 13
f 12 13 14
f 15 16 17
f 17 16 18
f 18 16 19
f 18 19 20
f 14 13 21
f 21 13 22
f 21 22 23
f 23 22 24
f 23 24 17
f 17 24 25
f 17 25 15
f 20 26 18
f 18 26 27
f 18 27 28
f 28 27 29
f 28 29 30
f 30 29 31
f 32 33 34
f 34 33 35
f 34 35 36
f 32 37 33
f 33 37 38
f 33 38 39
f 36 35 40
f 40 35 41
f 40 41 42
f 31 43 30
f 30 43 33
f 30 33 44
f 44 33 39
f 45 46 25
f 25 46 47
f 25 47 48
f 49 16 50
f 50 16 15
f 50 15 51
f 51 15 25
f 51 25 52
f 52 25 48
f 45 25 53
f 53 25 24
f 53 24 54
f 22 55 56
f 56 57 22
f 22 57 58
f 22 58 24
f 24 58 59
f 24 59 54
f 60 61 62
f 62 61 63
f 64 65 66
f 66 65 67
f 66 67 62
f 62 67 68
f 62 68 60
f 69 70 71
f 71 70 72
f 72 73 71
f 71 73 74
f 71 74 75
f 63 76 62
f 62 76 77
f 62 77 69
f 69 77 78
f 69 78 70
f 79 71 75
f 80 81 75
f 75 81 55
f 55 22 2
f 2 22 13
f 2 13 4
f 9 7 5
f 4 13 5
f 5 13 11
f 5 11 9
f 82 83 75
f 75 83 84
f 75 84 79
f 55 2 75
f 75 2 85
f 75 85 82
f 2 1 86
f 2 86 85
f 85 86 87
f 85 87 82
f 82 87 88
f 82 88 83
f 83 88 89
f 83 89 84
f 84 89 90
f 84 90 79
f 91 92 93
f 64 66 94
f 94 66 62
f 94 62 69
f 64 94 95
f 95 94 96
f 95 96 97
f 79 90 71
f 71 90 98
f 71 98 69
f 69 98 99
f 69 99 94
f 100 92 101
f 101 92 102
f 101 102 96
f 96 102 103
f 96 103 97
f 91 93 104
f 105 106 107
f 100 108 92
f 92 108 109
f 92 109 110
f 110 111 92
f 92 111 112
f 92 112 93
f 104 93 113
f 113 93 114
f 113 114 107
f 107 114 115
f 107 115 105
f 65 64 95
f 65 95 116
f 116 95 97
f 116 97 117
f 117 97 103
f 117 103 118
f 118 103 102
f 118 102 119
f 119 102 92
f 119 92 120
f 120 92 91
f 120 91 121
f 121 91 104
f 121 104 122
f 122 104 113
f 122 113 123
f 123 113 107
f 123 107 124
f 124 107 106
f 124 106 125
f 125 106 105
f 125 105 126
f 126 105 115
f 126 115 127
f 127 115 114
f 127 114 128
f 128 114 93
f 128 93 129
f 129 93 112
f 129 112 130
f 130 112 111
f 130 111 131
f 131 111 110
f 131 110 132
f 132 110 109
f 132 109 133
f 133 109 108
f 133 108 134
f 134 108 100
f 134 100 135
f 135 100 101
f 135 101 136
f 137 138 94
f 94 138 139
f 94 139 140
f 136 101 141
f 141 101 96
f 141 96 142
f 142 96 94
f 142 94 143
f 143 94 140
f 137 94 144
f 144 94 99
f 144 99 145
f 98 146 147
f 147 148 98
f 98 148 149
f 98 149 99
f 99 149 150
f 99 150 145
f 151 152 153
f 153 152 146
f 146 98 3
f 3 98 90
f 3 90 1
f 90 89 88
f 8 10 153
f 88 87 90
f 90 87 86
f 90 86 1
f 146 3 153
f 153 3 6
f 153 6 8
f 10 12 153
f 153 12 14
f 153 14 21
f 154 155 17
f 17 155 156
f 28 157 18
f 18 157 158
f 18 158 17
f 17 158 159
f 17 159 154
f 23 160 21
f 21 160 161
f 161 162 21
f 21 162 163
f 21 163 153
f 156 164 17
f 17 164 165
f 17 165 23
f 23 165 166
f 23 166 160
f 16 49 167
f 16 167 19
f 19 167 168
f 19 168 20
f 20 168 169
f 20 169 26
f 26 169 170
f 26 170 27
f 27 170 171
f 27 171 29
f 29 171 172
f 29 172 31
f 31 172 173
f 31 173 43
f 43 173 174
f 43 174 33
f 33 174 175
f 33 175 35
f 35 175 176
f 35 176 41
f 41 176 177
f 41 177 42
f 42 177 178
f 42 178 40
f 40 178 179
f 40 179 36
f 36 179 180
f 36 180 34
f 34 180 181
f 34 181 32
f 32 181 182
f 32 182 37
f 37 182 183
f 37 183 38
f 38 183 184
f 38 184 39
f 39 184 185
f 39 185 44
f 44 185 186
f 44 186 30
f 30 186 157
f 30 157 28
f 187 188 189
f 189 188 190
f 189 190 191
f 191 190 192
f 191 192 193
f 194 195 196
f 196 195 197
f 196 197 187
f 187 197 198
f 187 198 188
f 199 200 201
f 201 200 202
f 201 202 203
f 203 202 204
f 203 204 194
f 194 204 205
f 194 205 195
f 206 207 208
f 208 207 209
f 208 209 199
f 199 209 210
f 199 210 200
f 192 211 193
f 193 211 212
f 193 212 213
f 213 212 214
f 213 214 215
f 215 214 216
f 215 216 217
f 218 219 220
f 220 219 221
f 220 221 222
f 222 221 223
f 222 223 206
f 206 223 224
f 206 224 207
f 225 226 227
f 227 226 228
f 227 228 218
f 218 228 229
f 218 229 219
f 230 231 232
f 232 231 233
f 232 233 234
f 234 233 235
f 234 235 225
f 225 235 236
f 225 236 226
f 237 238 239
f 239 238 240
f 239 240 241
f 241 240 242
f 241 242 243
f 216 244 217
f 217 244 245
f 217 245 246
f 246 245 247
f 246 247 237
f 237 247 248
f 237 248 238
f 242 249 243
f 243 249 250
f 243 250 251
f 251 250 252
f 251 252 230
f 230 252 253
f 230 253 231
f 254 255 256
f 256 255 257
f 257 255 258
f 257 258 259
f 258 260 259
f 259 260 261
f 259 261 262
f 262 261 263
f 262 263 264
f 264 263 265
f 264 265 266
f 266 265 267
f 266 267 268
f 268 267 269
f 268 269 270
f 270 269 271
f 270 271 272
f 272 271 273
f 272 273 274
f 274 273 275
f 274 275 276
f 276 275 277
f 276 277 278
f 278 277 279
f 278 279 280
f 280 279 281
f 280 281 282
f 282 281 283
f 282 283 284
f 284 283 254
f 284 254 285
f 285 254 256

