mtllib material.mtl
usemtl mtl_ankle_slider_r
v 0.00800000 -0.06364720 0.00410000
v 0.00800000 -0.05205795 0.01053528
v 0.00800000 -0.06385557 0.00485024
v 0.00800000 -0.05245755 0.01150000
v 0.00800000 -0.05309323 0.01232843
v 0.00800000 -0.06650064 0.00610000
v 0.00800000 -0.06545086 0.00595973
v 0.00800000 -0.05592166 0.01350000
v 0.00800000 -0.06449082 0.00551970
v 0.00800000 -0.05488638 0.01336370
v 0.00800000 -0.05392165 0.01296410
v 0.00800000 -0.06382663 -0.00479802
v 0.00800000 -0.05205795 -0.01053528
v 0.00800000 -0.06364720 -0.00410000
v 0.00800000 -0.05192165 -0.00950000
v 0.00800000 -0.05192165 0.00950000
v 0.00800000 -0.07340936 0.00610000
v 0.00800000 -0.07892165 0.01350000
v 0.00800000 -0.07892165 0.00610000
v 0.00800000 -0.06443487 -0.00547969
v 0.00800000 -0.05592166 -0.01350000
v 0.00800000 -0.05488638 -0.01336370
v 0.00800000 -0.05392165 -0.01296410
v 0.00800000 -0.05309323 -0.01232843
v 0.00800000 -0.05245755 -0.01150000
v 0.00800000 -0.06537696 -0.00593839
v 0.00800000 -0.06650064 -0.00610000
v 0.00800000 -0.07892165 -0.01350000
v 0.00800000 -0.07340936 -0.00610000
v 0.00800000 -0.07892165 -0.00610000
v 0.00700000 -0.05092166 0.00950000
v 0.00700000 -0.05092166 -0.00950000
v 0.00700000 -0.05592166 -0.01450000
v 0.00700000 -0.05462756 -0.01432963
v 0.00700000 -0.05342165 -0.01383013
v 0.00700000 -0.05238612 -0.01303553
v 0.00700000 -0.05159153 -0.01200000
v 0.00700000 -0.05109202 -0.01079409
v 0.00700000 -0.07892165 -0.01450000
v -0.00800000 -0.07892165 -0.00610000
v -0.00800000 -0.07892165 -0.01350000
v -0.00779942 -0.08070182 -0.01350000
v -0.00779942 -0.08070182 -0.00610000
v -0.00720775 -0.08239272 -0.01350000
v -0.00720775 -0.08239272 -0.00610000
v -0.00625465 -0.08390957 -0.01350000
v -0.00625465 -0.08390957 -0.00610000
v -0.00498792 -0.08517630 -0.01350000
v -0.00498792 -0.08517630 -0.00610000
v -0.00347107 -0.08612940 -0.01350000
v -0.00347107 -0.08612940 -0.00610000
v -0.00178017 -0.08672108 -0.01350000
v -0.00178017 -0.08672108 -0.00610000
v 0.00000000 -0.08692165 -0.01350000
v 0.00000000 -0.08692165 -0.00610000
v 0.00178017 -0.08672108 -0.01350000
v 0.00178017 -0.08672108 -0.00610000
v 0.00347107 -0.08612940 -0.01350000
v 0.00347107 -0.08612940 -0.00610000
v 0.00498792 -0.08517630 -0.01350000
v 0.00498792 -0.08517630 -0.00610000
v 0.00625465 -0.08390957 -0.01350000
v 0.00625465 -0.08390957 -0.00610000
v 0.00720775 -0.08239272 -0.01350000
v 0.00720775 -0.08239272 -0.00610000
v 0.00779942 -0.08070182 -0.01350000
v 0.00779942 -0.08070182 -0.00610000
v -0.00800000 -0.07892165 0.01350000
v -0.00800000 -0.07892165 0.00610000
v -0.00779942 -0.08070182 0.00610000
v -0.00779942 -0.08070182 0.01350000
v -0.00720775 -0.08239272 0.00610000
v -0.00720775 -0.08239272 0.01350000
v -0.00625465 -0.08390957 0.00610000
v -0.00625465 -0.08390957 0.01350000
v -0.00498792 -0.08517630 0.00610000
v -0.00498792 -0.08517630 0.01350000
v -0.00347107 -0.08612940 0.00610000
v -0.00347107 -0.08612940 0.01350000
v -0.00178017 -0.08672108 0.00610000
v -0.00178017 -0.08672108 0.01350000
v 0.00000000 -0.08692165 0.00610000
v 0.00000000 -0.08692165 0.01350000
v 0.00178017 -0.08672108 0.00610000
v 0.00178017 -0.08672108 0.01350000
v 0.00347107 -0.08612940 0.00610000
v 0.00347107 -0.08612940 0.01350000
v 0.00498792 -0.08517630 0.00610000
v 0.00498792 -0.08517630 0.01350000
v 0.00625465 -0.08390957 0.00610000
v 0.00625465 -0.08390957 0.01350000
v 0.00720775 -0.08239272 0.00610000
v 0.00720775 -0.08239272 0.01350000
v 0.00779942 -0.08070182 0.00610000
v 0.00779942 -0.08070182 0.01350000
v 0.00700000 -0.07892165 0.01450000
v 0.00700000 -0.05592166 0.01450000
v 0.00700000 -0.05109202 0.01079409
v 0.00700000 -0.05159153 0.01200000
v 0.00700000 -0.05238612 0.01303553
v 0.00700000 -0.05342165 0.01383013
v 0.00700000 -0.05462756 0.01432963
v 0.00265682 -0.05092166 -0.00537971
v 0.00361376 -0.05092166 -0.00478965
v 0.00381468 -0.05092166 -0.00493652
v 0.00050000 -0.05092166 -0.00950000
v 0.00050000 -0.05092166 -0.00597913
v 0.00160661 -0.05092166 -0.00578090
v 0.00406151 -0.05092166 -0.00496834
v 0.00429311 -0.05092166 -0.00487721
v 0.00361376 -0.05092166 0.00478965
v 0.00265682 -0.05092166 0.00537971
v 0.00050000 -0.05092166 0.00950000
v 0.00160661 -0.05092166 0.00578090
v 0.00050000 -0.05092166 0.00597913
v 0.00424105 -0.05092166 0.00403408
v 0.00442237 -0.05092166 0.00420455
v 0.00449905 -0.05092166 0.00444132
v 0.00445208 -0.05092166 0.00468573
v 0.00429311 -0.05092166 0.00487721
v 0.00406151 -0.05092166 0.00496834
v 0.00381468 -0.05092166 0.00493652
v 0.00445208 -0.05092166 -0.00468573
v 0.00449905 -0.05092166 -0.00444132
v 0.00400000 -0.05092166 -0.00397214
v 0.00400000 -0.05092166 0.00397214
v 0.00424105 -0.05092166 -0.00403408
v 0.00442237 -0.05092166 -0.00420455
v 0.00050000 -0.05109202 -0.01079409
v 0.00050000 -0.05159153 -0.01200000
v 0.00050000 -0.05238612 -0.01303553
v 0.00050000 -0.05342165 -0.01383013
v 0.00050000 -0.05462756 -0.01432963
v 0.00050000 -0.05592166 -0.01450000
v 0.00025000 -0.06285467 -0.01450000
v 0.00043301 -0.06267165 -0.01450000
v -0.00700000 -0.05592166 -0.01450000
v -0.00050000 -0.05592166 -0.01450000
v -0.00050000 -0.06242165 -0.01450000
v 0.00547282 -0.08328608 -0.01450000
v 0.00436443 -0.08439447 -0.01450000
v 0.00000000 -0.06292165 -0.01450000
v 0.00050000 -0.06242165 -0.01450000
v -0.00700000 -0.07892165 -0.01450000
v 0.00000000 -0.08592165 -0.01450000
v -0.00155765 -0.08574615 -0.01450000
v 0.00630678 -0.08195884 -0.01450000
v -0.00303719 -0.08522844 -0.01450000
v -0.00436443 -0.08439447 -0.01450000
v -0.00547282 -0.08328608 -0.01450000
v 0.00303719 -0.08522844 -0.01450000
v 0.00155765 -0.08574615 -0.01450000
v -0.00043301 -0.06267165 -0.01450000
v -0.00025000 -0.06285467 -0.01450000
v -0.00682450 -0.08047930 -0.01450000
v -0.00630678 -0.08195884 -0.01450000
v 0.00682450 -0.08047930 -0.01450000
v -0.00800000 -0.06449082 0.00551970
v -0.00800000 -0.05592166 0.01350000
v -0.00800000 -0.06385557 0.00485024
v -0.00800000 -0.05488638 0.01336370
v -0.00800000 -0.06382663 -0.00479802
v -0.00800000 -0.06364720 -0.00410000
v -0.00800000 -0.05192165 -0.00950000
v -0.00800000 -0.05192165 0.00950000
v -0.00800000 -0.06364720 0.00410000
v -0.00800000 -0.05205795 0.01053528
v -0.00800000 -0.05245755 0.01150000
v -0.00800000 -0.05392165 0.01296410
v -0.00800000 -0.05309323 0.01232843
v -0.00800000 -0.05205795 -0.01053528
v -0.00800000 -0.05245755 -0.01150000
v -0.00800000 -0.05309323 -0.01232843
v -0.00800000 -0.06545086 0.00595973
v -0.00800000 -0.06650064 0.00610000
v -0.00800000 -0.07340936 0.00610000
v -0.00800000 -0.06650064 -0.00610000
v -0.00800000 -0.05592166 -0.01350000
v -0.00800000 -0.07340936 -0.00610000
v -0.00800000 -0.06537696 -0.00593839
v -0.00800000 -0.06443487 -0.00547969
v -0.00800000 -0.05488638 -0.01336370
v -0.00800000 -0.05392165 -0.01296410
v -0.00700000 -0.07892165 0.01450000
v -0.00682450 -0.08047930 0.01450000
v -0.00630678 -0.08195884 0.01450000
v -0.00547282 -0.08328608 0.01450000
v -0.00436443 -0.08439447 0.01450000
v -0.00303719 -0.08522844 0.01450000
v -0.00155765 -0.08574615 0.01450000
v 0.00000000 -0.08592165 0.01450000
v 0.00155765 -0.08574615 0.01450000
v 0.00303719 -0.08522844 0.01450000
v 0.00436443 -0.08439447 0.01450000
v 0.00547282 -0.08328608 0.01450000
v 0.00630678 -0.08195884 0.01450000
v 0.00682450 -0.08047930 0.01450000
v 0.00050000 -0.05592166 0.01450000
v 0.00050000 -0.06242165 0.01450000
v -0.00025000 -0.06285467 0.01450000
v -0.00043301 -0.06267165 0.01450000
v 0.00000000 -0.06292165 0.01450000
v -0.00700000 -0.05592166 0.01450000
v -0.00050000 -0.06242165 0.01450000
v -0.00050000 -0.05592166 0.01450000
v 0.00043301 -0.06267165 0.01450000
v 0.00025000 -0.06285467 0.01450000
v 0.00050000 -0.05109202 0.01079409
v 0.00050000 -0.05159153 0.01200000
v 0.00050000 -0.05238612 0.01303553
v 0.00050000 -0.05342165 0.01383013
v 0.00050000 -0.05462756 0.01432963
v -0.00700000 -0.05092166 -0.00950000
v -0.00050000 -0.05092166 -0.00950000
v -0.00050000 -0.05109202 -0.01079409
v -0.00700000 -0.05109202 -0.01079409
v -0.00050000 -0.05159153 -0.01200000
v -0.00700000 -0.05159153 -0.01200000
v -0.00050000 -0.05238612 -0.01303553
v -0.00700000 -0.05238612 -0.01303553
v -0.00050000 -0.05342165 -0.01383013
v -0.00700000 -0.05342165 -0.01383013
v -0.00050000 -0.05462756 -0.01432963
v -0.00700000 -0.05462756 -0.01432963
v -0.00700000 -0.05092166 0.00950000
v -0.00700000 -0.05462756 0.01432963
v -0.00700000 -0.05342165 0.01383013
v -0.00700000 -0.05238612 0.01303553
v -0.00700000 -0.05159153 0.01200000
v -0.00700000 -0.05109202 0.01079409
v -0.00050000 -0.05092166 0.00950000
v -0.00050000 -0.05109202 0.01079409
v -0.00050000 -0.05159153 0.01200000
v -0.00050000 -0.05238612 0.01303553
v -0.00050000 -0.05342165 0.01383013
v -0.00050000 -0.05462756 0.01432963
v -0.00429311 -0.05092166 -0.00487721
v -0.00406151 -0.05092166 -0.00496834
v -0.00265682 -0.05092166 0.00537971
v -0.00361376 -0.05092166 0.00478965
v -0.00381468 -0.05092166 0.00493652
v -0.00381468 -0.05092166 -0.00493652
v -0.00361376 -0.05092166 -0.00478965
v -0.00265682 -0.05092166 -0.00537971
v -0.00160661 -0.05092166 -0.00578090
v -0.00050000 -0.05092166 -0.00597913
v -0.00050000 -0.05092166 0.00597913
v -0.00160661 -0.05092166 0.00578090
v -0.00406151 -0.05092166 0.00496834
v -0.00429311 -0.05092166 0.00487721
v -0.00442237 -0.05092166 0.00420455
v -0.00449905 -0.05092166 0.00444132
v -0.00445208 -0.05092166 0.00468573
v -0.00424105 -0.05092166 0.00403408
v -0.00400000 -0.05092166 0.00397214
v -0.00400000 -0.05092166 -0.00397214
v -0.00424105 -0.05092166 -0.00403408
v -0.00442237 -0.05092166 -0.00420455
v -0.00449905 -0.05092166 -0.00444132
v -0.00445208 -0.05092166 -0.00468573
v 0.00600000 0.04057835 -0.00000000
v 0.00600000 -0.05142165 -0.00000000
v 0.00559483 0.04057835 0.00216745
v 0.00559483 -0.05142165 0.00216745
v 0.00443405 0.04057835 0.00404217
v 0.00443405 -0.05142165 0.00404217
v 0.00267443 0.04057835 0.00537098
v 0.00267443 -0.05142165 0.00537098
v 0.00055361 0.04057835 0.00597440
v 0.00055361 -0.05142165 0.00597440
v -0.00164198 0.04057835 0.00577095
v -0.00164198 -0.05142165 0.00577095
v -0.00361581 0.04057835 0.00478810
v -0.00361581 -0.05142165 0.00478810
v -0.00510130 0.04057835 0.00315859
v -0.00510130 -0.05142165 0.00315859
v -0.00589784 0.04057835 0.00110250
v -0.00589784 -0.05142165 0.00110250
v -0.00600000 0.04057835 -0.00000000
v -0.00600000 -0.05142165 -0.00000000
v -0.00589784 0.04057835 -0.00110250
v -0.00589784 -0.05142165 -0.00110250
v -0.00510130 0.04057835 -0.00315859
v -0.00510130 -0.05142165 -0.00315859
v -0.00361581 0.04057835 -0.00478810
v -0.00361581 -0.05142165 -0.00478810
v -0.00164198 0.04057835 -0.00577095
v -0.00164198 -0.05142165 -0.00577095
v 0.00055361 0.04057835 -0.00597440
v 0.00055361 -0.05142165 -0.00597440
v 0.00267443 0.04057835 -0.00537098
v 0.00267443 -0.05142165 -0.00537098
v 0.00443405 0.04057835 -0.00404217
v 0.00443405 -0.05142165 -0.00404217
v 0.00559483 0.04057835 -0.00216745
v 0.00559483 -0.05142165 -0.00216745
f 1 2 3
f 3 2 4
f 3 4 5
f 6 7 8
f 8 7 9
f 8 9 10
f 10 9 3
f 10 3 11
f 11 3 5
f 12 13 14
f 14 13 15
f 14 15 1
f 1 15 16
f 1 16 2
f 6 8 17
f 17 8 18
f 17 18 19
f 20 21 12
f 12 21 22
f 12 22 23
f 23 24 12
f 12 24 25
f 12 25 13
f 20 26 21
f 21 26 27
f 21 27 28
f 28 27 29
f 28 29 30
f 31 16 32
f 32 16 15
f 21 33 34
f 21 34 22
f 22 34 35
f 22 35 23
f 23 35 36
f 23 36 24
f 24 36 37
f 24 37 25
f 25 37 38
f 25 38 13
f 13 38 32
f 13 32 15
f 33 21 39
f 39 21 28
f 40 41 42
f 40 42 43
f 43 42 44
f 43 44 45
f 45 44 46
f 45 46 47
f 47 46 48
f 47 48 49
f 49 48 50
f 49 50 51
f 51 50 52
f 51 52 53
f 53 52 54
f 53 54 55
f 55 54 56
f 55 56 57
f 57 56 58
f 57 58 59
f 59 58 60
f 59 60 61
f 61 60 62
f 61 62 63
f 63 62 64
f 63 64 65
f 65 64 66
f 65 66 67
f 67 66 28
f 67 28 30
f 68 69 70
f 68 70 71
f 71 70 72
f 71 72 73
f 73 72 74
f 73 74 75
f 75 74 76
f 75 76 77
f 77 76 78
f 77 78 79
f 79 78 80
f 79 80 81
f 81 80 82
f 81 82 83
f 83 82 84
f 83 84 85
f 85 84 86
f 85 86 87
f 87 86 88
f 87 88 89
f 89 88 90
f 89 90 91
f 91 90 92
f 91 92 93
f 93 92 94
f 93 94 95
f 95 94 19
f 95 19 18
f 96 18 97
f 97 18 8
f 16 31 98
f 16 98 2
f 2 98 99
f 2 99 4
f 4 99 100
f 4 100 5
f 5 100 101
f 5 101 11
f 11 101 102
f 11 102 10
f 10 102 97
f 10 97 8
f 103 104 105
f 106 107 108
f 108 103 106
f 106 103 105
f 106 105 32
f 32 105 109
f 32 109 110
f 111 112 113
f 113 112 114
f 113 114 115
f 116 117 32
f 32 117 118
f 32 118 31
f 31 118 119
f 119 120 31
f 31 120 121
f 31 121 113
f 113 121 122
f 113 122 111
f 110 123 32
f 32 123 124
f 32 124 116
f 125 126 127
f 127 126 116
f 127 116 128
f 128 116 124
f 106 32 38
f 106 38 129
f 129 38 37
f 129 37 130
f 130 37 36
f 130 36 131
f 131 36 35
f 131 35 132
f 132 35 34
f 132 34 133
f 133 34 33
f 133 33 134
f 39 135 136
f 137 138 139
f 140 141 142
f 39 136 33
f 33 136 143
f 33 143 134
f 137 139 144
f 142 145 146
f 140 142 147
f 146 148 142
f 142 148 149
f 142 149 150
f 141 151 142
f 142 151 152
f 142 152 145
f 139 153 144
f 144 153 154
f 144 154 155
f 155 154 142
f 155 142 156
f 156 142 150
f 135 39 142
f 142 39 157
f 142 157 147
f 39 28 66
f 39 66 157
f 157 66 64
f 157 64 147
f 147 64 62
f 147 62 140
f 140 62 60
f 140 60 141
f 141 60 58
f 141 58 151
f 151 58 56
f 151 56 152
f 152 56 54
f 152 54 145
f 145 54 52
f 145 52 146
f 146 52 50
f 146 50 148
f 148 50 48
f 148 48 149
f 149 48 46
f 149 46 150
f 150 46 44
f 150 44 156
f 156 44 42
f 156 42 155
f 155 42 41
f 155 41 144
f 158 159 160
f 160 159 161
f 162 163 164
f 164 163 165
f 165 163 166
f 165 166 167
f 167 166 160
f 167 160 168
f 161 169 160
f 160 169 170
f 160 170 168
f 164 171 162
f 162 171 172
f 162 172 173
f 158 174 159
f 159 174 175
f 159 175 68
f 68 175 176
f 68 176 69
f 177 178 179
f 179 178 41
f 179 41 40
f 177 180 178
f 178 180 181
f 178 181 182
f 182 181 162
f 182 162 183
f 183 162 173
f 184 68 71
f 184 71 185
f 185 71 73
f 185 73 186
f 186 73 75
f 186 75 187
f 187 75 77
f 187 77 188
f 188 77 79
f 188 79 189
f 189 79 81
f 189 81 190
f 190 81 83
f 190 83 191
f 191 83 85
f 191 85 192
f 192 85 87
f 192 87 193
f 193 87 89
f 193 89 194
f 194 89 91
f 194 91 195
f 195 91 93
f 195 93 196
f 196 93 95
f 196 95 197
f 197 95 18
f 197 18 96
f 97 198 199
f 184 200 201
f 97 199 96
f 187 188 202
f 202 191 192
f 184 201 203
f 203 201 204
f 203 204 205
f 192 193 202
f 202 193 194
f 202 194 195
f 187 202 186
f 188 189 202
f 202 189 190
f 202 190 191
f 199 206 96
f 96 206 207
f 96 207 197
f 197 207 202
f 197 202 196
f 196 202 195
f 200 184 202
f 202 184 185
f 202 185 186
f 31 113 208
f 31 208 98
f 98 208 209
f 98 209 99
f 99 209 210
f 99 210 100
f 100 210 211
f 100 211 101
f 101 211 212
f 101 212 102
f 102 212 198
f 102 198 97
f 213 214 215
f 213 215 216
f 216 215 217
f 216 217 218
f 218 217 219
f 218 219 220
f 220 219 221
f 220 221 222
f 222 221 223
f 222 223 224
f 224 223 138
f 224 138 137
f 178 137 41
f 41 137 144
f 164 213 216
f 164 216 171
f 171 216 218
f 171 218 172
f 172 218 220
f 172 220 173
f 173 220 222
f 173 222 183
f 183 222 224
f 183 224 182
f 182 224 137
f 182 137 178
f 165 225 164
f 164 225 213
f 159 203 226
f 159 226 161
f 161 226 227
f 161 227 169
f 169 227 228
f 169 228 170
f 170 228 229
f 170 229 168
f 168 229 230
f 168 230 167
f 167 230 225
f 167 225 165
f 68 184 159
f 159 184 203
f 231 225 230
f 231 230 232
f 232 230 229
f 232 229 233
f 233 229 228
f 233 228 234
f 234 228 227
f 234 227 235
f 235 227 226
f 235 226 236
f 236 226 203
f 236 203 205
f 237 238 213
f 239 240 241
f 213 238 214
f 214 238 242
f 214 242 243
f 243 244 214
f 214 244 245
f 214 245 246
f 231 247 248
f 248 239 231
f 231 239 241
f 231 241 225
f 225 241 249
f 225 249 250
f 251 213 252
f 252 213 225
f 252 225 253
f 253 225 250
f 254 255 256
f 256 257 254
f 254 257 258
f 254 258 251
f 251 258 259
f 251 259 213
f 213 259 260
f 213 260 237
f 261 262 263
f 263 262 264
f 263 264 265
f 265 264 266
f 265 266 267
f 267 266 268
f 267 268 269
f 269 268 270
f 269 270 271
f 271 270 272
f 271 272 273
f 273 272 274
f 273 274 275
f 275 274 276
f 275 276 277
f 277 276 278
f 277 278 279
f 279 278 280
f 279 280 281
f 281 280 282
f 281 282 283
f 283 282 284
f 283 284 285
f 285 284 286
f 285 286 287
f 287 286 288
f 287 288 289
f 289 288 290
f 289 290 291
f 291 290 292
f 291 292 293
f 293 292 294
f 293 294 295
f 295 294 296
f 295 296 261
f 261 296 262

