mtllib material.mtl
usemtl mtl_butterfly_l
v -0.05187161 0.02432455 0.04750000
v -0.05610662 0.02439398 0.04750000
v -0.05740932 0.02826586 0.04750000
v -0.04970493 0.02469151 0.04750000
v -0.04781571 0.02581398 0.04750000
v -0.05776995 0.03052334 0.04750000
v -0.05726001 0.03275183 0.04750000
v -0.04449598 0.03388226 0.04750000
v -0.04460790 0.02705505 0.04750000
v -0.04955180 0.03589734 0.04750000
v -0.04621812 0.02675787 0.04750000
v -0.05179778 0.03632370 0.04750000
v -0.05404022 0.03587900 0.04750000
v -0.05595355 0.03462783 0.04750000
v -0.04345476 0.02694157 0.04743309
v -0.04206714 0.03291419 0.04719665
v -0.04257263 0.02666202 0.04728941
v -0.03978565 0.03200487 0.04630499
v -0.03989179 0.02552993 0.04630499
v 0.00537930 -0.01400226 0.03350000
v 0.00537930 -0.01400226 0.04250000
v -0.01435570 -0.02158392 0.03350000
v -0.01435570 -0.02158392 0.04250000
v -0.01681594 -0.02252907 0.03380335
v -0.01912689 -0.02341687 0.03469501
v -0.04999605 -0.03527598 0.05500000
v -0.04999605 -0.03527598 0.04750000
v -0.04560203 -0.03358792 0.04750000
v -0.02369717 -0.02517265 0.05500000
v -0.04314182 -0.03264278 0.04719665
v -0.04083087 -0.03175497 0.04630499
v -0.02089268 -0.02409526 0.05460394
v -0.01435570 -0.02158392 0.05271953
v -0.02390182 0.01208855 0.05564896
v -0.02208055 0.01015487 0.05511142
v -0.01364799 0.02158722 0.05271953
v -0.02105335 0.00849353 0.05480554
v -0.02055450 0.00706729 0.05465404
v -0.04236253 0.03303194 0.06110394
v -0.04250423 0.02438795 0.06110394
v -0.02672417 0.01420713 0.05647779
v -0.02040506 0.00565003 0.05460394
v -0.02041728 0.00613371 0.05460979
v 0.00555366 0.01393400 0.04250000
v 0.00555366 0.01393400 0.03350000
v -0.01364799 0.02158722 0.04250000
v -0.01364799 0.02158722 0.03350000
v -0.01607687 0.02255526 0.03380335
v -0.04955180 0.03589734 0.06150000
v -0.04513125 0.03413545 0.06150000
v -0.01835836 0.02346461 0.03469501
v 0.01625498 0.00721674 0.04250000
v 0.01625498 0.00721674 0.03350000
v 0.01296785 0.00988247 0.03350000
v 0.01296785 0.00988247 0.04250000
v 0.00938330 0.01213253 0.03350000
v 0.00938330 0.01213253 0.04250000
v 0.01588415 -0.00785158 0.04250000
v 0.01588415 -0.00785158 0.03350000
v 0.01778770 -0.00574974 0.03350000
v 0.01778770 -0.00574974 0.04250000
v 0.01902470 -0.00319806 0.03350000
v 0.01902470 -0.00319806 0.04250000
v 0.01949570 -0.00040175 0.03350000
v 0.01949570 -0.00040175 0.04250000
v 0.01916282 0.00241435 0.03350000
v 0.01916282 0.00241435 0.04250000
v 0.01805284 0.00502379 0.03350000
v 0.01805284 0.00502379 0.04250000
v 0.01088276 -0.01135569 0.03350000
v 0.01088276 -0.01135569 0.04250000
v -0.05775769 -0.02754700 0.05500000
v -0.05775769 -0.02754700 0.04750000
v -0.05814647 -0.02979980 0.04750000
v -0.05814647 -0.02979980 0.05500000
v -0.05766439 -0.03203450 0.04750000
v -0.05766439 -0.03203450 0.05500000
v -0.05638145 -0.03392667 0.04750000
v -0.05638145 -0.03392667 0.05500000
v -0.05448388 -0.03520161 0.04750000
v -0.05448388 -0.03520161 0.05500000
v -0.05224719 -0.03567427 0.04750000
v -0.05224719 -0.03567427 0.05500000
v -0.05637888 -0.02360492 0.04750000
v -0.05637888 -0.02360492 0.05100000
v -0.05526122 -0.01979806 0.05100000
v -0.05526122 -0.01979806 0.05500000
v -0.05356525 -0.01183550 0.05100000
v -0.05356525 -0.01183550 0.05500000
v -0.05268729 -0.00374180 0.05100000
v -0.05268729 -0.00374180 0.05500000
v -0.05263649 0.00439921 0.05100000
v -0.05263649 0.00439921 0.05500000
v -0.05273597 0.00618004 0.05500000
v -0.05341333 0.01250324 0.05100000
v -0.05291096 0.00834761 0.05523704
v -0.05313309 0.01041331 0.05593692
v -0.05740932 0.02826586 0.06150000
v -0.05610662 0.02439398 0.05100000
v -0.05341333 0.01250324 0.05690920
v -0.05497930 0.02036571 0.06056308
v -0.05500978 0.02048633 0.05100000
v -0.05553052 0.02243681 0.06126296
v -0.05617419 0.02461205 0.06150000
v -0.05179778 0.03632370 0.06150000
v -0.05404022 0.03587900 0.06150000
v -0.05595355 0.03462783 0.06150000
v -0.05726001 0.03275183 0.06150000
v -0.05776995 0.03052334 0.06150000
v -0.04529030 0.02443363 0.06150000
v -0.05204942 -0.02367589 0.04750000
v -0.04862709 -0.02481661 0.04750000
v -0.04715065 -0.02555075 0.04750000
v -0.04551572 -0.02576473 0.04750000
v -0.04547376 -0.02576306 0.04750000
v -0.05025049 -0.02398295 0.04750000
v -0.04467142 -0.02566236 0.04746790
v -0.04390009 -0.02543530 0.04737629
v -0.04301811 -0.02509646 0.04719665
v -0.04070716 -0.02420865 0.04630499
v -0.02744762 -0.01911471 0.03921216
v -0.02578649 -0.01806228 0.03832723
v -0.02465965 -0.01645070 0.03773485
v -0.02424142 -0.01452924 0.03752666
v -0.02375216 0.01531600 0.03752666
v -0.02410719 0.01725014 0.03773485
v -0.02680634 0.02000408 0.03921216
v -0.02518060 0.01889778 0.03832723
v -0.02319115 0.00569571 0.05500000
v -0.04535957 0.02020802 0.06056308
v -0.02957950 0.01002719 0.05593692
v -0.04393369 0.02441139 0.06140753
v -0.04530521 0.02352400 0.06145853
v -0.04533302 0.02182729 0.06115428
v -0.04436553 0.02153807 0.06102683
v -0.04482533 0.02174904 0.06112168
v -0.04430490 0.02336987 0.06139431
v -0.04339896 0.02295415 0.06120742
v -0.04388563 0.02222526 0.06115142
v -0.02810556 0.01204441 0.05652526
v -0.02674016 0.00894449 0.05552251
v -0.02320730 0.00593772 0.05500292
v -0.02335217 0.00640575 0.05502504
v -0.02386265 0.00712316 0.05510079
v -0.02490332 0.00796245 0.05525374
v -0.02178410 0.00567264 0.05490049
v -0.02179820 0.00603426 0.05490557
v -0.02193853 0.00673251 0.05494400
v -0.02244066 0.00779916 0.05507559
v -0.02346941 0.00903996 0.05534114
v -0.02528925 0.01047892 0.05580738
v -0.04862709 -0.02481661 0.05100000
v -0.05025049 -0.02398295 0.05100000
v -0.05204942 -0.02367589 0.05100000
v -0.05187161 0.02432455 0.05100000
v -0.04970493 0.02469151 0.05100000
v -0.04781571 0.02581398 0.05100000
v -0.04621812 0.02675787 0.05100000
v -0.04257263 0.02666202 0.05100000
v -0.04438632 0.02705416 0.05100000
v -0.02680634 0.02000408 0.05100000
v -0.02375216 0.01531600 0.05100000
v -0.02410719 0.01725014 0.05100000
v -0.02518060 0.01889778 0.05100000
v -0.02424142 -0.01452924 0.05100000
v -0.02744762 -0.01911471 0.05100000
v -0.02578649 -0.01806228 0.05100000
v -0.02465965 -0.01645070 0.05100000
v -0.04390009 -0.02543530 0.05100000
v -0.04551572 -0.02576473 0.05100000
v -0.04715065 -0.02555075 0.05100000
f 1 2 3
f 1 3 4
f 4 3 5
f 5 3 6
f 5 6 7
f 8 9 10
f 10 9 11
f 10 11 12
f 12 11 5
f 12 5 13
f 13 5 7
f 13 7 14
f 9 8 15
f 15 8 16
f 15 16 17
f 17 16 18
f 17 18 19
f 20 21 22
f 22 21 23
f 22 23 24
f 24 23 25
f 26 27 28
f 26 28 29
f 28 30 29
f 29 30 31
f 29 31 32
f 32 31 25
f 32 25 33
f 33 25 23
f 34 35 36
f 36 35 37
f 36 37 38
f 39 40 36
f 36 40 41
f 36 41 34
f 32 33 42
f 42 33 36
f 42 36 43
f 43 36 38
f 44 45 46
f 46 45 47
f 46 47 48
f 39 36 46
f 10 49 8
f 8 49 50
f 8 50 16
f 16 50 39
f 16 39 18
f 18 39 46
f 18 46 51
f 51 46 48
f 52 53 54
f 52 54 55
f 55 54 56
f 55 56 57
f 57 56 45
f 57 45 44
f 58 59 60
f 58 60 61
f 61 60 62
f 61 62 63
f 63 62 64
f 63 64 65
f 65 64 66
f 65 66 67
f 67 66 68
f 67 68 69
f 69 68 53
f 69 53 52
f 21 20 70
f 21 70 71
f 71 70 59
f 71 59 58
f 72 73 74
f 72 74 75
f 75 74 76
f 75 76 77
f 77 76 78
f 77 78 79
f 79 78 80
f 79 80 81
f 81 80 82
f 81 82 83
f 83 82 27
f 83 27 26
f 84 73 85
f 85 73 72
f 85 72 86
f 86 72 87
f 86 87 88
f 88 87 89
f 88 89 90
f 90 89 91
f 90 91 92
f 91 93 92
f 92 93 94
f 92 94 95
f 95 94 96
f 95 96 97
f 3 2 98
f 98 2 99
f 97 100 95
f 95 100 101
f 95 101 102
f 102 101 103
f 102 103 99
f 99 103 104
f 99 104 98
f 49 10 12
f 49 12 105
f 105 12 13
f 105 13 106
f 106 13 14
f 106 14 107
f 107 14 7
f 107 7 108
f 108 7 6
f 108 6 109
f 109 6 3
f 109 3 98
f 20 22 45
f 45 22 47
f 45 56 20
f 20 56 54
f 20 54 70
f 70 54 53
f 70 53 59
f 66 64 62
f 53 68 59
f 59 68 66
f 59 66 60
f 60 66 62
f 109 98 49
f 104 110 98
f 98 110 50
f 98 50 49
f 49 105 106
f 109 49 108
f 108 49 106
f 108 106 107
f 73 84 111
f 80 112 82
f 82 112 113
f 82 113 27
f 27 113 28
f 28 113 114
f 28 114 115
f 73 111 74
f 76 74 78
f 78 74 111
f 78 111 80
f 80 111 116
f 80 116 112
f 28 115 30
f 30 115 117
f 30 117 118
f 118 119 30
f 30 119 120
f 30 120 31
f 31 120 25
f 25 120 121
f 25 121 122
f 122 123 25
f 25 123 124
f 25 124 51
f 51 124 125
f 51 125 126
f 19 18 127
f 127 18 51
f 127 51 128
f 128 51 126
f 25 51 48
f 25 48 24
f 24 48 47
f 24 47 22
f 94 93 129
f 129 93 91
f 129 91 29
f 29 91 89
f 89 87 29
f 29 87 72
f 29 72 26
f 26 72 75
f 81 83 79
f 79 83 26
f 79 26 77
f 77 26 75
f 130 101 131
f 131 101 100
f 131 100 97
f 40 39 132
f 132 39 50
f 132 50 110
f 110 104 133
f 133 104 103
f 133 103 134
f 134 103 101
f 134 101 130
f 130 135 136
f 137 138 132
f 132 138 40
f 134 136 133
f 133 136 137
f 133 137 110
f 110 137 132
f 136 135 137
f 137 135 139
f 137 139 138
f 134 130 136
f 40 138 41
f 41 138 140
f 130 131 135
f 135 131 140
f 135 140 139
f 139 140 138
f 131 97 141
f 141 97 96
f 94 129 142
f 142 143 94
f 94 143 144
f 94 144 96
f 96 144 145
f 96 145 141
f 146 42 43
f 129 146 147
f 146 43 147
f 147 43 38
f 147 38 148
f 148 38 37
f 148 37 149
f 149 37 35
f 149 35 150
f 150 35 34
f 150 34 151
f 151 34 41
f 151 41 140
f 129 147 142
f 142 147 148
f 142 148 143
f 143 148 149
f 143 149 144
f 144 149 150
f 144 150 145
f 145 150 151
f 145 151 141
f 141 151 140
f 141 140 131
f 129 29 146
f 146 29 32
f 146 32 42
f 23 46 33
f 33 46 36
f 46 23 44
f 44 23 21
f 44 21 57
f 57 21 55
f 55 21 71
f 55 71 52
f 52 71 58
f 52 58 69
f 63 65 67
f 69 58 67
f 67 58 61
f 67 61 63
f 152 112 116
f 152 116 153
f 153 116 111
f 153 111 154
f 85 154 84
f 84 154 111
f 155 99 1
f 1 99 2
f 155 1 4
f 155 4 156
f 156 4 5
f 156 5 157
f 158 157 5
f 15 17 159
f 15 159 9
f 159 160 9
f 9 160 158
f 9 158 11
f 11 158 5
f 159 17 161
f 161 17 19
f 161 19 127
f 125 162 163
f 125 163 126
f 126 163 164
f 126 164 128
f 128 164 161
f 128 161 127
f 165 162 124
f 124 162 125
f 121 166 167
f 121 167 122
f 122 167 168
f 122 168 123
f 123 168 165
f 123 165 124
f 119 118 169
f 119 169 120
f 120 169 166
f 120 166 121
f 169 118 117
f 169 117 170
f 117 115 170
f 170 115 114
f 170 114 171
f 171 114 113
f 171 113 152
f 152 113 112
f 167 166 168
f 168 166 156
f 168 156 165
f 165 156 157
f 165 157 158
f 161 164 163
f 166 169 156
f 156 169 170
f 156 170 171
f 92 95 155
f 155 95 102
f 155 102 99
f 163 162 161
f 161 162 165
f 161 165 159
f 159 165 158
f 159 158 160
f 85 86 154
f 154 86 88
f 154 88 90
f 171 152 156
f 156 152 153
f 156 153 155
f 155 153 154
f 155 154 92
f 92 154 90

