mtllib material.mtl
usemtl mtl_femur_slider
v 0.00616536 0.00748854 0.01200000
v 0.00454348 0.00950000 0.01200000
v 0.00418512 0.00875070 0.01200000
v 0.00195959 0.00950000 0.01200000
v 0.00195959 -0.00950000 0.01200000
v 0.00454348 -0.00950000 0.01200000
v 0.00418512 -0.00875070 0.01200000
v 0.00616536 -0.00748854 0.01200000
v 0.00550000 -0.01350000 0.00800000
v -0.01600000 -0.01350000 0.00800000
v -0.00173553 -0.01350000 0.00360388
v -0.00000000 -0.01350000 0.00400000
v 0.00173553 -0.01350000 0.00360388
v 0.00312733 -0.01350000 0.00249396
v 0.00389971 -0.01350000 0.00089008
v 0.00389971 -0.01350000 -0.00089008
v 0.00550000 -0.01350000 -0.01450000
v 0.00312733 -0.01350000 -0.00249396
v 0.00173553 -0.01350000 -0.00360388
v -0.00000000 -0.01350000 -0.00400000
v -0.01475635 -0.01350000 -0.01450000
v -0.00173553 -0.01350000 -0.00360388
v -0.01517610 -0.01350000 -0.01412417
v -0.00312733 -0.01350000 -0.00249396
v -0.01600000 -0.01350000 -0.01355003
v -0.01600000 -0.01350000 0.00000000
v -0.00389971 -0.01350000 -0.00089008
v -0.00389971 -0.01350000 0.00089008
v -0.00312733 -0.01350000 0.00249396
v -0.01600000 0.01350000 0.00000000
v -0.01600000 0.01350000 0.00800000
v -0.00312733 0.01350000 0.00249396
v 0.00173553 0.01350000 -0.00360388
v 0.00312733 0.01350000 -0.00249396
v 0.00550000 0.01350000 -0.01450000
v 0.00389971 0.01350000 -0.00089008
v 0.00550000 0.01350000 0.00800000
v 0.00389971 0.01350000 0.00089008
v 0.00312733 0.01350000 0.00249396
v 0.00173553 0.01350000 0.00360388
v -0.00000000 0.01350000 0.00400000
v -0.00173553 0.01350000 0.00360388
v -0.01534925 0.01350000 -0.01398862
v -0.00312733 0.01350000 -0.00249396
v -0.01484335 0.01350000 -0.01450000
v -0.00173553 0.01350000 -0.00360388
v -0.00000000 0.01350000 -0.00400000
v -0.00389971 0.01350000 0.00089008
v -0.00389971 0.01350000 -0.00089008
v -0.01600000 0.01350000 -0.01355003
v -0.01541646 0.01350000 -0.01393726
v -0.01600000 0.00840000 0.00750000
v -0.01600000 0.00861436 0.00670000
v -0.01600000 0.00820000 0.00000000
v -0.01600000 0.00920000 0.00611436
v -0.01600000 0.01000000 0.00590000
v -0.01600000 0.01000000 0.00910000
v -0.01600000 0.00920000 0.00888564
v -0.01600000 0.00820000 0.01200000
v -0.01600000 0.00861436 0.00830000
v -0.01600000 0.01080000 0.00611436
v -0.01600000 0.01138564 0.00670000
v -0.01600000 0.01160000 0.00750000
v -0.01600000 0.01325276 0.00938447
v -0.01600000 0.01138564 0.00830000
v -0.01600000 0.01232843 0.01082843
v -0.01600000 0.01080000 0.00888564
v -0.01600000 0.01088447 0.01175277
v -0.01600000 0.00950000 0.01200000
v -0.01600000 0.00732619 0.00321356
v -0.01600000 0.00588579 0.00541825
v -0.01600000 0.00380758 0.00703579
v -0.01600000 0.00131676 0.00789089
v -0.01600000 -0.00131676 0.00789089
v -0.01600000 -0.00861436 0.00830000
v -0.01600000 -0.00920000 0.00888564
v -0.01600000 -0.00950000 0.01200000
v -0.01600000 -0.01000000 0.00910000
v -0.01600000 -0.01088447 0.01175277
v -0.01600000 -0.01080000 0.00888564
v -0.01600000 -0.01232843 0.01082843
v -0.01600000 -0.01325276 0.00938447
v -0.01600000 -0.01138564 0.00830000
v -0.01600000 -0.01160000 0.00750000
v -0.01600000 -0.01000000 0.00590000
v -0.01600000 -0.00800000 -0.00000680
v -0.01600000 -0.01080000 0.00611436
v -0.01600000 -0.01138564 0.00670000
v -0.01600000 0.00797268 0.00066063
v -0.01600000 -0.00840000 0.00750000
v -0.01600000 -0.00380758 0.00703579
v -0.01600000 -0.00861436 0.00670000
v -0.01600000 -0.00588579 0.00541825
v -0.01600000 -0.00920000 0.00611436
v -0.01600000 -0.00732619 0.00321356
v -0.01600000 -0.00797268 0.00066063
v -0.01600000 0.00820000 -0.01750000
v -0.01600000 0.00259760 -0.00756654
v -0.01600000 0.00491370 -0.00631312
v -0.01600000 0.00669733 -0.00437559
v -0.01600000 0.00775520 -0.00196388
v -0.01600000 0.00800000 -0.00000680
v -0.01600000 -0.01080000 -0.00611436
v -0.01600000 -0.01000000 -0.00590000
v -0.01600000 -0.00920000 -0.00611436
v -0.01600000 -0.00775520 -0.00196388
v -0.01600000 -0.00861436 -0.00670000
v -0.01600000 -0.00669733 -0.00437559
v -0.01600000 -0.00840000 -0.00750000
v -0.01600000 -0.00491370 -0.00631312
v -0.01600000 -0.00861436 -0.00830000
v -0.01600000 -0.00259760 -0.00756654
v -0.01600000 0.00000000 -0.00800000
v -0.01600000 -0.01138564 -0.00670000
v -0.01600000 -0.01160000 -0.00750000
v -0.01600000 -0.01056245 -0.01619987
v -0.01600000 -0.01000000 -0.00910000
v -0.01600000 -0.01032950 -0.01683332
v -0.01600000 -0.01024695 -0.01750000
v -0.01600000 -0.00920000 -0.00888564
v -0.01600000 -0.01138564 -0.00830000
v -0.01600000 -0.01080000 -0.00888564
v -0.01600000 -0.01235824 -0.01423064
v -0.01600000 -0.01133884 -0.01510590
v -0.01600000 0.01080000 -0.00888564
v -0.01600000 0.01138564 -0.00830000
v -0.01600000 0.01160000 -0.00750000
v -0.01600000 0.01133387 -0.01511117
v -0.01600000 0.01056088 -0.01620308
v -0.01600000 0.01000000 -0.00910000
v -0.01600000 0.01138564 -0.00670000
v -0.01600000 0.01080000 -0.00611436
v -0.01600000 0.01000000 -0.00590000
v -0.01600000 0.00920000 -0.00611436
v -0.01600000 0.01201011 -0.01449193
v -0.01600000 0.00920000 -0.00888564
v -0.01600000 0.01024695 -0.01750000
v -0.01600000 0.01032932 -0.01683403
v -0.01600000 0.00861436 -0.00670000
v -0.01600000 0.00840000 -0.00750000
v -0.01600000 0.00861436 -0.00830000
v -0.01600000 0.01235434 -0.01423340
v -0.01746683 0.00286354 -0.04850000
v -0.01770000 0.00000422 -0.04850000
v -0.01900000 0.00000000 -0.04850000
v 0.01900000 0.01500000 -0.04850000
v 0.01900000 0.00000000 -0.04850000
v 0.01582500 0.01357106 -0.04850000
v 0.01644289 0.00655145 -0.04850000
v 0.01500000 0.01335000 -0.04850000
v 0.01465010 0.00993301 -0.04850000
v 0.01417500 0.01357106 -0.04850000
v 0.01642894 0.01417500 -0.04850000
v 0.01665000 0.01500000 -0.04850000
v 0.01869552 0.01653073 -0.04850000
v 0.01642894 0.01582500 -0.04850000
v 0.01782843 0.01782843 -0.04850000
v 0.01582500 0.01642894 -0.04850000
v 0.01653073 0.01869552 -0.04850000
v 0.01500000 0.01900000 -0.04850000
v 0.01500000 0.01665000 -0.04850000
v 0.01417500 0.01642894 -0.04850000
v -0.00000000 0.01900000 -0.04850000
v 0.01357106 0.01582500 -0.04850000
v 0.01357106 0.01417500 -0.04850000
v 0.01217228 0.01285012 -0.04850000
v 0.01335000 0.01500000 -0.04850000
v 0.00912530 0.01516637 -0.04850000
v 0.00565164 0.01677346 -0.04850000
v -0.01500000 0.01900000 -0.04850000
v -0.01500000 0.01665000 -0.04850000
v -0.01653073 0.01869552 -0.04850000
v -0.01582500 0.01642894 -0.04850000
v -0.01782843 0.01782843 -0.04850000
v -0.01642894 0.01582500 -0.04850000
v -0.01869552 0.01653073 -0.04850000
v -0.01900000 0.01500000 -0.04850000
v -0.01665000 0.01500000 -0.04850000
v -0.01642894 0.01417500 -0.04850000
v -0.01582500 0.01357106 -0.04850000
v 0.00191371 0.01759624 -0.04850000
v -0.00000000 0.01770000 -0.04850000
v -0.00191371 0.01759624 -0.04850000
v -0.01465010 0.00993301 -0.04850000
v -0.01417500 0.01357106 -0.04850000
v -0.01217228 0.01285012 -0.04850000
v -0.01357106 0.01417500 -0.04850000
v -0.00912530 0.01516637 -0.04850000
v -0.01335000 0.01500000 -0.04850000
v -0.00565164 0.01677346 -0.04850000
v -0.01357106 0.01582500 -0.04850000
v -0.01417500 0.01642894 -0.04850000
v -0.01644289 0.00655145 -0.04850000
v -0.01500000 0.01335000 -0.04850000
v -0.01582500 -0.01642894 -0.04850000
v -0.01500000 -0.01665000 -0.04850000
v -0.01500000 -0.01900000 -0.04850000
v -0.01417500 -0.01642894 -0.04850000
v -0.00000000 -0.01900000 -0.04850000
v -0.01357106 -0.01582500 -0.04850000
v -0.00380498 -0.01728618 -0.04850000
v -0.00743204 -0.01606409 -0.04850000
v -0.01335000 -0.01500000 -0.04850000
v -0.01071158 -0.01409085 -0.04850000
v -0.01357106 -0.01417500 -0.04850000
v -0.01349027 -0.01145874 -0.04850000
v -0.01417500 -0.01357106 -0.04850000
v -0.01563816 -0.00829083 -0.04850000
v -0.01900000 -0.01500000 -0.04850000
v -0.01582500 -0.01357106 -0.04850000
v -0.01653073 -0.01869552 -0.04850000
v -0.01782843 -0.01782843 -0.04850000
v -0.01642894 -0.01582500 -0.04850000
v -0.01869552 -0.01653073 -0.04850000
v -0.01665000 -0.01500000 -0.04850000
v -0.01642894 -0.01417500 -0.04850000
v -0.01767404 -0.00095826 -0.04850000
v -0.01705484 -0.00473525 -0.04850000
v -0.01500000 -0.01335000 -0.04850000
v 0.01767404 -0.00095826 -0.04850000
v 0.01770000 0.00000422 -0.04850000
v 0.01746683 0.00286354 -0.04850000
v 0.01500000 -0.01900000 -0.04850000
v 0.01357106 -0.01582500 -0.04850000
v 0.01417500 -0.01642894 -0.04850000
v 0.01500000 -0.01665000 -0.04850000
v 0.01653073 -0.01869552 -0.04850000
v 0.01582500 -0.01642894 -0.04850000
v 0.01782843 -0.01782843 -0.04850000
v 0.01642894 -0.01582500 -0.04850000
v 0.01869552 -0.01653073 -0.04850000
v 0.01900000 -0.01500000 -0.04850000
v 0.01582500 -0.01357106 -0.04850000
v 0.01642894 -0.01417500 -0.04850000
v 0.01665000 -0.01500000 -0.04850000
v 0.01705484 -0.00473525 -0.04850000
v 0.01563816 -0.00829083 -0.04850000
v 0.01500000 -0.01335000 -0.04850000
v 0.01349027 -0.01145874 -0.04850000
v 0.01417500 -0.01357106 -0.04850000
v 0.01071158 -0.01409085 -0.04850000
v 0.01357106 -0.01417500 -0.04850000
v 0.00743204 -0.01606409 -0.04850000
v -0.00000000 -0.01770000 -0.04850000
v 0.00380498 -0.01728618 -0.04850000
v 0.01335000 -0.01500000 -0.04850000
v -0.01468182 0.01206003 -0.01750000
v -0.01468182 0.01206003 -0.03850000
v -0.01518952 0.01141397 -0.01750000
v -0.01685312 0.00877338 -0.03850000
v -0.01685312 0.00877338 -0.01750000
v -0.01830004 0.00510964 -0.03850000
v -0.01830004 0.00510964 -0.01750000
v -0.01896039 0.00122628 -0.03850000
v -0.01896039 0.00122628 -0.01750000
v -0.01900000 0.00000000 -0.03850000
v -0.01880577 -0.00270979 -0.01750000
v -0.01880577 -0.00270979 -0.03850000
v -0.01784284 -0.00652939 -0.03850000
v -0.01784284 -0.00652939 -0.01750000
v -0.01611299 -0.01006834 -0.03850000
v -0.01611299 -0.01006834 -0.01750000
v -0.01369057 -0.01317454 -0.03850000
v -0.01466853 -0.01207619 -0.01750000
v -0.01067969 -0.01571446 -0.01750000
v -0.01131525 -0.01526319 -0.01750000
v -0.01067969 -0.01571446 -0.03850000
v -0.01308925 -0.01377213 -0.01750000
v -0.01369057 -0.01317454 -0.01750000
v -0.00942072 -0.01650000 -0.01750000
v -0.00720978 -0.01757894 -0.03850000
v -0.00720978 -0.01757894 -0.01750000
v -0.00342998 -0.01868784 -0.03850000
v -0.00342998 -0.01868784 -0.01750000
v -0.00000000 -0.01900000 -0.03850000
v 0.00049725 -0.01899349 -0.01750000
v 0.00049725 -0.01899349 -0.03850000
v 0.00440311 -0.01848277 -0.03850000
v 0.00440311 -0.01848277 -0.01750000
v 0.00811971 -0.01717761 -0.03850000
v 0.00811971 -0.01717761 -0.01750000
v 0.01148731 -0.01513412 -0.03850000
v 0.01148731 -0.01513412 -0.01750000
v 0.01436116 -0.01244014 -0.03850000
v 0.01436116 -0.01244014 -0.01750000
v 0.01661774 -0.00921145 -0.03850000
v 0.01661774 -0.00921145 -0.01750000
v 0.01816005 -0.00558683 -0.03850000
v 0.01816005 -0.00558683 -0.01750000
v 0.01892180 -0.00172208 -0.03850000
v 0.01892180 -0.00172208 -0.01750000
v 0.01900000 0.00000000 -0.03850000
v 0.01887025 0.00221669 -0.01750000
v 0.01887025 0.00221669 -0.03850000
v 0.01800761 0.00606019 -0.03850000
v 0.01800761 0.00606019 -0.01750000
v 0.01637097 0.00964320 -0.03850000
v 0.01637097 0.00964320 -0.01750000
v 0.01403067 0.01281172 -0.03850000
v 0.01403067 0.01281172 -0.01750000
v 0.01108730 0.01542957 -0.03850000
v 0.01108730 0.01542957 -0.01750000
v 0.00766737 0.01738423 -0.03850000
v 0.00766737 0.01738423 -0.01750000
v 0.00391789 0.01859167 -0.03850000
v 0.00391789 0.01859167 -0.01750000
v -0.00000000 0.01900000 -0.03850000
v -0.00000000 0.01900000 -0.01750000
v 0.00705692 0.01275538 -0.00799785
v 0.00732342 0.01242487 -0.00890000
v 0.00705692 0.01275538 -0.01450000
v 0.00768222 0.01197990 -0.00947990
v 0.01050923 0.00847385 -0.00984752
v 0.01050923 0.00847385 -0.01450000
v 0.01040518 0.00860289 -0.00992654
v 0.00986299 0.00927531 -0.01020459
v 0.00814980 0.01140000 -0.00992487
v 0.00869432 0.01072469 -0.01020459
v 0.00927866 0.01000000 -0.01030000
v 0.00814980 -0.01140000 0.00507513
v 0.00768222 -0.01197990 0.00552010
v 0.00814980 -0.01140000 -0.00507513
v 0.00705692 -0.01275538 0.00700215
v 0.00705692 -0.01275538 -0.00700215
v 0.00732342 -0.01242487 0.00610000
v 0.00732342 -0.01242487 -0.00610000
v 0.00768222 -0.01197990 -0.00552010
v 0.01050923 -0.00847385 0.00515248
v 0.01040751 -0.00860000 0.00507513
v 0.01050923 -0.00847385 -0.00515248
v 0.00986299 -0.00927531 0.00479541
v 0.01040518 -0.00860289 -0.00507346
v 0.00869432 -0.01072469 0.00479541
v 0.00869432 -0.01072469 -0.00479541
v 0.00927866 -0.01000000 0.00470000
v 0.00927866 -0.01000000 -0.00470000
v 0.00986299 -0.00927531 -0.00479541
v 0.00732342 0.01242487 -0.00610000
v 0.00705692 0.01275538 -0.00700215
v 0.00705692 0.01275538 0.00700215
v 0.00732342 0.01242487 0.00610000
v 0.00768222 0.01197990 0.00552010
v 0.00768222 0.01197990 -0.00552010
v 0.00814980 0.01140000 -0.00507513
v 0.00814980 0.01140000 0.00507513
v 0.00869432 0.01072469 0.00479541
v 0.01050923 0.00847385 -0.00515248
v 0.01040751 0.00860000 -0.00507513
v 0.01050923 0.00847385 0.00515248
v 0.00986299 0.00927531 -0.00479541
v 0.01040518 0.00860289 0.00507346
v 0.00986299 0.00927531 0.00479541
v 0.00927866 0.01000000 0.00470000
v 0.00927866 0.01000000 -0.00470000
v 0.00869432 0.01072469 -0.00479541
v -0.01360000 0.01900000 -0.01750000
v -0.01400000 0.01860000 -0.01750000
v 0.00550000 0.01650000 -0.01750000
v -0.01400000 0.01650000 -0.01750000
v 0.00660604 0.01637613 -0.01750000
v 0.00765728 0.01601067 -0.01750000
v 0.00550000 -0.01650000 -0.01750000
v 0.00660604 -0.01637613 -0.01750000
v 0.00765728 -0.01601067 -0.01750000
v 0.00860163 0.01542172 -0.01750000
v 0.00939231 0.01463846 -0.01750000
v 0.01284462 0.01035692 -0.01750000
v 0.01425473 0.00830980 -0.01750000
v 0.01534131 0.00607407 -0.01750000
v 0.01607969 0.00370047 -0.01750000
v 0.01645312 0.00124289 -0.01750000
v 0.01645312 -0.00124289 -0.01750000
v 0.01607969 -0.00370047 -0.01750000
v 0.01534131 -0.00607407 -0.01750000
v 0.01425473 -0.00830980 -0.01750000
v 0.01284462 -0.01035692 -0.01750000
v 0.00939231 -0.01463846 -0.01750000
v 0.00860163 -0.01542172 -0.01750000
v 0.01088620 -0.00798377 0.00555711
v 0.01088607 -0.00798395 -0.00555693
v 0.01117441 -0.00757513 -0.00610000
v 0.01117441 -0.00757513 0.00610000
v 0.01135731 -0.00729805 -0.00676551
v 0.01135736 -0.00729797 0.00676582
v 0.01214197 -0.00590107 0.00800000
v 0.01141972 -0.00720000 0.00750000
v 0.01178904 -0.00657789 0.00800000
v 0.01139122 -0.00724500 0.00800000
v 0.01214197 -0.00590107 -0.01450000
v 0.01141972 -0.00720000 -0.00750000
v 0.01135736 -0.00729797 -0.00823418
v 0.01088620 -0.00798377 -0.00944289
v 0.01050923 -0.00847385 -0.00984752
v 0.01050923 -0.00847385 -0.01450000
v 0.01117441 -0.00757513 -0.00890000
v 0.01166296 -0.00679892 -0.01450000
v 0.01166296 0.00679892 -0.01450000
v 0.01088607 0.00798395 -0.00944307
v 0.01214197 0.00590107 -0.01450000
v 0.01117441 0.00757513 -0.00890000
v 0.01135731 0.00729805 -0.00823449
v 0.01117441 0.00757513 0.00610000
v 0.01117441 0.00757513 -0.00610000
v 0.01088620 0.00798377 -0.00555711
v 0.01088592 0.00798416 0.00555671
v 0.01135736 0.00729797 -0.00676582
v 0.01214197 0.00590107 0.00800000
v 0.01141972 0.00720000 -0.00750000
v 0.01135732 0.00729804 0.00676556
v 0.01141972 0.00720000 0.00750000
v 0.01178904 0.00657789 0.00800000
v 0.01139122 0.00724500 0.00800000
v 0.01273037 -0.00449307 0.00800000
v 0.01255198 -0.00496969 -0.01450000
v 0.01315611 -0.00302766 0.00800000
v 0.01315611 -0.00302766 -0.01450000
v 0.01330620 -0.00227926 0.00800000
v 0.01346164 -0.00101691 -0.01450000
v 0.01350000 0.00000000 0.00800000
v 0.01315611 0.00302766 -0.01450000
v 0.01330620 0.00227926 0.00800000
v 0.01346164 0.00101691 -0.01450000
v 0.01350000 0.00000000 -0.01450000
v 0.01255198 0.00496969 -0.01450000
v 0.01273037 0.00449307 0.00800000
v 0.01315611 0.00302766 0.00800000
v -0.00000000 -0.01700000 -0.04780000
v -0.00365450 -0.01660255 -0.04780000
v -0.00000000 -0.01700000 -0.02050000
v -0.00378286 -0.01657377 -0.02050000
v -0.00378286 -0.01657377 -0.04780000
v -0.00713811 -0.01542878 -0.04780000
v -0.00737602 -0.01531647 -0.02050000
v -0.00737602 -0.01531647 -0.04780000
v -0.01028796 -0.01353358 -0.04780000
v -0.01059933 -0.01329114 -0.02050000
v -0.01059933 -0.01329114 -0.04780000
v -0.01295676 -0.01100557 -0.04780000
v -0.01329114 -0.01059933 -0.02050000
v -0.01329114 -0.01059933 -0.04780000
v -0.01501970 -0.00796294 -0.04780000
v -0.01531647 -0.00737602 -0.02050000
v -0.01531647 -0.00737602 -0.04780000
v -0.01638035 -0.00454798 -0.04780000
v -0.01657377 -0.00378286 -0.02050000
v -0.01657377 -0.00378286 -0.04780000
v -0.01697507 -0.00092036 -0.04780000
v -0.01700000 0.00000000 -0.02050000
v -0.01700000 0.00000000 -0.04780000
v -0.01677605 0.00275029 -0.04780000
v -0.01657377 0.00378286 -0.02050000
v -0.01657377 0.00378286 -0.04780000
v -0.01579260 0.00629235 -0.04780000
v -0.01531647 0.00737602 -0.02050000
v -0.01531647 0.00737602 -0.04780000
v -0.01407071 0.00954018 -0.04780000
v -0.01329114 0.01059933 -0.02050000
v -0.01329114 0.01059933 -0.04780000
v -0.01169089 0.01234192 -0.04780000
v -0.01059933 0.01329114 -0.02050000
v -0.01059933 0.01329114 -0.04780000
v -0.00876442 0.01456657 -0.04780000
v -0.00737602 0.01531647 -0.02050000
v -0.00737602 0.01531647 -0.04780000
v -0.00542813 0.01611010 -0.04780000
v -0.00378286 0.01657377 -0.02050000
v -0.00378286 0.01657377 -0.04780000
v -0.00183802 0.01690035 -0.04780000
v -0.00000000 0.01700000 -0.02050000
v -0.00000000 0.01700000 -0.04780000
v 0.00183802 0.01690035 -0.04780000
v 0.00378286 0.01657377 -0.02050000
v 0.00378286 0.01657377 -0.04780000
v 0.00542813 0.01611010 -0.04780000
v 0.00737602 0.01531647 -0.02050000
v 0.00737602 0.01531647 -0.04780000
v 0.00876442 0.01456657 -0.04780000
v 0.01059933 0.01329114 -0.02050000
v 0.01059933 0.01329114 -0.04780000
v 0.01169089 0.01234192 -0.04780000
v 0.01329114 0.01059933 -0.02050000
v 0.01329114 0.01059933 -0.04780000
v 0.01407071 0.00954018 -0.04780000
v 0.01531647 0.00737602 -0.02050000
v 0.01531647 0.00737602 -0.04780000
v 0.01579260 0.00629235 -0.04780000
v 0.01657377 0.00378286 -0.02050000
v 0.01657377 0.00378286 -0.04780000
v 0.01677605 0.00275029 -0.04780000
v 0.01700000 0.00000000 -0.02050000
v 0.01700000 0.00000000 -0.04780000
v 0.01697507 -0.00092036 -0.04780000
v 0.01657377 -0.00378286 -0.02050000
v 0.01657377 -0.00378286 -0.04780000
v 0.01638035 -0.00454798 -0.04780000
v 0.01531647 -0.00737602 -0.02050000
v 0.01531647 -0.00737602 -0.04780000
v 0.01501970 -0.00796294 -0.04780000
v 0.01329114 -0.01059933 -0.02050000
v 0.01329114 -0.01059933 -0.04780000
v 0.01295676 -0.01100557 -0.04780000
v 0.01059933 -0.01329114 -0.02050000
v 0.01059933 -0.01329114 -0.04780000
v 0.01028796 -0.01353358 -0.04780000
v 0.00737602 -0.01531647 -0.02050000
v 0.00737602 -0.01531647 -0.04780000
v 0.00713811 -0.01542878 -0.04780000
v 0.00378286 -0.01657377 -0.02050000
v 0.00378286 -0.01657377 -0.04780000
v 0.00365450 -0.01660255 -0.04780000
v -0.00195959 0.00950000 0.01200000
v -0.00348509 0.00905230 0.01200000
v -0.00601084 0.00761313 0.01200000
v -0.00601084 -0.00761313 0.01200000
v -0.00348509 -0.00905230 0.01200000
v -0.00195959 -0.00950000 0.01200000
v -0.00926440 0.00287417 0.01200000
v -0.00799673 0.00549020 0.01200000
v -0.00799673 -0.00549020 0.01200000
v -0.00926440 -0.00287417 0.01200000
v -0.00970000 0.00000000 0.01200000
v -0.00754026 -0.00491370 -0.00631312
v -0.00702995 -0.00561959 -0.00569388
v -0.00703648 -0.00561141 -0.01980000
v -0.00198826 -0.00877763 0.00853238
v -0.00265280 -0.00860015 0.00827488
v -0.00265280 -0.00860015 0.01130000
v 0.00199286 -0.00877659 -0.00853115
v 0.00265280 -0.00860015 -0.00827488
v 0.00265280 -0.00860015 -0.01980000
v -0.00090753 0.00895413 0.01129656
v -0.00134138 0.00889948 0.00866140
v 0.00000426 0.00900000 0.01129393
v -0.00000000 0.00900000 0.00874900
v 0.00087655 0.00895721 0.01129641
v 0.00134138 0.00889948 0.00866140
v -0.00260630 0.00861436 -0.00830000
v -0.00302719 0.00847562 -0.00798607
v -0.00390495 0.00810872 -0.01980000
v -0.00317333 0.00842199 -0.00723562
v -0.00390495 0.00810872 0.01130000
v -0.00323110 0.00840000 -0.00750000
v -0.00317363 0.00842188 -0.00776369
v -0.00302719 0.00847562 0.00701393
v -0.00293224 0.00850893 -0.00691972
v -0.00199316 0.00877652 0.00646893
v -0.00260630 0.00861436 0.00670000
v -0.00199342 0.00877646 -0.00646900
v -0.00260630 0.00861436 -0.00670000
v -0.00317363 0.00842188 0.00723631
v -0.00323110 0.00840000 0.00750000
v -0.00317333 0.00842199 0.00776438
v -0.00293224 0.00850893 0.00808028
v -0.00260630 0.00861436 0.00830000
v -0.00323359 0.00839904 0.01130000
v -0.00199342 0.00877646 0.00853100
v -0.00181818 0.00881443 0.01130000
v -0.00134138 0.00889948 0.01129873
v 0.00302710 0.00847565 0.00798617
v 0.00317313 0.00842207 0.00776482
v 0.00388310 0.00811921 0.01130000
v 0.00260630 0.00861436 0.00830000
v 0.00198986 0.00877727 0.00853195
v 0.00181818 0.00881443 0.01130000
v 0.00145643 0.00888138 0.01129922
v 0.00323110 0.00840000 0.00750000
v 0.00317333 0.00842199 0.00723561
v 0.00390495 0.00810872 -0.01980000
v 0.00302710 0.00847565 -0.00701383
v 0.00293214 0.00850897 0.00691963
v 0.00260630 0.00861436 -0.00670000
v 0.00260630 0.00861436 0.00670000
v 0.00199233 0.00877671 0.00646871
v -0.00134138 0.00889948 0.00633860
v -0.00134138 0.00889948 -0.00633860
v 0.00000273 0.00900000 0.00625100
v -0.00000000 0.00900000 -0.00625100
v 0.00134138 0.00889948 0.00633860
v 0.00134138 0.00889948 -0.00633860
v 0.00198986 0.00877727 -0.00646805
v 0.00317313 0.00842207 -0.00723518
v 0.00323110 0.00840000 -0.00750000
v 0.00317333 0.00842199 -0.00776439
v 0.00293214 0.00850897 -0.00808037
v 0.00317900 -0.00841986 -0.00775129
v 0.00323110 -0.00840000 -0.00750000
v 0.00506988 -0.00743615 -0.01980000
v 0.00304459 -0.00846938 -0.00796606
v 0.00323110 -0.00840000 0.00750000
v 0.00506988 -0.00743615 0.01130000
v 0.00317900 -0.00841986 0.00724871
v 0.00317874 -0.00841995 -0.00724810
v 0.00304459 -0.00846938 0.00703394
v 0.00295667 -0.00850048 -0.00694194
v 0.00265280 -0.00860015 0.00672512
v 0.00265596 -0.00859918 -0.00672689
v 0.00199286 -0.00877659 0.00646885
v 0.00295667 -0.00850048 0.00805806
v 0.00265596 -0.00859918 0.00827311
v 0.00265280 -0.00860015 0.01130000
v 0.00317874 -0.00841995 0.00775190
v 0.00388310 -0.00811921 0.01130000
v -0.00260630 -0.00861436 -0.00830000
v -0.00199060 -0.00877710 -0.00853175
v -0.00265280 -0.00860015 -0.01980000
v -0.00100441 -0.00894378 -0.00870183
v -0.00000000 -0.00900000 -0.01980000
v -0.00000000 -0.00900000 -0.00874900
v 0.00134077 -0.00889957 -0.00866149
v -0.00323359 -0.00839904 0.01130000
v -0.00304471 -0.00846934 0.00796592
v -0.00506988 -0.00743615 0.01130000
v -0.00317859 -0.00842001 0.00775225
v -0.00323110 -0.00840000 0.00750000
v -0.00505416 -0.00744684 0.00292310
v -0.00304471 -0.00846934 -0.00703408
v -0.00317859 -0.00842001 -0.00724775
v -0.00505173 -0.00744849 -0.00291890
v -0.00265280 -0.00860015 -0.00672512
v -0.00456693 -0.00775520 -0.00196388
v -0.00424696 -0.00793494 -0.00101819
v -0.00412312 -0.00799999 -0.00001142
v -0.00417570 -0.00797268 0.00066063
v -0.00265596 -0.00859918 0.00672689
v -0.00317875 -0.00841995 0.00724812
v -0.00295691 -0.00850039 0.00694217
v -0.00458690 -0.00774341 0.00200988
v -0.00433968 -0.00788462 0.00135382
v -0.00323110 -0.00840000 -0.00750000
v -0.00317875 -0.00841995 -0.00775188
v -0.00506988 -0.00743615 -0.01980000
v -0.00295691 -0.00850039 -0.00805783
v -0.00265596 -0.00859918 -0.00827311
v -0.00260630 -0.00861436 0.00670000
v -0.00199060 -0.00877710 0.00646824
v 0.00260630 -0.00861436 -0.00670000
v 0.00199262 -0.00877664 -0.00646879
v 0.00134077 -0.00889957 0.00633851
v 0.00133972 -0.00889973 -0.00633836
v -0.00000000 -0.00900000 0.00625100
v -0.00000000 -0.00900000 -0.00625100
v -0.00100441 -0.00894378 0.00629817
v -0.00133810 -0.00889997 -0.00633813
v -0.00198826 -0.00877763 -0.00646762
v 0.00260630 0.00861436 -0.00830000
v 0.00199233 0.00877671 -0.00853129
v 0.00134138 0.00889948 -0.01980000
v 0.00134138 0.00889948 -0.00866140
v -0.00000000 0.00900000 -0.01980000
v 0.00000273 0.00900000 -0.00874900
v -0.00134138 0.00889948 -0.01980000
v -0.00134138 0.00889948 -0.00866140
v -0.00199316 0.00877652 -0.00853107
v 0.00260630 -0.00861436 0.00830000
v 0.00199262 -0.00877664 0.00853121
v 0.00181818 -0.00881443 0.01130000
v 0.00133972 -0.00889973 0.00866164
v 0.00090753 -0.00895413 0.01129656
v -0.00000426 -0.00900000 0.01129393
v -0.00000000 -0.00900000 0.00874900
v -0.00087655 -0.00895721 0.01129641
v -0.00133810 -0.00889997 0.00866187
v -0.00145643 -0.00888138 0.01129922
v -0.00181818 -0.00881443 0.01130000
v -0.00897483 -0.00067257 -0.01980000
v -0.00877435 0.00200269 -0.01980000
v -0.00890155 0.00132755 -0.00788908
v -0.00778920 0.00450870 -0.00660845
v -0.00814462 0.00382951 -0.00702388
v -0.00779423 0.00450000 -0.01980000
v -0.00861699 0.00259760 -0.00756654
v -0.00877298 0.00200868 -0.00774372
v -0.00754026 0.00491370 -0.00631312
v -0.00612155 0.00659747 -0.01980000
v -0.00680276 0.00589258 -0.00541087
v -0.00473177 0.00765574 0.00232156
v -0.00433922 0.00788487 0.00135235
v -0.00612155 0.00659747 0.01130000
v -0.00611691 0.00660177 0.00451848
v -0.00557707 0.00706373 0.01130000
v -0.00601411 0.00669556 0.00437829
v -0.00522752 0.00732619 0.00321356
v -0.00417570 0.00797268 0.00066063
v -0.00412313 0.00799999 -0.00001350
v -0.00417994 0.00797045 -0.00068693
v -0.00456693 0.00775520 -0.00196388
v -0.00524456 0.00731400 -0.00324120
v -0.00601213 0.00669733 -0.00437559
v -0.00611686 0.00660182 -0.00451841
v -0.00779423 0.00450000 0.01130000
v -0.00778882 0.00450935 0.00660801
v -0.00741965 0.00509400 0.01130000
v -0.00752931 0.00493046 0.00630004
v -0.00680863 0.00588579 0.00541825
v -0.00877435 0.00200269 0.01130000
v -0.00877290 0.00200902 0.00774363
v -0.00859584 0.00266676 0.01130000
v -0.00861030 0.00261967 0.00755892
v -0.00815490 0.00380758 0.00703579
v -0.00703036 -0.00561908 0.00569437
v -0.00752534 -0.00493653 0.00629529
v -0.00703648 -0.00561141 0.01130000
v -0.00815490 -0.00380758 0.00703579
v -0.00741965 -0.00509400 0.01130000
v -0.00837466 -0.00329623 0.00728937
v -0.00837786 -0.00328807 0.01130000
v -0.00861070 -0.00261838 0.00755937
v -0.00859584 -0.00266676 0.01130000
v -0.00890315 -0.00131676 0.00789089
v -0.00897483 -0.00067257 0.01130000
v -0.00897467 -0.00067481 0.00797149
v -0.00900000 0.00000000 0.01130000
v -0.00900000 0.00000512 0.00800000
v -0.00890315 0.00131676 0.00789089
v -0.00522752 -0.00732619 0.00321356
v -0.00601142 -0.00669798 0.00437460
v -0.00680863 -0.00588579 0.00541825
v -0.00557707 -0.00706373 0.01130000
v -0.00680093 -0.00589469 -0.00540857
v -0.00601213 -0.00669733 -0.00437559
v -0.00524284 -0.00731524 -0.00323841
v -0.00900000 0.00000000 -0.00800000
v -0.00897466 -0.00067490 -0.00797148
v -0.00837786 -0.00328807 -0.01980000
v -0.00890037 -0.00133544 -0.00788775
v -0.00861699 -0.00259760 -0.00756654
v -0.00837440 -0.00329687 -0.00728908
v -0.00814378 -0.00383129 -0.00702291
v 0.00572044 0.00694813 0.01130000
v 0.00612155 0.00659747 -0.01980000
v 0.00612156 0.00659747 0.01129852
v 0.00700615 0.00564923 0.01129393
v 0.00779423 0.00450000 0.01129393
v 0.00779423 0.00450000 -0.01980000
v 0.00811236 0.00389739 0.01129393
v 0.00877435 0.00200269 -0.01980000
v 0.00877435 0.00200269 0.01129393
v 0.00889989 0.00133861 0.01129393
v 0.00897483 -0.00067257 -0.01980000
v 0.00897483 -0.00067257 0.01129393
v 0.00889989 -0.00133861 0.01129393
v 0.00837786 -0.00328807 -0.01980000
v 0.00837786 -0.00328807 0.01129393
v 0.00811236 -0.00389739 0.01129393
v 0.00703648 -0.00561141 -0.01980000
v 0.00700615 -0.00564923 0.01129393
v 0.00572044 -0.00694813 0.01130000
v 0.00546420 -0.00801452 -0.02050000
v 0.00285913 -0.00926906 -0.02050000
v -0.00000000 -0.00970000 -0.02050000
v -0.00285913 -0.00926906 -0.02050000
v 0.00659768 0.00711060 -0.02050000
v 0.00840045 0.00485000 -0.02050000
v 0.00945680 0.00215845 -0.02050000
v 0.00967288 -0.00072488 -0.02050000
v 0.00902948 -0.00354381 -0.02050000
v 0.00758377 -0.00604785 -0.02050000
v -0.00902948 -0.00354381 -0.02050000
v -0.00967288 -0.00072488 -0.02050000
v -0.00945680 0.00215845 -0.02050000
v -0.00840045 0.00485000 -0.02050000
v -0.00546420 -0.00801452 -0.02050000
v -0.00758377 -0.00604785 -0.02050000
v -0.00659768 0.00711060 -0.02050000
v -0.00420867 0.00873940 -0.02050000
v -0.00144571 0.00959166 -0.02050000
v -0.00000000 0.00970000 -0.02050000
v 0.00144571 0.00959166 -0.02050000
v 0.00420867 0.00873940 -0.02050000
v 0.00636291 -0.01330427 0.00800000
v 0.00701987 -0.01280000 -0.00750000
v 0.00701987 -0.01280000 0.00750000
v 0.00705692 -0.01275538 0.00799785
v 0.00705724 -0.01275500 0.00800000
v 0.00705692 -0.01275538 -0.01450000
v 0.00705692 -0.01275538 -0.00799785
v 0.00674065 -0.01306869 -0.01450000
v 0.00636291 -0.01330427 -0.01450000
v 0.00594242 -0.01345045 -0.01450000
v 0.00814980 -0.01140000 -0.00992487
v 0.00768222 -0.01197990 -0.00947990
v 0.00732342 -0.01242487 -0.00890000
v 0.01040751 -0.00860000 -0.00992487
v 0.00986299 -0.00927531 -0.01020459
v 0.00927866 -0.01000000 -0.01030000
v 0.00869432 -0.01072469 -0.01020459
v 0.00701987 0.01280000 0.00750000
v 0.00636291 0.01330427 0.00800000
v 0.00705692 0.01275538 0.00799785
v 0.00705692 0.01275538 0.00800000
v 0.00701987 0.01280000 -0.00750000
v 0.00594242 0.01345045 -0.01450000
v 0.00636291 0.01330427 -0.01450000
v 0.00674065 0.01306869 -0.01450000
v 0.00478090 -0.01049284 0.01187483
v 0.00097811 -0.00968250 0.01199583
v 0.00487422 -0.01088310 0.01175327
v -0.00000459 -0.00974242 0.01199265
v -0.00094473 -0.00968653 0.01199565
v -0.00156971 -0.00958746 0.01199906
v 0.00515914 -0.01207459 0.01106128
v 0.00521957 -0.01232731 0.01082954
v 0.00541108 -0.01312816 0.00968419
v 0.00497524 -0.01040276 0.01188603
v 0.00516734 -0.01030802 0.01187483
v 0.00568071 -0.01187786 0.01112396
v 0.00682327 -0.01245276 0.00968419
v 0.00632005 -0.01180100 0.01082954
v 0.00616125 -0.01159532 0.01106128
v 0.00541257 -0.01062563 0.01175327
v 0.00617837 -0.01291841 0.00975717
v 0.00834427 -0.01000000 0.01030000
v 0.00903368 -0.00925451 0.01019893
v 0.00959721 -0.00773846 0.01082843
v 0.00977344 -0.00860000 0.00992487
v 0.00995819 -0.00802953 0.01027196
v 0.01022155 -0.00824189 0.00967923
v 0.00719167 -0.01242487 0.00890000
v 0.00729122 -0.01207094 0.00938447
v 0.00751574 -0.01140000 0.00992487
v 0.00786419 -0.01068919 0.01021386
v 0.00850010 -0.00685384 0.01173981
v 0.00758410 -0.00611524 0.01199265
v 0.00931609 -0.00751179 0.01114840
v 0.00878156 0.00421889 0.01199265
v 0.00918701 0.00324247 0.01199265
v 0.01029661 0.00363410 0.01173981
v 0.00963406 0.00144904 0.01199265
v 0.00974242 0.00000000 0.01199265
v 0.01091910 0.00000000 0.01173981
v 0.01312774 -0.00224869 0.00918984
v 0.01127155 0.00737714 0.00848011
v 0.01163092 0.00648966 0.00918984
v 0.01105028 0.00757513 0.00890000
v 0.01066634 0.00789129 0.00934210
v 0.01117089 0.00623298 0.01027196
v 0.01127178 -0.00737692 0.00847952
v 0.01163092 -0.00648966 0.00918984
v 0.01117089 -0.00623298 0.01027196
v 0.01066688 -0.00789085 0.00934160
v 0.01105028 -0.00757513 0.00890000
v 0.01045059 -0.00583108 0.01114840
v 0.00953524 -0.00532034 0.01173981
v 0.01255963 -0.00443281 0.00918984
v 0.01206287 -0.00425748 0.01027196
v 0.01260851 -0.00215975 0.01027196
v 0.01128505 -0.00398296 0.01114840
v 0.01179551 -0.00202049 0.01114840
v 0.01029661 -0.00363410 0.01173981
v 0.01076235 -0.00184351 0.01173981
v 0.01331894 0.00000000 0.00918984
v 0.01279214 0.00000000 0.01027196
v 0.01196731 0.00000000 0.01114840
v 0.00918701 -0.00324247 0.01199265
v 0.00878156 -0.00421889 0.01199265
v 0.00850769 -0.00474701 0.01199265
v 0.00960257 -0.00164485 0.01199265
v 0.00963406 -0.00144904 0.01199265
v 0.00960257 0.00164485 0.01199265
v 0.01076235 0.00184351 0.01173981
v 0.01179551 0.00202049 0.01114840
v 0.01260851 0.00215975 0.01027196
v 0.01312774 0.00224869 0.00918984
v 0.01255963 0.00443281 0.00918984
v 0.01206287 0.00425748 0.01027196
v 0.01128505 0.00398296 0.01114840
v 0.00850769 0.00474701 0.01199265
v 0.00953524 0.00532034 0.01173981
v 0.01045059 0.00583108 0.01114840
v 0.00758410 0.00611524 0.01199265
v 0.00850010 0.00685384 0.01173981
v 0.00931609 0.00751179 0.01114840
v 0.00959721 0.00773846 0.01082843
v 0.00995819 0.00802953 0.01027196
v 0.01022155 0.00824189 0.00967923
v 0.00516734 0.01030802 0.01187483
v 0.00903604 0.00925224 0.01019831
v 0.00977344 0.00860000 0.00992487
v 0.00834427 0.01000000 0.01030000
v 0.00632005 0.01180100 0.01082954
v 0.00616125 0.01159532 0.01106128
v 0.00541257 0.01062563 0.01175327
v 0.00786433 0.01068896 0.01021392
v 0.00751574 0.01140000 0.00992487
v 0.00682327 0.01245276 0.00968419
v 0.00719167 0.01242487 0.00890000
v 0.00729122 0.01207094 0.00938447
v 0.00497524 0.01040276 0.01188603
v 0.00478090 0.01049284 0.01187483
v 0.00568071 0.01187786 0.01112396
v 0.00541108 0.01312816 0.00968419
v 0.00521957 0.01232731 0.01082954
v 0.00515914 0.01207459 0.01106128
v 0.00487422 0.01088310 0.01175327
v 0.00617837 0.01291841 0.00975717
v -0.00097811 0.00968250 0.01199583
v 0.00000459 0.00974242 0.01199265
v 0.00094473 0.00968653 0.01199565
v 0.00156971 0.00958746 0.01199906
v 0.00600000 0.00861436 0.00830000
v 0.00600000 0.00920000 0.00888564
v 0.00600000 0.00840000 0.00750000
v 0.00600000 0.00861436 0.00670000
v 0.00600000 0.00920000 0.00611436
v 0.00600000 0.01000000 0.00910000
v 0.00600000 0.01080000 0.00888564
v 0.00600000 0.01138564 0.00830000
v 0.00600000 0.01160000 0.00750000
v 0.00600000 0.01138564 0.00670000
v 0.00600000 0.01080000 0.00611436
v 0.00600000 0.01000000 0.00590000
v 0.00600000 0.01280000 0.00750000
v 0.00600000 0.01242487 0.00610000
v 0.00600000 0.01140000 0.00507513
v 0.00600000 0.01000000 0.00470000
v 0.00600000 0.00860000 0.00507513
v 0.00600000 0.00757513 0.00610000
v 0.00600000 0.00720000 0.00750000
v 0.00600000 0.00757513 0.00890000
v 0.00600000 0.00860000 0.00992487
v 0.00600000 0.01000000 0.01030000
v 0.00600000 0.01140000 0.00992487
v 0.00600000 0.01242487 0.00890000
v 0.00600000 -0.00861436 0.00670000
v 0.00600000 -0.00920000 0.00611436
v 0.00600000 -0.00920000 0.00888564
v 0.00600000 -0.00861436 0.00830000
v 0.00600000 -0.00840000 0.00750000
v 0.00600000 -0.01000000 0.00590000
v 0.00600000 -0.01080000 0.00611436
v 0.00600000 -0.01138564 0.00670000
v 0.00600000 -0.01160000 0.00750000
v 0.00600000 -0.01138564 0.00830000
v 0.00600000 -0.01080000 0.00888564
v 0.00600000 -0.01000000 0.00910000
v 0.00600000 -0.00861436 -0.00830000
v 0.00600000 -0.00920000 -0.00888564
v 0.00600000 -0.00920000 -0.00611436
v 0.00600000 -0.00861436 -0.00670000
v 0.00600000 -0.00840000 -0.00750000
v 0.00600000 -0.01000000 -0.00910000
v 0.00600000 -0.01080000 -0.00888564
v 0.00600000 -0.01138564 -0.00830000
v 0.00600000 -0.01160000 -0.00750000
v 0.00600000 -0.01138564 -0.00670000
v 0.00600000 -0.01080000 -0.00611436
v 0.00600000 -0.01000000 -0.00590000
v 0.00600000 0.00861436 -0.00670000
v 0.00600000 0.00920000 -0.00611436
v 0.00600000 0.00840000 -0.00750000
v 0.00600000 0.00861436 -0.00830000
v 0.00600000 0.00920000 -0.00888564
v 0.00600000 0.01000000 -0.00590000
v 0.00600000 0.01080000 -0.00611436
v 0.00600000 0.01138564 -0.00670000
v 0.00600000 0.01160000 -0.00750000
v 0.00600000 0.01138564 -0.00830000
v 0.00600000 0.01080000 -0.00888564
v 0.00600000 0.01000000 -0.00910000
v 0.00600000 0.00757513 -0.00890000
v 0.00600000 0.00860000 -0.00992487
v 0.00600000 0.00720000 -0.00750000
v 0.00600000 0.00757513 -0.00610000
v 0.00600000 0.00860000 -0.00507513
v 0.00600000 0.01000000 -0.00470000
v 0.00600000 0.01140000 -0.00507513
v 0.00600000 0.01242487 -0.00610000
v 0.00600000 0.01242487 -0.00890000
v 0.00600000 0.01280000 -0.00750000
v 0.00600000 0.01140000 -0.00992487
v 0.00600000 0.01000000 -0.01030000
v 0.00600000 -0.01140000 -0.00507513
v 0.00600000 -0.01242487 -0.00610000
v 0.00600000 -0.01000000 -0.00470000
v 0.00600000 -0.00860000 -0.00507513
v 0.00600000 -0.00757513 -0.00610000
v 0.00600000 -0.00720000 -0.00750000
v 0.00600000 -0.00757513 -0.00890000
v 0.00600000 -0.00860000 -0.00992487
v 0.00600000 -0.01000000 -0.01030000
v 0.00600000 -0.01140000 -0.00992487
v 0.00600000 -0.01242487 -0.00890000
v 0.00600000 -0.01280000 -0.00750000
v 0.00600000 -0.01280000 0.00750000
v 0.00600000 -0.00860000 0.00507513
v 0.00600000 -0.00757513 0.00610000
v 0.00600000 -0.01000000 0.00470000
v 0.00600000 -0.01140000 0.00507513
v 0.00600000 -0.01242487 0.00610000
v 0.00600000 -0.01140000 0.00992487
v 0.00600000 -0.01242487 0.00890000
v 0.00600000 -0.01000000 0.01030000
v 0.00600000 -0.00860000 0.00992487
v 0.00600000 -0.00757513 0.00890000
v 0.00600000 -0.00720000 0.00750000
v -0.01900000 -0.01500000 -0.03850000
v -0.01900000 0.01500000 -0.03850000
v 0.01500000 -0.01900000 -0.03850000
v -0.01500000 -0.01900000 -0.03850000
v 0.01900000 0.01500000 -0.03850000
v 0.01900000 -0.01500000 -0.03850000
v -0.01500000 0.01900000 -0.03850000
v -0.01360000 0.01900000 -0.03850000
v -0.01280000 0.01900000 -0.02870000
v -0.01269282 0.01900000 -0.02910000
v -0.01200000 0.01900000 -0.02950000
v -0.01160000 0.01900000 -0.02939282
v -0.01269282 0.01900000 -0.02830000
v -0.01269282 0.01900000 -0.02110000
v -0.01240000 0.01900000 -0.02139282
v -0.01240000 0.01900000 -0.02939282
v 0.01500000 0.01900000 -0.03850000
v -0.01130718 0.01900000 -0.02910000
v -0.01120000 0.01900000 -0.02870000
v -0.01130718 0.01900000 -0.02830000
v -0.01130718 0.01900000 -0.02110000
v -0.01120000 0.01900000 -0.02070000
v -0.01240000 0.01900000 -0.02000718
v -0.01269282 0.01900000 -0.02030000
v -0.01280000 0.01900000 -0.02070000
v -0.01130718 0.01900000 -0.02030000
v -0.01160000 0.01900000 -0.02000718
v -0.01200000 0.01900000 -0.01990000
v -0.01160000 0.01900000 -0.02139282
v -0.01160000 0.01900000 -0.02800718
v -0.01200000 0.01900000 -0.02150000
v -0.01200000 0.01900000 -0.02790000
v -0.01240000 0.01900000 -0.02800718
v -0.01357106 -0.01417500 -0.03850000
v -0.01335000 -0.01500000 -0.03850000
v -0.01357106 -0.01582500 -0.03850000
v -0.01869552 -0.01653073 -0.03850000
v -0.01642894 -0.01582500 -0.03850000
v -0.01782843 -0.01782843 -0.03850000
v -0.01582500 -0.01642894 -0.03850000
v -0.01653073 -0.01869552 -0.03850000
v -0.01500000 -0.01665000 -0.03850000
v -0.01417500 -0.01642894 -0.03850000
v -0.01665000 -0.01500000 -0.03850000
v -0.01642894 -0.01417500 -0.03850000
v -0.01582500 -0.01357106 -0.03850000
v -0.01500000 -0.01335000 -0.03850000
v -0.01417500 -0.01357106 -0.03850000
v -0.01400000 0.01860000 -0.03850000
v -0.01582500 0.01642894 -0.03850000
v -0.01500000 0.01665000 -0.03850000
v -0.01417500 0.01642894 -0.03850000
v -0.01400000 0.01631244 -0.03850000
v -0.01653073 0.01869552 -0.03850000
v -0.01782843 0.01782843 -0.03850000
v -0.01642894 0.01582500 -0.03850000
v -0.01869552 0.01653073 -0.03850000
v -0.01665000 0.01500000 -0.03850000
v -0.01642894 0.01417500 -0.03850000
v -0.01582500 0.01357106 -0.03850000
v -0.01500000 0.01335000 -0.03850000
v -0.01417500 0.01357106 -0.03850000
v -0.01417559 0.01295294 -0.03850000
v -0.01401377 0.01367718 -0.03850000
v 0.01335000 0.01500000 -0.03850000
v 0.01357106 0.01582500 -0.03850000
v 0.01417500 0.01642894 -0.03850000
v 0.01500000 0.01665000 -0.03850000
v 0.01653073 0.01869552 -0.03850000
v 0.01582500 0.01642894 -0.03850000
v 0.01782843 0.01782843 -0.03850000
v 0.01642894 0.01582500 -0.03850000
v 0.01869552 0.01653073 -0.03850000
v 0.01665000 0.01500000 -0.03850000
v 0.01642894 0.01417500 -0.03850000
v 0.01582500 0.01357106 -0.03850000
v 0.01500000 0.01335000 -0.03850000
v 0.01417500 0.01357106 -0.03850000
v 0.01357106 0.01417500 -0.03850000
v 0.01653073 -0.01869552 -0.03850000
v 0.01782843 -0.01782843 -0.03850000
v 0.01869552 -0.01653073 -0.03850000
v 0.01582500 -0.01642894 -0.03850000
v 0.01500000 -0.01665000 -0.03850000
v 0.01417500 -0.01642894 -0.03850000
v 0.01357106 -0.01582500 -0.03850000
v 0.01642894 -0.01582500 -0.03850000
v 0.01665000 -0.01500000 -0.03850000
v 0.01642894 -0.01417500 -0.03850000
v 0.01335000 -0.01500000 -0.03850000
v 0.01357106 -0.01417500 -0.03850000
v 0.01417500 -0.01357106 -0.03850000
v 0.01500000 -0.01335000 -0.03850000
v 0.01582500 -0.01357106 -0.03850000
v -0.00000000 -0.02925000 -0.00350000
v 0.00151859 -0.02925000 -0.00315339
v -0.00000000 -0.02925000 0.00000000
v -0.00151859 -0.02925000 -0.00315339
v -0.00341225 -0.02925000 0.00077882
v -0.00341225 -0.02925000 -0.00077882
v -0.00273641 -0.02925000 -0.00218221
v -0.00000000 -0.02925000 0.00350000
v -0.00151859 -0.02925000 0.00315339
v -0.00273641 -0.02925000 0.00218221
v 0.00341225 -0.02925000 0.00077882
v 0.00273641 -0.02925000 0.00218221
v 0.00151859 -0.02925000 0.00315339
v 0.00273641 -0.02925000 -0.00218221
v 0.00341225 -0.02925000 -0.00077882
v -0.00173553 -0.02875000 -0.00360388
v -0.00312733 -0.02875000 -0.00249396
v -0.00389971 -0.02875000 -0.00089008
v -0.00389971 -0.02875000 0.00089008
v -0.00312733 -0.02875000 0.00249396
v -0.00173553 -0.02875000 0.00360388
v -0.00000000 -0.02875000 0.00400000
v 0.00173553 -0.02875000 0.00360388
v 0.00312733 -0.02875000 0.00249396
v 0.00389971 -0.02875000 0.00089008
v 0.00389971 -0.02875000 -0.00089008
v 0.00312733 -0.02875000 -0.00249396
v 0.00173553 -0.02875000 -0.00360388
v -0.00000000 -0.02875000 -0.00400000
v -0.00000000 0.02925000 0.00350000
v 0.00151859 0.02925000 0.00315339
v -0.00000000 0.02925000 0.00000000
v -0.00151859 0.02925000 0.00315339
v -0.00341225 0.02925000 -0.00077882
v -0.00341225 0.02925000 0.00077882
v -0.00273641 0.02925000 0.00218221
v -0.00000000 0.02925000 -0.00350000
v -0.00151859 0.02925000 -0.00315339
v -0.00273641 0.02925000 -0.00218221
v 0.00341225 0.02925000 -0.00077882
v 0.00273641 0.02925000 -0.00218221
v 0.00151859 0.02925000 -0.00315339
v 0.00273641 0.02925000 0.00218221
v 0.00341225 0.02925000 0.00077882
v -0.00000000 0.02875000 -0.00400000
v -0.00173553 0.02875000 -0.00360388
v -0.00312733 0.02875000 -0.00249396
v -0.00389971 0.02875000 -0.00089008
v -0.00389971 0.02875000 0.00089008
v -0.00312733 0.02875000 0.00249396
v -0.00173553 0.02875000 0.00360388
v -0.00000000 0.02875000 0.00400000
v 0.00173553 0.02875000 0.00360388
v 0.00312733 0.02875000 0.00249396
v 0.00389971 0.02875000 0.00089008
v 0.00389971 0.02875000 -0.00089008
v 0.00312733 0.02875000 -0.00249396
v 0.00173553 0.02875000 -0.00360388
v -0.01400000 0.01432129 -0.01657197
v -0.01400000 0.01432552 -0.01656679
v -0.01400000 0.01500000 -0.01709808
v -0.01400000 0.01420163 -0.01673657
v -0.01400000 0.01448796 -0.03808363
v -0.01400000 0.01396424 -0.03827365
v -0.01400000 0.01396424 -0.01750000
v -0.01400000 0.01499478 -0.03800945
v -0.01400000 0.01549892 -0.03808007
v -0.01400000 0.01631244 -0.03840000
v -0.01400000 0.01399143 -0.01723777
v -0.01400000 0.01406274 -0.01700332
v -0.01200000 0.01331931 -0.02870000
v -0.01240000 0.01380000 -0.02939282
v -0.01269282 0.01380000 -0.02910000
v -0.01200000 0.01380000 -0.02950000
v -0.01269282 0.01380000 -0.02830000
v -0.01240000 0.01380000 -0.02800718
v -0.01280000 0.01380000 -0.02870000
v -0.01160000 0.01380000 -0.02800718
v -0.01130718 0.01380000 -0.02830000
v -0.01200000 0.01380000 -0.02790000
v -0.01130718 0.01380000 -0.02910000
v -0.01160000 0.01380000 -0.02939282
v -0.01120000 0.01380000 -0.02870000
v -0.01200000 0.01331931 -0.02070000
v -0.01240000 0.01380000 -0.02139282
v -0.01269282 0.01380000 -0.02110000
v -0.01200000 0.01380000 -0.02150000
v -0.01269282 0.01380000 -0.02030000
v -0.01240000 0.01380000 -0.02000718
v -0.01280000 0.01380000 -0.02070000
v -0.01160000 0.01380000 -0.02000718
v -0.01130718 0.01380000 -0.02030000
v -0.01200000 0.01380000 -0.01990000
v -0.01130718 0.01380000 -0.02110000
v -0.01160000 0.01380000 -0.02139282
v -0.01120000 0.01380000 -0.02070000
v -0.01357106 0.01582500 -0.03840000
v -0.01352356 0.01573663 -0.03840000
v -0.01335002 0.01499138 -0.03840000
v -0.01353134 0.01424798 -0.03840000
v -0.01357106 0.01417500 -0.03840000
v -0.01401377 0.01367718 -0.03840000
v -0.01317922 -0.01386680 -0.01636466
v -0.01476936 -0.01215920 -0.01636466
v -0.01506658 -0.01240390 -0.01528864
v -0.01554467 -0.01279750 -0.01432814
v -0.01400993 -0.01360018 -0.01526878
v -0.01328688 -0.01390192 -0.01600000
v -0.01251323 -0.01439660 -0.01663909
v -0.01168825 -0.01500000 -0.01709808
v -0.01059265 -0.01577421 -0.01741088
v -0.01518684 0.01303987 -0.01447754
v -0.01529393 0.01149242 -0.01636466
v -0.01560171 0.01172370 -0.01528864
v -0.01476082 0.01221044 -0.01625831
v -0.01470363 0.01210146 -0.01684441
v -0.01487200 0.01242392 -0.01559143
v -0.01496759 0.01260913 -0.01517992
v 0.00550000 -0.01557295 -0.01735317
v 0.00550000 -0.01500000 -0.01709808
v 0.00550000 -0.01473664 -0.01692705
v 0.00550000 -0.01407295 -0.01626336
v 0.00550000 -0.01390192 -0.01600000
v 0.00550000 -0.01364683 -0.01542705
v 0.00750777 -0.01403864 -0.01692705
v 0.00801960 -0.01353162 -0.01692705
v 0.00750294 -0.01311502 -0.01626336
v 0.00867063 -0.01405656 -0.01735317
v 0.00640097 -0.01547205 -0.01735317
v 0.00725730 -0.01517435 -0.01735317
v 0.00802656 -0.01469459 -0.01735317
v 0.00822462 -0.01369692 -0.01709808
v 0.00606916 -0.01400921 -0.01626336
v 0.00642626 -0.01343673 -0.01542705
v 0.00597490 -0.01359365 -0.01542705
v 0.00683173 -0.01318385 -0.01542705
v 0.00661011 -0.01382115 -0.01626336
v 0.00621597 -0.01465646 -0.01692705
v 0.00689647 -0.01441989 -0.01692705
v 0.00709607 -0.01351808 -0.01626336
v 0.00736981 -0.01300767 -0.01600000
v 0.00717122 -0.01284755 -0.01542705
v 0.01062353 -0.00856601 -0.01542705
v 0.01082211 -0.00872613 -0.01600000
v 0.01095525 -0.00883348 -0.01626336
v 0.01147191 -0.00925008 -0.01692705
v 0.01167692 -0.00941538 -0.01709808
v 0.01212294 -0.00977502 -0.01735317
v 0.01178981 0.00687287 -0.01542705
v 0.01062353 0.00856601 -0.01542705
v 0.01273132 0.00742173 -0.01692705
v 0.01147191 0.00925008 -0.01692705
v 0.01095525 0.00883348 -0.01626336
v 0.01447936 0.00573279 -0.01735317
v 0.01345383 0.00784291 -0.01735317
v 0.01517626 -0.00349256 -0.01735317
v 0.01447936 -0.00573279 -0.01735317
v 0.01345383 -0.00784291 -0.01735317
v 0.01469478 0.00111007 -0.01692705
v 0.01469478 -0.00111007 -0.01692705
v 0.01552870 -0.00117306 -0.01735317
v 0.01167692 0.00941538 -0.01709808
v 0.01212294 0.00977502 -0.01735317
v 0.01273132 -0.00742173 -0.01692705
v 0.01215794 -0.00708748 -0.01626336
v 0.01403297 -0.00106007 -0.01626336
v 0.01403297 0.00106007 -0.01626336
v 0.01371447 0.00315616 -0.01626336
v 0.01178981 -0.00687287 -0.01542705
v 0.01360806 -0.00102797 -0.01542705
v 0.01360806 0.00102797 -0.01542705
v 0.01329920 0.00306059 -0.01542705
v 0.01268850 0.00502374 -0.01542705
v 0.01517626 0.00349256 -0.01735317
v 0.01370178 0.00542493 -0.01692705
v 0.01215794 0.00708748 -0.01626336
v 0.01082211 0.00872613 -0.01600000
v 0.01552870 0.00117306 -0.01735317
v 0.01436125 0.00330500 -0.01692705
v 0.01308469 0.00518061 -0.01626336
v 0.01370178 -0.00542493 -0.01692705
v 0.01308469 -0.00518061 -0.01626336
v 0.01268850 -0.00502374 -0.01542705
v 0.01436125 -0.00330500 -0.01692705
v 0.01371447 -0.00315616 -0.01626336
v 0.01329920 -0.00306059 -0.01542705
v 0.00867063 0.01405656 -0.01735317
v 0.00822462 0.01369692 -0.01709808
v 0.00801960 0.01353162 -0.01692705
v 0.00750294 0.01311502 -0.01626336
v 0.00736981 0.01300767 -0.01600000
v 0.00717122 0.01284755 -0.01542705
v 0.00621597 0.01465646 -0.01692705
v 0.00550000 0.01473664 -0.01692705
v 0.00550000 0.01407295 -0.01626336
v 0.00550000 0.01557295 -0.01735317
v 0.00802656 0.01469459 -0.01735317
v 0.00725730 0.01517435 -0.01735317
v 0.00640097 0.01547205 -0.01735317
v 0.00550000 0.01500000 -0.01709808
v 0.00709607 0.01351808 -0.01626336
v 0.00642626 0.01343673 -0.01542705
v 0.00683173 0.01318385 -0.01542705
v 0.00597490 0.01359365 -0.01542705
v 0.00661011 0.01382115 -0.01626336
v 0.00750777 0.01403864 -0.01692705
v 0.00689647 0.01441989 -0.01692705
v 0.00606916 0.01400921 -0.01626336
v 0.00550000 0.01390192 -0.01600000
v 0.00550000 0.01364683 -0.01542705
v -0.01435776 0.01360163 -0.01527424
v -0.01445563 0.01355816 -0.01508784
v -0.01472384 0.01350433 -0.01466117
v -0.01406245 0.01394642 -0.01607455
v -0.01408098 0.01390184 -0.01599985
v -0.01409530 0.01387205 -0.01594703
v -0.01431162 0.01362899 -0.01537024
v -0.01417559 0.01295294 -0.01750000
v -0.01425252 0.01338653 -0.01581197
v -0.01422655 0.01324016 -0.01611723
v -0.01419665 0.01307162 -0.01660468
v -0.01418139 0.01298563 -0.01702843
f 1 2 3
f 3 2 4
f 5 6 7
f 7 6 8
f 9 10 11
f 11 12 9
f 9 12 13
f 9 13 14
f 14 15 9
f 9 15 16
f 9 16 17
f 17 16 18
f 18 19 17
f 17 19 20
f 17 20 21
f 21 20 22
f 21 22 23
f 23 22 24
f 23 24 25
f 25 24 26
f 24 27 26
f 26 27 28
f 26 28 10
f 10 28 29
f 10 29 11
f 30 31 32
f 33 34 35
f 35 34 36
f 35 36 37
f 37 36 38
f 37 38 39
f 39 40 37
f 37 40 41
f 37 41 31
f 31 41 42
f 31 42 32
f 43 44 45
f 45 44 46
f 45 46 35
f 35 46 47
f 35 47 33
f 32 48 30
f 30 48 49
f 30 49 50
f 50 49 44
f 50 44 51
f 51 44 43
f 52 53 54
f 53 55 54
f 54 55 56
f 54 56 30
f 57 58 59
f 59 58 60
f 59 60 52
f 56 61 30
f 30 61 62
f 30 62 31
f 31 62 63
f 31 63 64
f 64 63 65
f 64 65 66
f 66 65 67
f 66 67 68
f 68 67 57
f 68 57 69
f 69 57 59
f 59 70 71
f 71 72 59
f 59 72 73
f 59 73 74
f 75 76 77
f 77 76 78
f 77 78 79
f 79 78 80
f 79 80 81
f 81 80 82
f 82 80 83
f 82 83 10
f 10 83 84
f 10 84 26
f 85 86 87
f 87 86 26
f 87 26 88
f 88 26 84
f 52 54 59
f 59 54 89
f 59 89 70
f 77 59 75
f 75 59 74
f 75 74 90
f 90 74 91
f 90 91 92
f 92 91 93
f 92 93 94
f 94 93 95
f 94 95 85
f 85 95 96
f 85 96 86
f 97 98 99
f 99 100 97
f 97 100 101
f 97 101 54
f 54 101 102
f 54 102 89
f 103 26 104
f 104 26 86
f 104 86 105
f 105 86 106
f 105 106 107
f 107 106 108
f 107 108 109
f 109 108 110
f 109 110 111
f 111 110 112
f 111 112 97
f 97 112 113
f 97 113 98
f 103 114 26
f 26 114 115
f 26 115 25
f 116 117 118
f 118 117 119
f 119 117 97
f 97 117 120
f 97 120 111
f 115 121 25
f 25 121 122
f 25 122 123
f 123 122 117
f 123 117 124
f 124 117 116
f 125 126 50
f 50 126 127
f 50 127 30
f 128 129 130
f 127 131 30
f 30 131 132
f 30 132 54
f 54 132 133
f 54 133 134
f 128 130 135
f 97 136 137
f 137 136 130
f 137 130 138
f 138 130 129
f 134 139 54
f 54 139 140
f 54 140 97
f 97 140 141
f 97 141 136
f 125 50 130
f 130 50 142
f 130 142 135
f 143 144 145
f 146 147 148
f 148 147 149
f 148 149 150
f 150 149 151
f 150 151 152
f 148 153 146
f 146 153 154
f 146 154 155
f 155 154 156
f 155 156 157
f 157 156 158
f 157 158 159
f 159 158 160
f 158 161 160
f 160 161 162
f 160 162 163
f 163 162 164
f 152 151 165
f 165 151 166
f 165 166 167
f 167 166 168
f 167 168 164
f 164 168 169
f 164 169 163
f 170 171 172
f 172 171 173
f 172 173 174
f 174 173 175
f 174 175 176
f 176 175 177
f 175 178 177
f 177 178 179
f 177 179 145
f 145 179 180
f 169 181 163
f 163 181 182
f 163 182 183
f 184 185 186
f 186 185 187
f 186 187 188
f 188 187 189
f 188 189 190
f 190 189 191
f 183 190 163
f 163 190 191
f 163 191 170
f 170 191 192
f 170 192 171
f 143 145 193
f 193 145 180
f 193 180 184
f 184 180 194
f 184 194 185
f 195 196 197
f 197 196 198
f 197 198 199
f 199 198 200
f 199 200 201
f 201 200 202
f 202 200 203
f 202 203 204
f 204 203 205
f 204 205 206
f 206 205 207
f 206 207 208
f 209 145 210
f 197 211 195
f 195 211 212
f 195 212 213
f 213 212 214
f 213 214 215
f 215 214 209
f 215 209 216
f 216 209 210
f 144 217 145
f 145 217 218
f 145 218 210
f 210 218 208
f 210 208 219
f 219 208 207
f 220 221 147
f 147 221 222
f 147 222 149
f 223 199 224
f 224 225 223
f 223 225 226
f 223 226 227
f 227 226 228
f 227 228 229
f 229 228 230
f 229 230 231
f 231 230 232
f 233 147 234
f 234 147 232
f 234 232 235
f 235 232 230
f 220 147 236
f 236 147 233
f 236 233 237
f 237 233 238
f 237 238 239
f 239 238 240
f 239 240 241
f 241 240 242
f 241 242 243
f 201 244 199
f 199 244 245
f 199 245 224
f 224 245 243
f 224 243 246
f 246 243 242
f 247 248 249
f 249 248 250
f 249 250 137
f 137 250 251
f 251 250 252
f 251 252 253
f 253 252 254
f 253 254 255
f 255 254 256
f 255 256 257
f 256 258 257
f 257 258 259
f 257 259 260
f 260 259 261
f 260 261 262
f 262 261 119
f 119 261 263
f 119 263 264
f 265 266 267
f 267 266 268
f 267 268 263
f 263 268 269
f 263 269 264
f 265 267 270
f 270 267 271
f 270 271 272
f 272 271 273
f 272 273 274
f 274 273 275
f 274 275 276
f 275 277 276
f 276 277 278
f 276 278 279
f 279 278 280
f 279 280 281
f 281 280 282
f 281 282 283
f 283 282 284
f 283 284 285
f 285 284 286
f 285 286 287
f 287 286 288
f 287 288 289
f 289 288 290
f 289 290 291
f 291 290 292
f 291 292 293
f 292 294 293
f 293 294 295
f 293 295 296
f 296 295 297
f 296 297 298
f 298 297 299
f 298 299 300
f 300 299 301
f 300 301 302
f 302 301 303
f 302 303 304
f 304 303 305
f 304 305 306
f 306 305 307
f 306 307 308
f 309 310 311
f 311 310 312
f 313 314 315
f 315 314 316
f 312 317 311
f 311 317 318
f 311 318 314
f 314 318 319
f 314 319 316
f 320 321 322
f 323 324 325
f 325 324 326
f 325 326 321
f 321 326 327
f 321 327 322
f 328 329 330
f 330 329 331
f 330 331 332
f 320 322 333
f 333 322 334
f 333 334 335
f 335 334 336
f 335 336 331
f 331 336 337
f 331 337 332
f 338 339 340
f 340 341 338
f 338 341 342
f 338 342 343
f 343 342 344
f 344 342 345
f 344 345 346
f 347 348 349
f 349 348 350
f 349 350 351
f 351 350 352
f 352 350 353
f 353 350 354
f 353 354 346
f 346 354 355
f 346 355 344
f 308 356 357
f 304 306 358
f 358 306 308
f 358 308 359
f 359 308 357
f 358 360 304
f 304 360 361
f 304 361 302
f 362 279 363
f 363 279 281
f 363 281 364
f 362 270 272
f 272 274 362
f 362 274 276
f 362 276 279
f 361 365 302
f 302 365 366
f 302 366 300
f 300 366 367
f 300 367 298
f 298 367 368
f 298 368 296
f 368 369 296
f 296 369 370
f 296 370 293
f 293 370 371
f 293 371 291
f 291 371 372
f 291 372 289
f 372 373 289
f 289 373 374
f 289 374 287
f 287 374 375
f 287 375 285
f 285 375 376
f 285 376 283
f 283 376 377
f 283 377 281
f 281 377 378
f 281 378 364
f 97 137 251
f 251 253 97
f 97 253 255
f 97 255 257
f 257 260 97
f 97 260 262
f 97 262 119
f 379 328 330
f 330 380 379
f 379 380 381
f 379 381 382
f 382 381 383
f 382 383 384
f 384 383 385
f 384 385 386
f 386 385 387
f 386 387 388
f 389 390 391
f 392 393 394
f 391 395 389
f 389 395 392
f 389 392 396
f 396 392 394
f 314 313 397
f 397 313 398
f 397 398 399
f 399 398 400
f 399 400 401
f 402 403 404
f 347 349 404
f 404 349 405
f 404 405 402
f 403 402 406
f 406 402 407
f 406 407 408
f 402 409 407
f 407 409 410
f 407 410 411
f 411 410 412
f 383 390 385
f 385 390 389
f 385 389 413
f 413 389 414
f 413 414 415
f 415 414 416
f 415 416 417
f 417 416 418
f 417 418 419
f 420 421 422
f 422 421 419
f 422 419 423
f 423 419 418
f 401 408 399
f 399 408 407
f 399 407 424
f 424 407 425
f 424 425 420
f 420 425 426
f 420 426 421
f 427 428 429
f 429 428 430
f 428 431 430
f 430 431 432
f 430 432 433
f 432 434 433
f 433 434 435
f 433 435 436
f 435 437 436
f 436 437 438
f 436 438 439
f 438 440 439
f 439 440 441
f 439 441 442
f 441 443 442
f 442 443 444
f 442 444 445
f 444 446 445
f 445 446 447
f 445 447 448
f 447 449 448
f 448 449 450
f 448 450 451
f 450 452 451
f 451 452 453
f 451 453 454
f 453 455 454
f 454 455 456
f 454 456 457
f 456 458 457
f 457 458 459
f 457 459 460
f 459 461 460
f 460 461 462
f 460 462 463
f 462 464 463
f 463 464 465
f 463 465 466
f 465 467 466
f 466 467 468
f 466 468 469
f 468 470 469
f 469 470 471
f 469 471 472
f 471 473 472
f 472 473 474
f 472 474 475
f 474 476 475
f 475 476 477
f 475 477 478
f 477 479 478
f 478 479 480
f 478 480 481
f 480 482 481
f 481 482 483
f 481 483 484
f 483 485 484
f 484 485 486
f 484 486 487
f 486 488 487
f 487 488 489
f 487 489 490
f 489 491 490
f 490 491 492
f 490 492 493
f 492 494 493
f 493 494 495
f 493 495 496
f 495 497 496
f 496 497 498
f 496 498 499
f 498 500 499
f 499 500 501
f 499 501 502
f 501 503 502
f 502 503 504
f 502 504 505
f 504 506 505
f 505 506 507
f 505 507 508
f 508 507 509
f 508 509 429
f 429 509 510
f 429 510 427
f 511 69 512
f 512 69 513
f 514 77 515
f 515 77 516
f 59 517 69
f 69 517 518
f 69 518 513
f 514 519 77
f 77 519 520
f 77 520 59
f 59 520 521
f 59 521 517
f 522 523 524
f 525 526 527
f 528 529 530
f 531 532 533
f 533 532 534
f 533 534 535
f 535 534 536
f 537 538 539
f 540 541 542
f 542 541 539
f 542 539 543
f 543 539 538
f 544 540 545
f 546 547 548
f 544 545 547
f 547 545 549
f 547 549 548
f 544 550 540
f 540 550 551
f 540 551 541
f 541 551 552
f 552 553 541
f 541 553 554
f 541 554 555
f 555 554 556
f 555 556 557
f 557 556 532
f 557 532 558
f 558 532 531
f 559 560 561
f 559 561 562
f 562 561 563
f 563 561 564
f 563 564 536
f 536 564 565
f 536 565 535
f 566 567 568
f 569 567 570
f 569 570 571
f 571 570 572
f 571 572 573
f 546 548 574
f 574 548 575
f 574 575 576
f 576 575 577
f 576 577 578
f 578 577 579
f 578 579 573
f 573 579 580
f 573 580 571
f 569 581 567
f 567 581 582
f 567 582 568
f 568 582 583
f 568 583 584
f 585 586 587
f 530 529 587
f 587 529 588
f 587 588 585
f 589 590 591
f 591 590 592
f 591 592 593
f 593 592 594
f 593 594 595
f 595 594 596
f 595 596 597
f 598 599 600
f 589 601 590
f 590 601 598
f 590 598 602
f 602 598 600
f 603 604 605
f 605 604 606
f 605 606 607
f 607 606 608
f 607 608 530
f 530 608 609
f 530 609 528
f 527 526 610
f 610 526 611
f 610 611 612
f 611 613 612
f 612 613 614
f 612 614 615
f 616 617 618
f 616 618 619
f 618 620 619
f 619 620 621
f 619 621 622
f 622 623 624
f 614 625 615
f 615 625 626
f 615 626 627
f 627 626 624
f 627 624 628
f 628 624 623
f 629 630 631
f 631 630 632
f 631 632 605
f 605 632 633
f 605 633 603
f 622 624 619
f 619 624 634
f 619 634 635
f 596 636 597
f 597 636 637
f 597 637 638
f 638 637 639
f 638 639 640
f 640 639 641
f 640 641 642
f 642 641 643
f 642 643 635
f 635 643 644
f 635 644 619
f 584 645 568
f 568 645 646
f 568 646 647
f 647 646 648
f 647 648 649
f 649 648 650
f 649 650 651
f 651 650 652
f 651 652 539
f 539 652 653
f 539 653 537
f 599 654 600
f 600 654 655
f 600 655 656
f 656 655 657
f 656 657 658
f 658 657 659
f 659 657 660
f 659 660 661
f 661 660 662
f 661 662 663
f 525 527 662
f 662 527 664
f 662 664 663
f 665 666 667
f 668 669 670
f 670 669 671
f 670 671 666
f 666 671 672
f 666 672 667
f 668 670 673
f 673 670 674
f 673 674 675
f 676 677 541
f 678 679 680
f 680 679 681
f 680 681 541
f 541 681 682
f 541 682 676
f 677 683 541
f 541 683 684
f 541 684 539
f 539 684 685
f 539 685 686
f 686 687 539
f 539 687 688
f 539 688 674
f 674 688 689
f 674 689 675
f 690 691 692
f 692 691 693
f 692 693 678
f 678 693 694
f 678 694 679
f 695 696 697
f 697 696 698
f 697 698 690
f 690 698 699
f 690 699 691
f 700 701 702
f 702 701 703
f 702 703 704
f 704 703 705
f 704 705 706
f 706 705 707
f 706 707 708
f 708 707 709
f 708 709 710
f 710 709 711
f 710 711 712
f 712 711 713
f 712 713 695
f 695 713 714
f 695 714 696
f 615 715 612
f 612 715 716
f 612 716 717
f 700 702 717
f 717 702 718
f 717 718 612
f 524 523 631
f 631 523 719
f 631 719 720
f 617 629 618
f 618 629 631
f 618 631 721
f 721 631 720
f 667 722 665
f 665 722 723
f 665 723 724
f 724 723 725
f 725 726 724
f 724 726 727
f 724 727 524
f 524 727 728
f 524 728 522
f 560 566 561
f 561 566 568
f 561 568 729
f 729 568 730
f 729 730 731
f 731 730 732
f 732 730 733
f 733 730 734
f 733 734 735
f 735 734 736
f 735 736 737
f 737 736 738
f 738 736 739
f 738 739 740
f 740 739 741
f 741 739 742
f 741 742 743
f 743 742 744
f 744 742 745
f 744 745 746
f 746 745 747
f 747 745 587
f 747 587 590
f 590 587 586
f 590 586 592
f 748 505 749
f 749 505 508
f 749 508 750
f 750 508 429
f 750 429 751
f 752 481 753
f 753 481 484
f 753 484 754
f 754 484 487
f 754 487 755
f 487 490 755
f 755 490 493
f 755 493 756
f 756 493 496
f 756 496 757
f 757 496 499
f 757 499 748
f 748 499 502
f 748 502 505
f 758 445 759
f 759 445 448
f 759 448 760
f 760 448 451
f 760 451 761
f 429 430 751
f 751 430 433
f 751 433 762
f 762 433 436
f 762 436 763
f 763 436 439
f 763 439 758
f 758 439 442
f 758 442 445
f 451 454 761
f 761 454 457
f 761 457 764
f 764 457 460
f 764 460 765
f 765 460 463
f 765 463 766
f 766 463 466
f 766 466 767
f 767 466 469
f 767 469 768
f 768 469 472
f 768 472 769
f 769 472 475
f 769 475 752
f 752 475 478
f 752 478 481
f 323 770 324
f 324 770 771
f 323 772 770
f 770 772 773
f 770 773 774
f 775 776 777
f 777 776 771
f 777 771 778
f 778 771 770
f 778 770 779
f 779 770 9
f 779 9 17
f 780 781 775
f 775 781 782
f 775 782 776
f 394 393 783
f 783 784 394
f 394 784 785
f 394 785 775
f 775 785 786
f 775 786 780
f 787 788 789
f 789 788 790
f 787 340 788
f 788 340 339
f 788 339 791
f 35 37 792
f 792 37 788
f 792 788 793
f 793 788 791
f 793 791 794
f 794 791 309
f 794 309 311
f 6 5 795
f 795 5 796
f 795 796 797
f 797 796 798
f 799 800 79
f 79 800 516
f 79 516 77
f 798 799 797
f 797 799 79
f 797 79 801
f 801 79 81
f 801 81 802
f 802 81 82
f 802 82 803
f 803 82 10
f 803 10 9
f 804 805 6
f 801 806 797
f 797 806 804
f 797 804 795
f 795 804 6
f 807 808 806
f 806 808 809
f 806 809 804
f 804 809 810
f 804 810 805
f 802 803 811
f 811 803 9
f 811 9 770
f 801 802 806
f 806 802 811
f 806 811 807
f 807 811 770
f 807 770 774
f 812 813 814
f 814 813 815
f 814 815 816
f 816 815 817
f 774 818 807
f 807 818 819
f 807 819 808
f 808 819 820
f 808 820 821
f 822 823 8
f 821 812 808
f 808 812 814
f 808 814 809
f 809 814 824
f 809 824 810
f 810 824 822
f 810 822 805
f 805 822 8
f 805 8 6
f 825 826 827
f 828 829 830
f 415 417 831
f 412 832 833
f 832 834 833
f 833 834 835
f 833 835 836
f 388 387 837
f 837 387 838
f 816 817 839
f 839 817 840
f 839 840 838
f 838 840 841
f 838 841 837
f 415 831 413
f 425 407 833
f 833 407 411
f 833 411 412
f 816 839 814
f 814 839 842
f 814 842 824
f 824 842 822
f 822 842 843
f 822 843 823
f 385 413 844
f 844 413 831
f 844 831 845
f 845 831 846
f 845 846 847
f 847 846 848
f 847 848 849
f 849 848 850
f 417 419 831
f 831 419 851
f 831 851 846
f 846 851 852
f 846 852 848
f 848 852 853
f 848 853 850
f 850 853 830
f 854 855 843
f 843 855 856
f 843 856 823
f 387 385 838
f 838 385 844
f 838 844 839
f 839 844 845
f 839 845 842
f 842 845 847
f 842 847 843
f 843 847 849
f 843 849 854
f 854 849 850
f 854 850 857
f 830 829 850
f 850 829 858
f 850 858 857
f 859 828 860
f 860 828 830
f 860 830 861
f 861 830 853
f 861 853 862
f 862 853 852
f 862 852 863
f 863 852 851
f 863 851 421
f 421 851 419
f 421 426 863
f 863 426 864
f 863 864 862
f 862 864 865
f 862 865 861
f 861 865 866
f 861 866 860
f 860 866 827
f 860 827 859
f 859 827 826
f 867 825 868
f 868 825 827
f 868 827 869
f 869 827 866
f 869 866 836
f 836 866 865
f 836 865 833
f 833 865 864
f 833 864 425
f 425 864 426
f 870 867 871
f 871 867 868
f 871 868 872
f 872 868 869
f 872 869 873
f 873 869 836
f 873 836 874
f 874 836 835
f 874 835 875
f 876 2 871
f 871 2 1
f 871 1 870
f 877 873 878
f 878 873 874
f 878 874 875
f 877 879 873
f 873 879 880
f 873 880 872
f 872 880 881
f 872 881 871
f 871 881 882
f 871 882 876
f 879 883 880
f 880 883 884
f 880 884 885
f 886 790 885
f 886 885 887
f 887 885 884
f 888 889 2
f 881 890 882
f 882 890 888
f 882 888 876
f 876 888 2
f 891 892 890
f 890 892 893
f 890 893 888
f 888 893 894
f 888 894 889
f 880 885 895
f 895 885 790
f 895 790 788
f 881 880 890
f 890 880 895
f 890 895 891
f 891 895 788
f 891 788 37
f 891 37 31
f 31 64 891
f 891 64 66
f 891 66 892
f 896 68 511
f 511 68 69
f 892 66 893
f 893 66 68
f 893 68 894
f 894 68 896
f 894 896 897
f 897 898 894
f 894 898 899
f 894 899 889
f 889 899 4
f 889 4 2
f 544 547 53
f 554 60 556
f 556 60 58
f 556 58 532
f 532 58 534
f 560 559 900
f 900 559 562
f 900 562 901
f 901 562 563
f 901 563 536
f 560 900 566
f 566 900 902
f 566 902 567
f 567 902 903
f 567 903 570
f 53 547 55
f 55 547 546
f 55 546 574
f 576 578 904
f 904 578 573
f 904 573 903
f 903 573 572
f 903 572 570
f 554 553 60
f 60 553 552
f 60 552 52
f 52 552 551
f 52 551 53
f 53 551 550
f 53 550 544
f 536 534 901
f 901 534 58
f 901 58 905
f 905 58 57
f 905 57 906
f 906 57 67
f 906 67 907
f 907 67 65
f 907 65 908
f 908 65 63
f 908 63 909
f 909 63 62
f 909 62 910
f 910 62 61
f 910 61 911
f 911 61 56
f 911 56 904
f 904 56 55
f 904 55 576
f 576 55 574
f 787 912 340
f 340 912 913
f 914 342 913
f 913 342 341
f 913 341 340
f 915 346 914
f 914 346 345
f 914 345 342
f 916 352 915
f 915 352 353
f 915 353 346
f 402 405 917
f 917 405 349
f 917 349 916
f 916 349 351
f 916 351 352
f 402 917 409
f 409 917 918
f 409 918 410
f 919 832 918
f 918 832 412
f 918 412 410
f 920 878 919
f 919 878 875
f 875 835 919
f 919 835 834
f 919 834 832
f 921 922 884
f 884 883 921
f 921 883 879
f 921 879 920
f 920 879 877
f 920 877 878
f 787 789 912
f 912 789 790
f 912 790 923
f 923 790 886
f 923 886 922
f 922 886 887
f 922 887 884
f 902 918 903
f 903 918 917
f 903 917 904
f 904 917 916
f 904 916 911
f 911 916 915
f 911 915 910
f 910 915 914
f 910 914 909
f 909 914 913
f 909 913 908
f 908 913 912
f 908 912 907
f 907 912 923
f 907 923 906
f 906 923 922
f 906 922 905
f 905 922 921
f 905 921 901
f 901 921 920
f 901 920 900
f 900 920 919
f 900 919 902
f 902 919 918
f 593 595 924
f 611 526 75
f 75 526 76
f 76 526 525
f 76 525 662
f 624 626 92
f 92 626 625
f 92 625 90
f 90 625 614
f 90 614 75
f 75 614 613
f 75 613 611
f 924 595 925
f 925 595 597
f 925 597 638
f 640 642 94
f 94 642 635
f 94 635 92
f 92 635 634
f 92 634 624
f 660 657 926
f 926 657 655
f 926 655 927
f 927 655 654
f 927 654 599
f 599 598 927
f 927 598 601
f 927 601 928
f 928 601 589
f 928 589 924
f 924 589 591
f 924 591 593
f 638 640 925
f 925 640 94
f 925 94 929
f 929 94 85
f 929 85 930
f 930 85 87
f 930 87 931
f 931 87 88
f 931 88 932
f 932 88 84
f 932 84 933
f 933 84 83
f 933 83 934
f 934 83 80
f 934 80 935
f 935 80 78
f 935 78 926
f 926 78 76
f 926 76 660
f 660 76 662
f 588 529 936
f 616 619 107
f 107 619 105
f 105 619 644
f 105 644 643
f 633 632 111
f 111 632 630
f 111 630 109
f 109 630 629
f 109 629 107
f 107 629 617
f 107 617 616
f 936 529 937
f 937 529 528
f 937 528 609
f 608 606 120
f 120 606 604
f 120 604 111
f 111 604 603
f 111 603 633
f 641 639 938
f 938 639 637
f 938 637 939
f 939 637 636
f 939 636 596
f 596 594 939
f 939 594 592
f 939 592 940
f 940 592 586
f 940 586 936
f 936 586 585
f 936 585 588
f 609 608 937
f 937 608 120
f 937 120 941
f 941 120 117
f 941 117 942
f 942 117 122
f 942 122 943
f 943 122 121
f 943 121 944
f 944 121 115
f 944 115 945
f 945 115 114
f 945 114 946
f 946 114 103
f 946 103 947
f 947 103 104
f 947 104 938
f 938 104 105
f 938 105 641
f 641 105 643
f 538 537 141
f 549 139 548
f 548 139 134
f 548 134 575
f 575 134 577
f 581 569 948
f 948 569 571
f 948 571 949
f 949 571 580
f 949 580 579
f 581 948 582
f 582 948 950
f 582 950 583
f 583 950 951
f 583 951 584
f 141 537 136
f 136 537 653
f 136 653 652
f 650 648 952
f 952 648 646
f 952 646 951
f 951 646 645
f 951 645 584
f 549 545 139
f 139 545 540
f 139 540 140
f 140 540 542
f 140 542 141
f 141 542 543
f 141 543 538
f 579 577 949
f 949 577 134
f 949 134 953
f 953 134 133
f 953 133 954
f 954 133 132
f 954 132 955
f 955 132 131
f 955 131 956
f 956 131 127
f 956 127 957
f 957 127 126
f 957 126 958
f 958 126 125
f 958 125 959
f 959 125 130
f 959 130 952
f 952 130 136
f 952 136 650
f 650 136 652
f 398 313 960
f 960 313 961
f 962 401 960
f 960 401 400
f 960 400 398
f 404 403 963
f 963 403 406
f 963 406 962
f 962 406 408
f 962 408 401
f 964 965 354
f 354 350 964
f 964 350 348
f 964 348 963
f 963 348 347
f 963 347 404
f 966 967 338
f 338 343 966
f 966 343 344
f 966 344 965
f 965 344 355
f 965 355 354
f 968 309 969
f 969 309 791
f 969 791 967
f 967 791 339
f 967 339 338
f 970 312 968
f 968 312 310
f 968 310 309
f 971 318 970
f 970 318 317
f 970 317 312
f 313 315 961
f 961 315 316
f 961 316 971
f 971 316 319
f 971 319 318
f 950 962 951
f 951 962 960
f 951 960 952
f 952 960 961
f 952 961 959
f 959 961 971
f 959 971 958
f 958 971 970
f 958 970 957
f 957 970 968
f 957 968 956
f 956 968 969
f 956 969 955
f 955 969 967
f 955 967 954
f 954 967 966
f 954 966 953
f 953 966 965
f 953 965 949
f 949 965 964
f 949 964 948
f 948 964 963
f 948 963 950
f 950 963 962
f 972 322 327
f 972 327 973
f 322 972 334
f 334 972 974
f 334 974 336
f 336 974 337
f 337 974 975
f 337 975 332
f 332 975 330
f 330 975 976
f 330 976 380
f 977 383 976
f 976 383 381
f 976 381 380
f 392 395 978
f 978 395 391
f 978 391 977
f 977 391 390
f 977 390 383
f 979 980 785
f 785 784 979
f 979 784 783
f 979 783 978
f 978 783 393
f 978 393 392
f 981 982 782
f 782 781 981
f 981 781 780
f 981 780 980
f 980 780 786
f 980 786 785
f 327 326 973
f 973 326 324
f 973 324 983
f 983 324 771
f 983 771 982
f 982 771 776
f 982 776 782
f 944 983 943
f 943 983 982
f 943 982 942
f 942 982 981
f 942 981 941
f 941 981 980
f 941 980 937
f 937 980 979
f 937 979 936
f 936 979 978
f 936 978 940
f 940 978 977
f 940 977 939
f 939 977 976
f 939 976 938
f 938 976 975
f 938 975 947
f 947 975 974
f 947 974 946
f 946 974 972
f 946 972 945
f 945 972 973
f 945 973 944
f 944 973 983
f 773 772 984
f 985 329 986
f 986 329 328
f 986 328 379
f 987 988 320
f 320 333 987
f 987 333 335
f 987 335 985
f 985 335 331
f 985 331 329
f 984 772 989
f 772 323 989
f 989 323 325
f 989 325 988
f 988 325 321
f 988 321 320
f 990 819 991
f 991 819 818
f 991 818 984
f 984 818 774
f 984 774 773
f 992 821 990
f 990 821 820
f 990 820 819
f 993 813 992
f 992 813 812
f 992 812 821
f 841 840 994
f 994 840 817
f 994 817 993
f 993 817 815
f 993 815 813
f 841 994 837
f 837 994 995
f 837 995 388
f 379 382 986
f 986 382 384
f 986 384 995
f 995 384 386
f 995 386 388
f 932 984 931
f 931 984 989
f 931 989 930
f 930 989 988
f 930 988 929
f 929 988 987
f 929 987 925
f 925 987 985
f 925 985 924
f 924 985 986
f 924 986 928
f 928 986 995
f 928 995 927
f 927 995 994
f 927 994 926
f 926 994 993
f 926 993 935
f 935 993 992
f 935 992 934
f 934 992 990
f 934 990 933
f 933 990 991
f 933 991 932
f 932 991 984
f 209 996 145
f 145 996 256
f 145 256 177
f 177 256 997
f 223 998 199
f 199 998 275
f 199 275 197
f 197 275 999
f 146 1000 147
f 147 1000 292
f 147 292 232
f 232 292 1001
f 170 1002 1003
f 1003 1004 1005
f 1006 1007 307
f 1008 1009 1010
f 1005 1011 1003
f 1003 1011 1006
f 1003 1006 170
f 170 1006 307
f 170 307 163
f 163 307 1012
f 163 1012 160
f 1007 1013 307
f 307 1013 1014
f 307 1014 1015
f 1016 1017 308
f 1018 1019 356
f 356 1019 1020
f 356 1020 1003
f 1003 1020 1009
f 1003 1009 1004
f 1004 1009 1008
f 1017 1021 308
f 308 1021 1022
f 308 1022 356
f 356 1022 1023
f 356 1023 1018
f 308 307 1016
f 1016 307 1015
f 1016 1015 1024
f 1024 1015 1025
f 1024 1025 1026
f 1026 1025 1027
f 1026 1027 1010
f 1010 1027 1028
f 1010 1028 1008
f 999 275 273
f 263 1029 267
f 267 1029 1030
f 267 1030 1031
f 258 256 996
f 996 1032 1033
f 1033 1032 1034
f 1033 1034 1035
f 1035 1034 1036
f 1035 1036 1037
f 1037 1036 999
f 1037 999 1038
f 1038 999 273
f 1038 273 1031
f 1031 273 271
f 1031 271 267
f 1033 1039 996
f 996 1039 1040
f 996 1040 1041
f 258 996 259
f 259 996 1041
f 259 1041 261
f 261 1041 1042
f 261 1042 263
f 263 1042 1043
f 263 1043 1029
f 1044 1003 1002
f 1045 1046 1002
f 1002 1046 1044
f 1044 1046 1047
f 1044 1047 1048
f 252 997 254
f 254 997 256
f 1002 1049 1045
f 1045 1049 1050
f 1045 1050 1051
f 1051 1050 1052
f 1051 1052 1053
f 1053 1052 997
f 1053 997 1054
f 1054 997 252
f 1054 252 1055
f 1055 252 250
f 1055 250 1056
f 1056 250 248
f 1056 248 1057
f 1057 248 1058
f 1057 1058 1059
f 294 292 1000
f 1012 307 305
f 301 1060 303
f 303 1060 1061
f 303 1061 305
f 305 1061 1062
f 305 1062 1012
f 1012 1062 1063
f 1012 1063 1064
f 1064 1063 1065
f 1064 1065 1066
f 1066 1065 1067
f 1066 1067 1068
f 1068 1067 1000
f 1067 1069 1000
f 1000 1069 1070
f 1000 1070 1071
f 294 1000 295
f 295 1000 1071
f 295 1071 297
f 297 1071 1072
f 297 1072 299
f 299 1072 1073
f 299 1073 301
f 301 1073 1074
f 301 1074 1060
f 1002 170 172
f 1002 172 1049
f 1049 172 174
f 1049 174 1050
f 1050 174 176
f 1050 176 1052
f 1052 176 177
f 1052 177 997
f 996 209 214
f 996 214 1032
f 1032 214 212
f 1032 212 1034
f 1034 212 211
f 1034 211 1036
f 1036 211 197
f 1036 197 999
f 998 223 227
f 998 227 1075
f 1075 227 229
f 1075 229 1076
f 1076 229 231
f 1076 231 1077
f 1077 231 232
f 1077 232 1001
f 1000 146 155
f 1000 155 1068
f 1068 155 157
f 1068 157 1066
f 1066 157 159
f 1066 159 1064
f 1064 159 160
f 1064 160 1012
f 1078 1079 998
f 998 1079 1080
f 998 1080 1081
f 282 280 1081
f 1081 280 278
f 1081 278 998
f 998 278 277
f 998 277 275
f 292 290 1001
f 1001 290 288
f 998 1075 1078
f 1078 1075 1076
f 1078 1076 1082
f 1082 1076 1077
f 1082 1077 1083
f 1083 1077 1001
f 1083 1001 1084
f 1084 1001 288
f 1081 1085 282
f 282 1085 1086
f 282 1086 284
f 284 1086 1087
f 284 1087 286
f 286 1087 1088
f 286 1088 288
f 288 1088 1089
f 288 1089 1084
f 1090 1091 1092
f 1090 1092 1093
f 1094 1095 1092
f 1092 1095 1096
f 1092 1096 1093
f 1097 1098 1092
f 1092 1098 1099
f 1092 1099 1094
f 1100 1101 1092
f 1092 1101 1102
f 1092 1102 1097
f 1091 1103 1092
f 1092 1103 1104
f 1092 1104 1100
f 20 1105 22
f 22 1105 1106
f 22 1106 24
f 24 1106 1107
f 24 1107 27
f 27 1107 1108
f 27 1108 28
f 28 1108 1109
f 28 1109 29
f 29 1109 1110
f 29 1110 11
f 11 1110 1111
f 11 1111 12
f 12 1111 1112
f 12 1112 13
f 13 1112 1113
f 13 1113 14
f 14 1113 1114
f 14 1114 15
f 15 1114 1115
f 15 1115 16
f 16 1115 1116
f 16 1116 18
f 18 1116 1117
f 18 1117 19
f 19 1117 1118
f 19 1118 20
f 20 1118 1105
f 1119 1120 1121
f 1119 1121 1122
f 1123 1124 1121
f 1121 1124 1125
f 1121 1125 1122
f 1126 1127 1121
f 1121 1127 1128
f 1121 1128 1123
f 1129 1130 1121
f 1121 1130 1131
f 1121 1131 1126
f 1120 1132 1121
f 1121 1132 1133
f 1121 1133 1129
f 1134 46 1135
f 1135 46 44
f 1135 44 1136
f 1136 44 49
f 1136 49 1137
f 1137 49 48
f 1137 48 1138
f 1138 48 32
f 1138 32 1139
f 1139 32 42
f 1139 42 1140
f 1140 42 41
f 1140 41 1141
f 1141 41 40
f 1141 40 1142
f 1142 40 39
f 1142 39 1143
f 1143 39 38
f 1143 38 1144
f 1144 38 36
f 1144 36 1145
f 1145 36 34
f 1145 34 1146
f 1146 34 33
f 1146 33 1147
f 1147 33 47
f 1147 47 1134
f 1134 47 46
f 1148 1149 1150
f 1148 1150 1151
f 1152 1153 1150
f 1150 1153 1154
f 1152 1150 1155
f 1155 1150 359
f 1155 359 1156
f 1156 359 357
f 1156 357 1157
f 1157 357 1044
f 1157 1044 1048
f 1154 1158 1150
f 1150 1158 1159
f 1150 1159 1151
f 1160 1161 1162
f 1163 1161 1160
f 1160 1164 1165
f 1166 1164 1160
f 1162 1166 1160
f 1160 1167 1168
f 1169 1167 1160
f 1165 1169 1160
f 1160 1170 1171
f 1172 1170 1160
f 1168 1172 1160
f 1171 1163 1160
f 1163 1006 1161
f 1161 1006 1011
f 1161 1011 1162
f 1162 1011 1005
f 1162 1005 1166
f 1166 1005 1004
f 1166 1004 1164
f 1164 1004 1008
f 1164 1008 1165
f 1165 1008 1028
f 1165 1028 1169
f 1169 1028 1027
f 1169 1027 1167
f 1167 1027 1025
f 1167 1025 1168
f 1168 1025 1015
f 1168 1015 1172
f 1172 1015 1014
f 1172 1014 1170
f 1170 1014 1013
f 1170 1013 1171
f 1171 1013 1007
f 1171 1007 1163
f 1163 1007 1006
f 1173 1174 1175
f 1176 1174 1173
f 1173 1177 1178
f 1179 1177 1173
f 1175 1179 1173
f 1173 1180 1181
f 1182 1180 1173
f 1178 1182 1173
f 1173 1183 1184
f 1185 1183 1173
f 1181 1185 1173
f 1184 1176 1173
f 1176 1026 1174
f 1174 1026 1010
f 1174 1010 1175
f 1175 1010 1009
f 1175 1009 1179
f 1179 1009 1020
f 1179 1020 1177
f 1177 1020 1019
f 1177 1019 1178
f 1178 1019 1018
f 1178 1018 1182
f 1182 1018 1023
f 1182 1023 1180
f 1180 1023 1022
f 1180 1022 1181
f 1181 1022 1021
f 1181 1021 1185
f 1185 1021 1017
f 1185 1017 1183
f 1183 1017 1016
f 1183 1016 1184
f 1184 1016 1024
f 1184 1024 1176
f 1176 1024 1026
f 357 356 1044
f 1044 356 1003
f 1156 1157 1186
f 1186 1187 1156
f 1156 1187 1188
f 1156 1188 1155
f 1155 1188 1189
f 1155 1189 1152
f 1152 1189 1153
f 1153 1189 1190
f 1153 1190 1191
f 1059 187 1057
f 1057 187 185
f 1057 185 1056
f 1056 185 194
f 1056 194 1055
f 1055 194 180
f 1055 180 1054
f 1054 180 179
f 1054 179 1053
f 1053 179 178
f 1053 178 1051
f 1051 178 175
f 1051 175 1045
f 1045 175 173
f 1045 173 1046
f 1046 173 171
f 1046 171 1047
f 1047 171 192
f 1047 192 1048
f 1048 192 191
f 1157 1048 1186
f 1186 1048 191
f 1186 191 1187
f 1187 191 189
f 1187 189 1188
f 1188 189 1189
f 1189 189 187
f 1189 187 1190
f 1190 187 1059
f 1190 1059 1191
f 1037 196 1035
f 1035 196 195
f 1035 195 1033
f 1033 195 213
f 1033 213 1039
f 1039 213 215
f 1039 215 1040
f 1040 215 216
f 1040 216 1041
f 1041 216 210
f 1041 210 1042
f 1042 210 219
f 1042 219 1043
f 1043 219 207
f 1043 207 1029
f 1029 207 205
f 1029 205 1030
f 1030 205 203
f 1030 203 1031
f 1031 203 200
f 1031 200 1038
f 1038 200 198
f 1038 198 1037
f 1037 198 196
f 1079 226 1080
f 1080 226 225
f 1080 225 1081
f 1081 225 224
f 1081 224 1085
f 1085 224 246
f 1085 246 1086
f 1086 246 242
f 1086 242 1087
f 1087 242 240
f 1087 240 1088
f 1088 240 238
f 1088 238 1089
f 1089 238 233
f 1089 233 1084
f 1084 233 234
f 1084 234 1083
f 1083 234 235
f 1083 235 1082
f 1082 235 230
f 1082 230 1078
f 1078 230 228
f 1078 228 1079
f 1079 228 226
f 1072 150 1073
f 1073 150 152
f 1073 152 1074
f 1074 152 165
f 1074 165 1060
f 1060 165 167
f 1060 167 1061
f 1061 167 164
f 1061 164 1062
f 1062 164 162
f 1062 162 1063
f 1063 162 161
f 1063 161 1065
f 1065 161 158
f 1065 158 1067
f 1067 158 156
f 1067 156 1069
f 1069 156 154
f 1069 154 1070
f 1070 154 153
f 1070 153 1071
f 1071 153 148
f 1071 148 1072
f 1072 148 150
f 112 726 725
f 112 725 113
f 726 112 727
f 727 112 110
f 727 110 728
f 720 719 108
f 108 719 523
f 108 523 110
f 110 523 522
f 110 522 728
f 720 108 721
f 721 108 106
f 721 106 618
f 86 621 106
f 106 621 620
f 106 620 618
f 95 715 96
f 96 715 615
f 96 615 627
f 627 628 96
f 96 628 623
f 96 623 86
f 86 623 622
f 86 622 621
f 701 93 703
f 703 93 91
f 703 91 705
f 701 700 93
f 93 700 717
f 93 717 95
f 95 717 716
f 95 716 715
f 73 714 713
f 73 713 74
f 713 711 74
f 74 711 709
f 74 709 91
f 91 709 707
f 91 707 705
f 714 73 696
f 696 73 72
f 696 72 698
f 694 693 71
f 71 693 691
f 71 691 72
f 72 691 699
f 72 699 698
f 694 71 679
f 679 71 70
f 679 70 681
f 683 677 89
f 89 677 676
f 89 676 70
f 70 676 682
f 70 682 681
f 683 89 684
f 684 89 102
f 684 102 685
f 685 102 101
f 685 101 686
f 675 100 673
f 673 100 99
f 673 99 668
f 675 689 100
f 100 689 688
f 100 688 101
f 101 688 687
f 101 687 686
f 725 723 113
f 113 723 722
f 113 722 98
f 98 722 667
f 667 672 98
f 98 672 671
f 98 671 99
f 99 671 669
f 99 669 668
f 269 268 1192
f 119 264 118
f 118 264 1193
f 118 1193 116
f 116 1193 1194
f 116 1194 124
f 21 23 1195
f 1195 23 25
f 1195 25 123
f 123 124 1195
f 1195 124 1194
f 1195 1194 21
f 21 1194 1196
f 1197 1192 1198
f 1198 1192 268
f 1198 268 1199
f 1199 268 266
f 1199 266 1200
f 1200 266 265
f 1200 265 270
f 1196 1194 1197
f 1197 1194 1193
f 1197 1193 1192
f 1192 1193 264
f 1192 264 269
f 50 51 1201
f 138 129 1202
f 1202 129 128
f 1202 128 1203
f 1203 128 135
f 249 137 138
f 1202 1204 1205
f 138 1202 249
f 249 1202 1205
f 249 1205 247
f 1204 1202 1206
f 1206 1202 1203
f 1206 1203 1207
f 1207 1203 135
f 1207 135 1201
f 1201 135 142
f 1201 142 50
f 270 362 1200
f 1200 362 1208
f 1200 1208 1199
f 17 21 1196
f 1208 1209 1199
f 1199 1209 1210
f 1199 1210 1198
f 1198 1210 1211
f 1198 1211 1197
f 1197 1211 1212
f 1197 1212 1196
f 1196 1212 1213
f 1196 1213 17
f 1214 1215 1216
f 378 377 1217
f 1209 1208 1218
f 1218 1208 362
f 363 364 1219
f 1219 364 1220
f 1219 1220 1214
f 364 378 1220
f 1220 378 1217
f 1220 1217 1214
f 1214 1217 1221
f 1214 1221 1215
f 1212 1211 1222
f 1222 1211 1210
f 1223 1224 1222
f 1222 1224 1213
f 1222 1213 1212
f 1225 1223 1226
f 1226 1223 1222
f 1226 1222 1227
f 1227 1222 1210
f 1227 1210 1209
f 362 363 1218
f 1218 363 1219
f 1218 1219 1228
f 1228 1219 1214
f 1228 1214 1229
f 1229 1214 1216
f 1229 1216 1230
f 1209 1218 1227
f 1227 1218 1228
f 1227 1228 1226
f 1226 1228 1229
f 1226 1229 1225
f 1225 1229 1230
f 1225 1230 1231
f 1231 775 1225
f 1225 775 777
f 1225 777 1223
f 1223 777 778
f 1223 778 1224
f 1224 778 779
f 1224 779 1213
f 1213 779 17
f 394 775 1232
f 1232 775 1231
f 1232 1231 1233
f 1233 1231 1230
f 1233 1230 1234
f 1234 1230 1216
f 1234 1216 1235
f 1235 1216 1215
f 1235 1215 1236
f 1236 1215 1221
f 1236 1221 1237
f 1237 1221 1217
f 1237 1217 376
f 376 1217 377
f 1238 1239 314
f 1240 1241 1242
f 1243 1244 1240
f 374 373 1245
f 375 374 1246
f 376 375 1247
f 368 1244 369
f 369 1244 1243
f 369 1243 370
f 1235 1236 1247
f 1247 1236 1237
f 1247 1237 376
f 1248 1249 1250
f 1241 1240 1251
f 1251 1240 1244
f 1251 1244 1252
f 1252 1244 368
f 1252 368 367
f 1247 1253 1235
f 1235 1253 1254
f 1235 1254 1234
f 1255 1249 1256
f 1256 1249 1248
f 1256 1248 1257
f 1258 1232 1254
f 1254 1232 1233
f 1254 1233 1234
f 1259 1255 1260
f 1260 1255 1256
f 1260 1256 1261
f 1261 1256 1257
f 1261 1257 1262
f 371 370 1263
f 1263 370 1243
f 1263 1243 1264
f 1264 1243 1240
f 1264 1240 1265
f 1265 1240 1242
f 1265 1242 1266
f 372 371 1267
f 1267 371 1263
f 1267 1263 1268
f 1268 1263 1264
f 1268 1264 1269
f 1269 1264 1265
f 1269 1265 1238
f 1238 1265 1266
f 1238 1266 1239
f 394 1232 396
f 396 1232 1258
f 396 1258 389
f 375 1246 1247
f 1247 1246 1270
f 1247 1270 1253
f 1253 1270 1271
f 1253 1271 1254
f 1254 1271 1272
f 1254 1272 1258
f 1258 1272 414
f 1258 414 389
f 374 1245 1246
f 1246 1245 1273
f 1246 1273 1270
f 1270 1273 1274
f 1270 1274 1271
f 1271 1274 1275
f 1271 1275 1272
f 1272 1275 416
f 1272 416 414
f 373 1250 1245
f 1245 1250 1249
f 1245 1249 1273
f 1273 1249 1255
f 1273 1255 1274
f 1274 1255 1259
f 1274 1259 1275
f 1275 1259 418
f 1275 418 416
f 397 399 1262
f 1262 399 424
f 1262 424 1261
f 1261 424 420
f 1261 420 1260
f 1260 420 422
f 1260 422 1259
f 1259 422 423
f 1259 423 418
f 373 372 1250
f 1250 372 1267
f 1250 1267 1248
f 1248 1267 1268
f 1248 1268 1257
f 1257 1268 1269
f 1257 1269 1262
f 1262 1269 1238
f 1262 1238 397
f 397 1238 314
f 367 366 1252
f 1252 366 1276
f 1252 1276 1251
f 1251 1276 1277
f 1251 1277 1241
f 1241 1277 1278
f 1241 1278 1242
f 1242 1278 1279
f 1242 1279 1266
f 1266 1279 1280
f 1266 1280 1239
f 1239 1280 1281
f 1239 1281 314
f 314 1281 311
f 1282 1283 1284
f 360 358 1285
f 1277 1276 1286
f 1286 1276 366
f 365 361 1287
f 1287 361 1288
f 1287 1288 1282
f 361 360 1288
f 1288 360 1285
f 1288 1285 1282
f 1282 1285 1289
f 1282 1289 1283
f 1280 1279 1290
f 1290 1279 1278
f 1291 1292 1290
f 1290 1292 1281
f 1290 1281 1280
f 1293 1291 1294
f 1294 1291 1290
f 1294 1290 1295
f 1295 1290 1278
f 1295 1278 1277
f 366 365 1286
f 1286 365 1287
f 1286 1287 1296
f 1296 1287 1282
f 1296 1282 1297
f 1297 1282 1284
f 1297 1284 1298
f 1277 1286 1295
f 1295 1286 1296
f 1295 1296 1294
f 1294 1296 1297
f 1294 1297 1293
f 1293 1297 1298
f 1293 1298 1299
f 1299 35 1293
f 1293 35 792
f 1293 792 1291
f 1291 792 793
f 1291 793 1292
f 1292 793 794
f 1292 794 1281
f 1281 794 311
f 1300 1301 35
f 35 1301 1302
f 35 1302 45
f 1149 1303 1298
f 1298 1303 1304
f 1298 1304 1299
f 1299 1304 1305
f 1299 1305 35
f 35 1305 1306
f 35 1306 1300
f 1298 1284 1149
f 1149 1284 1283
f 1149 1283 1150
f 358 359 1285
f 1285 359 1150
f 1285 1150 1289
f 1289 1150 1283
f 1141 1122 1140
f 1140 1122 1125
f 1140 1125 1139
f 1139 1125 1124
f 1139 1124 1138
f 1138 1124 1123
f 1138 1123 1137
f 1137 1123 1128
f 1137 1128 1136
f 1136 1128 1127
f 1136 1127 1135
f 1135 1127 1126
f 1135 1126 1134
f 1134 1126 1131
f 1134 1131 1147
f 1147 1131 1130
f 1147 1130 1146
f 1146 1130 1129
f 1146 1129 1145
f 1145 1129 1133
f 1145 1133 1144
f 1144 1133 1132
f 1144 1132 1143
f 1143 1132 1120
f 1143 1120 1142
f 1142 1120 1119
f 1142 1119 1141
f 1141 1119 1122
f 1118 1093 1105
f 1105 1093 1096
f 1105 1096 1106
f 1106 1096 1095
f 1106 1095 1107
f 1107 1095 1094
f 1107 1094 1108
f 1108 1094 1099
f 1108 1099 1109
f 1109 1099 1098
f 1109 1098 1110
f 1110 1098 1097
f 1110 1097 1111
f 1111 1097 1102
f 1111 1102 1112
f 1112 1102 1101
f 1112 1101 1113
f 1113 1101 1100
f 1113 1100 1114
f 1114 1100 1104
f 1114 1104 1115
f 1115 1104 1103
f 1115 1103 1116
f 1116 1103 1091
f 1116 1091 1117
f 1117 1091 1090
f 1117 1090 1118
f 1118 1090 1093
f 823 746 8
f 8 746 747
f 600 656 5
f 600 5 602
f 602 5 7
f 602 7 590
f 590 7 8
f 590 8 747
f 743 744 855
f 735 825 733
f 733 825 867
f 733 867 732
f 732 867 870
f 855 744 856
f 856 744 746
f 856 746 823
f 855 854 743
f 743 854 857
f 743 857 741
f 741 857 858
f 741 858 740
f 740 858 829
f 740 829 738
f 738 829 828
f 738 828 737
f 737 828 859
f 737 859 735
f 735 859 826
f 735 826 825
f 5 656 796
f 796 656 658
f 796 658 798
f 798 658 659
f 798 659 799
f 799 659 661
f 799 661 800
f 800 661 663
f 800 663 516
f 516 663 664
f 732 870 731
f 731 870 1
f 731 1 729
f 557 511 555
f 555 511 512
f 515 516 664
f 664 527 515
f 515 527 610
f 515 610 514
f 610 612 514
f 514 612 718
f 514 718 519
f 718 702 519
f 519 702 704
f 519 704 520
f 704 706 520
f 520 706 708
f 520 708 521
f 708 710 521
f 521 710 712
f 521 712 517
f 712 695 517
f 517 695 697
f 517 697 518
f 697 690 518
f 518 690 692
f 518 692 513
f 692 678 513
f 513 678 680
f 513 680 512
f 512 680 541
f 512 541 555
f 729 1 561
f 561 1 3
f 561 3 564
f 564 3 4
f 896 511 557
f 564 4 565
f 565 4 899
f 565 899 535
f 535 899 898
f 535 898 533
f 533 898 897
f 533 897 531
f 531 897 896
f 531 896 558
f 558 896 557
f 605 751 631
f 631 751 762
f 631 762 524
f 524 762 763
f 524 763 724
f 724 763 758
f 724 758 665
f 665 758 759
f 665 759 666
f 666 759 760
f 666 760 670
f 670 760 761
f 670 761 674
f 674 761 764
f 674 764 539
f 539 764 765
f 539 765 651
f 651 765 766
f 651 766 649
f 649 766 767
f 649 767 647
f 647 767 768
f 647 768 568
f 568 768 769
f 568 769 730
f 730 769 752
f 730 752 734
f 734 752 753
f 734 753 736
f 736 753 754
f 736 754 739
f 739 754 755
f 739 755 742
f 742 755 756
f 742 756 745
f 745 756 757
f 745 757 587
f 587 757 748
f 587 748 530
f 530 748 749
f 530 749 607
f 607 749 750
f 607 750 605
f 605 750 751
f 243 245 509
f 509 507 243
f 243 507 506
f 243 506 241
f 506 504 241
f 241 504 503
f 241 503 239
f 503 501 239
f 239 501 500
f 239 500 237
f 500 498 237
f 237 498 497
f 237 497 236
f 497 495 236
f 236 495 494
f 236 494 220
f 220 494 492
f 220 492 221
f 221 492 491
f 221 491 222
f 491 489 222
f 222 489 488
f 222 488 149
f 488 486 149
f 149 486 485
f 149 485 151
f 485 483 151
f 151 483 482
f 151 482 166
f 482 480 166
f 166 480 479
f 166 479 168
f 479 477 168
f 168 477 476
f 168 476 169
f 476 474 169
f 169 474 473
f 169 473 181
f 181 473 471
f 181 471 182
f 182 471 470
f 182 470 183
f 183 470 468
f 183 468 190
f 468 467 190
f 190 467 465
f 190 465 188
f 465 464 188
f 188 464 462
f 188 462 186
f 462 461 186
f 186 461 459
f 186 459 184
f 459 458 184
f 184 458 456
f 184 456 193
f 456 455 193
f 193 455 453
f 193 453 143
f 453 452 143
f 143 452 450
f 143 450 144
f 144 450 449
f 144 449 217
f 217 449 447
f 217 447 218
f 447 446 218
f 218 446 444
f 218 444 208
f 444 443 208
f 208 443 441
f 208 441 206
f 441 440 206
f 206 440 438
f 206 438 204
f 438 437 204
f 204 437 435
f 204 435 202
f 435 434 202
f 202 434 432
f 202 432 201
f 432 431 201
f 201 431 428
f 201 428 244
f 244 428 427
f 244 427 245
f 245 427 510
f 245 510 509
f 1191 1059 1058
f 248 247 1058
f 1058 247 1307
f 1058 1307 1191
f 1191 1307 1154
f 1191 1154 1153
f 1300 1306 1308
f 1303 1149 1148
f 45 1201 43
f 43 1201 51
f 1306 1305 1308
f 1308 1305 1304
f 1308 1304 1303
f 45 1302 1201
f 1201 1302 1301
f 1201 1301 1207
f 1207 1301 1300
f 1303 1148 1308
f 1308 1148 1151
f 1308 1151 1309
f 1309 1151 1159
f 1309 1159 1310
f 1310 1159 1158
f 1310 1158 1311
f 1311 1158 1154
f 1311 1154 1307
f 1300 1308 1207
f 1207 1308 1309
f 1207 1309 1206
f 1206 1309 1310
f 1206 1310 1204
f 1204 1310 1311
f 1204 1311 1205
f 1205 1311 1307
f 1205 1307 247

