mtllib material.mtl
usemtl mtl_ankle_femur_bar_l
v 0.00489685 -0.00822218 -0.00263290
v 0.00467177 -0.00778944 -0.00314482
v 0.01006050 -0.00612858 -0.00237379
v 0.00996450 -0.00564350 -0.00287924
v 0.01560078 -0.00554426 -0.00209579
v 0.01564329 -0.00504456 -0.00259428
v 0.00063001 -0.00948753 -0.00284700
v 0.00062950 -0.00898819 -0.00334766
v -0.00374372 -0.00866585 -0.00306647
v -0.00351404 -0.00820975 -0.00355558
v -0.00726223 -0.00593788 -0.00324303
v -0.00684737 -0.00562536 -0.00372284
v -0.00915152 -0.00190371 -0.00333783
v -0.00863722 -0.00180352 -0.00381265
v -0.00899600 0.00254922 -0.00333003
v -0.00848988 0.00241505 -0.00380526
v -0.00682987 0.00644139 -0.00322133
v -0.00643776 0.00610237 -0.00370229
v -0.00312963 0.00891660 -0.00303566
v -0.00293228 0.00844731 -0.00352638
v 0.00129074 0.00943037 -0.00281385
v 0.00125545 0.00893403 -0.00331625
v 0.00545888 0.00786968 -0.00260470
v 0.00520421 0.00745548 -0.00311811
v 0.01594983 0.00444963 -0.00207827
v 0.01595744 0.00394994 -0.00257852
v 0.01046385 0.00542003 -0.00235355
v 0.01033430 0.00494460 -0.00286068
v 0.00517072 0.00786968 0.00313808
v 0.00486593 0.00745548 0.00362341
v 0.01017568 0.00542003 0.00338922
v 0.00999602 0.00494460 0.00388083
v 0.01566167 0.00444963 0.00366450
v 0.01561916 0.00394994 0.00416300
v 0.00100258 0.00943037 0.00292893
v 0.00091717 0.00893403 0.00342527
v -0.00341780 0.00891660 0.00270712
v -0.00327056 0.00844731 0.00321513
v -0.00711804 0.00644139 0.00252144
v -0.00677604 0.00610237 0.00303923
v -0.00928416 0.00254922 0.00241275
v -0.00882817 0.00241505 0.00293626
v -0.00943969 -0.00190371 0.00240494
v -0.00897550 -0.00180352 0.00292887
v -0.00755040 -0.00593788 0.00249975
v -0.00718565 -0.00562536 0.00301868
v -0.00403189 -0.00866585 0.00267630
v -0.00385233 -0.00820975 0.00318594
v 0.00034185 -0.00948753 0.00289577
v 0.00029121 -0.00898819 0.00339386
v 0.00460869 -0.00822218 0.00310988
v 0.00433348 -0.00778944 0.00359670
v 0.01531262 -0.00554426 0.00364699
v 0.01530501 -0.00504456 0.00414723
v 0.00977233 -0.00612858 0.00336898
v 0.00962622 -0.00564350 0.00386228
v 0.36362898 -0.01773017 0.01536785
v 0.36367148 -0.01723048 0.01486935
v 0.36911497 -0.01870057 0.01564313
v 0.36929464 -0.01822514 0.01515151
v 0.37411991 -0.02115021 0.01589427
v 0.37442473 -0.02073602 0.01540894
v 0.37495717 -0.00549110 0.01543565
v 0.37468195 -0.00505836 0.01592247
v 0.37894881 -0.00379301 0.01613658
v 0.37899944 -0.00429235 0.01563849
v 0.38332254 -0.00461469 0.01635605
v 0.38314298 -0.00507079 0.01584641
v 0.38684103 -0.00734266 0.01653260
v 0.38647631 -0.00765518 0.01601367
v 0.38873035 -0.01137683 0.01662740
v 0.38826618 -0.01147702 0.01610348
v 0.38857481 -0.01582976 0.01661960
v 0.38811883 -0.01569559 0.01609609
v 0.38640869 -0.01972193 0.01651090
v 0.38606670 -0.01938291 0.01599312
v 0.38270843 -0.02219714 0.01632523
v 0.38256121 -0.02172785 0.01581721
v 0.37828809 -0.02271091 0.01610342
v 0.37837347 -0.02221457 0.01560708
v 0.36397803 -0.00773628 0.01538536
v 0.36398563 -0.00823597 0.01488511
v 0.36951831 -0.00715195 0.01566336
v 0.36966443 -0.00763704 0.01517007
v 0.36368987 -0.00773628 0.02112814
v 0.36364734 -0.00823597 0.02162663
v 0.36923015 -0.00715195 0.02140614
v 0.36932614 -0.00763704 0.02191159
v 0.37439379 -0.00505836 0.02166525
v 0.37461889 -0.00549110 0.02217717
v 0.37408644 -0.02073602 0.02215045
v 0.37383175 -0.02115021 0.02163704
v 0.37799993 -0.02271091 0.02184620
v 0.37803522 -0.02221457 0.02234860
v 0.38242027 -0.02219714 0.02206801
v 0.38222292 -0.02172785 0.02255873
v 0.38612053 -0.01972193 0.02225368
v 0.38572842 -0.01938291 0.02273463
v 0.38828665 -0.01582976 0.02236237
v 0.38778055 -0.01569559 0.02283761
v 0.38844216 -0.01137683 0.02237018
v 0.38792789 -0.01147702 0.02284500
v 0.38655287 -0.00734266 0.02227538
v 0.38613802 -0.00765518 0.02275519
v 0.38303438 -0.00461469 0.02209882
v 0.38280469 -0.00507079 0.02258793
v 0.37866065 -0.00379301 0.02187935
v 0.37866116 -0.00429235 0.02238001
v 0.36882678 -0.01870057 0.02138590
v 0.36334080 -0.01773017 0.02111062
v 0.36895636 -0.01822514 0.02189303
v 0.36333320 -0.01723048 0.02161087
f 1 2 3
f 3 2 4
f 3 4 5
f 5 4 6
f 2 1 7
f 2 7 8
f 8 7 9
f 8 9 10
f 10 9 11
f 10 11 12
f 12 11 13
f 12 13 14
f 14 13 15
f 14 15 16
f 16 15 17
f 16 17 18
f 18 17 19
f 18 19 20
f 20 19 21
f 20 21 22
f 22 21 23
f 22 23 24
f 25 26 27
f 27 26 28
f 27 28 23
f 23 28 24
f 29 30 31
f 31 30 32
f 31 32 33
f 33 32 34
f 23 29 27
f 27 29 31
f 27 31 25
f 25 31 33
f 30 29 35
f 30 35 36
f 36 35 37
f 36 37 38
f 38 37 39
f 38 39 40
f 40 39 41
f 40 41 42
f 42 41 43
f 42 43 44
f 44 43 45
f 44 45 46
f 46 45 47
f 46 47 48
f 48 47 49
f 48 49 50
f 50 49 51
f 50 51 52
f 53 54 55
f 55 54 56
f 55 56 51
f 51 56 52
f 5 53 3
f 3 53 55
f 3 55 1
f 1 55 51
f 1 51 49
f 1 49 7
f 7 49 47
f 7 47 9
f 9 47 45
f 9 45 11
f 11 45 43
f 11 43 13
f 13 43 41
f 13 41 15
f 15 41 39
f 15 39 17
f 17 39 37
f 17 37 19
f 19 37 35
f 19 35 21
f 21 35 29
f 21 29 23
f 57 58 59
f 59 58 60
f 59 60 61
f 61 60 62
f 5 6 57
f 57 6 58
f 63 64 65
f 63 65 66
f 66 65 67
f 66 67 68
f 68 67 69
f 68 69 70
f 70 69 71
f 70 71 72
f 72 71 73
f 72 73 74
f 74 73 75
f 74 75 76
f 76 75 77
f 76 77 78
f 78 77 79
f 78 79 80
f 80 79 61
f 80 61 62
f 81 82 25
f 25 82 26
f 64 63 83
f 83 63 84
f 83 84 81
f 81 84 82
f 22 24 20
f 20 24 10
f 28 2 24
f 24 2 8
f 24 8 10
f 16 18 14
f 14 18 20
f 14 20 12
f 12 20 10
f 84 63 80
f 80 63 78
f 78 63 74
f 78 74 76
f 72 74 70
f 70 74 63
f 70 63 68
f 68 63 66
f 80 62 84
f 84 62 60
f 84 60 82
f 82 60 58
f 82 58 26
f 26 58 6
f 26 6 28
f 28 6 4
f 28 4 2
f 85 86 87
f 87 86 88
f 87 88 89
f 89 88 90
f 86 85 34
f 34 85 33
f 85 81 33
f 33 81 25
f 81 85 83
f 83 85 87
f 83 87 64
f 64 87 89
f 91 92 93
f 91 93 94
f 94 93 95
f 94 95 96
f 96 95 97
f 96 97 98
f 98 97 99
f 98 99 100
f 100 99 101
f 100 101 102
f 102 101 103
f 102 103 104
f 104 103 105
f 104 105 106
f 106 105 107
f 106 107 108
f 108 107 89
f 108 89 90
f 64 89 107
f 64 107 65
f 65 107 105
f 65 105 67
f 67 105 103
f 67 103 69
f 69 103 101
f 69 101 71
f 71 101 99
f 71 99 73
f 73 99 97
f 73 97 75
f 75 97 95
f 75 95 77
f 77 95 93
f 77 93 79
f 79 93 92
f 79 92 61
f 61 92 59
f 59 92 109
f 59 109 57
f 57 109 110
f 92 91 109
f 109 91 111
f 109 111 110
f 110 111 112
f 54 53 112
f 112 53 110
f 53 5 110
f 110 5 57
f 96 98 90
f 90 98 100
f 90 100 102
f 88 91 90
f 90 91 94
f 90 94 96
f 30 48 50
f 30 50 32
f 102 104 90
f 90 104 106
f 90 106 108
f 36 38 30
f 30 38 40
f 46 48 44
f 44 48 30
f 44 30 42
f 42 30 40
f 50 52 32
f 32 52 56
f 32 56 34
f 34 56 54
f 34 54 86
f 86 54 112
f 86 112 88
f 88 112 111
f 88 111 91

