mtllib material.mtl
usemtl mtl_ankle_tibia_bar_r
v -0.00730830 0.00125992 0.00659674
v -0.00664197 0.00134990 0.00681561
v -0.00829220 0.00665840 0.00559582
v -0.00765047 0.00688334 0.00578967
v -0.01059994 0.01173031 0.00534383
v -0.01001590 0.01208205 0.00553138
v -0.00614524 -0.00299959 0.00719403
v -0.00554013 -0.00268543 0.00738147
v -0.00335686 -0.00644750 0.00675846
v -0.00289850 -0.00595187 0.00696883
v 0.00044348 -0.00832535 0.00538586
v 0.00070182 -0.00773088 0.00566847
v 0.00441977 -0.00822006 0.00337815
v 0.00446883 -0.00763113 0.00376643
v 0.00769734 -0.00615478 0.00117700
v 0.00757390 -0.00567455 0.00168112
v 0.00955518 -0.00258384 -0.00073341
v 0.00933396 -0.00229155 -0.00012874
v 0.00958463 0.00170725 -0.00193282
v 0.00936186 0.00177369 -0.00126502
v 0.00777920 0.00577455 -0.00215740
v 0.00765145 0.00562692 -0.00147777
v 0.00453604 0.00872333 -0.00135773
v 0.00457898 0.00842050 -0.00072020
v -0.00324398 0.01636549 0.00040369
v -0.00339554 0.01625371 0.00108526
v 0.00020811 0.01201466 -0.00011285
v 0.00014286 0.01179411 0.00055581
v 0.00204926 0.00734355 -0.00635519
v 0.00165973 0.00680075 -0.00658678
v -0.00227866 0.01063487 -0.00511031
v -0.00277640 0.01017436 -0.00531078
v -0.00573076 0.01498570 -0.00459378
v -0.00631480 0.01463396 -0.00478133
v 0.00529242 0.00439476 -0.00715486
v 0.00473219 0.00400716 -0.00734436
v 0.00709785 0.00032747 -0.00693029
v 0.00644260 0.00015394 -0.00713161
v 0.00706841 -0.00396362 -0.00573087
v 0.00641470 -0.00391130 -0.00599532
v 0.00521056 -0.00753457 -0.00382047
v 0.00465464 -0.00729430 -0.00418546
v 0.00193300 -0.00959984 -0.00161931
v 0.00154958 -0.00925088 -0.00210016
v -0.00204330 -0.00970514 0.00038840
v -0.00221744 -0.00935063 -0.00019812
v -0.00584363 -0.00782729 0.00176100
v -0.00581776 -0.00757162 0.00110224
v -0.00863202 -0.00437938 0.00219657
v -0.00845939 -0.00430518 0.00151488
v -0.00979508 -0.00011987 0.00159927
v -0.00956123 -0.00026985 0.00094903
v -0.01308672 0.01035053 0.00034637
v -0.01293516 0.01046230 -0.00033520
v -0.01077897 0.00527861 0.00059836
v -0.01056972 0.00526359 -0.00007691
v -0.19240096 0.30914545 0.01369378
v -0.19181693 0.30949718 0.01388133
v -0.19585305 0.31349626 0.01421031
v -0.19535533 0.31395680 0.01441078
v -0.20018099 0.31678760 0.01545519
v -0.19979146 0.31733042 0.01568678
v -0.18857050 0.32440102 0.00815097
v -0.18833664 0.32425103 0.00750073
v -0.18949972 0.32851055 0.00690344
v -0.18967235 0.32843634 0.00758512
v -0.19228810 0.33195844 0.00733900
v -0.19231398 0.33170277 0.00799776
v -0.19608843 0.33383629 0.00871160
v -0.19591430 0.33348179 0.00929812
v -0.20006472 0.33373100 0.01071931
v -0.19968131 0.33338204 0.01120016
v -0.20334229 0.33166572 0.01292047
v -0.20278637 0.33142546 0.01328546
v -0.20520014 0.32809478 0.01483087
v -0.20454644 0.32804248 0.01509532
v -0.20522958 0.32380369 0.01603029
v -0.20457433 0.32397723 0.01623161
v -0.20342416 0.31973642 0.01625486
v -0.20286392 0.32012400 0.01644436
v -0.18504500 0.31378064 0.00875363
v -0.18519656 0.31366885 0.00943520
v -0.18735275 0.31885254 0.00850164
v -0.18756202 0.31886756 0.00917691
v -0.18753178 0.31240085 0.00375617
v -0.18811582 0.31204909 0.00356862
v -0.18983953 0.31747276 0.00350418
v -0.19048128 0.31724781 0.00331033
v -0.19082342 0.32287124 0.00250326
v -0.19148976 0.32278126 0.00228439
v -0.20271072 0.31571066 0.00982020
v -0.20266776 0.31540781 0.01045773
v -0.20591094 0.31835663 0.01125740
v -0.20578319 0.31850424 0.01057777
v -0.20771636 0.32242391 0.01103282
v -0.20749359 0.32235748 0.01036502
v -0.20768692 0.32671499 0.00983341
v -0.20746569 0.32642272 0.00922874
v -0.20582907 0.33028594 0.00792300
v -0.20570563 0.32980570 0.00741888
v -0.20255150 0.33235121 0.00572185
v -0.20260057 0.33176228 0.00533357
v -0.19857520 0.33245650 0.00371414
v -0.19883355 0.33186206 0.00343153
v -0.19477487 0.33057866 0.00234153
v -0.19523324 0.33008304 0.00213117
v -0.19198649 0.32713076 0.00190597
v -0.19259161 0.32681659 0.00171853
v -0.19833983 0.31211647 0.00921285
v -0.19488774 0.30776566 0.00869631
v -0.19827460 0.31233704 0.00854419
v -0.19473618 0.30787745 0.00801474
f 1 2 3
f 3 2 4
f 3 4 5
f 5 4 6
f 2 1 7
f 2 7 8
f 8 7 9
f 8 9 10
f 10 9 11
f 10 11 12
f 12 11 13
f 12 13 14
f 14 13 15
f 14 15 16
f 16 15 17
f 16 17 18
f 18 17 19
f 18 19 20
f 20 19 21
f 20 21 22
f 22 21 23
f 22 23 24
f 25 26 27
f 27 26 28
f 27 28 23
f 23 28 24
f 29 30 31
f 31 30 32
f 31 32 33
f 33 32 34
f 23 29 27
f 27 29 31
f 27 31 25
f 25 31 33
f 30 29 35
f 30 35 36
f 36 35 37
f 36 37 38
f 38 37 39
f 38 39 40
f 40 39 41
f 40 41 42
f 42 41 43
f 42 43 44
f 44 43 45
f 44 45 46
f 46 45 47
f 46 47 48
f 48 47 49
f 48 49 50
f 50 49 51
f 50 51 52
f 53 54 55
f 55 54 56
f 55 56 51
f 51 56 52
f 5 53 3
f 3 53 55
f 3 55 1
f 1 55 51
f 1 51 49
f 1 49 7
f 7 49 47
f 7 47 9
f 9 47 45
f 9 45 11
f 11 45 43
f 11 43 13
f 13 43 41
f 13 41 15
f 15 41 39
f 15 39 17
f 17 39 37
f 17 37 19
f 19 37 35
f 19 35 21
f 21 35 29
f 21 29 23
f 57 58 59
f 59 58 60
f 59 60 61
f 61 60 62
f 5 6 57
f 57 6 58
f 63 64 65
f 63 65 66
f 66 65 67
f 66 67 68
f 68 67 69
f 68 69 70
f 70 69 71
f 70 71 72
f 72 71 73
f 72 73 74
f 74 73 75
f 74 75 76
f 76 75 77
f 76 77 78
f 78 77 79
f 78 79 80
f 80 79 61
f 80 61 62
f 81 82 25
f 25 82 26
f 64 63 83
f 83 63 84
f 83 84 81
f 81 84 82
f 22 24 20
f 20 24 10
f 28 2 24
f 24 2 8
f 24 8 10
f 16 18 14
f 14 18 20
f 14 20 12
f 12 20 10
f 84 63 80
f 80 63 78
f 78 63 74
f 78 74 76
f 72 74 70
f 70 74 63
f 70 63 68
f 68 63 66
f 80 62 84
f 84 62 60
f 84 60 82
f 82 60 58
f 82 58 26
f 26 58 6
f 26 6 28
f 28 6 4
f 28 4 2
f 85 86 87
f 87 86 88
f 87 88 89
f 89 88 90
f 86 85 34
f 34 85 33
f 85 81 33
f 33 81 25
f 81 85 83
f 83 85 87
f 83 87 64
f 64 87 89
f 91 92 93
f 91 93 94
f 94 93 95
f 94 95 96
f 96 95 97
f 96 97 98
f 98 97 99
f 98 99 100
f 100 99 101
f 100 101 102
f 102 101 103
f 102 103 104
f 104 103 105
f 104 105 106
f 106 105 107
f 106 107 108
f 108 107 89
f 108 89 90
f 64 89 107
f 64 107 65
f 65 107 105
f 65 105 67
f 67 105 103
f 67 103 69
f 69 103 101
f 69 101 71
f 71 101 99
f 71 99 73
f 73 99 97
f 73 97 75
f 75 97 95
f 75 95 77
f 77 95 93
f 77 93 79
f 79 93 92
f 79 92 61
f 61 92 59
f 59 92 109
f 59 109 57
f 57 109 110
f 92 91 109
f 109 91 111
f 109 111 110
f 110 111 112
f 54 53 112
f 112 53 110
f 53 5 110
f 110 5 57
f 96 98 90
f 90 98 100
f 90 100 102
f 88 91 90
f 90 91 94
f 90 94 96
f 30 48 50
f 30 50 32
f 102 104 90
f 90 104 106
f 90 106 108
f 36 38 30
f 30 38 40
f 46 48 44
f 44 48 30
f 44 30 42
f 42 30 40
f 50 52 32
f 32 52 56
f 32 56 34
f 34 56 54
f 34 54 86
f 86 54 112
f 86 112 88
f 88 112 111
f 88 111 91

