mtllib material.mtl
usemtl mtl_left_hip_xy_cross_r
v -0.00201437 -0.02070000 0.00543896
v -0.00385823 -0.02070000 0.00813105
v -0.00306799 -0.02070000 0.00492214
v -0.00511258 -0.02070000 0.00740686
v -0.00399601 -0.02070000 0.00420380
v -0.00623452 -0.02070000 0.00649082
v -0.00476043 -0.02070000 0.00331336
v -0.00719498 -0.02070000 0.00540668
v -0.00532996 -0.02070000 0.00228726
v -0.00796910 -0.02070000 0.00418251
v -0.00853683 -0.02070000 0.00285001
v -0.00568127 -0.02070000 0.00116753
v -0.00888345 -0.02070000 0.00144370
v -0.00580000 -0.02070000 0.00000000
v -0.00900000 -0.02070000 0.00000000
v -0.00568127 -0.02070000 -0.00116753
v 0.00255429 -0.02070000 0.00520727
v 0.00319144 -0.02070000 0.00841515
v 0.00145378 -0.02070000 0.00561485
v 0.00180023 -0.02070000 0.00881812
v 0.00029377 -0.02070000 0.00579256
v 0.00036239 -0.02070000 0.00899270
v -0.00087828 -0.02070000 0.00573312
v -0.00108483 -0.02070000 0.00893438
v -0.00250396 -0.02070000 0.00864466
v 0.00553401 -0.02070000 0.00173631
v 0.00827982 -0.02070000 0.00352770
v 0.00507121 -0.02070000 0.00281475
v 0.00760671 -0.02070000 0.00481019
v 0.00440080 -0.02070000 0.00377796
v 0.00673660 -0.02070000 0.00596810
v 0.00355021 -0.02070000 0.00458650
v 0.00569201 -0.02070000 0.00697144
v 0.00450000 -0.02070000 0.00779423
v 0.00507121 -0.02070000 -0.00281475
v 0.00827982 -0.02070000 -0.00352770
v 0.00553401 -0.02070000 -0.00173631
v 0.00873848 -0.02070000 -0.00215384
v 0.00577024 -0.02070000 -0.00058678
v 0.00897082 -0.02070000 -0.00072420
v 0.00577024 -0.02070000 0.00058678
v 0.00897082 -0.02070000 0.00072420
v 0.00873848 -0.02070000 0.00215384
v 0.00145378 -0.02070000 -0.00561485
v 0.00319144 -0.02070000 -0.00841515
v 0.00255429 -0.02070000 -0.00520727
v 0.00450000 -0.02070000 -0.00779423
v 0.00355021 -0.02070000 -0.00458650
v 0.00569201 -0.02070000 -0.00697144
v 0.00440080 -0.02070000 -0.00377796
v 0.00673660 -0.02070000 -0.00596810
v 0.00760671 -0.02070000 -0.00481019
v -0.00306799 -0.02070000 -0.00492214
v -0.00385823 -0.02070000 -0.00813105
v -0.00201437 -0.02070000 -0.00543896
v -0.00250396 -0.02070000 -0.00864466
v -0.00087828 -0.02070000 -0.00573312
v -0.00108483 -0.02070000 -0.00893438
v 0.00029377 -0.02070000 -0.00579256
v 0.00036239 -0.02070000 -0.00899270
v 0.00180023 -0.02070000 -0.00881812
v -0.00888345 -0.02070000 -0.00144370
v -0.00853683 -0.02070000 -0.00285001
v -0.00532996 -0.02070000 -0.00228726
v -0.00796910 -0.02070000 -0.00418251
v -0.00476043 -0.02070000 -0.00331336
v -0.00719498 -0.02070000 -0.00540668
v -0.00399601 -0.02070000 -0.00420380
v -0.00623452 -0.02070000 -0.00649082
v -0.00511258 -0.02070000 -0.00740686
v -0.00888345 -0.02042123 -0.00144370
v -0.00853683 -0.02042123 -0.00285001
v -0.00796910 -0.02042123 -0.00418251
v -0.00719498 -0.02042123 -0.00540668
v -0.00623452 -0.02042123 -0.00649082
v -0.00511258 -0.02042123 -0.00740686
v -0.00385823 -0.02042123 -0.00813105
v -0.00250396 -0.02042123 -0.00864466
v -0.00108483 -0.02042123 -0.00893438
v 0.00036239 -0.02042123 -0.00899270
v 0.00180023 -0.02042123 -0.00881812
v 0.00319144 -0.02042123 -0.00841515
v 0.00450000 -0.02042123 -0.00779423
v 0.00569201 -0.02042123 -0.00697144
v 0.00673660 -0.02042123 -0.00596810
v 0.00760671 -0.02042123 -0.00481019
v 0.00827982 -0.02042123 -0.00352770
v 0.00873848 -0.02042123 -0.00215384
v 0.00897082 -0.02042123 -0.00072420
v 0.00897082 -0.02042123 0.00072420
v 0.00873848 -0.02042123 0.00215384
v 0.00827982 -0.02042123 0.00352770
v 0.00760671 -0.02042123 0.00481019
v 0.00673660 -0.02042123 0.00596810
v 0.00569201 -0.02042123 0.00697144
v 0.00450000 -0.02042123 0.00779423
v 0.00319144 -0.02042123 0.00841515
v 0.00180023 -0.02042123 0.00881812
v 0.00036239 -0.02042123 0.00899270
v -0.00108483 -0.02042123 0.00893438
v -0.00250396 -0.02042123 0.00864466
v -0.00385823 -0.02042123 0.00813105
v -0.00511258 -0.02042123 0.00740686
v -0.00623452 -0.02042123 0.00649082
v -0.00719498 -0.02042123 0.00540668
v -0.00796910 -0.02042123 0.00418251
v -0.00853683 -0.02042123 0.00285001
v -0.00888345 -0.02042123 0.00144370
v -0.00900000 -0.02042123 0.00000000
v -0.00690935 -0.01820000 -0.00112288
v -0.00663975 -0.01820000 -0.00221668
v -0.00619819 -0.01820000 -0.00325306
v -0.00559610 -0.01820000 -0.00420520
v -0.00484907 -0.01820000 -0.00504842
v -0.00397645 -0.01820000 -0.00576089
v -0.00300085 -0.01820000 -0.00632415
v -0.00194752 -0.01820000 -0.00672363
v -0.00084376 -0.01820000 -0.00694896
v 0.00028186 -0.01820000 -0.00699432
v 0.00140018 -0.01820000 -0.00685853
v 0.00248223 -0.01820000 -0.00654511
v 0.00350000 -0.01820000 -0.00606218
v 0.00442712 -0.01820000 -0.00542223
v 0.00523958 -0.01820000 -0.00464186
v 0.00591633 -0.01820000 -0.00374126
v 0.00643986 -0.01820000 -0.00274377
v 0.00679659 -0.01820000 -0.00167521
v 0.00697730 -0.01820000 -0.00056327
v 0.00697730 -0.01820000 0.00056327
v 0.00679659 -0.01820000 0.00167521
v 0.00643986 -0.01820000 0.00274377
v 0.00591633 -0.01820000 0.00374126
v 0.00523958 -0.01820000 0.00464186
v 0.00442712 -0.01820000 0.00542223
v 0.00350000 -0.01820000 0.00606218
v 0.00248223 -0.01820000 0.00654511
v 0.00140018 -0.01820000 0.00685853
v 0.00028186 -0.01820000 0.00699432
v -0.00084376 -0.01820000 0.00694896
v -0.00194752 -0.01820000 0.00672363
v -0.00300085 -0.01820000 0.00632415
v -0.00397645 -0.01820000 0.00576089
v -0.00484907 -0.01820000 0.00504842
v -0.00559610 -0.01820000 0.00420520
v -0.00619819 -0.01820000 0.00325306
v -0.00663975 -0.01820000 0.00221668
v -0.00690935 -0.01820000 0.00112288
v -0.00700000 -0.01820000 0.00000000
v -0.00600000 0.02050000 0.00000000
v -0.00591370 0.02850000 -0.00101400
v -0.00591370 0.02050000 -0.00101400
v -0.00565726 0.02850000 -0.00199884
v -0.00565726 0.02050000 -0.00199884
v -0.00523808 0.02850000 -0.00292617
v -0.00523808 0.02050000 -0.00292617
v -0.00466821 0.02850000 -0.00376932
v -0.00466821 0.02050000 -0.00376932
v -0.00396405 0.02850000 -0.00450403
v -0.00396405 0.02050000 -0.00450403
v -0.00314584 0.02850000 -0.00510917
v -0.00314584 0.02050000 -0.00510917
v -0.00223714 0.02850000 -0.00556733
v -0.00223714 0.02050000 -0.00556733
v -0.00126408 0.02850000 -0.00586533
v -0.00126408 0.02050000 -0.00586533
v -0.00025465 0.02850000 -0.00599459
v -0.00025465 0.02050000 -0.00599459
v 0.00076211 0.02850000 -0.00595140
v 0.00076211 0.02050000 -0.00595140
v 0.00175694 0.02850000 -0.00573700
v 0.00175694 0.02050000 -0.00573700
v 0.00270122 0.02850000 -0.00535756
v 0.00270122 0.02050000 -0.00535756
v 0.00356780 0.02850000 -0.00482398
v 0.00356780 0.02050000 -0.00482398
v 0.00433174 0.02850000 -0.00415163
v 0.00433174 0.02050000 -0.00415163
v 0.00497106 0.02850000 -0.00335985
v 0.00497106 0.02050000 -0.00335985
v 0.00546737 0.02850000 -0.00247141
v 0.00546737 0.02050000 -0.00247141
v 0.00580640 0.02850000 -0.00151187
v 0.00580640 0.02050000 -0.00151187
v 0.00597838 0.02850000 -0.00050884
v 0.00597838 0.02050000 -0.00050884
v 0.00597838 0.02850000 0.00050884
v 0.00597838 0.02050000 0.00050884
v 0.00580640 0.02850000 0.00151187
v 0.00580640 0.02050000 0.00151187
v 0.00546737 0.02850000 0.00247141
v 0.00546737 0.02050000 0.00247141
v 0.00497106 0.02850000 0.00335985
v 0.00497106 0.02050000 0.00335985
v 0.00433174 0.02850000 0.00415163
v 0.00433174 0.02050000 0.00415163
v 0.00356780 0.02850000 0.00482398
v 0.00356780 0.02050000 0.00482398
v 0.00270122 0.02850000 0.00535756
v 0.00270122 0.02050000 0.00535756
v 0.00175694 0.02850000 0.00573700
v 0.00175694 0.02050000 0.00573700
v 0.00076211 0.02850000 0.00595140
v 0.00076211 0.02050000 0.00595140
v -0.00025465 0.02850000 0.00599459
v -0.00025465 0.02050000 0.00599459
v -0.00126408 0.02850000 0.00586533
v -0.00126408 0.02050000 0.00586533
v -0.00223714 0.02850000 0.00556733
v -0.00223714 0.02050000 0.00556733
v -0.00314584 0.02850000 0.00510917
v -0.00314584 0.02050000 0.00510917
v -0.00396405 0.02850000 0.00450403
v -0.00396405 0.02050000 0.00450403
v -0.00466821 0.02850000 0.00376932
v -0.00466821 0.02050000 0.00376932
v -0.00523808 0.02850000 0.00292617
v -0.00523808 0.02050000 0.00292617
v -0.00565726 0.02850000 0.00199884
v -0.00565726 0.02050000 0.00199884
v -0.00591370 0.02850000 0.00101400
v -0.00591370 0.02050000 0.00101400
v -0.00600000 0.02850000 0.00000000
v -0.00500000 -0.00900000 0.00000000
v -0.00500000 -0.01770000 0.00000000
v -0.00494846 -0.00902317 0.00071607
v -0.00479746 -0.01770000 0.00140866
v -0.00479746 -0.00909408 0.00140866
v -0.00471159 -0.00913639 0.00167361
v -0.00448846 -0.00925287 0.00220312
v -0.00420627 -0.01770000 0.00270320
v -0.00420627 -0.00941328 0.00270320
v -0.00376676 -0.00969060 0.00328809
v -0.00327430 -0.01770000 0.00377875
v -0.00327430 -0.01003801 0.00377875
v -0.00207707 -0.01770000 0.00454816
v -0.00230769 -0.01705133 0.00443560
v -0.00207707 -0.01674208 0.00454816
v -0.00230769 -0.00994987 0.00443560
v -0.00272350 -0.01012598 0.00419315
v -0.00291372 -0.01021507 0.00406328
v -0.00299197 -0.01025323 0.00400601
v -0.00140866 -0.01605712 0.00479746
v -0.00071157 -0.01770000 0.00494911
v -0.00071157 -0.01564048 0.00494911
v 0.00000000 -0.01550066 0.00500000
v 0.00071157 -0.01770000 0.00494911
v 0.00071157 -0.01564048 0.00494911
v 0.00299197 -0.01025323 0.00400601
v 0.00281891 -0.01017001 0.00412962
v 0.00230769 -0.01705133 0.00443560
v 0.00237031 -0.00997472 0.00440246
v 0.00230769 -0.00994987 0.00443560
v 0.00327430 -0.01003801 0.00377875
v 0.00327430 -0.01770000 0.00377875
v 0.00207707 -0.01770000 0.00454816
v 0.00207707 -0.01674208 0.00454816
v 0.00140866 -0.01605712 0.00479746
v 0.00376620 -0.00969097 0.00328873
v 0.00420627 -0.01770000 0.00270320
v 0.00420627 -0.00941328 0.00270320
v 0.00448935 -0.00925239 0.00220130
v 0.00479746 -0.01770000 0.00140866
v 0.00471612 -0.00913412 0.00166077
v 0.00479746 -0.01770000 -0.00140866
v 0.00500000 -0.00900000 0.00000000
v 0.00500000 -0.01770000 0.00000000
v 0.00494880 -0.00902302 0.00071370
v 0.00479715 -0.00909423 0.00140973
v 0.00499849 -0.00712149 -0.00012304
v 0.00500000 -0.00712132 0.00000000
v 0.00495830 -0.00712646 -0.00064441
v 0.00460667 -0.00720219 -0.00194385
v 0.00471850 -0.00717187 -0.00165401
v 0.00479742 -0.00715396 -0.00140881
v 0.00486454 -0.00714101 -0.00115596
v 0.00441262 -0.00726830 -0.00235134
v 0.00420627 -0.01770000 -0.00270320
v 0.00420601 -0.00735708 -0.00270361
v 0.00376252 -0.01236921 -0.00329294
v 0.00389980 -0.01208761 -0.00312915
v 0.00327430 -0.01770000 -0.00377875
v 0.00328093 -0.01284343 -0.00377300
v 0.00357623 -0.01259167 -0.00349436
v 0.00397459 -0.01179431 -0.00303358
v 0.00400000 -0.01147870 -0.00300000
v 0.00400000 -0.00779423 -0.00300000
v 0.00417476 -0.00737212 -0.00275161
v 0.00397453 -0.00747824 -0.00303366
v 0.00207707 -0.01770000 -0.00454816
v 0.00071157 -0.01770000 -0.00494911
v 0.00071157 -0.01390613 -0.00494911
v 0.00140866 -0.01376911 -0.00479746
v 0.00207707 -0.01354385 -0.00454816
v 0.00270320 -0.01323492 -0.00420627
v -0.00207707 -0.01770000 -0.00454816
v -0.00140866 -0.01376911 -0.00479746
v -0.00071157 -0.01770000 -0.00494911
v -0.00071157 -0.01390613 -0.00494911
v -0.00000000 -0.01395212 -0.00500000
v -0.00327430 -0.01770000 -0.00377875
v -0.00270320 -0.01323492 -0.00420627
v -0.00207707 -0.01354385 -0.00454816
v -0.00397453 -0.00747824 -0.00303366
v -0.00400000 -0.00779423 -0.00300000
v -0.00413789 -0.00739040 -0.00280676
v -0.00420577 -0.00735720 -0.00270398
v -0.00400000 -0.01147870 -0.00300000
v -0.00397475 -0.01179335 -0.00303337
v -0.00420627 -0.01770000 -0.00270320
v -0.00389980 -0.01208761 -0.00312915
v -0.00376265 -0.01236900 -0.00329278
v -0.00357623 -0.01259167 -0.00349436
v -0.00327430 -0.01284863 -0.00377875
v -0.00479746 -0.01770000 -0.00140866
v -0.00479744 -0.00715396 -0.00140876
v -0.00475710 -0.00716275 -0.00153949
v -0.00437777 -0.00728196 -0.00241560
v -0.00458558 -0.00720855 -0.00199310
v -0.00500000 -0.00712132 0.00000000
v -0.00497480 -0.00712433 -0.00050137
v -0.00489635 -0.00713561 -0.00101280
v -0.00396503 -0.00697944 -0.00319761
v -0.00393787 -0.00699134 -0.00323297
v -0.00393742 -0.00704432 -0.00320091
v -0.00395119 -0.00730307 -0.00308269
v -0.00415259 -0.00688361 -0.00294989
v -0.00394118 -0.00690635 -0.00329100
v -0.00410423 -0.00654104 -0.00345140
v -0.00397399 -0.00665057 -0.00352940
v -0.00398533 -0.00660139 -0.00359053
v -0.00500000 -0.00657281 -0.00105328
v -0.00500000 -0.00646727 -0.00128098
v -0.00484730 -0.00661379 -0.00159976
v -0.00500000 -0.00617829 -0.00201958
v -0.00465668 -0.00667408 -0.00207875
v -0.00500000 -0.00711453 -0.00001240
v -0.00500000 -0.00697092 -0.00027665
v -0.00442374 -0.00676201 -0.00252918
v -0.00490060 -0.00621041 -0.00223225
v -0.00463044 -0.00630801 -0.00272027
v -0.00431859 -0.00643934 -0.00317923
v -0.00500000 -0.00684665 -0.00050995
v -0.00500000 -0.00657967 -0.00103893
v -0.00400000 -0.00649519 -0.00375000
v -0.00500000 -0.00560242 -0.00329589
v -0.00500000 -0.00469948 -0.00449053
v -0.00400000 -0.00545530 -0.00514681
v -0.00400000 -0.00646433 -0.00380295
v -0.00500000 -0.00354712 -0.00544683
v -0.00400000 -0.00412132 -0.00626616
v -0.00400000 -0.00542248 -0.00518138
v -0.00500000 -0.00220649 -0.00611403
v -0.00400000 -0.00256515 -0.00704769
v -0.00400000 -0.00409283 -0.00628480
v -0.00500000 0.00074874 -0.00645673
v -0.00400000 -0.00086393 -0.00745008
v -0.00500000 -0.00074874 -0.00645673
v -0.00400000 -0.00087070 -0.00744929
v -0.00400000 -0.00254595 -0.00705466
v -0.00500000 0.00220649 -0.00611403
v -0.00400000 0.00087070 -0.00744929
v -0.00400000 0.00086393 -0.00745008
v -0.00500000 0.00354712 -0.00544683
v -0.00400000 0.00256515 -0.00704769
v -0.00400000 0.00254595 -0.00705466
v -0.00500000 0.00469948 -0.00449053
v -0.00400000 0.00412132 -0.00626616
v -0.00400000 0.00409283 -0.00628480
v -0.00400000 0.00649519 -0.00375000
v -0.00400000 0.00646433 -0.00380295
v -0.00500000 0.00560242 -0.00329589
v -0.00400000 0.00545530 -0.00514681
v -0.00400000 0.00542248 -0.00518138
v -0.00500000 0.00617829 -0.00201958
v -0.00492802 0.00620134 -0.00217584
v -0.00467574 0.00629059 -0.00264555
v -0.00436653 0.00641786 -0.00311407
v -0.00401853 0.00658426 -0.00355245
v -0.00398533 0.00660139 -0.00359053
v 0.00400000 0.00649519 -0.00375000
v 0.00400000 0.00646433 -0.00380295
v 0.00400000 0.00545530 -0.00514681
v 0.00400000 0.00542248 -0.00518138
v 0.00400000 0.00412132 -0.00626616
v 0.00400000 0.00409283 -0.00628480
v 0.00400000 0.00256515 -0.00704769
v 0.00400000 0.00254595 -0.00705466
v 0.00400000 0.00087070 -0.00744929
v 0.00400000 0.00086393 -0.00745008
v 0.00400000 -0.00086393 -0.00745008
v 0.00400000 -0.00087070 -0.00744929
v 0.00400000 -0.00254595 -0.00705466
v 0.00400000 -0.00256515 -0.00704769
v 0.00400000 -0.00409283 -0.00628480
v 0.00400000 -0.00412132 -0.00626616
v 0.00400000 -0.00542248 -0.00518138
v 0.00400000 -0.00545530 -0.00514681
v 0.00400000 -0.00646433 -0.00380295
v 0.00400000 -0.00649519 -0.00375000
v -0.00500000 -0.00885483 0.00160999
v -0.00500000 -0.00836277 0.00332626
v -0.00500000 0.00529604 -0.00148388
v -0.00500000 0.00550000 0.00000000
v -0.00500000 0.00669143 -0.00081139
v -0.00500000 0.00529604 0.00148388
v -0.00500000 0.00712132 0.00000000
v -0.00500000 0.00711453 -0.00001240
v -0.00500000 -0.00754161 0.00491163
v -0.00500000 -0.00642366 0.00630370
v -0.00500000 -0.00505290 0.00744770
v -0.00500000 -0.00177661 0.00882291
v -0.00500000 -0.00184184 0.00518244
v -0.00500000 -0.00317174 0.00449333
v -0.00500000 0.00900000 0.00000000
v -0.00500000 0.00885483 0.00160999
v -0.00500000 0.00836277 0.00332626
v -0.00500000 0.00469931 0.00285771
v -0.00500000 -0.00426641 0.00347098
v -0.00500000 -0.00348330 0.00829859
v -0.00500000 -0.00037533 0.00548718
v -0.00500000 -0.00000000 0.00900000
v -0.00500000 0.00111901 0.00538496
v -0.00500000 0.00177661 0.00882291
v -0.00500000 0.00253036 0.00488337
v -0.00500000 0.00348330 0.00829859
v -0.00500000 0.00505290 0.00744770
v -0.00500000 0.00375404 0.00401960
v -0.00500000 0.00642366 0.00630370
v -0.00500000 0.00754161 0.00491163
v -0.00500000 -0.00504466 -0.00219121
v -0.00500000 -0.00544877 -0.00074892
v -0.00500000 -0.00544877 0.00074892
v -0.00500000 -0.00504466 0.00219121
v -0.00500000 0.00634780 -0.00155962
v -0.00500000 0.00469931 -0.00285771
v -0.00500000 0.00375404 -0.00401960
v -0.00500000 0.00253036 -0.00488337
v -0.00500000 0.00111901 -0.00538496
v -0.00500000 -0.00037533 -0.00548718
v -0.00500000 -0.00184184 -0.00518244
v -0.00500000 -0.00317174 -0.00449333
v -0.00500000 -0.00426641 -0.00347098
v -0.00497886 0.00712382 -0.00045927
v -0.00495830 0.00712646 -0.00064441
v -0.00499849 0.00712149 -0.00012304
v -0.00417476 0.00737212 -0.00275161
v -0.00397453 0.00747824 -0.00303366
v -0.00396601 0.00742315 -0.00304663
v -0.00393822 0.00710120 -0.00316969
v -0.00393742 0.00704423 -0.00320096
v -0.00419441 0.00686354 -0.00289037
v -0.00393796 0.00698733 -0.00323552
v -0.00396192 0.00671519 -0.00345804
v -0.00496583 0.00658166 -0.00119816
v -0.00486454 0.00714101 -0.00115596
v -0.00471850 0.00717187 -0.00165401
v -0.00462879 0.00719574 -0.00189059
v -0.00468021 0.00666606 -0.00202652
v -0.00480455 0.00662638 -0.00172025
v -0.00460667 0.00720219 -0.00194385
v -0.00441262 0.00726830 -0.00235134
v -0.00446294 0.00674613 -0.00246040
v -0.00400000 0.00779423 -0.00300000
v -0.00313191 0.01700000 0.00389758
v -0.00350033 0.01700000 0.00357039
v -0.00299197 0.01025323 0.00400601
v -0.00243867 0.01000253 0.00436496
v -0.00230769 0.00994987 0.00443560
v -0.00230769 0.01700000 0.00443560
v -0.00287941 0.01019862 0.00408766
v -0.00497886 0.01700000 -0.00045927
v -0.00497236 0.01700000 0.00052499
v -0.00497385 0.00901169 0.00051068
v -0.00489654 0.01700000 0.00101186
v -0.00489654 0.00904705 0.00101186
v -0.00477317 0.01700000 0.00148890
v -0.00471612 0.00913412 0.00166077
v -0.00438901 0.01700000 0.00239512
v -0.00438901 0.00930777 0.00239512
v -0.00383476 0.01700000 0.00320852
v -0.00397820 0.00955315 0.00302885
v -0.00350033 0.00987397 0.00357039
v -0.00479242 0.01700000 -0.00142573
v -0.00400000 0.01292225 -0.00300000
v -0.00397960 0.01320560 -0.00302701
v -0.00462882 0.01700000 -0.00189051
v -0.00391993 0.01347078 -0.00310389
v -0.00442026 0.01700000 -0.00233694
v -0.00387681 0.01359152 -0.00315759
v -0.00387681 0.01700000 -0.00315759
v -0.00366496 0.01394333 -0.00340119
v -0.00318312 0.01700000 -0.00385587
v -0.00278814 0.01474964 -0.00415046
v -0.00278814 0.01700000 -0.00415046
v -0.00214617 0.01514298 -0.00451597
v -0.00236608 0.01700000 -0.00440473
v -0.00145735 0.01543023 -0.00478290
v -0.00145735 0.01700000 -0.00478290
v -0.00073671 0.01560513 -0.00494543
v -0.00049214 0.01700000 -0.00497572
v -0.00000000 0.01566386 -0.00500000
v -0.00000000 0.01700000 -0.00500000
v 0.00049214 0.01700000 -0.00497572
v 0.00073671 0.01560513 -0.00494543
v 0.00145735 0.01700000 -0.00478290
v 0.00145735 0.01543023 -0.00478290
v 0.00236608 0.01700000 -0.00440473
v 0.00214617 0.01514298 -0.00451597
v 0.00278814 0.01700000 -0.00415046
v 0.00278814 0.01474964 -0.00415046
v 0.00387681 0.01700000 -0.00315759
v 0.00387681 0.01359152 -0.00315759
v 0.00366496 0.01394333 -0.00340119
v 0.00318312 0.01700000 -0.00385587
v 0.00400000 0.00779423 -0.00300000
v 0.00462874 0.00719575 -0.00189071
v 0.00458558 0.00720855 -0.00199310
v 0.00437777 0.00728196 -0.00241560
v 0.00413789 0.00739040 -0.00280676
v 0.00397453 0.00747824 -0.00303366
v 0.00400000 0.01292225 -0.00300000
v 0.00397988 0.01320367 -0.00302664
v 0.00462882 0.01700000 -0.00189051
v 0.00391925 0.01347295 -0.00310475
v 0.00442026 0.01700000 -0.00233694
v 0.00475710 0.00716275 -0.00153949
v 0.00479242 0.01700000 -0.00142573
v 0.00489635 0.00713561 -0.00101280
v 0.00497886 0.01700000 -0.00045927
v 0.00497480 0.00712433 -0.00050137
v 0.00497886 0.00712382 -0.00045927
v 0.00500000 0.00712132 0.00000000
v 0.00500000 0.00900000 0.00000000
v 0.00497376 0.00901173 0.00051158
v 0.00497236 0.01700000 0.00052499
v 0.00489654 0.00904705 0.00101186
v 0.00489654 0.01700000 0.00101186
v 0.00471612 0.00913412 0.00166077
v 0.00477317 0.01700000 0.00148890
v 0.00438901 0.00930777 0.00239512
v 0.00438901 0.01700000 0.00239512
v 0.00397910 0.00955258 0.00302767
v 0.00383476 0.01700000 0.00320852
v 0.00350033 0.00987397 0.00357039
v 0.00350033 0.01700000 0.00357039
v 0.00299197 0.01025323 0.00400601
v 0.00313191 0.01700000 0.00389758
v 0.00275069 0.01013840 0.00417537
v 0.00230769 0.01700000 0.00443560
v 0.00230769 0.00994987 0.00443560
v 0.00394003 0.00715195 -0.00314446
v 0.00397399 0.00665057 -0.00352940
v 0.00396125 0.00671929 -0.00345381
v 0.00393787 0.00699134 -0.00323297
v 0.00398533 0.00660139 -0.00359053
v 0.00393742 0.00704424 -0.00320095
v 0.00395069 -0.00729810 -0.00308442
v 0.00396601 -0.00742315 -0.00304663
v 0.00398533 -0.00660139 -0.00359053
v 0.00394571 -0.00684473 -0.00333877
v 0.00393742 -0.00704432 -0.00320091
v 0.00393796 -0.00698733 -0.00323552
v 0.00500000 -0.00669143 -0.00081139
v 0.00500000 -0.00711453 -0.00001240
v 0.00419441 -0.00686354 -0.00289037
v 0.00496583 -0.00658166 -0.00119816
v 0.00480455 -0.00662638 -0.00172025
v 0.00468021 -0.00666606 -0.00202652
v 0.00446294 -0.00674613 -0.00246040
v 0.00500000 -0.00634780 -0.00155962
v 0.00500000 -0.00617829 -0.00201958
v 0.00492802 -0.00620134 -0.00217584
v 0.00467574 -0.00629059 -0.00264555
v 0.00436653 -0.00641786 -0.00311407
v 0.00401853 -0.00658426 -0.00355245
v 0.00500000 0.00560242 -0.00329589
v 0.00410423 0.00654104 -0.00345140
v 0.00431859 0.00643934 -0.00317923
v 0.00463044 0.00630801 -0.00272027
v 0.00490060 0.00621041 -0.00223225
v 0.00500000 0.00617829 -0.00201958
v 0.00500000 0.00469948 -0.00449053
v 0.00500000 0.00354712 -0.00544683
v 0.00500000 0.00220649 -0.00611403
v 0.00500000 -0.00074874 -0.00645673
v 0.00500000 0.00074874 -0.00645673
v 0.00500000 -0.00220649 -0.00611403
v 0.00500000 -0.00354712 -0.00544683
v 0.00500000 -0.00469948 -0.00449053
v 0.00500000 -0.00560242 -0.00329589
v 0.00465668 0.00667408 -0.00207875
v 0.00484730 0.00661379 -0.00159976
v 0.00500000 0.00711453 -0.00001240
v 0.00500000 0.00697092 -0.00027665
v 0.00500000 0.00684665 -0.00050995
v 0.00500000 0.00657967 -0.00103893
v 0.00500000 0.00657281 -0.00105328
v 0.00500000 0.00646727 -0.00128098
v 0.00415259 0.00688361 -0.00294989
v 0.00396503 0.00697944 -0.00319761
v 0.00442374 0.00676201 -0.00252918
v 0.00500000 0.00885483 0.00160999
v 0.00500000 0.00836277 0.00332626
v 0.00500000 0.00754161 0.00491163
v 0.00500000 0.00642366 0.00630370
v 0.00500000 0.00505290 0.00744770
v 0.00500000 -0.00885483 0.00160999
v 0.00500000 -0.00836277 0.00332626
v 0.00500000 -0.00309034 0.00112479
v 0.00500000 -0.00251927 0.00211392
v 0.00500000 -0.00754161 0.00491163
v 0.00500000 0.00057107 -0.00323871
v 0.00500000 -0.00057107 -0.00323871
v 0.00500000 -0.00057107 0.00323871
v 0.00500000 -0.00348330 0.00829859
v 0.00500000 -0.00164434 0.00284808
v 0.00500000 -0.00505290 0.00744770
v 0.00500000 -0.00642366 0.00630370
v 0.00500000 0.00164434 0.00284808
v 0.00500000 0.00177661 0.00882291
v 0.00500000 0.00057107 0.00323871
v 0.00500000 -0.00000000 0.00900000
v 0.00500000 -0.00177661 0.00882291
v 0.00500000 0.00251927 0.00211392
v 0.00500000 0.00348330 0.00829859
v 0.00500000 0.00328868 0.00000000
v 0.00500000 0.00251927 -0.00211392
v 0.00500000 0.00309034 -0.00112479
v 0.00500000 0.00309034 0.00112479
v 0.00500000 -0.00164434 -0.00284808
v 0.00500000 0.00164434 -0.00284808
v 0.00500000 -0.00251927 -0.00211392
v 0.00500000 -0.00309034 -0.00112479
v 0.00500000 -0.00328868 0.00000000
v 0.00683634 0.01750000 0.00150479
v 0.00700000 0.01750000 0.00000000
v 0.00894724 0.01972122 0.00097307
v 0.00878958 0.01972122 0.00193473
v 0.00852888 0.01972122 0.00287371
v 0.00635303 0.01750000 0.00293922
v 0.00816818 0.01972122 0.00377900
v 0.00771171 0.01972122 0.00463998
v 0.00557265 0.01750000 0.00423622
v 0.00716484 0.01972122 0.00544657
v 0.00653396 0.01972122 0.00618930
v 0.00453170 0.01750000 0.00533513
v 0.00582648 0.01972122 0.00685946
v 0.00505068 0.01972122 0.00744920
v 0.00327886 0.01750000 0.00618458
v 0.00421568 0.01972122 0.00795161
v 0.00333124 0.01972122 0.00836079
v 0.00187270 0.01750000 0.00674485
v 0.00240776 0.01972122 0.00867195
v 0.00145604 0.01972122 0.00888144
v 0.00037897 0.01750000 0.00698973
v 0.00048725 0.01972122 0.00898680
v -0.00048725 0.01972122 0.00898680
v -0.00113247 0.01750000 0.00690779
v -0.00145604 0.01972122 0.00888144
v -0.00240776 0.01972122 0.00867195
v -0.00259097 0.01750000 0.00650284
v -0.00333124 0.01972122 0.00836079
v -0.00421568 0.01972122 0.00795161
v -0.00392831 0.01750000 0.00579382
v -0.00505068 0.01972122 0.00744920
v -0.00582648 0.01972122 0.00685946
v -0.00508197 0.01750000 0.00481390
v -0.00653396 0.01972122 0.00618930
v -0.00716484 0.01972122 0.00544657
v -0.00599800 0.01750000 0.00360888
v -0.00771171 0.01972122 0.00463998
v -0.00816818 0.01972122 0.00377900
v -0.00663357 0.01750000 0.00223511
v -0.00852888 0.01972122 0.00287371
v -0.00878958 0.01972122 0.00193473
v -0.00695897 0.01750000 0.00075683
v -0.00894724 0.01972122 0.00097307
v -0.00700000 0.01750000 0.00000000
v -0.00900000 0.01972122 0.00000000
v -0.00695897 0.01750000 -0.00075683
v -0.00894724 0.01972122 -0.00097307
v -0.00878958 0.01972122 -0.00193473
v -0.00663357 0.01750000 -0.00223511
v -0.00852888 0.01972122 -0.00287371
v -0.00816818 0.01972122 -0.00377900
v -0.00599800 0.01750000 -0.00360888
v -0.00771171 0.01972122 -0.00463998
v -0.00716484 0.01972122 -0.00544657
v -0.00508197 0.01750000 -0.00481390
v -0.00653396 0.01972122 -0.00618930
v -0.00582648 0.01972122 -0.00685946
v -0.00392831 0.01750000 -0.00579382
v -0.00505068 0.01972122 -0.00744920
v -0.00421568 0.01972122 -0.00795161
v -0.00259097 0.01750000 -0.00650284
v -0.00333124 0.01972122 -0.00836079
v -0.00240776 0.01972122 -0.00867195
v -0.00113247 0.01750000 -0.00690779
v -0.00145604 0.01972122 -0.00888144
v -0.00048725 0.01972122 -0.00898680
v 0.00037897 0.01750000 -0.00698973
v 0.00048725 0.01972122 -0.00898680
v 0.00145604 0.01972122 -0.00888144
v 0.00187270 0.01750000 -0.00674485
v 0.00240776 0.01972122 -0.00867195
v 0.00333124 0.01972122 -0.00836079
v 0.00327886 0.01750000 -0.00618458
v 0.00421568 0.01972122 -0.00795161
v 0.00505068 0.01972122 -0.00744920
v 0.00453170 0.01750000 -0.00533513
v 0.00582648 0.01972122 -0.00685946
v 0.00653396 0.01972122 -0.00618930
v 0.00557265 0.01750000 -0.00423622
v 0.00716484 0.01972122 -0.00544657
v 0.00771171 0.01972122 -0.00463998
v 0.00635303 0.01750000 -0.00293922
v 0.00816818 0.01972122 -0.00377900
v 0.00852888 0.01972122 -0.00287371
v 0.00683634 0.01750000 -0.00150479
v 0.00878958 0.01972122 -0.00193473
v 0.00894724 0.01972122 -0.00097307
v 0.00900000 0.01972122 0.00000000
v -0.00558492 0.02000000 0.00156482
v -0.00816818 0.02000000 0.00377900
v -0.00495563 0.02000000 0.00301359
v -0.00716484 0.02000000 0.00544657
v -0.00395881 0.02000000 0.00423885
v -0.00582648 0.02000000 0.00685946
v -0.00266838 0.02000000 0.00514973
v -0.00421568 0.02000000 0.00795161
v -0.00118004 0.02000000 0.00567869
v -0.00495563 0.02000000 -0.00301359
v -0.00816818 0.02000000 -0.00377900
v -0.00558492 0.02000000 -0.00156482
v -0.00878958 0.02000000 -0.00193473
v -0.00580000 0.02000000 0.00000000
v -0.00900000 0.02000000 0.00000000
v -0.00878958 0.02000000 0.00193473
v 0.00039581 0.02000000 -0.00578648
v -0.00048725 0.02000000 -0.00898680
v -0.00118004 0.02000000 -0.00567869
v -0.00240776 0.02000000 -0.00867195
v -0.00266838 0.02000000 -0.00514973
v -0.00421568 0.02000000 -0.00795161
v -0.00395881 0.02000000 -0.00423885
v -0.00582648 0.02000000 -0.00685946
v -0.00716484 0.02000000 -0.00544657
v 0.00449913 0.02000000 0.00366031
v 0.00771171 0.02000000 0.00463998
v 0.00531983 0.02000000 0.00231073
v 0.00852888 0.02000000 0.00287371
v 0.00574598 0.02000000 0.00078977
v 0.00894724 0.02000000 0.00097307
v 0.00574598 0.02000000 -0.00078977
v 0.00894724 0.02000000 -0.00097307
v 0.00531983 0.02000000 -0.00231073
v 0.00852888 0.02000000 -0.00287371
v 0.00771171 0.02000000 -0.00463998
v 0.00449913 0.02000000 -0.00366031
v 0.00653396 0.02000000 -0.00618930
v 0.00334475 0.02000000 -0.00473843
v 0.00505068 0.02000000 -0.00744920
v 0.00194230 0.02000000 -0.00546511
v 0.00333124 0.02000000 -0.00836079
v 0.00145604 0.02000000 -0.00888144
v -0.00240776 0.02000000 0.00867195
v -0.00048725 0.02000000 0.00898680
v 0.00039581 0.02000000 0.00578648
v 0.00145604 0.02000000 0.00888144
v 0.00194230 0.02000000 0.00546511
v 0.00333124 0.02000000 0.00836079
v 0.00334475 0.02000000 0.00473843
v 0.00505068 0.02000000 0.00744920
v 0.00653396 0.02000000 0.00618930
v -0.00057349 0.01750000 0.00548065
v -0.00344510 0.01750000 0.00428734
v -0.00253846 0.01750000 0.00487916
v -0.00229819 0.01750000 0.00505391
v -0.00211987 0.01750000 0.00529154
v -0.00129887 0.01750000 0.00540398
v 0.00000000 0.01750000 0.00550367
v 0.00058903 0.01750000 0.00547946
v 0.00211987 0.01750000 0.00529154
v 0.00229819 0.01750000 0.00505391
v 0.00253846 0.01750000 0.00487916
v 0.00344510 0.01750000 0.00428734
v 0.00421824 0.01750000 0.00352937
v 0.00482791 0.01750000 0.00263463
v 0.00525049 0.01750000 0.00163779
v -0.00421824 0.01750000 0.00352937
v -0.00482791 0.01750000 0.00263463
v -0.00525049 0.01750000 0.00163779
v -0.00546960 0.01750000 0.00057749
v -0.00547675 0.01750000 -0.00050519
v -0.00527166 0.01750000 -0.00156830
v -0.00486229 0.01750000 -0.00257063
v -0.00426449 0.01750000 -0.00347334
v -0.00350143 0.01750000 -0.00424146
v 0.00546960 0.01750000 0.00057749
v 0.00547675 0.01750000 -0.00050519
v 0.00527166 0.01750000 -0.00156830
v 0.00486229 0.01750000 -0.00257063
v 0.00426449 0.01750000 -0.00347334
v 0.00350143 0.01750000 -0.00424146
v 0.00260269 0.01750000 -0.00484521
v 0.00160308 0.01750000 -0.00526119
v 0.00054135 0.01750000 -0.00547329
v -0.00054135 0.01750000 -0.00547329
v -0.00160308 0.01750000 -0.00526119
v -0.00260269 0.01750000 -0.00484521
v 0.00242308 0.01743301 0.00465738
v 0.00402650 0.01743301 0.00336894
v 0.00460846 0.01743301 0.00251488
v 0.00501183 0.01743301 0.00156335
v 0.00522098 0.01743301 0.00055124
v 0.00522781 0.01743301 -0.00048223
v 0.00503204 0.01743301 -0.00149701
v 0.00464128 0.01743301 -0.00245378
v 0.00407065 0.01743301 -0.00331546
v 0.00334228 0.01743301 -0.00404866
v 0.00248438 0.01743301 -0.00462497
v 0.00153021 0.01743301 -0.00502205
v 0.00051675 0.01743301 -0.00522451
v -0.00051675 0.01743301 -0.00522451
v -0.00153021 0.01743301 -0.00502205
v -0.00248438 0.01743301 -0.00462497
v -0.00334228 0.01743301 -0.00404866
v -0.00407065 0.01743301 -0.00331546
v -0.00464128 0.01743301 -0.00245378
v -0.00503204 0.01743301 -0.00149701
v -0.00522781 0.01743301 -0.00048223
v -0.00522098 0.01743301 0.00055124
v -0.00501183 0.01743301 0.00156335
v -0.00460846 0.01743301 0.00251488
v -0.00402650 0.01743301 0.00336894
v -0.00328851 0.01743301 0.00409246
v 0.00388614 0.01725000 0.00325150
v 0.00444781 0.01725000 0.00242721
v 0.00483712 0.01725000 0.00150885
v 0.00503898 0.01725000 0.00053202
v 0.00504557 0.01725000 -0.00046542
v 0.00485663 0.01725000 -0.00144483
v 0.00447948 0.01725000 -0.00236825
v 0.00392875 0.01725000 -0.00319989
v 0.00322577 0.01725000 -0.00390753
v 0.00239778 0.01725000 -0.00446374
v 0.00147687 0.01725000 -0.00484698
v 0.00049873 0.01725000 -0.00504238
v -0.00049873 0.01725000 -0.00504238
v -0.00147687 0.01725000 -0.00484698
v -0.00239778 0.01725000 -0.00446374
v -0.00322577 0.01725000 -0.00390753
v -0.00392875 0.01725000 -0.00319989
v -0.00447948 0.01725000 -0.00236825
v -0.00485663 0.01725000 -0.00144483
v -0.00504557 0.01725000 -0.00046542
v -0.00503898 0.01725000 0.00053202
v -0.00483712 0.01725000 0.00150885
v -0.00444781 0.01725000 0.00242721
v -0.00388614 0.01725000 0.00325150
v -0.00317387 0.01725000 0.00394980
v -0.00242308 0.01743301 0.00465738
v -0.00233861 0.01725000 0.00449503
v 0.00317387 0.01725000 0.00394980
v 0.00328851 0.01743301 0.00409246
v 0.00233861 0.01725000 0.00449503
v 0.00372598 -0.00954782 0.00379401
v 0.00355340 -0.00974726 0.00375797
v 0.00333523 -0.00996257 0.00380584
v 0.00329114 -0.01000272 0.00382431
v 0.00397020 -0.00912543 0.00416215
v 0.00396272 -0.00914750 0.00413162
v 0.00386307 -0.00935196 0.00391128
v 0.00400000 -0.00794562 0.00607182
v 0.00400000 -0.00837957 0.00545736
v 0.00400000 -0.00895272 0.00445520
v 0.00400000 -0.00655030 0.00755602
v 0.00400000 -0.00713740 0.00700411
v 0.00400000 -0.00488316 0.00872667
v 0.00400000 -0.00561434 0.00827522
v 0.00400000 -0.00301338 0.00953517
v 0.00400000 -0.00387033 0.00922066
v 0.00400000 -0.00101855 0.00994799
v 0.00400000 -0.00197401 0.00980323
v 0.00400000 0.00101855 0.00994799
v 0.00400000 -0.00000000 0.01000000
v 0.00400000 0.00301338 0.00953517
v 0.00400000 0.00197401 0.00980323
v 0.00400000 0.00488316 0.00872667
v 0.00400000 0.00387033 0.00922066
v 0.00400000 0.00655030 0.00755602
v 0.00400000 0.00561434 0.00827522
v 0.00400000 0.00794562 0.00607182
v 0.00400000 0.00713740 0.00700411
v 0.00388424 0.00931588 0.00394246
v 0.00396853 0.00913054 0.00415495
v 0.00397594 0.00910680 0.00418905
v 0.00400000 0.00895272 0.00445520
v 0.00400000 0.00837957 0.00545736
v 0.00325879 0.01003158 0.00383941
v 0.00335105 0.00994793 0.00379984
v 0.00358033 0.00971827 0.00375827
v 0.00372238 0.00955239 0.00379227
v 0.00375251 0.00951349 0.00380847
v 0.00372486 0.00929976 0.00402453
v 0.00338892 0.00977573 0.00384681
v 0.00357590 0.00881600 0.00471998
v 0.00323573 0.00912943 0.00437144
v 0.00294628 0.00959328 0.00418041
v 0.00300000 0.00865206 0.00501416
v 0.00272052 0.00897291 0.00466291
v 0.00247885 0.00942595 0.00446095
v 0.00183016 0.01700000 0.00482741
v 0.00182642 0.01693600 0.00483209
v 0.00187962 0.01700000 0.00476891
v 0.00173496 0.01616616 0.00496026
v 0.00212520 0.00994987 0.00454779
v 0.00187962 0.00994987 0.00476891
v 0.00178981 0.00994987 0.00488003
v 0.00160547 0.01504739 0.00521375
v 0.00157429 0.00994987 0.00530007
v 0.00151938 0.01405569 0.00552592
v 0.00150000 0.00994987 0.00576628
v 0.00150000 0.01339532 0.00576628
v 0.00078755 0.01390057 0.00558239
v -0.00154477 0.00802532 0.00772080
v -0.00169752 0.00714253 0.00804211
v 0.00172099 0.00704012 0.00807938
v 0.00193442 0.00625224 0.00836615
v 0.00150000 0.00875663 0.00745463
v 0.00005198 0.01384397 0.00560298
v 0.00150435 0.00853580 0.00753500
v -0.00150000 0.00875663 0.00745463
v -0.00066801 0.01388461 0.00558819
v -0.00150000 0.01339532 0.00576628
v -0.00138996 0.01402104 0.00553854
v -0.00151938 0.01405569 0.00552592
v 0.00157446 0.00780096 0.00780246
v 0.00202159 0.00597509 0.00846702
v -0.00193442 0.00625224 0.00836615
v 0.00214241 0.00561579 0.00859780
v -0.00234623 0.00505371 0.00880238
v 0.00256720 0.00448333 0.00900998
v 0.00245465 0.00477005 0.00890562
v -0.00253940 0.00455354 0.00898442
v 0.00300000 0.00342020 0.00939693
v 0.00299278 0.00343773 0.00939055
v -0.00256694 0.00448399 0.00900974
v -0.00299278 0.00343773 0.00939055
v -0.00300000 0.00342020 0.00939693
v -0.00177583 0.01650772 0.00489945
v -0.00123599 0.01695593 0.00490991
v -0.00182642 0.01693600 0.00483209
v -0.00155819 0.01456941 0.00535252
v -0.00095355 0.01557574 0.00512070
v -0.00158514 0.01485161 0.00526812
v -0.00146036 0.01581360 0.00504686
v -0.00169829 0.01585946 0.00502093
v -0.00100370 0.01696372 0.00493758
v -0.00053561 0.01697803 0.00498257
v -0.00045845 0.01544073 0.00516263
v -0.00026765 0.01698387 0.00499829
v 0.00003568 0.01540051 0.00517512
v 0.00000000 0.01698611 0.00500386
v 0.00054046 0.01545652 0.00515773
v 0.00031794 0.01698300 0.00499605
v 0.00055034 0.01697764 0.00498146
v 0.00106820 0.01562065 0.00510676
v 0.00067243 0.01697420 0.00497135
v 0.00163085 0.01591669 0.00501486
v 0.00123609 0.01695593 0.00490990
v 0.00366459 -0.00884349 0.00466826
v -0.00300000 -0.00342020 0.00939693
v 0.00300000 -0.00342020 0.00939693
v 0.00300000 -0.00445440 0.00895312
v 0.00300000 -0.00488316 0.00872667
v -0.00400000 -0.00655030 0.00755602
v -0.00300000 -0.00640558 0.00767910
v -0.00400000 -0.00561434 0.00827522
v -0.00300000 -0.00546723 0.00837314
v -0.00400000 -0.00488316 0.00872667
v -0.00354055 -0.00880520 0.00474009
v -0.00400000 -0.00837957 0.00545736
v -0.00378784 -0.00888267 0.00459327
v -0.00400000 -0.00895272 0.00445520
v -0.00300000 -0.00865206 0.00501416
v -0.00300000 -0.00800892 0.00598809
v -0.00400000 -0.00794562 0.00607182
v -0.00300000 -0.00794562 0.00607182
v -0.00400000 -0.00713740 0.00700411
v -0.00300000 -0.00725667 0.00688046
v -0.00300000 -0.00655030 0.00755602
v -0.00300000 0.00865206 0.00501416
v -0.00317027 0.00869785 0.00493431
v -0.00300000 0.00800892 0.00598809
v -0.00400000 0.00794562 0.00607182
v -0.00400000 0.00837957 0.00545736
v -0.00374323 0.00886836 0.00462084
v -0.00400000 0.00895272 0.00445520
v -0.00400000 0.00561434 0.00827522
v -0.00300000 0.00640558 0.00767910
v -0.00400000 0.00655030 0.00755602
v -0.00300000 0.00655030 0.00755602
v -0.00400000 0.00713740 0.00700411
v -0.00300000 0.00725667 0.00688046
v -0.00300000 0.00794562 0.00607182
v -0.00400000 0.00301338 0.00953517
v -0.00400000 0.00387033 0.00922066
v -0.00300000 0.00445440 0.00895312
v -0.00400000 0.00488316 0.00872667
v -0.00300000 0.00488316 0.00872667
v -0.00300000 0.00546723 0.00837314
v 0.00300000 0.00640558 0.00767910
v 0.00300000 0.00546723 0.00837314
v 0.00300000 0.00800892 0.00598809
v 0.00300000 0.00794562 0.00607182
v 0.00300000 0.00725667 0.00688046
v 0.00300000 0.00655030 0.00755602
v 0.00300000 -0.00800892 0.00598809
v 0.00300000 -0.00865206 0.00501416
v 0.00308140 -0.00867367 0.00497669
v 0.00300000 -0.00546723 0.00837314
v 0.00300000 -0.00640558 0.00767910
v 0.00300000 -0.00655030 0.00755602
v 0.00300000 -0.00725667 0.00688046
v 0.00300000 -0.00794562 0.00607182
v -0.00300000 -0.00488316 0.00872667
v -0.00300000 -0.00445440 0.00895312
v -0.00400000 -0.00387033 0.00922066
v -0.00400000 -0.00301338 0.00953517
v -0.00400000 -0.00197401 0.00980323
v -0.00400000 -0.00101855 0.00994799
v -0.00400000 -0.00000000 0.01000000
v -0.00400000 0.00101855 0.00994799
v -0.00400000 0.00197401 0.00980323
v 0.00300000 0.00445440 0.00895312
v 0.00300000 0.00488316 0.00872667
v 0.00253647 0.00550737 0.00843461
v 0.00253647 0.00645260 0.00773548
v 0.00211832 0.00658908 0.00789909
v 0.00178647 0.00680165 0.00815392
v 0.00178647 0.00770537 0.00730589
v 0.00157342 0.00800881 0.00759360
v 0.00150000 0.00921025 0.00688631
v 0.00157342 0.00883902 0.00660874
v 0.00157342 0.00954883 0.00553386
v 0.00178647 0.00850413 0.00635835
v 0.00178647 0.00918704 0.00532419
v 0.00211832 0.00823835 0.00615964
v 0.00211832 0.00889992 0.00515780
v 0.00253647 0.00806771 0.00603205
v 0.00253647 0.00871558 0.00505097
v 0.00214736 0.00888212 0.00514748
v 0.00211832 0.00746456 0.00707757
v 0.00253647 0.00730995 0.00693097
v 0.00152473 -0.01414061 0.00549502
v 0.00150000 -0.01339532 0.00576628
v 0.00207846 -0.01664707 0.00458274
v -0.00159811 -0.01486133 0.00523269
v 0.00150000 -0.00875663 0.00745463
v 0.00154477 -0.00802532 0.00772080
v -0.00171772 -0.01553371 0.00498797
v -0.00187962 -0.01613557 0.00476891
v -0.00207846 -0.01664707 0.00458274
v -0.00157446 -0.00780096 0.00780246
v -0.00150435 -0.00853580 0.00753500
v 0.00169752 -0.00714253 0.00804211
v -0.00150000 -0.00875663 0.00745463
v -0.00150000 -0.01339532 0.00576628
v 0.00187962 -0.01613557 0.00476891
v 0.00171772 -0.01553371 0.00498797
v 0.00159811 -0.01486133 0.00523269
v -0.00152473 -0.01414061 0.00549502
v -0.00299278 -0.00343773 0.00939055
v -0.00256720 -0.00448333 0.00900998
v -0.00245465 -0.00477005 0.00890562
v -0.00172099 -0.00704012 0.00807938
v 0.00193442 -0.00625224 0.00836615
v -0.00193442 -0.00625224 0.00836615
v 0.00234623 -0.00505371 0.00880238
v -0.00202159 -0.00597509 0.00846702
v 0.00253940 -0.00455354 0.00898442
v -0.00214241 -0.00561579 0.00859780
v 0.00256694 -0.00448399 0.00900974
v 0.00299278 -0.00343773 0.00939055
v 0.00150000 -0.00921025 0.00688631
v 0.00150000 -0.00994987 0.00576628
v 0.00157342 -0.00954883 0.00553386
v 0.00253647 -0.00550737 0.00843461
v 0.00157342 -0.00883902 0.00660874
v 0.00253647 -0.00645260 0.00773548
v 0.00211832 -0.00658908 0.00789909
v 0.00178647 -0.00680165 0.00815392
v 0.00157342 -0.00800881 0.00759360
v 0.00178647 -0.00770537 0.00730589
v 0.00211832 -0.00746456 0.00707757
v 0.00253647 -0.00730995 0.00693097
v 0.00253647 -0.00806771 0.00603205
v 0.00178647 -0.00850413 0.00635835
v 0.00211832 -0.00823835 0.00615964
v 0.00178647 -0.00918704 0.00532419
v 0.00211832 -0.00889992 0.00515780
v 0.00253647 -0.00871558 0.00505097
v 0.00166103 -0.00943467 0.00532843
v 0.00186343 -0.00943467 0.00493395
v 0.00247885 -0.00942595 0.00446095
v 0.00265407 -0.00898215 0.00467366
v 0.00233160 -0.00898215 0.00483529
v 0.00272052 -0.00897291 0.00466291
v 0.00207535 -0.00898215 0.00508914
v 0.00217842 -0.00943467 0.00462192
v 0.00157429 -0.00994987 0.00530007
v 0.00178981 -0.00994987 0.00488003
v 0.00212520 -0.00994987 0.00454779
v 0.00331472 -0.00915553 0.00432044
v 0.00279356 -0.00899362 0.00462566
v 0.00254518 -0.00944807 0.00442508
v 0.00345401 -0.00980448 0.00379117
v 0.00379689 -0.00932656 0.00396663
v 0.00301784 -0.00962122 0.00413135
v -0.00150000 -0.00994987 0.00576628
v -0.00157082 -0.00994987 0.00531083
v -0.00178481 -0.00994987 0.00488689
v -0.00212061 -0.00994987 0.00455110
v -0.00253647 -0.00871558 0.00505097
v -0.00272052 -0.00897291 0.00466291
v -0.00211832 -0.00889992 0.00515780
v -0.00214147 -0.00888566 0.00514954
v -0.00207153 -0.00898215 0.00509438
v -0.00232810 -0.00898215 0.00483781
v -0.00265201 -0.00898215 0.00467431
v -0.00178647 -0.00918704 0.00532419
v -0.00165776 -0.00943467 0.00533854
v -0.00157342 -0.00954883 0.00553386
v -0.00247885 -0.00942595 0.00446095
v -0.00217411 -0.00943467 0.00462502
v -0.00185874 -0.00943467 0.00494039
v -0.00372238 -0.00955239 0.00379227
v -0.00358033 -0.00971827 0.00375827
v -0.00311709 -0.00966097 0.00406035
v -0.00335105 -0.00994793 0.00379984
v -0.00325879 -0.01003158 0.00383941
v -0.00397594 -0.00910680 0.00418905
v -0.00396853 -0.00913054 0.00415495
v -0.00342432 -0.00919266 0.00424663
v -0.00388424 -0.00931588 0.00394246
v -0.00375251 -0.00951349 0.00380847
v -0.00320423 -0.00911917 0.00439128
v -0.00291773 -0.00958230 0.00419950
v -0.00253647 -0.00550737 0.00843461
v -0.00253647 -0.00645260 0.00773548
v -0.00211832 -0.00658908 0.00789909
v -0.00178647 -0.00680165 0.00815392
v -0.00178647 -0.00770537 0.00730589
v -0.00157342 -0.00800881 0.00759360
v -0.00150000 -0.00921025 0.00688631
v -0.00157342 -0.00883902 0.00660874
v -0.00253647 -0.00806771 0.00603205
v -0.00211832 -0.00823835 0.00615964
v -0.00211832 -0.00746456 0.00707757
v -0.00253647 -0.00730995 0.00693097
v -0.00178647 -0.00850413 0.00635835
v -0.00372747 0.00954593 0.00379474
v -0.00355502 0.00974554 0.00375794
v -0.00329365 0.01000046 0.00382320
v -0.00333727 0.00996069 0.00380505
v -0.00396369 0.00914475 0.00413534
v -0.00387758 0.00932748 0.00393209
v -0.00386419 0.00935011 0.00391280
v -0.00253647 0.00730995 0.00693097
v -0.00253647 0.00550737 0.00843461
v -0.00157342 0.00800881 0.00759360
v -0.00157342 0.00883902 0.00660874
v -0.00150000 0.00921025 0.00688631
v -0.00253647 0.00871558 0.00505097
v -0.00253647 0.00806771 0.00603205
v -0.00253647 0.00645260 0.00773548
v -0.00211832 0.00746456 0.00707757
v -0.00211832 0.00823835 0.00615964
v -0.00178647 0.00770537 0.00730589
v -0.00178647 0.00850413 0.00635835
v -0.00211832 0.00658908 0.00789909
v -0.00178647 0.00680165 0.00815392
v -0.00214147 0.00888566 0.00514954
v -0.00211832 0.00889992 0.00515780
v -0.00178647 0.00918704 0.00532419
v -0.00157342 0.00954883 0.00553386
v -0.00150000 0.00994987 0.00576628
v -0.00165776 0.00943467 0.00533854
v -0.00185874 0.00943467 0.00494039
v -0.00265201 0.00898215 0.00467431
v -0.00232810 0.00898215 0.00483781
v -0.00207153 0.00898215 0.00509438
v -0.00247885 0.00942595 0.00446095
v -0.00272052 0.00897291 0.00466291
v -0.00157082 0.00994987 0.00531083
v -0.00212061 0.00994987 0.00455110
v -0.00217411 0.00943467 0.00462502
v -0.00187962 0.00994987 0.00476891
v -0.00178481 0.00994987 0.00488689
v -0.00338468 0.00917911 0.00427375
v -0.00308120 0.00964646 0.00408643
v -0.00261750 0.00947281 0.00438455
v -0.00287323 0.00901677 0.00458356
v -0.00183016 0.01700000 0.00482741
v -0.00187962 0.01700000 0.00476891
v 0.00166103 0.00943467 0.00532843
v 0.00217842 0.00943467 0.00462192
v 0.00207535 0.00898215 0.00508914
v 0.00233160 0.00898215 0.00483529
v 0.00265407 0.00898215 0.00467366
v 0.00186343 0.00943467 0.00493395
v 0.00600000 -0.02920000 0.00000000
v 0.00597838 -0.02920000 -0.00050884
v 0.00597838 -0.02120000 -0.00050884
v 0.00580640 -0.02920000 -0.00151187
v 0.00580640 -0.02120000 -0.00151187
v 0.00546737 -0.02920000 -0.00247141
v 0.00546737 -0.02120000 -0.00247141
v 0.00497106 -0.02920000 -0.00335985
v 0.00497106 -0.02120000 -0.00335985
v 0.00433174 -0.02920000 -0.00415163
v 0.00433174 -0.02120000 -0.00415163
v 0.00356780 -0.02920000 -0.00482398
v 0.00356780 -0.02120000 -0.00482398
v 0.00270122 -0.02920000 -0.00535756
v 0.00270122 -0.02120000 -0.00535756
v 0.00175694 -0.02920000 -0.00573700
v 0.00175694 -0.02120000 -0.00573700
v 0.00076211 -0.02920000 -0.00595140
v 0.00076211 -0.02120000 -0.00595140
v -0.00025465 -0.02920000 -0.00599459
v -0.00025465 -0.02120000 -0.00599459
v -0.00126408 -0.02920000 -0.00586533
v -0.00126408 -0.02120000 -0.00586533
v -0.00223714 -0.02920000 -0.00556733
v -0.00223714 -0.02120000 -0.00556733
v -0.00314584 -0.02920000 -0.00510917
v -0.00314584 -0.02120000 -0.00510917
v -0.00396405 -0.02920000 -0.00450403
v -0.00396405 -0.02120000 -0.00450403
v -0.00466821 -0.02920000 -0.00376932
v -0.00466821 -0.02120000 -0.00376932
v -0.00523808 -0.02920000 -0.00292617
v -0.00523808 -0.02120000 -0.00292617
v -0.00565726 -0.02920000 -0.00199884
v -0.00565726 -0.02120000 -0.00199884
v -0.00591370 -0.02920000 -0.00101400
v -0.00591370 -0.02120000 -0.00101400
v -0.00600000 -0.02920000 0.00000000
v -0.00600000 -0.02120000 0.00000000
v -0.00591370 -0.02920000 0.00101400
v -0.00591370 -0.02120000 0.00101400
v -0.00565726 -0.02920000 0.00199884
v -0.00565726 -0.02120000 0.00199884
v -0.00523808 -0.02920000 0.00292617
v -0.00523808 -0.02120000 0.00292617
v -0.00466821 -0.02920000 0.00376932
v -0.00466821 -0.02120000 0.00376932
v -0.00396405 -0.02920000 0.00450403
v -0.00396405 -0.02120000 0.00450403
v -0.00314584 -0.02920000 0.00510917
v -0.00314584 -0.02120000 0.00510917
v -0.00223714 -0.02920000 0.00556733
v -0.00223714 -0.02120000 0.00556733
v -0.00126408 -0.02920000 0.00586533
v -0.00126408 -0.02120000 0.00586533
v -0.00025465 -0.02920000 0.00599459
v -0.00025465 -0.02120000 0.00599459
v 0.00076211 -0.02920000 0.00595140
v 0.00076211 -0.02120000 0.00595140
v 0.00175694 -0.02920000 0.00573700
v 0.00175694 -0.02120000 0.00573700
v 0.00270122 -0.02920000 0.00535756
v 0.00270122 -0.02120000 0.00535756
v 0.00356780 -0.02920000 0.00482398
v 0.00356780 -0.02120000 0.00482398
v 0.00433174 -0.02920000 0.00415163
v 0.00433174 -0.02120000 0.00415163
v 0.00497106 -0.02920000 0.00335985
v 0.00497106 -0.02120000 0.00335985
v 0.00546737 -0.02920000 0.00247141
v 0.00546737 -0.02120000 0.00247141
v 0.00580640 -0.02920000 0.00151187
v 0.00580640 -0.02120000 0.00151187
v 0.00597838 -0.02920000 0.00050884
v 0.00597838 -0.02120000 0.00050884
v 0.01650000 -0.00012236 0.00299750
v 0.01650000 0.00032576 0.00298226
v -0.01250000 0.00032576 0.00298226
v 0.01650000 0.00119033 0.00275375
v -0.01250000 0.00119033 0.00275375
v 0.01650000 0.00194912 0.00228055
v -0.01250000 0.00194912 0.00228055
v 0.01650000 0.00253473 0.00160472
v -0.01250000 0.00253473 0.00160472
v 0.01650000 0.00289512 0.00078630
v -0.01250000 0.00289512 0.00078630
v 0.01650000 0.00299827 -0.00010199
v -0.01250000 0.00299827 -0.00010199
v 0.01650000 0.00283500 -0.00098121
v -0.01250000 0.00283500 -0.00098121
v 0.01650000 0.00241983 -0.00177325
v -0.01250000 0.00241983 -0.00177325
v 0.01650000 0.00178965 -0.00240773
v -0.01250000 0.00178965 -0.00240773
v 0.01650000 0.00100045 -0.00282827
v -0.01250000 0.00100045 -0.00282827
v 0.01650000 0.00012236 -0.00299750
v -0.01250000 0.00012236 -0.00299750
v 0.01650000 -0.00076661 -0.00290040
v -0.01250000 -0.00076661 -0.00290040
v 0.01650000 -0.00158746 -0.00254558
v -0.01250000 -0.00158746 -0.00254558
v 0.01650000 -0.00226725 -0.00196458
v -0.01250000 -0.00226725 -0.00196458
v 0.01650000 -0.00274559 -0.00120901
v -0.01250000 -0.00274559 -0.00120901
v 0.01650000 -0.00297998 -0.00034602
v -0.01250000 -0.00297998 -0.00034602
v 0.01650000 -0.00294958 0.00054771
v -0.01250000 -0.00294958 0.00054771
v 0.01650000 -0.00265709 0.00139278
v -0.01250000 -0.00265709 0.00139278
v 0.01650000 -0.00212852 0.00211410
v -0.01250000 -0.00212852 0.00211410
v 0.01650000 -0.00141081 0.00264757
v -0.01250000 -0.00141081 0.00264757
v 0.01650000 -0.00056775 0.00294579
v -0.01250000 -0.00056775 0.00294579
f 1 2 3
f 3 2 4
f 3 4 5
f 5 4 6
f 5 6 7
f 7 6 8
f 7 8 9
f 8 10 9
f 9 10 11
f 9 11 12
f 12 11 13
f 12 13 14
f 14 13 15
f 14 15 16
f 17 18 19
f 19 18 20
f 19 20 21
f 21 20 22
f 21 22 23
f 23 22 24
f 23 24 1
f 1 24 25
f 1 25 2
f 26 27 28
f 28 27 29
f 28 29 30
f 30 29 31
f 30 31 32
f 32 31 33
f 32 33 17
f 17 33 34
f 17 34 18
f 35 36 37
f 37 36 38
f 37 38 39
f 39 38 40
f 39 40 41
f 41 40 42
f 41 42 26
f 26 42 43
f 26 43 27
f 44 45 46
f 46 45 47
f 46 47 48
f 48 47 49
f 48 49 50
f 50 49 51
f 50 51 35
f 35 51 52
f 35 52 36
f 53 54 55
f 55 54 56
f 55 56 57
f 57 56 58
f 57 58 59
f 59 58 60
f 59 60 44
f 44 60 61
f 44 61 45
f 15 62 16
f 16 62 63
f 16 63 64
f 64 63 65
f 64 65 66
f 66 65 67
f 66 67 68
f 68 67 69
f 68 69 53
f 53 69 70
f 53 70 54
f 15 71 62
f 62 71 72
f 62 72 63
f 63 72 73
f 63 73 65
f 65 73 74
f 65 74 67
f 67 74 75
f 67 75 69
f 69 75 76
f 69 76 70
f 70 76 77
f 70 77 54
f 54 77 78
f 54 78 56
f 56 78 79
f 56 79 58
f 58 79 80
f 58 80 60
f 60 80 81
f 60 81 61
f 61 81 82
f 61 82 45
f 45 82 83
f 45 83 47
f 47 83 84
f 47 84 49
f 49 84 85
f 49 85 51
f 51 85 86
f 51 86 52
f 52 86 87
f 52 87 36
f 36 87 88
f 36 88 38
f 38 88 89
f 38 89 40
f 40 89 90
f 40 90 42
f 42 90 91
f 42 91 43
f 43 91 92
f 43 92 27
f 27 92 93
f 27 93 29
f 29 93 94
f 29 94 31
f 31 94 95
f 31 95 33
f 33 95 96
f 33 96 34
f 34 96 97
f 34 97 18
f 18 97 98
f 18 98 20
f 20 98 99
f 20 99 22
f 22 99 100
f 22 100 24
f 24 100 101
f 24 101 25
f 25 101 102
f 25 102 2
f 2 102 103
f 2 103 4
f 4 103 104
f 4 104 6
f 6 104 105
f 6 105 8
f 8 105 106
f 8 106 10
f 10 106 107
f 10 107 11
f 11 107 108
f 11 108 13
f 13 108 109
f 13 109 15
f 15 109 71
f 109 110 71
f 71 110 111
f 71 111 72
f 72 111 112
f 72 112 73
f 73 112 113
f 73 113 74
f 74 113 114
f 74 114 75
f 75 114 115
f 75 115 76
f 76 115 116
f 76 116 77
f 77 116 117
f 77 117 78
f 78 117 118
f 78 118 79
f 79 118 119
f 79 119 80
f 80 119 120
f 80 120 81
f 81 120 121
f 81 121 82
f 82 121 122
f 82 122 83
f 83 122 123
f 83 123 84
f 84 123 124
f 84 124 85
f 85 124 125
f 85 125 86
f 86 125 126
f 86 126 87
f 87 126 127
f 87 127 88
f 88 127 128
f 88 128 89
f 89 128 129
f 89 129 90
f 90 129 130
f 90 130 91
f 91 130 131
f 91 131 92
f 92 131 132
f 92 132 93
f 93 132 133
f 93 133 94
f 94 133 134
f 94 134 95
f 95 134 135
f 95 135 96
f 96 135 136
f 96 136 97
f 97 136 137
f 97 137 98
f 98 137 138
f 98 138 99
f 99 138 139
f 99 139 100
f 100 139 140
f 100 140 101
f 101 140 141
f 101 141 102
f 102 141 142
f 102 142 103
f 103 142 143
f 103 143 104
f 104 143 144
f 104 144 105
f 105 144 145
f 105 145 106
f 106 145 146
f 106 146 107
f 107 146 147
f 107 147 108
f 108 147 148
f 108 148 109
f 109 148 110
f 149 150 151
f 151 150 152
f 151 152 153
f 153 152 154
f 153 154 155
f 155 154 156
f 155 156 157
f 157 156 158
f 157 158 159
f 159 158 160
f 159 160 161
f 161 160 162
f 161 162 163
f 163 162 164
f 163 164 165
f 165 164 166
f 165 166 167
f 167 166 168
f 167 168 169
f 169 168 170
f 169 170 171
f 171 170 172
f 171 172 173
f 173 172 174
f 173 174 175
f 175 174 176
f 175 176 177
f 177 176 178
f 177 178 179
f 179 178 180
f 179 180 181
f 181 180 182
f 181 182 183
f 183 182 184
f 183 184 185
f 185 184 186
f 185 186 187
f 187 186 188
f 187 188 189
f 189 188 190
f 189 190 191
f 191 190 192
f 191 192 193
f 193 192 194
f 193 194 195
f 195 194 196
f 195 196 197
f 197 196 198
f 197 198 199
f 199 198 200
f 199 200 201
f 201 200 202
f 201 202 203
f 203 202 204
f 203 204 205
f 205 204 206
f 205 206 207
f 207 206 208
f 207 208 209
f 209 208 210
f 209 210 211
f 211 210 212
f 211 212 213
f 213 212 214
f 213 214 215
f 215 214 216
f 215 216 217
f 217 216 218
f 217 218 219
f 219 218 220
f 219 220 221
f 221 220 222
f 221 222 149
f 149 222 150
f 223 224 225
f 225 224 226
f 225 226 227
f 227 226 228
f 228 226 229
f 229 226 230
f 229 230 231
f 231 230 232
f 232 230 233
f 232 233 234
f 233 235 236
f 236 235 237
f 238 239 236
f 236 239 240
f 236 240 233
f 233 240 241
f 233 241 234
f 237 235 242
f 242 235 243
f 242 243 244
f 244 243 245
f 245 243 246
f 245 246 247
f 248 249 250
f 250 249 251
f 250 251 252
f 253 248 254
f 254 248 250
f 254 250 255
f 255 250 256
f 255 256 246
f 246 256 257
f 246 257 247
f 253 254 258
f 258 254 259
f 258 259 260
f 260 259 261
f 261 259 262
f 261 262 263
f 264 265 266
f 266 265 267
f 266 267 262
f 262 267 268
f 262 268 263
f 269 270 265
f 269 265 271
f 272 273 264
f 264 273 274
f 264 274 265
f 265 274 275
f 265 275 271
f 272 264 276
f 276 264 277
f 276 277 278
f 279 280 277
f 281 282 277
f 277 282 283
f 277 283 279
f 280 284 277
f 277 284 285
f 277 285 278
f 278 285 286
f 278 286 287
f 287 286 288
f 289 290 291
f 291 292 289
f 289 292 293
f 289 293 281
f 281 293 294
f 281 294 282
f 295 296 297
f 297 296 298
f 297 298 290
f 290 298 299
f 290 299 291
f 300 301 295
f 295 301 302
f 295 302 296
f 303 304 305
f 305 304 306
f 307 308 309
f 309 308 310
f 310 311 309
f 309 311 312
f 309 312 300
f 300 312 313
f 300 313 301
f 314 315 316
f 304 307 306
f 306 307 309
f 306 309 317
f 317 309 314
f 317 314 318
f 318 314 316
f 223 319 320
f 314 224 315
f 315 224 223
f 315 223 321
f 321 223 320
f 322 323 324
f 324 325 322
f 322 325 303
f 322 303 326
f 327 328 329
f 329 328 330
f 331 332 333
f 333 332 334
f 333 334 335
f 319 336 320
f 320 336 337
f 303 305 326
f 326 305 306
f 326 306 338
f 334 339 335
f 335 339 340
f 335 340 338
f 338 340 341
f 338 341 326
f 326 341 328
f 326 328 322
f 322 328 327
f 322 327 323
f 337 342 320
f 320 342 343
f 320 343 321
f 321 343 331
f 321 331 315
f 315 331 333
f 315 333 316
f 316 333 335
f 316 335 318
f 318 335 338
f 318 338 317
f 317 338 306
f 344 330 345
f 345 330 328
f 345 328 341
f 341 340 345
f 345 340 339
f 345 339 334
f 346 347 345
f 345 347 348
f 345 348 344
f 349 350 346
f 346 350 351
f 346 351 347
f 352 353 349
f 349 353 354
f 349 354 350
f 355 356 357
f 357 356 358
f 357 358 352
f 352 358 359
f 352 359 353
f 360 361 355
f 355 361 362
f 355 362 356
f 363 364 360
f 360 364 365
f 360 365 361
f 366 367 363
f 363 367 368
f 363 368 364
f 369 370 371
f 371 370 372
f 371 372 366
f 366 372 373
f 366 373 367
f 371 374 375
f 375 376 371
f 371 376 377
f 371 377 369
f 369 377 378
f 369 378 379
f 369 380 370
f 370 380 381
f 370 381 372
f 372 381 382
f 372 382 373
f 373 382 383
f 373 383 367
f 367 383 384
f 367 384 368
f 368 384 385
f 368 385 364
f 364 385 386
f 364 386 365
f 365 386 387
f 365 387 361
f 361 387 388
f 361 388 362
f 362 388 389
f 362 389 356
f 356 389 390
f 356 390 358
f 358 390 391
f 358 391 359
f 359 391 392
f 359 392 353
f 353 392 393
f 353 393 354
f 354 393 394
f 354 394 350
f 350 394 395
f 350 395 351
f 351 395 396
f 351 396 347
f 347 396 397
f 347 397 348
f 348 397 398
f 348 398 344
f 344 398 399
f 223 400 319
f 319 400 401
f 402 403 404
f 405 406 403
f 403 406 407
f 403 407 404
f 401 408 319
f 319 408 409
f 319 409 410
f 411 412 413
f 414 406 415
f 415 406 405
f 415 405 416
f 416 405 417
f 413 418 411
f 411 418 319
f 411 319 419
f 419 319 410
f 412 411 420
f 420 411 421
f 420 421 422
f 422 421 423
f 422 423 424
f 423 425 424
f 424 425 426
f 424 426 427
f 427 426 428
f 427 428 417
f 417 428 429
f 417 429 416
f 430 334 431
f 431 334 332
f 332 331 431
f 431 331 343
f 431 343 432
f 432 343 342
f 432 342 337
f 418 433 319
f 319 433 432
f 319 432 336
f 336 432 337
f 404 434 402
f 402 434 374
f 402 374 435
f 435 374 371
f 435 371 436
f 436 371 366
f 436 366 437
f 366 363 437
f 437 363 360
f 437 360 438
f 438 360 355
f 438 355 439
f 439 355 357
f 439 357 440
f 440 357 352
f 440 352 441
f 441 352 349
f 441 349 442
f 442 349 346
f 442 346 430
f 430 346 345
f 430 345 334
f 443 444 404
f 443 404 445
f 445 404 407
f 445 407 406
f 446 447 448
f 449 450 451
f 451 450 452
f 451 452 453
f 454 455 456
f 457 458 456
f 456 458 459
f 456 459 454
f 457 460 458
f 458 460 461
f 458 461 462
f 462 461 446
f 462 446 451
f 451 446 448
f 451 448 449
f 444 455 404
f 404 455 454
f 404 454 434
f 434 454 459
f 434 459 374
f 374 459 458
f 374 458 375
f 375 458 462
f 375 462 376
f 376 462 451
f 376 451 377
f 377 451 453
f 377 453 378
f 378 453 379
f 460 457 463
f 464 465 466
f 467 468 469
f 464 466 469
f 469 466 470
f 469 470 467
f 445 406 414
f 443 445 471
f 471 445 414
f 471 414 472
f 472 414 473
f 472 473 474
f 474 473 475
f 474 475 476
f 476 475 477
f 476 477 478
f 478 477 479
f 478 479 480
f 480 479 481
f 480 481 465
f 465 481 482
f 465 482 466
f 483 455 471
f 471 455 444
f 471 444 443
f 463 457 484
f 485 484 486
f 486 484 457
f 486 457 483
f 483 457 456
f 483 456 455
f 447 446 463
f 463 446 461
f 463 461 460
f 485 486 487
f 487 486 488
f 487 488 489
f 489 488 490
f 489 490 491
f 491 490 492
f 491 492 493
f 493 492 494
f 493 494 495
f 495 494 496
f 495 496 497
f 497 496 498
f 497 498 499
f 499 498 500
f 499 500 501
f 500 502 501
f 501 502 503
f 501 503 504
f 504 503 505
f 504 505 506
f 506 505 507
f 506 507 508
f 508 507 509
f 508 509 510
f 511 512 513
f 510 509 513
f 513 509 514
f 513 514 511
f 515 516 517
f 517 518 515
f 515 518 519
f 515 519 520
f 521 522 523
f 523 522 524
f 512 511 524
f 524 511 525
f 524 525 523
f 515 521 516
f 516 521 523
f 516 523 526
f 526 523 527
f 526 527 528
f 528 527 529
f 528 529 530
f 530 529 531
f 532 531 533
f 533 531 529
f 533 529 534
f 534 529 535
f 534 535 536
f 536 535 537
f 536 537 538
f 538 537 539
f 538 539 540
f 540 539 541
f 540 541 542
f 542 541 543
f 542 543 544
f 544 543 545
f 544 545 546
f 546 545 547
f 546 547 548
f 548 547 549
f 548 549 550
f 448 447 551
f 552 453 553
f 553 453 452
f 553 452 554
f 369 379 380
f 380 379 453
f 380 453 555
f 555 453 552
f 551 447 520
f 520 447 463
f 520 463 515
f 554 452 556
f 556 452 450
f 556 450 551
f 551 450 449
f 551 449 448
f 521 515 484
f 484 515 463
f 491 513 489
f 489 513 512
f 489 512 487
f 512 524 487
f 487 524 522
f 487 522 485
f 485 522 521
f 485 521 484
f 506 508 495
f 491 493 513
f 513 493 495
f 513 495 510
f 510 495 508
f 495 497 506
f 506 497 499
f 506 499 504
f 504 499 501
f 325 557 558
f 304 303 286
f 286 303 325
f 286 325 288
f 288 325 558
f 399 559 344
f 344 559 560
f 344 560 330
f 557 325 561
f 561 325 324
f 561 324 562
f 324 323 562
f 562 323 327
f 562 327 560
f 560 327 329
f 560 329 330
f 307 304 285
f 285 304 286
f 283 312 279
f 279 312 311
f 279 311 280
f 280 311 310
f 280 310 284
f 284 310 308
f 284 308 285
f 285 308 307
f 313 312 282
f 282 312 283
f 302 301 293
f 313 282 301
f 301 282 294
f 301 294 293
f 302 293 296
f 296 293 292
f 296 292 298
f 298 292 291
f 298 291 299
f 271 563 269
f 269 563 564
f 269 564 270
f 565 562 560
f 288 558 287
f 287 558 557
f 287 557 565
f 565 557 561
f 565 561 562
f 566 275 567
f 567 275 274
f 274 273 567
f 567 273 272
f 567 272 568
f 568 272 276
f 568 276 569
f 569 276 565
f 565 276 278
f 565 278 287
f 271 275 563
f 563 275 566
f 563 566 570
f 570 566 567
f 570 567 571
f 571 567 568
f 571 568 572
f 572 568 569
f 572 569 573
f 573 569 565
f 573 565 574
f 574 565 560
f 574 560 575
f 575 560 559
f 380 555 576
f 576 555 577
f 576 577 578
f 578 579 576
f 576 579 580
f 576 580 581
f 582 382 576
f 576 382 381
f 576 381 380
f 583 384 582
f 582 384 383
f 582 383 382
f 584 386 583
f 583 386 385
f 583 385 384
f 585 389 586
f 586 389 388
f 586 388 584
f 584 388 387
f 584 387 386
f 587 391 585
f 585 391 390
f 585 390 389
f 588 393 587
f 587 393 392
f 587 392 391
f 589 395 588
f 588 395 394
f 588 394 393
f 399 398 590
f 590 398 397
f 590 397 589
f 589 397 396
f 589 396 395
f 590 571 572
f 572 573 590
f 590 573 574
f 590 574 399
f 399 574 575
f 399 575 559
f 591 592 581
f 531 532 593
f 593 594 531
f 531 594 595
f 531 595 530
f 530 595 596
f 530 596 528
f 528 596 597
f 528 597 592
f 592 597 598
f 592 598 581
f 599 600 520
f 554 556 600
f 600 556 551
f 600 551 520
f 553 577 552
f 552 577 555
f 581 580 591
f 591 580 579
f 591 579 601
f 601 579 578
f 601 578 599
f 599 578 577
f 599 577 600
f 600 577 553
f 600 553 554
f 520 519 599
f 599 519 518
f 599 518 601
f 601 518 517
f 601 517 591
f 591 517 516
f 591 516 592
f 592 516 526
f 592 526 528
f 533 602 532
f 532 602 603
f 603 604 532
f 532 604 605
f 532 605 606
f 265 270 607
f 607 270 608
f 609 610 611
f 612 613 585
f 614 615 616
f 616 615 617
f 616 617 610
f 610 617 618
f 610 618 611
f 619 620 621
f 621 620 622
f 621 622 614
f 614 622 623
f 614 623 615
f 619 624 620
f 620 624 532
f 620 532 625
f 625 532 606
f 597 596 626
f 626 596 595
f 626 595 594
f 627 576 628
f 628 576 581
f 628 581 626
f 626 581 598
f 626 598 597
f 624 629 532
f 532 629 626
f 532 626 593
f 593 626 594
f 585 613 587
f 587 613 630
f 587 630 588
f 585 586 612
f 612 586 584
f 612 584 631
f 631 584 583
f 631 583 627
f 627 583 582
f 627 582 576
f 588 630 589
f 589 630 632
f 589 632 590
f 590 632 633
f 590 633 571
f 571 633 570
f 570 633 634
f 570 634 563
f 611 608 609
f 609 608 270
f 609 270 634
f 634 270 564
f 634 564 563
f 635 636 637
f 637 638 635
f 635 638 639
f 635 639 640
f 639 641 640
f 640 641 642
f 640 642 643
f 642 644 643
f 643 644 645
f 643 645 646
f 645 647 646
f 646 647 648
f 646 648 649
f 648 650 649
f 649 650 651
f 649 651 652
f 651 653 652
f 652 653 654
f 652 654 655
f 654 656 655
f 655 656 657
f 655 657 658
f 657 659 658
f 658 659 660
f 658 660 661
f 660 662 661
f 661 662 663
f 661 663 664
f 663 665 664
f 664 665 666
f 664 666 667
f 666 668 667
f 667 668 669
f 667 669 670
f 669 671 670
f 670 671 672
f 670 672 673
f 672 674 673
f 673 674 675
f 673 675 676
f 676 675 677
f 676 677 678
f 678 677 679
f 678 679 680
f 679 681 680
f 680 681 682
f 680 682 683
f 682 684 683
f 683 684 685
f 683 685 686
f 685 687 686
f 686 687 688
f 686 688 689
f 688 690 689
f 689 690 691
f 689 691 692
f 691 693 692
f 692 693 694
f 692 694 695
f 694 696 695
f 695 696 697
f 695 697 698
f 697 699 698
f 698 699 700
f 698 700 701
f 700 702 701
f 701 702 703
f 701 703 704
f 703 705 704
f 704 705 706
f 704 706 707
f 706 708 707
f 707 708 709
f 707 709 710
f 709 711 710
f 710 711 712
f 710 712 713
f 712 714 713
f 713 714 715
f 713 715 716
f 715 717 716
f 716 717 718
f 716 718 719
f 718 720 719
f 719 720 721
f 719 721 636
f 636 721 722
f 636 722 637
f 723 724 725
f 725 724 726
f 725 726 727
f 727 726 728
f 727 728 729
f 729 728 730
f 729 730 731
f 732 733 734
f 734 733 735
f 734 735 736
f 736 735 737
f 736 737 723
f 723 737 738
f 723 738 724
f 739 740 741
f 741 740 742
f 741 742 743
f 743 742 744
f 743 744 745
f 745 744 746
f 745 746 732
f 732 746 747
f 732 747 733
f 748 749 750
f 750 749 751
f 750 751 752
f 752 751 753
f 752 753 754
f 754 753 755
f 754 755 756
f 755 757 756
f 756 757 758
f 756 758 759
f 759 758 760
f 759 760 761
f 761 760 762
f 761 762 763
f 763 762 764
f 763 764 739
f 739 764 765
f 739 765 740
f 730 766 731
f 731 766 767
f 731 767 768
f 768 767 769
f 768 769 770
f 770 769 771
f 770 771 772
f 772 771 773
f 772 773 748
f 748 773 774
f 748 774 749
f 677 738 737
f 677 675 738
f 738 675 674
f 738 674 724
f 668 728 726
f 674 672 724
f 724 672 671
f 724 671 726
f 726 671 669
f 726 669 668
f 662 766 730
f 668 666 728
f 728 666 665
f 728 665 730
f 730 665 663
f 730 663 662
f 656 769 767
f 662 660 766
f 766 660 659
f 766 659 767
f 767 659 657
f 767 657 656
f 650 773 771
f 656 654 769
f 769 654 653
f 769 653 771
f 771 653 651
f 771 651 650
f 644 749 774
f 650 648 773
f 773 648 647
f 773 647 774
f 774 647 645
f 774 645 644
f 638 753 751
f 644 642 749
f 749 642 641
f 749 641 751
f 751 641 639
f 751 639 638
f 720 757 755
f 638 637 753
f 753 637 722
f 753 722 755
f 755 722 721
f 755 721 720
f 714 760 758
f 720 718 757
f 757 718 717
f 757 717 758
f 758 717 715
f 758 715 714
f 708 764 762
f 714 712 760
f 760 712 711
f 760 711 762
f 762 711 709
f 762 709 708
f 702 740 765
f 708 706 764
f 764 706 705
f 764 705 765
f 765 705 703
f 765 703 702
f 696 744 742
f 702 700 740
f 740 700 699
f 740 699 742
f 742 699 697
f 742 697 696
f 690 747 746
f 696 694 744
f 744 694 693
f 744 693 746
f 746 693 691
f 746 691 690
f 684 735 733
f 690 688 747
f 747 688 687
f 747 687 733
f 733 687 685
f 733 685 684
f 684 682 735
f 735 682 681
f 735 681 737
f 737 681 679
f 737 679 677
f 655 658 775
f 776 777 664
f 664 777 778
f 664 778 661
f 661 778 779
f 661 779 658
f 658 779 780
f 658 780 775
f 775 781 655
f 655 781 782
f 655 782 652
f 652 782 783
f 652 783 649
f 783 784 649
f 649 784 785
f 649 785 646
f 646 785 786
f 646 786 643
f 643 786 787
f 643 787 640
f 640 787 788
f 640 788 635
f 635 788 789
f 635 789 636
f 776 664 790
f 790 664 667
f 790 667 791
f 791 667 670
f 791 670 792
f 792 670 673
f 792 673 793
f 673 676 793
f 793 676 678
f 793 678 794
f 794 678 680
f 794 680 795
f 795 680 683
f 795 683 796
f 796 683 686
f 796 686 797
f 797 686 689
f 797 689 798
f 798 689 692
f 789 799 636
f 636 799 800
f 636 800 719
f 719 800 801
f 719 801 716
f 716 801 802
f 716 802 713
f 713 802 803
f 713 803 710
f 710 803 804
f 710 804 707
f 707 804 805
f 707 805 704
f 704 805 806
f 704 806 701
f 701 806 807
f 701 807 698
f 698 807 808
f 698 808 695
f 695 808 809
f 695 809 692
f 692 809 810
f 692 810 798
f 786 785 811
f 787 812 788
f 788 812 813
f 788 813 789
f 789 813 814
f 789 814 799
f 799 814 815
f 799 815 800
f 800 815 816
f 800 816 801
f 801 816 817
f 801 817 802
f 802 817 818
f 802 818 803
f 803 818 819
f 803 819 804
f 804 819 820
f 804 820 805
f 805 820 821
f 805 821 806
f 806 821 822
f 806 822 807
f 807 822 823
f 807 823 808
f 808 823 824
f 808 824 809
f 809 824 825
f 809 825 810
f 810 825 826
f 810 826 798
f 798 826 827
f 798 827 797
f 797 827 828
f 797 828 796
f 796 828 829
f 796 829 795
f 795 829 830
f 795 830 794
f 794 830 831
f 794 831 793
f 793 831 832
f 793 832 792
f 792 832 833
f 792 833 791
f 791 833 834
f 791 834 790
f 790 834 835
f 790 835 776
f 776 835 836
f 776 836 777
f 812 837 813
f 813 837 838
f 813 838 814
f 814 838 839
f 814 839 815
f 815 839 840
f 815 840 816
f 816 840 841
f 816 841 817
f 817 841 842
f 817 842 818
f 818 842 843
f 818 843 819
f 819 843 844
f 819 844 820
f 820 844 845
f 820 845 821
f 821 845 846
f 821 846 822
f 822 846 847
f 822 847 823
f 823 847 848
f 823 848 824
f 824 848 849
f 824 849 825
f 825 849 850
f 825 850 826
f 826 850 851
f 826 851 827
f 827 851 852
f 827 852 828
f 828 852 853
f 828 853 829
f 829 853 854
f 829 854 830
f 830 854 855
f 830 855 831
f 831 855 856
f 831 856 832
f 832 856 857
f 832 857 833
f 833 857 858
f 833 858 834
f 834 858 859
f 834 859 835
f 835 859 860
f 835 860 836
f 836 860 861
f 777 836 862
f 862 836 861
f 862 861 863
f 863 861 464
f 863 464 469
f 858 476 859
f 859 476 478
f 859 478 860
f 860 478 480
f 860 480 861
f 861 480 465
f 861 465 464
f 855 483 856
f 856 483 471
f 856 471 857
f 857 471 472
f 857 472 858
f 858 472 474
f 858 474 476
f 852 492 853
f 853 492 490
f 853 490 854
f 854 490 488
f 854 488 855
f 855 488 486
f 855 486 483
f 849 500 850
f 850 500 498
f 850 498 851
f 851 498 496
f 851 496 852
f 852 496 494
f 852 494 492
f 846 507 847
f 847 507 505
f 847 505 848
f 848 505 503
f 848 503 849
f 849 503 502
f 849 502 500
f 843 525 844
f 844 525 511
f 844 511 845
f 845 511 514
f 845 514 846
f 846 514 509
f 846 509 507
f 840 535 841
f 841 535 529
f 841 529 842
f 842 529 527
f 842 527 843
f 843 527 523
f 843 523 525
f 547 837 864
f 864 837 812
f 864 812 865
f 865 812 787
f 865 787 786
f 547 545 837
f 837 545 543
f 837 543 838
f 838 543 541
f 838 541 839
f 839 541 539
f 839 539 840
f 840 539 537
f 840 537 535
f 786 811 865
f 865 811 866
f 865 866 864
f 864 866 549
f 864 549 547
f 267 265 607
f 608 867 868
f 608 868 258
f 258 868 869
f 258 869 253
f 253 869 870
f 253 870 248
f 871 872 608
f 608 872 873
f 608 873 867
f 618 874 611
f 611 874 875
f 611 875 608
f 608 875 876
f 608 876 871
f 617 877 618
f 618 877 878
f 618 878 874
f 615 879 617
f 617 879 880
f 617 880 877
f 623 881 615
f 615 881 882
f 615 882 879
f 622 883 623
f 623 883 884
f 623 884 881
f 620 885 622
f 622 885 886
f 622 886 883
f 625 887 620
f 620 887 888
f 620 888 885
f 606 889 625
f 625 889 890
f 625 890 887
f 605 891 606
f 606 891 892
f 606 892 889
f 604 893 605
f 605 893 894
f 605 894 891
f 603 895 896
f 896 897 603
f 603 897 898
f 603 898 604
f 604 898 899
f 604 899 893
f 544 546 900
f 602 538 603
f 603 538 540
f 603 540 542
f 900 901 544
f 544 901 902
f 544 902 542
f 542 902 903
f 542 903 603
f 603 903 904
f 603 904 895
f 533 534 602
f 602 534 536
f 602 536 538
f 267 607 268
f 258 260 608
f 608 260 261
f 608 261 607
f 607 261 263
f 607 263 268
f 896 895 905
f 901 900 906
f 895 904 905
f 905 904 903
f 905 903 906
f 906 903 902
f 906 902 901
f 907 898 908
f 908 898 897
f 546 548 900
f 900 548 909
f 900 909 906
f 906 909 908
f 906 908 905
f 905 908 897
f 905 897 896
f 910 907 911
f 911 907 908
f 911 908 912
f 912 908 909
f 912 909 550
f 550 909 548
f 913 914 915
f 915 914 916
f 550 549 917
f 917 549 915
f 917 915 918
f 918 915 916
f 918 916 919
f 919 916 920
f 919 920 921
f 921 920 922
f 921 922 923
f 923 922 924
f 924 922 925
f 926 927 928
f 928 927 929
f 924 925 930
f 930 925 931
f 930 931 932
f 933 934 935
f 935 934 936
f 935 936 937
f 933 926 934
f 934 926 928
f 934 928 931
f 931 928 938
f 931 938 932
f 929 927 939
f 939 927 940
f 939 940 941
f 942 943 940
f 940 943 944
f 940 944 941
f 945 946 942
f 942 946 947
f 942 947 943
f 945 948 946
f 946 948 949
f 946 949 950
f 951 952 953
f 954 955 956
f 956 955 957
f 956 957 958
f 951 958 952
f 952 958 957
f 952 957 959
f 959 957 955
f 959 955 960
f 960 955 961
f 960 961 962
f 962 961 963
f 962 963 964
f 964 963 965
f 964 965 966
f 966 965 967
f 967 965 968
f 967 968 969
f 969 968 970
f 969 970 971
f 914 971 916
f 916 971 970
f 916 970 920
f 920 970 968
f 920 968 922
f 922 968 965
f 922 965 925
f 925 965 963
f 925 963 931
f 931 963 961
f 931 961 934
f 934 961 955
f 934 955 936
f 936 955 954
f 936 954 937
f 972 876 875
f 973 974 881
f 881 974 882
f 882 974 975
f 882 975 879
f 879 975 976
f 879 976 880
f 977 978 979
f 979 978 980
f 979 980 981
f 982 983 984
f 984 983 985
f 982 986 983
f 983 986 987
f 983 987 988
f 988 987 989
f 988 989 990
f 990 989 991
f 990 991 977
f 977 991 992
f 977 992 978
f 993 994 995
f 995 994 996
f 996 994 997
f 997 994 998
f 997 998 999
f 1000 1001 1002
f 1002 1001 1003
f 1002 1003 1004
f 1004 1003 1005
f 1004 1005 996
f 996 1005 1006
f 996 1006 995
f 946 950 1007
f 1007 950 1008
f 1008 950 1009
f 1008 1009 1010
f 1010 1009 1011
f 1010 1011 1000
f 1000 1011 1012
f 1000 1012 1001
f 891 1013 892
f 892 1013 1014
f 892 1014 889
f 899 898 907
f 907 910 899
f 899 910 1015
f 899 1015 893
f 893 1015 1016
f 893 1016 894
f 894 1016 1017
f 894 1017 891
f 891 1017 1018
f 891 1018 1013
f 1019 1020 1021
f 972 875 1021
f 1021 875 874
f 1021 874 1019
f 976 1022 880
f 880 1022 1023
f 880 1023 877
f 877 1023 1024
f 877 1024 878
f 878 1024 1025
f 878 1025 874
f 874 1025 1026
f 874 1026 1019
f 980 1027 981
f 981 1027 1028
f 981 1028 1029
f 1029 1028 973
f 1029 973 1030
f 1030 973 881
f 1030 881 1031
f 1031 881 884
f 1031 884 1032
f 1032 884 883
f 1032 883 1033
f 1033 883 886
f 1033 886 1034
f 1034 886 885
f 1034 885 1035
f 1035 885 888
f 1035 888 1007
f 1007 888 887
f 1007 887 946
f 946 887 890
f 946 890 1036
f 1036 890 889
f 1036 889 1037
f 1037 889 1014
f 939 941 1038
f 1038 941 944
f 946 1036 947
f 947 1036 943
f 1038 1039 939
f 939 1039 1040
f 939 1040 929
f 929 1040 1041
f 929 1041 928
f 928 1042 938
f 938 1042 1043
f 938 1043 932
f 923 1044 1045
f 1045 1044 930
f 1045 930 932
f 923 1045 1046
f 1046 1045 1047
f 1046 1047 1048
f 1048 1047 1049
f 1048 1049 1050
f 1051 1052 1049
f 1049 1052 1053
f 1049 1053 1050
f 910 1052 1015
f 1015 1052 1051
f 1015 1051 1016
f 932 1043 1045
f 1045 1043 1042
f 1045 1042 1047
f 1047 1042 1054
f 1047 1054 1049
f 1049 1054 1055
f 1049 1055 1051
f 1051 1055 1017
f 1051 1017 1016
f 928 1041 1042
f 1042 1041 1040
f 1042 1040 1054
f 1054 1040 1039
f 1054 1039 1055
f 1055 1039 1018
f 1055 1018 1017
f 943 1036 944
f 944 1036 1037
f 944 1037 1038
f 1038 1037 1014
f 1038 1014 1039
f 1039 1014 1013
f 1039 1013 1018
f 1056 1057 247
f 256 250 1058
f 242 244 1059
f 247 1057 245
f 245 1057 1060
f 245 1060 1061
f 256 1058 257
f 1059 1062 242
f 242 1062 1063
f 242 1063 237
f 237 1063 1064
f 237 1064 236
f 1065 1066 1067
f 1067 1066 1068
f 1067 1068 1069
f 1058 1070 257
f 257 1070 1071
f 257 1071 247
f 247 1071 1072
f 247 1072 1056
f 1061 1067 245
f 245 1067 1069
f 245 1069 244
f 244 1069 1073
f 244 1073 1059
f 973 1074 974
f 974 1074 1075
f 974 1075 1076
f 1065 1067 1077
f 1077 1067 1078
f 1077 1078 1079
f 1079 1078 1080
f 1079 1080 1081
f 1081 1080 1082
f 1081 1082 1083
f 1083 1082 1084
f 1083 1084 1076
f 1076 1084 1085
f 1076 1085 974
f 1086 1087 1088
f 1082 1080 1089
f 1089 1080 1078
f 1060 1086 1090
f 1060 1090 1061
f 1091 1089 1092
f 1092 1089 1078
f 1092 1078 1093
f 1093 1078 1067
f 1061 1094 1067
f 1067 1094 1095
f 1067 1095 1093
f 1093 1095 1096
f 1093 1096 1092
f 1092 1096 1097
f 1092 1097 1091
f 1091 1097 1025
f 974 1085 975
f 975 1085 1084
f 975 1084 976
f 976 1084 1082
f 976 1082 1022
f 1022 1082 1089
f 1022 1089 1023
f 1023 1089 1091
f 1023 1091 1024
f 1024 1091 1025
f 1098 1019 1026
f 1061 1090 1094
f 1094 1090 1099
f 1094 1099 1095
f 1095 1099 1100
f 1095 1100 1096
f 1096 1100 1098
f 1096 1098 1097
f 1097 1098 1026
f 1097 1026 1025
f 1086 1088 1090
f 1090 1088 1101
f 1090 1101 1099
f 1099 1101 1102
f 1099 1102 1100
f 1100 1102 1103
f 1100 1103 1098
f 1098 1103 1020
f 1098 1020 1019
f 1101 1104 1105
f 1104 1101 1088
f 1106 1107 1108
f 1107 1106 1109
f 1109 1020 1107
f 1107 1020 1103
f 1107 1103 1108
f 1108 1103 1102
f 1108 1102 1110
f 1102 1101 1110
f 1110 1101 1105
f 1110 1105 1108
f 1108 1105 1111
f 1108 1111 1106
f 1088 1087 1104
f 1104 1087 1112
f 1104 1112 1105
f 1105 1112 1113
f 1105 1113 1111
f 1111 1113 1114
f 1111 1114 1106
f 1106 1114 252
f 1115 1116 1117
f 868 1118 869
f 867 873 1119
f 871 876 972
f 872 871 1115
f 249 248 1120
f 1120 248 870
f 870 869 1120
f 1120 869 1118
f 1120 1118 1119
f 1119 1118 868
f 1119 868 867
f 871 972 1115
f 1115 972 1021
f 1115 1021 1116
f 251 249 1117
f 1117 249 1120
f 1117 1120 1115
f 1115 1120 1119
f 1115 1119 872
f 872 1119 873
f 252 251 1106
f 1106 251 1117
f 1106 1117 1109
f 1109 1117 1116
f 1109 1116 1020
f 1020 1116 1021
f 1113 1070 1114
f 1114 1070 1058
f 1114 1058 252
f 252 1058 250
f 1112 1087 1057
f 1057 1056 1112
f 1112 1056 1072
f 1112 1072 1113
f 1113 1072 1071
f 1113 1071 1070
f 1069 1121 1073
f 1073 1121 1122
f 1123 1062 1122
f 1122 1062 1059
f 1122 1059 1073
f 238 236 1124
f 1124 236 1064
f 1124 1064 1123
f 1123 1064 1063
f 1123 1063 1062
f 1125 986 1126
f 1127 1128 1129
f 1129 1128 1125
f 1129 1125 1130
f 1130 1125 1131
f 1127 1129 1132
f 1132 1129 1133
f 1132 1133 1134
f 1125 1126 1131
f 1131 1126 1135
f 1131 1135 1130
f 1130 1135 1136
f 1130 1136 1129
f 1129 1136 1137
f 1129 1137 1133
f 1135 238 1136
f 1136 238 1124
f 1136 1124 1137
f 1137 1124 1123
f 1137 1123 1133
f 1133 1123 1122
f 1133 1122 1134
f 1134 1122 1121
f 1138 1139 1140
f 1140 1139 1141
f 1140 1141 1142
f 1143 1144 1145
f 1145 1144 1146
f 1145 1146 1147
f 1126 986 982
f 1135 1126 1148
f 1126 982 1148
f 1148 982 984
f 1148 984 1145
f 1145 984 985
f 1145 985 1143
f 1147 1138 1145
f 1145 1138 1140
f 1145 1140 1148
f 1148 1140 1149
f 1148 1149 1135
f 1135 1149 238
f 238 1149 239
f 239 1149 1140
f 239 1140 240
f 240 1140 1142
f 240 1142 241
f 987 986 1125
f 1081 1083 1150
f 1150 1083 1076
f 973 1028 1074
f 1074 1028 1075
f 1150 1151 1081
f 1081 1151 1152
f 1081 1152 1079
f 1079 1152 1153
f 1079 1153 1077
f 1077 1154 1065
f 1065 1154 1155
f 1065 1155 1066
f 1156 1068 1157
f 1157 1068 1066
f 1075 1028 1076
f 1076 1028 1027
f 1076 1027 1150
f 1150 1027 980
f 1150 980 1151
f 1151 980 978
f 1151 978 992
f 989 987 1158
f 1158 987 1125
f 1158 1125 1159
f 1159 1125 1128
f 1077 1153 1154
f 1154 1153 1152
f 1154 1152 1160
f 1160 1152 1151
f 1160 1151 1161
f 1161 1151 992
f 1161 992 991
f 1066 1155 1157
f 1157 1155 1154
f 1157 1154 1162
f 1162 1154 1160
f 1162 1160 1159
f 1159 1160 1161
f 1159 1161 1158
f 1158 1161 991
f 1158 991 989
f 1128 1127 1159
f 1159 1127 1132
f 1159 1132 1162
f 1162 1132 1134
f 1162 1134 1157
f 1157 1134 1121
f 1157 1121 1156
f 1121 1069 1156
f 1156 1069 1068
f 477 475 415
f 415 475 473
f 415 473 414
f 416 1163 1164
f 1165 466 482
f 477 415 479
f 479 415 416
f 479 416 481
f 481 416 1164
f 481 1164 482
f 482 1164 1166
f 482 1166 1165
f 1167 1168 416
f 416 1168 1169
f 416 1169 1163
f 428 996 429
f 429 996 997
f 429 997 416
f 416 997 999
f 416 999 1167
f 426 1002 428
f 428 1002 1004
f 428 1004 996
f 425 1010 426
f 426 1010 1000
f 426 1000 1002
f 423 1007 425
f 425 1007 1008
f 425 1008 1010
f 421 1034 423
f 423 1034 1035
f 423 1035 1007
f 411 1032 421
f 421 1032 1033
f 421 1033 1034
f 419 1030 411
f 411 1030 1031
f 411 1031 1032
f 410 981 419
f 419 981 1029
f 419 1029 1030
f 409 977 410
f 410 977 979
f 410 979 981
f 408 988 409
f 409 988 990
f 409 990 977
f 401 1146 1144
f 1144 1143 401
f 401 1143 985
f 401 985 408
f 408 985 983
f 408 983 988
f 1141 232 1142
f 1142 232 234
f 1142 234 241
f 401 231 232
f 1141 1139 232
f 232 1139 1138
f 232 1138 401
f 401 1138 1147
f 401 1147 1146
f 400 223 225
f 225 227 400
f 400 227 228
f 400 228 401
f 401 228 229
f 401 229 231
f 1006 1005 1170
f 945 942 1171
f 1171 942 940
f 926 1172 927
f 1172 926 1173
f 1173 926 933
f 1173 933 1174
f 950 949 1009
f 1009 949 948
f 1009 948 1011
f 1011 948 945
f 1011 945 1012
f 1012 945 1171
f 1012 1171 1001
f 1175 993 1176
f 1176 993 995
f 1176 995 1006
f 1005 1003 1177
f 1006 1170 1176
f 1176 1170 1178
f 1176 1178 1179
f 1179 1178 1180
f 1179 1180 1181
f 1005 1177 1170
f 1170 1177 1182
f 1170 1182 1178
f 1178 1182 1183
f 1178 1183 1180
f 1003 1001 1177
f 1177 1001 1171
f 1177 1171 1182
f 1182 1171 940
f 1182 940 1183
f 1183 940 927
f 1183 927 1180
f 1180 927 1172
f 1180 1172 1181
f 1181 1172 1173
f 1175 1176 1184
f 1184 1176 1179
f 1184 1179 1185
f 1185 1179 1181
f 1185 1181 1186
f 1186 1181 1173
f 1186 1173 1187
f 1187 1173 1174
f 1187 1174 1188
f 1187 1189 1186
f 1186 1189 1190
f 1191 1175 1192
f 1192 1175 1184
f 1192 1184 1193
f 1193 1184 1185
f 1192 1194 1191
f 1191 1194 1195
f 1191 1195 1175
f 1175 1195 993
f 1187 1188 1189
f 1189 1188 1196
f 1189 1196 1190
f 1197 1198 1199
f 1199 1198 1190
f 1199 1190 1200
f 1200 1190 1196
f 1185 1186 1193
f 1193 1186 1190
f 1193 1190 1192
f 1192 1190 1198
f 1192 1198 1194
f 1194 1198 1197
f 1194 1197 468
f 1163 1169 1201
f 1201 1169 1168
f 1201 1168 1167
f 1164 1202 1166
f 1166 1202 1165
f 1194 468 467
f 1195 1194 1203
f 1194 467 1203
f 1203 467 470
f 1203 470 1202
f 1202 470 466
f 1202 466 1165
f 1164 1163 1202
f 1202 1163 1201
f 1202 1201 1203
f 1203 1201 1204
f 1203 1204 1195
f 1195 1204 993
f 993 1204 994
f 994 1204 1201
f 994 1201 998
f 998 1201 1167
f 998 1167 999
f 953 1205 1206
f 1188 935 1196
f 1196 935 937
f 953 1206 951
f 937 954 1196
f 1196 954 956
f 1196 956 1200
f 1200 956 958
f 1200 958 1199
f 958 951 1199
f 1199 951 1206
f 1199 1206 1197
f 1197 1206 469
f 1197 469 468
f 933 935 1174
f 1174 935 1188
f 1060 1057 1086
f 1086 1057 1087
f 923 924 1044
f 1044 924 930
f 919 921 1207
f 1208 912 550
f 1050 1053 1209
f 1209 1053 1052
f 1209 1052 1210
f 1210 1052 1211
f 1050 1209 1048
f 1048 1209 1207
f 1048 1207 1046
f 1046 1207 921
f 1046 921 923
f 919 1212 918
f 918 1212 1208
f 918 1208 917
f 917 1208 550
f 919 1207 1212
f 1212 1207 1209
f 1212 1209 1208
f 1208 1209 1210
f 1208 1210 912
f 912 1210 1211
f 912 1211 911
f 911 1211 1052
f 911 1052 910
f 1213 1214 1215
f 1215 1214 1216
f 1215 1216 1217
f 1217 1216 1218
f 1217 1218 1219
f 1219 1218 1220
f 1219 1220 1221
f 1221 1220 1222
f 1221 1222 1223
f 1223 1222 1224
f 1223 1224 1225
f 1225 1224 1226
f 1225 1226 1227
f 1227 1226 1228
f 1227 1228 1229
f 1229 1228 1230
f 1229 1230 1231
f 1231 1230 1232
f 1231 1232 1233
f 1233 1232 1234
f 1233 1234 1235
f 1235 1234 1236
f 1235 1236 1237
f 1237 1236 1238
f 1237 1238 1239
f 1239 1238 1240
f 1239 1240 1241
f 1241 1240 1242
f 1241 1242 1243
f 1243 1242 1244
f 1243 1244 1245
f 1245 1244 1246
f 1245 1246 1247
f 1247 1246 1248
f 1247 1248 1249
f 1249 1248 1250
f 1249 1250 1251
f 1251 1250 1252
f 1251 1252 1253
f 1253 1252 1254
f 1253 1254 1255
f 1255 1254 1256
f 1255 1256 1257
f 1257 1256 1258
f 1257 1258 1259
f 1259 1258 1260
f 1259 1260 1261
f 1261 1260 1262
f 1261 1262 1263
f 1263 1262 1264
f 1263 1264 1265
f 1265 1264 1266
f 1265 1266 1267
f 1267 1266 1268
f 1267 1268 1269
f 1269 1268 1270
f 1269 1270 1271
f 1271 1270 1272
f 1271 1272 1273
f 1273 1272 1274
f 1273 1274 1275
f 1275 1274 1276
f 1275 1276 1277
f 1277 1276 1278
f 1277 1278 1279
f 1279 1278 1280
f 1279 1280 1281
f 1281 1280 1282
f 1281 1282 1283
f 1283 1282 1284
f 1283 1284 1285
f 1285 1284 1286
f 1285 1286 1287
f 1287 1286 1213
f 1287 1213 1215
f 1288 1289 1290
f 1290 1289 1291
f 1290 1291 1292
f 1292 1291 1293
f 1292 1293 1294
f 1294 1293 1295
f 1294 1295 1296
f 1296 1295 1297
f 1296 1297 1298
f 1298 1297 1299
f 1298 1299 1300
f 1300 1299 1301
f 1300 1301 1302
f 1302 1301 1303
f 1302 1303 1304
f 1304 1303 1305
f 1304 1305 1306
f 1306 1305 1307
f 1306 1307 1308
f 1308 1307 1309
f 1308 1309 1310
f 1310 1309 1311
f 1310 1311 1312
f 1312 1311 1313
f 1312 1313 1314
f 1314 1313 1315
f 1314 1315 1316
f 1316 1315 1317
f 1316 1317 1318
f 1318 1317 1319
f 1318 1319 1320
f 1320 1319 1321
f 1320 1321 1322
f 1322 1321 1323
f 1322 1323 1324
f 1324 1323 1325
f 1324 1325 1326
f 1326 1325 1327
f 1326 1327 1328
f 1328 1327 1329
f 1328 1329 1330
f 1330 1329 1288
f 1330 1288 1290

